<svg version="1.1" xmlns="http://www.w3.org/2000/svg" xmlns:xlink="http://www.w3.org/1999/xlink" width="701" height="384"><defs><clipPath id="tENoEDkFvAfU"><path fill="none" stroke="none" d=" M 0 0 L 701 0 L 701 384 L 0 384 L 0 0 Z"/></clipPath></defs><g transform="scale(1,1)" clip-path="url(#tENoEDkFvAfU)"><g><rect fill="rgb(255,255,255)" stroke="none" x="0" y="0" width="701" height="384" fill-opacity="1"/><path fill="none" stroke="rgb(192,192,192)" paint-order="fill stroke markers" d=" M 141.5 0.5 L 141.5 349.5 M 216.5 0.5 L 216.5 349.5 M 292.5 0.5 L 292.5 349.5 M 368.5 0.5 L 368.5 349.5 M 443.5 0.5 L 443.5 349.5 M 519.5 0.5 L 519.5 349.5 M 595.5 0.5 L 595.5 349.5 M 670.5 0.5 L 670.5 349.5" stroke-opacity="1" stroke-linecap="round" stroke-linejoin="round" stroke-miterlimit="10"/><path fill="none" stroke="rgb(192,192,192)" paint-order="fill stroke markers" d=" M 80.5 0.5 L 80.5 349.5 M 95.5 0.5 L 95.5 349.5 M 111.5 0.5 L 111.5 349.5 M 126.5 0.5 L 126.5 349.5 M 156.5 0.5 L 156.5 349.5 M 171.5 0.5 L 171.5 349.5 M 186.5 0.5 L 186.5 349.5 M 201.5 0.5 L 201.5 349.5 M 232.5 0.5 L 232.5 349.5 M 247.5 0.5 L 247.5 349.5 M 262.5 0.5 L 262.5 349.5 M 277.5 0.5 L 277.5 349.5 M 307.5 0.5 L 307.5 349.5 M 322.5 0.5 L 322.5 349.5 M 338.5 0.5 L 338.5 349.5 M 353.5 0.5 L 353.5 349.5 M 383.5 0.5 L 383.5 349.5 M 398.5 0.5 L 398.5 349.5 M 413.5 0.5 L 413.5 349.5 M 428.5 0.5 L 428.5 349.5 M 459.5 0.5 L 459.5 349.5 M 474.5 0.5 L 474.5 349.5 M 489.5 0.5 L 489.5 349.5 M 504.5 0.5 L 504.5 349.5 M 534.5 0.5 L 534.5 349.5 M 549.5 0.5 L 549.5 349.5 M 565.5 0.5 L 565.5 349.5 M 580.5 0.5 L 580.5 349.5 M 610.5 0.5 L 610.5 349.5 M 625.5 0.5 L 625.5 349.5 M 640.5 0.5 L 640.5 349.5 M 655.5 0.5 L 655.5 349.5 M 686.5 0.5 L 686.5 349.5" stroke-opacity="0.23529411764705882" stroke-linecap="round" stroke-linejoin="round" stroke-miterlimit="10"/><path fill="none" stroke="rgb(192,192,192)" paint-order="fill stroke markers" d=" M 65.5 23.5 L 701.5 23.5 M 65.5 23.5 L 701.5 23.5 M 65.5 88.5 L 701.5 88.5 M 65.5 153.5 L 701.5 153.5 M 65.5 218.5 L 701.5 218.5 M 65.5 284.5 L 701.5 284.5" stroke-opacity="1" stroke-linecap="round" stroke-linejoin="round" stroke-miterlimit="10"/><path fill="none" stroke="rgb(192,192,192)" paint-order="fill stroke markers" d=" M 65.5 10.5 L 701.5 10.5 M 65.5 10.5 L 701.5 10.5 M 65.5 36.5 L 701.5 36.5 M 65.5 49.5 L 701.5 49.5 M 65.5 62.5 L 701.5 62.5 M 65.5 75.5 L 701.5 75.5 M 65.5 101.5 L 701.5 101.5 M 65.5 114.5 L 701.5 114.5 M 65.5 127.5 L 701.5 127.5 M 65.5 140.5 L 701.5 140.5 M 65.5 166.5 L 701.5 166.5 M 65.5 179.5 L 701.5 179.5 M 65.5 192.5 L 701.5 192.5 M 65.5 205.5 L 701.5 205.5 M 65.5 231.5 L 701.5 231.5 M 65.5 244.5 L 701.5 244.5 M 65.5 257.5 L 701.5 257.5 M 65.5 270.5 L 701.5 270.5 M 65.5 297.5 L 701.5 297.5 M 65.5 310.5 L 701.5 310.5 M 65.5 323.5 L 701.5 323.5 M 65.5 336.5 L 701.5 336.5" stroke-opacity="0.23529411764705882" stroke-linecap="round" stroke-linejoin="round" stroke-miterlimit="10"/><path fill="none" stroke="rgb(37,37,37)" paint-order="fill stroke markers" d=" M 66 3 L 66 349" stroke-opacity="1" stroke-miterlimit="10" stroke-width="2"/><path fill="none" stroke="rgb(37,37,37)" paint-order="fill stroke markers" d=" M 66 2 L 58 10" stroke-opacity="1" stroke-miterlimit="10" stroke-width="2"/><path fill="none" stroke="rgb(37,37,37)" paint-order="fill stroke markers" d=" M 66 2 L 74 10" stroke-opacity="1" stroke-miterlimit="10" stroke-width="2"/><path fill="none" stroke="rgb(37,37,37)" paint-order="fill stroke markers" d=" M 65 349 L 698 349" stroke-opacity="1" stroke-miterlimit="10" stroke-width="2"/><path fill="none" stroke="rgb(37,37,37)" paint-order="fill stroke markers" d=" M 699 349 L 691 341" stroke-opacity="1" stroke-miterlimit="10" stroke-width="2"/><path fill="none" stroke="rgb(37,37,37)" paint-order="fill stroke markers" d=" M 699 349 L 691 357" stroke-opacity="1" stroke-miterlimit="10" stroke-width="2"/><text fill="rgb(37,37,37)" stroke="none" font-family="geogebra-sans-serif, sans-serif" font-size="21px" font-style="normal" font-weight="normal" text-decoration="normal" x="131" y="374" text-anchor="start" dominant-baseline="alphabetic" fill-opacity="1">10</text><text fill="none" stroke="rgb(255,255,255)" font-family="geogebra-sans-serif, sans-serif" font-size="21px" font-style="normal" font-weight="normal" text-decoration="normal" x="131" y="374" text-anchor="start" dominant-baseline="alphabetic" stroke-opacity="1" stroke-linejoin="bevel" stroke-miterlimit="10" stroke-width="3">10</text><text fill="rgb(37,37,37)" stroke="none" font-family="geogebra-sans-serif, sans-serif" font-size="21px" font-style="normal" font-weight="normal" text-decoration="normal" x="131" y="374" text-anchor="start" dominant-baseline="alphabetic" fill-opacity="1">10</text><text fill="rgb(37,37,37)" stroke="none" font-family="geogebra-sans-serif, sans-serif" font-size="21px" font-style="normal" font-weight="normal" text-decoration="normal" x="207" y="374" text-anchor="start" dominant-baseline="alphabetic" fill-opacity="1">20</text><text fill="none" stroke="rgb(255,255,255)" font-family="geogebra-sans-serif, sans-serif" font-size="21px" font-style="normal" font-weight="normal" text-decoration="normal" x="207" y="374" text-anchor="start" dominant-baseline="alphabetic" stroke-opacity="1" stroke-linejoin="bevel" stroke-miterlimit="10" stroke-width="3">20</text><text fill="rgb(37,37,37)" stroke="none" font-family="geogebra-sans-serif, sans-serif" font-size="21px" font-style="normal" font-weight="normal" text-decoration="normal" x="207" y="374" text-anchor="start" dominant-baseline="alphabetic" fill-opacity="1">20</text><text fill="rgb(37,37,37)" stroke="none" font-family="geogebra-sans-serif, sans-serif" font-size="21px" font-style="normal" font-weight="normal" text-decoration="normal" x="283" y="374" text-anchor="start" dominant-baseline="alphabetic" fill-opacity="1">30</text><text fill="none" stroke="rgb(255,255,255)" font-family="geogebra-sans-serif, sans-serif" font-size="21px" font-style="normal" font-weight="normal" text-decoration="normal" x="283" y="374" text-anchor="start" dominant-baseline="alphabetic" stroke-opacity="1" stroke-linejoin="bevel" stroke-miterlimit="10" stroke-width="3">30</text><text fill="rgb(37,37,37)" stroke="none" font-family="geogebra-sans-serif, sans-serif" font-size="21px" font-style="normal" font-weight="normal" text-decoration="normal" x="283" y="374" text-anchor="start" dominant-baseline="alphabetic" fill-opacity="1">30</text><text fill="rgb(37,37,37)" stroke="none" font-family="geogebra-sans-serif, sans-serif" font-size="21px" font-style="normal" font-weight="normal" text-decoration="normal" x="358" y="374" text-anchor="start" dominant-baseline="alphabetic" fill-opacity="1">40</text><text fill="none" stroke="rgb(255,255,255)" font-family="geogebra-sans-serif, sans-serif" font-size="21px" font-style="normal" font-weight="normal" text-decoration="normal" x="358" y="374" text-anchor="start" dominant-baseline="alphabetic" stroke-opacity="1" stroke-linejoin="bevel" stroke-miterlimit="10" stroke-width="3">40</text><text fill="rgb(37,37,37)" stroke="none" font-family="geogebra-sans-serif, sans-serif" font-size="21px" font-style="normal" font-weight="normal" text-decoration="normal" x="358" y="374" text-anchor="start" dominant-baseline="alphabetic" fill-opacity="1">40</text><text fill="rgb(37,37,37)" stroke="none" font-family="geogebra-sans-serif, sans-serif" font-size="21px" font-style="normal" font-weight="normal" text-decoration="normal" x="434" y="374" text-anchor="start" dominant-baseline="alphabetic" fill-opacity="1">50</text><text fill="none" stroke="rgb(255,255,255)" font-family="geogebra-sans-serif, sans-serif" font-size="21px" font-style="normal" font-weight="normal" text-decoration="normal" x="434" y="374" text-anchor="start" dominant-baseline="alphabetic" stroke-opacity="1" stroke-linejoin="bevel" stroke-miterlimit="10" stroke-width="3">50</text><text fill="rgb(37,37,37)" stroke="none" font-family="geogebra-sans-serif, sans-serif" font-size="21px" font-style="normal" font-weight="normal" text-decoration="normal" x="434" y="374" text-anchor="start" dominant-baseline="alphabetic" fill-opacity="1">50</text><text fill="rgb(37,37,37)" stroke="none" font-family="geogebra-sans-serif, sans-serif" font-size="21px" font-style="normal" font-weight="normal" text-decoration="normal" x="510" y="374" text-anchor="start" dominant-baseline="alphabetic" fill-opacity="1">60</text><text fill="none" stroke="rgb(255,255,255)" font-family="geogebra-sans-serif, sans-serif" font-size="21px" font-style="normal" font-weight="normal" text-decoration="normal" x="510" y="374" text-anchor="start" dominant-baseline="alphabetic" stroke-opacity="1" stroke-linejoin="bevel" stroke-miterlimit="10" stroke-width="3">60</text><text fill="rgb(37,37,37)" stroke="none" font-family="geogebra-sans-serif, sans-serif" font-size="21px" font-style="normal" font-weight="normal" text-decoration="normal" x="510" y="374" text-anchor="start" dominant-baseline="alphabetic" fill-opacity="1">60</text><text fill="rgb(37,37,37)" stroke="none" font-family="geogebra-sans-serif, sans-serif" font-size="21px" font-style="normal" font-weight="normal" text-decoration="normal" x="585" y="374" text-anchor="start" dominant-baseline="alphabetic" fill-opacity="1">70</text><text fill="none" stroke="rgb(255,255,255)" font-family="geogebra-sans-serif, sans-serif" font-size="21px" font-style="normal" font-weight="normal" text-decoration="normal" x="585" y="374" text-anchor="start" dominant-baseline="alphabetic" stroke-opacity="1" stroke-linejoin="bevel" stroke-miterlimit="10" stroke-width="3">70</text><text fill="rgb(37,37,37)" stroke="none" font-family="geogebra-sans-serif, sans-serif" font-size="21px" font-style="normal" font-weight="normal" text-decoration="normal" x="585" y="374" text-anchor="start" dominant-baseline="alphabetic" fill-opacity="1">70</text><text fill="rgb(37,37,37)" stroke="none" font-family="geogebra-sans-serif, sans-serif" font-size="21px" font-style="normal" font-weight="normal" text-decoration="normal" x="661" y="374" text-anchor="start" dominant-baseline="alphabetic" fill-opacity="1">80</text><text fill="none" stroke="rgb(255,255,255)" font-family="geogebra-sans-serif, sans-serif" font-size="21px" font-style="normal" font-weight="normal" text-decoration="normal" x="661" y="374" text-anchor="start" dominant-baseline="alphabetic" stroke-opacity="1" stroke-linejoin="bevel" stroke-miterlimit="10" stroke-width="3">80</text><text fill="rgb(37,37,37)" stroke="none" font-family="geogebra-sans-serif, sans-serif" font-size="21px" font-style="normal" font-weight="normal" text-decoration="normal" x="661" y="374" text-anchor="start" dominant-baseline="alphabetic" fill-opacity="1">80</text><text fill="rgb(37,37,37)" stroke="none" font-family="geogebra-sans-serif, sans-serif" font-size="21px" font-style="normal" font-weight="normal" text-decoration="normal" x="9" y="293" text-anchor="start" dominant-baseline="alphabetic" fill-opacity="1">0.01</text><text fill="none" stroke="rgb(255,255,255)" font-family="geogebra-sans-serif, sans-serif" font-size="21px" font-style="normal" font-weight="normal" text-decoration="normal" x="9" y="293" text-anchor="start" dominant-baseline="alphabetic" stroke-opacity="1" stroke-linejoin="bevel" stroke-miterlimit="10" stroke-width="3">0.01</text><text fill="rgb(37,37,37)" stroke="none" font-family="geogebra-sans-serif, sans-serif" font-size="21px" font-style="normal" font-weight="normal" text-decoration="normal" x="9" y="293" text-anchor="start" dominant-baseline="alphabetic" fill-opacity="1">0.01</text><text fill="rgb(37,37,37)" stroke="none" font-family="geogebra-sans-serif, sans-serif" font-size="21px" font-style="normal" font-weight="normal" text-decoration="normal" x="9" y="228" text-anchor="start" dominant-baseline="alphabetic" fill-opacity="1">0.02</text><text fill="none" stroke="rgb(255,255,255)" font-family="geogebra-sans-serif, sans-serif" font-size="21px" font-style="normal" font-weight="normal" text-decoration="normal" x="9" y="228" text-anchor="start" dominant-baseline="alphabetic" stroke-opacity="1" stroke-linejoin="bevel" stroke-miterlimit="10" stroke-width="3">0.02</text><text fill="rgb(37,37,37)" stroke="none" font-family="geogebra-sans-serif, sans-serif" font-size="21px" font-style="normal" font-weight="normal" text-decoration="normal" x="9" y="228" text-anchor="start" dominant-baseline="alphabetic" fill-opacity="1">0.02</text><text fill="rgb(37,37,37)" stroke="none" font-family="geogebra-sans-serif, sans-serif" font-size="21px" font-style="normal" font-weight="normal" text-decoration="normal" x="9" y="163" text-anchor="start" dominant-baseline="alphabetic" fill-opacity="1">0.03</text><text fill="none" stroke="rgb(255,255,255)" font-family="geogebra-sans-serif, sans-serif" font-size="21px" font-style="normal" font-weight="normal" text-decoration="normal" x="9" y="163" text-anchor="start" dominant-baseline="alphabetic" stroke-opacity="1" stroke-linejoin="bevel" stroke-miterlimit="10" stroke-width="3">0.03</text><text fill="rgb(37,37,37)" stroke="none" font-family="geogebra-sans-serif, sans-serif" font-size="21px" font-style="normal" font-weight="normal" text-decoration="normal" x="9" y="163" text-anchor="start" dominant-baseline="alphabetic" fill-opacity="1">0.03</text><text fill="rgb(37,37,37)" stroke="none" font-family="geogebra-sans-serif, sans-serif" font-size="21px" font-style="normal" font-weight="normal" text-decoration="normal" x="9" y="98" text-anchor="start" dominant-baseline="alphabetic" fill-opacity="1">0.04</text><text fill="none" stroke="rgb(255,255,255)" font-family="geogebra-sans-serif, sans-serif" font-size="21px" font-style="normal" font-weight="normal" text-decoration="normal" x="9" y="98" text-anchor="start" dominant-baseline="alphabetic" stroke-opacity="1" stroke-linejoin="bevel" stroke-miterlimit="10" stroke-width="3">0.04</text><text fill="rgb(37,37,37)" stroke="none" font-family="geogebra-sans-serif, sans-serif" font-size="21px" font-style="normal" font-weight="normal" text-decoration="normal" x="9" y="98" text-anchor="start" dominant-baseline="alphabetic" fill-opacity="1">0.04</text><text fill="rgb(37,37,37)" stroke="none" font-family="geogebra-sans-serif, sans-serif" font-size="21px" font-style="normal" font-weight="normal" text-decoration="normal" x="9" y="33" text-anchor="start" dominant-baseline="alphabetic" fill-opacity="1">0.05</text><text fill="none" stroke="rgb(255,255,255)" font-family="geogebra-sans-serif, sans-serif" font-size="21px" font-style="normal" font-weight="normal" text-decoration="normal" x="9" y="33" text-anchor="start" dominant-baseline="alphabetic" stroke-opacity="1" stroke-linejoin="bevel" stroke-miterlimit="10" stroke-width="3">0.05</text><text fill="rgb(37,37,37)" stroke="none" font-family="geogebra-sans-serif, sans-serif" font-size="21px" font-style="normal" font-weight="normal" text-decoration="normal" x="9" y="33" text-anchor="start" dominant-baseline="alphabetic" fill-opacity="1">0.05</text><text fill="rgb(37,37,37)" stroke="none" font-family="geogebra-sans-serif, sans-serif" font-size="21px" font-style="normal" font-weight="normal" text-decoration="normal" x="43" y="374" text-anchor="start" dominant-baseline="alphabetic" fill-opacity="1">0</text><text fill="none" stroke="rgb(255,255,255)" font-family="geogebra-sans-serif, sans-serif" font-size="21px" font-style="normal" font-weight="normal" text-decoration="normal" x="43" y="374" text-anchor="start" dominant-baseline="alphabetic" stroke-opacity="1" stroke-linejoin="bevel" stroke-miterlimit="10" stroke-width="3">0</text><text fill="rgb(37,37,37)" stroke="none" font-family="geogebra-sans-serif, sans-serif" font-size="21px" font-style="normal" font-weight="normal" text-decoration="normal" x="43" y="374" text-anchor="start" dominant-baseline="alphabetic" fill-opacity="1">0</text><path fill="none" stroke="rgb(0,100,0)" paint-order="fill stroke markers" d=" M 65.61818174250975 23.999999837497796 L 65.71875 24.215891072424654 M 65.71875 24.215891072424654 L 68.45703125 30.039401956993117 L 71.1953125 35.75849492796766 L 73.93359375 41.37504224091629 L 76.671875 46.890882581104904 L 79.41015625 52.30782166542639 L 82.1484375 57.62763283353678 L 84.88671875 62.852057628392686 L 87.625 67.98280636637821 M 87.625 67.98280636637821 L 93.1015625 77.9699641538075 L 98.578125 87.60218522230758 L 104.0546875 96.89208377875548 L 109.53125 105.8518257297915 L 115.0078125 114.49314461410117 L 120.484375 122.82735696847513 L 125.9609375 130.86537714776955 L 131.4375 138.61773161817575 L 136.9140625 146.09457274251608 L 142.390625 153.3056920756208 L 147.8671875 160.2605331871958 L 153.34375 166.96820402897455 L 158.8203125 173.4374888623502 L 164.296875 179.67685976210728 L 169.7734375 185.69448771131948 L 175.25 191.49825330194165 M 175.25 191.49825330194165 L 180.7265625 197.09575705511068 L 186.203125 202.49432937466963 L 191.67968750000003 207.70104014695048 L 197.15625 212.72270799938755 L 202.63281250000003 217.5659092300857 L 208.10937500000003 222.23698642003805 L 213.58593750000003 226.74205673927156 L 219.06250000000003 231.0870199577975 L 224.5390625 235.27756617185872 L 230.01562500000003 239.31918325559093 L 235.4921875 243.21716404785758 L 240.96875 246.976613283669 L 246.44531250000003 250.6024542792643 L 251.92187500000003 254.09943537960933 L 257.3984375 257.4721361767557 L 262.875 260.72497350720346 L 268.3515625 263.86220723612064 L 273.828125 266.8879458359975 L 279.3046875 269.8061517670375 L 284.78125 272.6206466663335 L 290.2578125 275.33511635262494 L 295.734375 277.95311565318775 L 301.2109375 280.4780730591817 L 306.6875 282.9132952155487 L 312.1640625 285.2619712513434 L 317.640625 287.5271769561675 L 323.1171875 289.7118788081756 L 328.59375000000006 291.8189378589288 L 334.07031250000006 293.8511134801836 L 339.546875 295.811066977522 L 345.0234375 297.70136507555605 L 350.50000000000006 299.5244832792703 M 350.50000000000006 299.5244832792703 L 355.97656250000006 301.28280911590485 L 361.453125 302.97864526162357 L 366.92968750000006 304.6142125570634 L 372.40625000000006 306.1916529157122 L 377.88281250000006 307.7130321289259 L 383.359375 309.1803425712561 L 388.83593750000006 310.5955058096334 L 394.31250000000006 311.9603751198211 L 399.78906250000006 313.2767379134366 L 405.26562500000006 314.54631807871766 L 410.74218750000006 315.77077823809987 L 416.21875 316.95172192556066 L 421.6953125 318.09069568658305 L 427.17187500000006 319.1891911034871 L 432.64843750000006 320.2486467487831 L 438.12500000000006 321.27045006910373 L 443.60156250000006 322.2559392021826 L 449.07812500000006 323.2064047292587 L 454.55468750000006 324.1230913652011 L 460.03125 325.0071995885688 L 465.50781250000006 325.8598872137384 L 470.98437500000006 326.6822709071597 L 476.46093750000006 327.475427649725 L 481.93750000000006 328.24039614716656 L 487.41406250000006 328.97817819032895 L 492.890625 329.6897399670994 L 498.3671875 330.37601332771203 L 503.84375000000006 331.0378970050845 L 509.32031250000006 331.67625779178485 L 514.796875 332.2919316751693 L 520.2734375000001 332.8857249321783 L 525.75 333.4584151852245 L 531.2265625 334.0107524205548 L 536.703125 334.54345997042077 L 542.1796875 335.05723546034307 L 547.65625 335.55275172271126 L 553.1328125 336.0306576779145 L 558.6093750000001 336.4915791841578 L 564.0859375 336.93611985707565 L 569.5625 337.3648618602184 L 575.0390625 337.77836666744395 L 580.515625 338.1771757982156 L 585.9921875000001 338.56181152676737 L 591.4687500000001 338.9327775660661 L 596.9453125000001 339.29055972746625 L 602.4218750000001 339.635626556921 L 607.8984375000001 339.9684299485824 L 613.375 340.28940573659537 L 618.8515625 340.5989742658588 L 624.3281250000001 340.8975409425032 L 629.8046875000001 341.18549676480393 L 635.28125 341.4632188352266 L 640.7578125 341.7310708542744 L 646.234375 341.989403596785 L 651.7109375 342.2385553712995 L 657.1875 342.4788524631061 L 662.6640625000001 342.7106095615382 L 668.1406250000001 342.93413017208695 L 673.6171875000001 343.1497070138668 L 679.0937500000001 343.35762240295645 L 684.5703125000001 343.55814862211514 L 690.0468750000001 343.7515482773602 L 695.5234375 343.9380746418717 L 701.0000000000001 344.11797198767516" stroke-opacity="0.6980392156862745" stroke-linecap="round" stroke-linejoin="round" stroke-miterlimit="10" stroke-width="2.5"/></g></g></svg>