<svg version="1.1" xmlns="http://www.w3.org/2000/svg" xmlns:xlink="http://www.w3.org/1999/xlink" width="892" height="541"><defs><clipPath id="bxALabpAOTFk"><path fill="none" stroke="none" d=" M 0 0 L 892 0 L 892 541 L 0 541 L 0 0 Z"/></clipPath></defs><g transform="scale(1,1)" clip-path="url(#bxALabpAOTFk)"><g><rect fill="rgb(255,255,255)" stroke="none" x="0" y="0" width="892" height="541" fill-opacity="1"/><path fill="none" stroke="rgb(192,192,192)" paint-order="fill stroke markers" d=" M 23.5 0.5 L 23.5 541.5 M 23.5 0.5 L 23.5 541.5 M 124.5 0.5 L 124.5 541.5 M 175.5 0.5 L 175.5 541.5 M 226.5 0.5 L 226.5 541.5 M 276.5 0.5 L 276.5 541.5 M 327.5 0.5 L 327.5 541.5 M 378.5 0.5 L 378.5 541.5 M 429.5 0.5 L 429.5 541.5 M 479.5 0.5 L 479.5 541.5 M 530.5 0.5 L 530.5 541.5 M 581.5 0.5 L 581.5 541.5 M 632.5 0.5 L 632.5 541.5 M 682.5 0.5 L 682.5 541.5 M 733.5 0.5 L 733.5 541.5 M 784.5 0.5 L 784.5 541.5 M 835.5 0.5 L 835.5 541.5 M 885.5 0.5 L 885.5 541.5" stroke-opacity="1" stroke-linecap="round" stroke-linejoin="round" stroke-miterlimit="10"/><path fill="none" stroke="rgb(192,192,192)" paint-order="fill stroke markers" d=" M 2.5 0.5 L 2.5 541.5 M 13.5 0.5 L 13.5 541.5 M 33.5 0.5 L 33.5 541.5 M 43.5 0.5 L 43.5 541.5 M 53.5 0.5 L 53.5 541.5 M 63.5 0.5 L 63.5 541.5 M 84.5 0.5 L 84.5 541.5 M 94.5 0.5 L 94.5 541.5 M 104.5 0.5 L 104.5 541.5 M 114.5 0.5 L 114.5 541.5 M 134.5 0.5 L 134.5 541.5 M 145.5 0.5 L 145.5 541.5 M 155.5 0.5 L 155.5 541.5 M 165.5 0.5 L 165.5 541.5 M 185.5 0.5 L 185.5 541.5 M 195.5 0.5 L 195.5 541.5 M 205.5 0.5 L 205.5 541.5 M 216.5 0.5 L 216.5 541.5 M 236.5 0.5 L 236.5 541.5 M 246.5 0.5 L 246.5 541.5 M 256.5 0.5 L 256.5 541.5 M 266.5 0.5 L 266.5 541.5 M 287.5 0.5 L 287.5 541.5 M 297.5 0.5 L 297.5 541.5 M 307.5 0.5 L 307.5 541.5 M 317.5 0.5 L 317.5 541.5 M 337.5 0.5 L 337.5 541.5 M 347.5 0.5 L 347.5 541.5 M 358.5 0.5 L 358.5 541.5 M 368.5 0.5 L 368.5 541.5 M 388.5 0.5 L 388.5 541.5 M 398.5 0.5 L 398.5 541.5 M 408.5 0.5 L 408.5 541.5 M 419.5 0.5 L 419.5 541.5 M 439.5 0.5 L 439.5 541.5 M 449.5 0.5 L 449.5 541.5 M 459.5 0.5 L 459.5 541.5 M 469.5 0.5 L 469.5 541.5 M 490.5 0.5 L 490.5 541.5 M 500.5 0.5 L 500.5 541.5 M 510.5 0.5 L 510.5 541.5 M 520.5 0.5 L 520.5 541.5 M 540.5 0.5 L 540.5 541.5 M 550.5 0.5 L 550.5 541.5 M 561.5 0.5 L 561.5 541.5 M 571.5 0.5 L 571.5 541.5 M 591.5 0.5 L 591.5 541.5 M 601.5 0.5 L 601.5 541.5 M 611.5 0.5 L 611.5 541.5 M 621.5 0.5 L 621.5 541.5 M 642.5 0.5 L 642.5 541.5 M 652.5 0.5 L 652.5 541.5 M 662.5 0.5 L 662.5 541.5 M 672.5 0.5 L 672.5 541.5 M 693.5 0.5 L 693.5 541.5 M 703.5 0.5 L 703.5 541.5 M 713.5 0.5 L 713.5 541.5 M 723.5 0.5 L 723.5 541.5 M 743.5 0.5 L 743.5 541.5 M 753.5 0.5 L 753.5 541.5 M 764.5 0.5 L 764.5 541.5 M 774.5 0.5 L 774.5 541.5 M 794.5 0.5 L 794.5 541.5 M 804.5 0.5 L 804.5 541.5 M 814.5 0.5 L 814.5 541.5 M 824.5 0.5 L 824.5 541.5 M 845.5 0.5 L 845.5 541.5 M 855.5 0.5 L 855.5 541.5 M 865.5 0.5 L 865.5 541.5 M 875.5 0.5 L 875.5 541.5" stroke-opacity="0.23529411764705882" stroke-linecap="round" stroke-linejoin="round" stroke-miterlimit="10"/><path fill="none" stroke="rgb(192,192,192)" paint-order="fill stroke markers" d=" M 0.5 46.5 L 892.5 46.5 M 0.5 46.5 L 892.5 46.5 M 0.5 128.5 L 892.5 128.5 M 0.5 210.5 L 892.5 210.5 M 0.5 293.5 L 892.5 293.5 M 0.5 375.5 L 892.5 375.5 M 0.5 539.5 L 892.5 539.5" stroke-opacity="1" stroke-linecap="round" stroke-linejoin="round" stroke-miterlimit="10"/><path fill="none" stroke="rgb(192,192,192)" paint-order="fill stroke markers" d=" M 0.5 13.5 L 892.5 13.5 M 0.5 13.5 L 892.5 13.5 M 0.5 29.5 L 892.5 29.5 M 0.5 62.5 L 892.5 62.5 M 0.5 79.5 L 892.5 79.5 M 0.5 95.5 L 892.5 95.5 M 0.5 112.5 L 892.5 112.5 M 0.5 144.5 L 892.5 144.5 M 0.5 161.5 L 892.5 161.5 M 0.5 177.5 L 892.5 177.5 M 0.5 194.5 L 892.5 194.5 M 0.5 227.5 L 892.5 227.5 M 0.5 243.5 L 892.5 243.5 M 0.5 260.5 L 892.5 260.5 M 0.5 276.5 L 892.5 276.5 M 0.5 309.5 L 892.5 309.5 M 0.5 325.5 L 892.5 325.5 M 0.5 342.5 L 892.5 342.5 M 0.5 358.5 L 892.5 358.5 M 0.5 391.5 L 892.5 391.5 M 0.5 408.5 L 892.5 408.5 M 0.5 424.5 L 892.5 424.5 M 0.5 441.5 L 892.5 441.5 M 0.5 473.5 L 892.5 473.5 M 0.5 490.5 L 892.5 490.5 M 0.5 506.5 L 892.5 506.5 M 0.5 523.5 L 892.5 523.5" stroke-opacity="0.23529411764705882" stroke-linecap="round" stroke-linejoin="round" stroke-miterlimit="10"/><path fill="none" stroke="rgb(0,0,0)" paint-order="fill stroke markers" d=" M 74.5 2.5 L 74.5 541.5" stroke-opacity="1" stroke-miterlimit="10"/><path fill="none" stroke="rgb(0,0,0)" paint-order="fill stroke markers" d=" M 74.5 1.5 L 70.5 5.5" stroke-opacity="1" stroke-miterlimit="10"/><path fill="none" stroke="rgb(0,0,0)" paint-order="fill stroke markers" d=" M 74.5 1.5 L 78.5 5.5" stroke-opacity="1" stroke-miterlimit="10"/><path fill="none" stroke="rgb(0,0,0)" paint-order="fill stroke markers" d=" M 0.5 457.5 L 890.5 457.5" stroke-opacity="1" stroke-miterlimit="10"/><path fill="none" stroke="rgb(0,0,0)" paint-order="fill stroke markers" d=" M 891.5 457.5 L 887.5 453.5" stroke-opacity="1" stroke-miterlimit="10"/><path fill="none" stroke="rgb(0,0,0)" paint-order="fill stroke markers" d=" M 891.5 457.5 L 887.5 461.5" stroke-opacity="1" stroke-miterlimit="10"/><text fill="rgb(0,0,0)" stroke="none" font-family="geogebra-sans-serif, sans-serif" font-size="12px" font-style="normal" font-weight="normal" text-decoration="normal" x="9" y="473" text-anchor="start" dominant-baseline="alphabetic" fill-opacity="1">–5000</text><text fill="none" stroke="rgb(255,255,255)" font-family="geogebra-sans-serif, sans-serif" font-size="12px" font-style="normal" font-weight="normal" text-decoration="normal" x="9" y="473" text-anchor="start" dominant-baseline="alphabetic" stroke-opacity="1" stroke-linejoin="bevel" stroke-miterlimit="10" stroke-width="3">–5000</text><text fill="rgb(0,0,0)" stroke="none" font-family="geogebra-sans-serif, sans-serif" font-size="12px" font-style="normal" font-weight="normal" text-decoration="normal" x="9" y="473" text-anchor="start" dominant-baseline="alphabetic" fill-opacity="1">–5000</text><text fill="rgb(0,0,0)" stroke="none" font-family="geogebra-sans-serif, sans-serif" font-size="12px" font-style="normal" font-weight="normal" text-decoration="normal" x="113" y="473" text-anchor="start" dominant-baseline="alphabetic" fill-opacity="1">5000</text><text fill="none" stroke="rgb(255,255,255)" font-family="geogebra-sans-serif, sans-serif" font-size="12px" font-style="normal" font-weight="normal" text-decoration="normal" x="113" y="473" text-anchor="start" dominant-baseline="alphabetic" stroke-opacity="1" stroke-linejoin="bevel" stroke-miterlimit="10" stroke-width="3">5000</text><text fill="rgb(0,0,0)" stroke="none" font-family="geogebra-sans-serif, sans-serif" font-size="12px" font-style="normal" font-weight="normal" text-decoration="normal" x="113" y="473" text-anchor="start" dominant-baseline="alphabetic" fill-opacity="1">5000</text><text fill="rgb(0,0,0)" stroke="none" font-family="geogebra-sans-serif, sans-serif" font-size="12px" font-style="normal" font-weight="normal" text-decoration="normal" x="161" y="473" text-anchor="start" dominant-baseline="alphabetic" fill-opacity="1">10000</text><text fill="none" stroke="rgb(255,255,255)" font-family="geogebra-sans-serif, sans-serif" font-size="12px" font-style="normal" font-weight="normal" text-decoration="normal" x="161" y="473" text-anchor="start" dominant-baseline="alphabetic" stroke-opacity="1" stroke-linejoin="bevel" stroke-miterlimit="10" stroke-width="3">10000</text><text fill="rgb(0,0,0)" stroke="none" font-family="geogebra-sans-serif, sans-serif" font-size="12px" font-style="normal" font-weight="normal" text-decoration="normal" x="161" y="473" text-anchor="start" dominant-baseline="alphabetic" fill-opacity="1">10000</text><text fill="rgb(0,0,0)" stroke="none" font-family="geogebra-sans-serif, sans-serif" font-size="12px" font-style="normal" font-weight="normal" text-decoration="normal" x="212" y="473" text-anchor="start" dominant-baseline="alphabetic" fill-opacity="1">15000</text><text fill="none" stroke="rgb(255,255,255)" font-family="geogebra-sans-serif, sans-serif" font-size="12px" font-style="normal" font-weight="normal" text-decoration="normal" x="212" y="473" text-anchor="start" dominant-baseline="alphabetic" stroke-opacity="1" stroke-linejoin="bevel" stroke-miterlimit="10" stroke-width="3">15000</text><text fill="rgb(0,0,0)" stroke="none" font-family="geogebra-sans-serif, sans-serif" font-size="12px" font-style="normal" font-weight="normal" text-decoration="normal" x="212" y="473" text-anchor="start" dominant-baseline="alphabetic" fill-opacity="1">15000</text><text fill="rgb(0,0,0)" stroke="none" font-family="geogebra-sans-serif, sans-serif" font-size="12px" font-style="normal" font-weight="normal" text-decoration="normal" x="262" y="473" text-anchor="start" dominant-baseline="alphabetic" fill-opacity="1">20000</text><text fill="none" stroke="rgb(255,255,255)" font-family="geogebra-sans-serif, sans-serif" font-size="12px" font-style="normal" font-weight="normal" text-decoration="normal" x="262" y="473" text-anchor="start" dominant-baseline="alphabetic" stroke-opacity="1" stroke-linejoin="bevel" stroke-miterlimit="10" stroke-width="3">20000</text><text fill="rgb(0,0,0)" stroke="none" font-family="geogebra-sans-serif, sans-serif" font-size="12px" font-style="normal" font-weight="normal" text-decoration="normal" x="262" y="473" text-anchor="start" dominant-baseline="alphabetic" fill-opacity="1">20000</text><text fill="rgb(0,0,0)" stroke="none" font-family="geogebra-sans-serif, sans-serif" font-size="12px" font-style="normal" font-weight="normal" text-decoration="normal" x="313" y="473" text-anchor="start" dominant-baseline="alphabetic" fill-opacity="1">25000</text><text fill="none" stroke="rgb(255,255,255)" font-family="geogebra-sans-serif, sans-serif" font-size="12px" font-style="normal" font-weight="normal" text-decoration="normal" x="313" y="473" text-anchor="start" dominant-baseline="alphabetic" stroke-opacity="1" stroke-linejoin="bevel" stroke-miterlimit="10" stroke-width="3">25000</text><text fill="rgb(0,0,0)" stroke="none" font-family="geogebra-sans-serif, sans-serif" font-size="12px" font-style="normal" font-weight="normal" text-decoration="normal" x="313" y="473" text-anchor="start" dominant-baseline="alphabetic" fill-opacity="1">25000</text><text fill="rgb(0,0,0)" stroke="none" font-family="geogebra-sans-serif, sans-serif" font-size="12px" font-style="normal" font-weight="normal" text-decoration="normal" x="364" y="473" text-anchor="start" dominant-baseline="alphabetic" fill-opacity="1">30000</text><text fill="none" stroke="rgb(255,255,255)" font-family="geogebra-sans-serif, sans-serif" font-size="12px" font-style="normal" font-weight="normal" text-decoration="normal" x="364" y="473" text-anchor="start" dominant-baseline="alphabetic" stroke-opacity="1" stroke-linejoin="bevel" stroke-miterlimit="10" stroke-width="3">30000</text><text fill="rgb(0,0,0)" stroke="none" font-family="geogebra-sans-serif, sans-serif" font-size="12px" font-style="normal" font-weight="normal" text-decoration="normal" x="364" y="473" text-anchor="start" dominant-baseline="alphabetic" fill-opacity="1">30000</text><text fill="rgb(0,0,0)" stroke="none" font-family="geogebra-sans-serif, sans-serif" font-size="12px" font-style="normal" font-weight="normal" text-decoration="normal" x="415" y="473" text-anchor="start" dominant-baseline="alphabetic" fill-opacity="1">35000</text><text fill="none" stroke="rgb(255,255,255)" font-family="geogebra-sans-serif, sans-serif" font-size="12px" font-style="normal" font-weight="normal" text-decoration="normal" x="415" y="473" text-anchor="start" dominant-baseline="alphabetic" stroke-opacity="1" stroke-linejoin="bevel" stroke-miterlimit="10" stroke-width="3">35000</text><text fill="rgb(0,0,0)" stroke="none" font-family="geogebra-sans-serif, sans-serif" font-size="12px" font-style="normal" font-weight="normal" text-decoration="normal" x="415" y="473" text-anchor="start" dominant-baseline="alphabetic" fill-opacity="1">35000</text><text fill="rgb(0,0,0)" stroke="none" font-family="geogebra-sans-serif, sans-serif" font-size="12px" font-style="normal" font-weight="normal" text-decoration="normal" x="465" y="473" text-anchor="start" dominant-baseline="alphabetic" fill-opacity="1">40000</text><text fill="none" stroke="rgb(255,255,255)" font-family="geogebra-sans-serif, sans-serif" font-size="12px" font-style="normal" font-weight="normal" text-decoration="normal" x="465" y="473" text-anchor="start" dominant-baseline="alphabetic" stroke-opacity="1" stroke-linejoin="bevel" stroke-miterlimit="10" stroke-width="3">40000</text><text fill="rgb(0,0,0)" stroke="none" font-family="geogebra-sans-serif, sans-serif" font-size="12px" font-style="normal" font-weight="normal" text-decoration="normal" x="465" y="473" text-anchor="start" dominant-baseline="alphabetic" fill-opacity="1">40000</text><text fill="rgb(0,0,0)" stroke="none" font-family="geogebra-sans-serif, sans-serif" font-size="12px" font-style="normal" font-weight="normal" text-decoration="normal" x="516" y="473" text-anchor="start" dominant-baseline="alphabetic" fill-opacity="1">45000</text><text fill="none" stroke="rgb(255,255,255)" font-family="geogebra-sans-serif, sans-serif" font-size="12px" font-style="normal" font-weight="normal" text-decoration="normal" x="516" y="473" text-anchor="start" dominant-baseline="alphabetic" stroke-opacity="1" stroke-linejoin="bevel" stroke-miterlimit="10" stroke-width="3">45000</text><text fill="rgb(0,0,0)" stroke="none" font-family="geogebra-sans-serif, sans-serif" font-size="12px" font-style="normal" font-weight="normal" text-decoration="normal" x="516" y="473" text-anchor="start" dominant-baseline="alphabetic" fill-opacity="1">45000</text><text fill="rgb(0,0,0)" stroke="none" font-family="geogebra-sans-serif, sans-serif" font-size="12px" font-style="normal" font-weight="normal" text-decoration="normal" x="567" y="473" text-anchor="start" dominant-baseline="alphabetic" fill-opacity="1">50000</text><text fill="none" stroke="rgb(255,255,255)" font-family="geogebra-sans-serif, sans-serif" font-size="12px" font-style="normal" font-weight="normal" text-decoration="normal" x="567" y="473" text-anchor="start" dominant-baseline="alphabetic" stroke-opacity="1" stroke-linejoin="bevel" stroke-miterlimit="10" stroke-width="3">50000</text><text fill="rgb(0,0,0)" stroke="none" font-family="geogebra-sans-serif, sans-serif" font-size="12px" font-style="normal" font-weight="normal" text-decoration="normal" x="567" y="473" text-anchor="start" dominant-baseline="alphabetic" fill-opacity="1">50000</text><text fill="rgb(0,0,0)" stroke="none" font-family="geogebra-sans-serif, sans-serif" font-size="12px" font-style="normal" font-weight="normal" text-decoration="normal" x="618" y="473" text-anchor="start" dominant-baseline="alphabetic" fill-opacity="1">55000</text><text fill="none" stroke="rgb(255,255,255)" font-family="geogebra-sans-serif, sans-serif" font-size="12px" font-style="normal" font-weight="normal" text-decoration="normal" x="618" y="473" text-anchor="start" dominant-baseline="alphabetic" stroke-opacity="1" stroke-linejoin="bevel" stroke-miterlimit="10" stroke-width="3">55000</text><text fill="rgb(0,0,0)" stroke="none" font-family="geogebra-sans-serif, sans-serif" font-size="12px" font-style="normal" font-weight="normal" text-decoration="normal" x="618" y="473" text-anchor="start" dominant-baseline="alphabetic" fill-opacity="1">55000</text><text fill="rgb(0,0,0)" stroke="none" font-family="geogebra-sans-serif, sans-serif" font-size="12px" font-style="normal" font-weight="normal" text-decoration="normal" x="668" y="473" text-anchor="start" dominant-baseline="alphabetic" fill-opacity="1">60000</text><text fill="none" stroke="rgb(255,255,255)" font-family="geogebra-sans-serif, sans-serif" font-size="12px" font-style="normal" font-weight="normal" text-decoration="normal" x="668" y="473" text-anchor="start" dominant-baseline="alphabetic" stroke-opacity="1" stroke-linejoin="bevel" stroke-miterlimit="10" stroke-width="3">60000</text><text fill="rgb(0,0,0)" stroke="none" font-family="geogebra-sans-serif, sans-serif" font-size="12px" font-style="normal" font-weight="normal" text-decoration="normal" x="668" y="473" text-anchor="start" dominant-baseline="alphabetic" fill-opacity="1">60000</text><text fill="rgb(0,0,0)" stroke="none" font-family="geogebra-sans-serif, sans-serif" font-size="12px" font-style="normal" font-weight="normal" text-decoration="normal" x="719" y="473" text-anchor="start" dominant-baseline="alphabetic" fill-opacity="1">65000</text><text fill="none" stroke="rgb(255,255,255)" font-family="geogebra-sans-serif, sans-serif" font-size="12px" font-style="normal" font-weight="normal" text-decoration="normal" x="719" y="473" text-anchor="start" dominant-baseline="alphabetic" stroke-opacity="1" stroke-linejoin="bevel" stroke-miterlimit="10" stroke-width="3">65000</text><text fill="rgb(0,0,0)" stroke="none" font-family="geogebra-sans-serif, sans-serif" font-size="12px" font-style="normal" font-weight="normal" text-decoration="normal" x="719" y="473" text-anchor="start" dominant-baseline="alphabetic" fill-opacity="1">65000</text><text fill="rgb(0,0,0)" stroke="none" font-family="geogebra-sans-serif, sans-serif" font-size="12px" font-style="normal" font-weight="normal" text-decoration="normal" x="770" y="473" text-anchor="start" dominant-baseline="alphabetic" fill-opacity="1">70000</text><text fill="none" stroke="rgb(255,255,255)" font-family="geogebra-sans-serif, sans-serif" font-size="12px" font-style="normal" font-weight="normal" text-decoration="normal" x="770" y="473" text-anchor="start" dominant-baseline="alphabetic" stroke-opacity="1" stroke-linejoin="bevel" stroke-miterlimit="10" stroke-width="3">70000</text><text fill="rgb(0,0,0)" stroke="none" font-family="geogebra-sans-serif, sans-serif" font-size="12px" font-style="normal" font-weight="normal" text-decoration="normal" x="770" y="473" text-anchor="start" dominant-baseline="alphabetic" fill-opacity="1">70000</text><text fill="rgb(0,0,0)" stroke="none" font-family="geogebra-sans-serif, sans-serif" font-size="12px" font-style="normal" font-weight="normal" text-decoration="normal" x="821" y="473" text-anchor="start" dominant-baseline="alphabetic" fill-opacity="1">75000</text><text fill="none" stroke="rgb(255,255,255)" font-family="geogebra-sans-serif, sans-serif" font-size="12px" font-style="normal" font-weight="normal" text-decoration="normal" x="821" y="473" text-anchor="start" dominant-baseline="alphabetic" stroke-opacity="1" stroke-linejoin="bevel" stroke-miterlimit="10" stroke-width="3">75000</text><text fill="rgb(0,0,0)" stroke="none" font-family="geogebra-sans-serif, sans-serif" font-size="12px" font-style="normal" font-weight="normal" text-decoration="normal" x="821" y="473" text-anchor="start" dominant-baseline="alphabetic" fill-opacity="1">75000</text><text fill="rgb(0,0,0)" stroke="none" font-family="geogebra-sans-serif, sans-serif" font-size="12px" font-style="normal" font-weight="normal" text-decoration="normal" x="44" y="380" text-anchor="start" dominant-baseline="alphabetic" fill-opacity="1">200</text><text fill="none" stroke="rgb(255,255,255)" font-family="geogebra-sans-serif, sans-serif" font-size="12px" font-style="normal" font-weight="normal" text-decoration="normal" x="44" y="380" text-anchor="start" dominant-baseline="alphabetic" stroke-opacity="1" stroke-linejoin="bevel" stroke-miterlimit="10" stroke-width="3">200</text><text fill="rgb(0,0,0)" stroke="none" font-family="geogebra-sans-serif, sans-serif" font-size="12px" font-style="normal" font-weight="normal" text-decoration="normal" x="44" y="380" text-anchor="start" dominant-baseline="alphabetic" fill-opacity="1">200</text><text fill="rgb(0,0,0)" stroke="none" font-family="geogebra-sans-serif, sans-serif" font-size="12px" font-style="normal" font-weight="normal" text-decoration="normal" x="44" y="298" text-anchor="start" dominant-baseline="alphabetic" fill-opacity="1">400</text><text fill="none" stroke="rgb(255,255,255)" font-family="geogebra-sans-serif, sans-serif" font-size="12px" font-style="normal" font-weight="normal" text-decoration="normal" x="44" y="298" text-anchor="start" dominant-baseline="alphabetic" stroke-opacity="1" stroke-linejoin="bevel" stroke-miterlimit="10" stroke-width="3">400</text><text fill="rgb(0,0,0)" stroke="none" font-family="geogebra-sans-serif, sans-serif" font-size="12px" font-style="normal" font-weight="normal" text-decoration="normal" x="44" y="298" text-anchor="start" dominant-baseline="alphabetic" fill-opacity="1">400</text><text fill="rgb(0,0,0)" stroke="none" font-family="geogebra-sans-serif, sans-serif" font-size="12px" font-style="normal" font-weight="normal" text-decoration="normal" x="44" y="215" text-anchor="start" dominant-baseline="alphabetic" fill-opacity="1">600</text><text fill="none" stroke="rgb(255,255,255)" font-family="geogebra-sans-serif, sans-serif" font-size="12px" font-style="normal" font-weight="normal" text-decoration="normal" x="44" y="215" text-anchor="start" dominant-baseline="alphabetic" stroke-opacity="1" stroke-linejoin="bevel" stroke-miterlimit="10" stroke-width="3">600</text><text fill="rgb(0,0,0)" stroke="none" font-family="geogebra-sans-serif, sans-serif" font-size="12px" font-style="normal" font-weight="normal" text-decoration="normal" x="44" y="215" text-anchor="start" dominant-baseline="alphabetic" fill-opacity="1">600</text><text fill="rgb(0,0,0)" stroke="none" font-family="geogebra-sans-serif, sans-serif" font-size="12px" font-style="normal" font-weight="normal" text-decoration="normal" x="44" y="133" text-anchor="start" dominant-baseline="alphabetic" fill-opacity="1">800</text><text fill="none" stroke="rgb(255,255,255)" font-family="geogebra-sans-serif, sans-serif" font-size="12px" font-style="normal" font-weight="normal" text-decoration="normal" x="44" y="133" text-anchor="start" dominant-baseline="alphabetic" stroke-opacity="1" stroke-linejoin="bevel" stroke-miterlimit="10" stroke-width="3">800</text><text fill="rgb(0,0,0)" stroke="none" font-family="geogebra-sans-serif, sans-serif" font-size="12px" font-style="normal" font-weight="normal" text-decoration="normal" x="44" y="133" text-anchor="start" dominant-baseline="alphabetic" fill-opacity="1">800</text><text fill="rgb(0,0,0)" stroke="none" font-family="geogebra-sans-serif, sans-serif" font-size="12px" font-style="normal" font-weight="normal" text-decoration="normal" x="36" y="51" text-anchor="start" dominant-baseline="alphabetic" fill-opacity="1">1000</text><text fill="none" stroke="rgb(255,255,255)" font-family="geogebra-sans-serif, sans-serif" font-size="12px" font-style="normal" font-weight="normal" text-decoration="normal" x="36" y="51" text-anchor="start" dominant-baseline="alphabetic" stroke-opacity="1" stroke-linejoin="bevel" stroke-miterlimit="10" stroke-width="3">1000</text><text fill="rgb(0,0,0)" stroke="none" font-family="geogebra-sans-serif, sans-serif" font-size="12px" font-style="normal" font-weight="normal" text-decoration="normal" x="36" y="51" text-anchor="start" dominant-baseline="alphabetic" fill-opacity="1">1000</text><text fill="rgb(0,0,0)" stroke="none" font-family="geogebra-sans-serif, sans-serif" font-size="12px" font-style="normal" font-weight="normal" text-decoration="normal" x="59" y="473" text-anchor="start" dominant-baseline="alphabetic" fill-opacity="1">0</text><text fill="none" stroke="rgb(255,255,255)" font-family="geogebra-sans-serif, sans-serif" font-size="12px" font-style="normal" font-weight="normal" text-decoration="normal" x="59" y="473" text-anchor="start" dominant-baseline="alphabetic" stroke-opacity="1" stroke-linejoin="bevel" stroke-miterlimit="10" stroke-width="3">0</text><text fill="rgb(0,0,0)" stroke="none" font-family="geogebra-sans-serif, sans-serif" font-size="12px" font-style="normal" font-weight="normal" text-decoration="normal" x="59" y="473" text-anchor="start" dominant-baseline="alphabetic" fill-opacity="1">0</text></g></g></svg>