<svg version="1.1" xmlns="http://www.w3.org/2000/svg" xmlns:xlink="http://www.w3.org/1999/xlink" width="622" height="541"><defs><clipPath id="PFMUTnEEDPUy"><path fill="none" stroke="none" d=" M 0 0 L 622 0 L 622 541 L 0 541 L 0 0 Z"/></clipPath></defs><g transform="scale(1,1)" clip-path="url(#PFMUTnEEDPUy)"><g><rect fill="rgb(255,255,255)" stroke="none" x="0" y="0" width="622" height="541" fill-opacity="1"/><path fill="none" stroke="rgb(192,192,192)" paint-order="fill stroke markers" d=" M 23.5 0.5 L 23.5 541.5 M 23.5 0.5 L 23.5 541.5 M 124.5 0.5 L 124.5 541.5 M 175.5 0.5 L 175.5 541.5 M 226.5 0.5 L 226.5 541.5 M 276.5 0.5 L 276.5 541.5 M 327.5 0.5 L 327.5 541.5 M 378.5 0.5 L 378.5 541.5 M 429.5 0.5 L 429.5 541.5 M 479.5 0.5 L 479.5 541.5 M 530.5 0.5 L 530.5 541.5 M 581.5 0.5 L 581.5 541.5" stroke-opacity="1" stroke-linecap="round" stroke-linejoin="round" stroke-miterlimit="10"/><path fill="none" stroke="rgb(192,192,192)" paint-order="fill stroke markers" d=" M 2.5 0.5 L 2.5 541.5 M 13.5 0.5 L 13.5 541.5 M 33.5 0.5 L 33.5 541.5 M 43.5 0.5 L 43.5 541.5 M 53.5 0.5 L 53.5 541.5 M 63.5 0.5 L 63.5 541.5 M 84.5 0.5 L 84.5 541.5 M 94.5 0.5 L 94.5 541.5 M 104.5 0.5 L 104.5 541.5 M 114.5 0.5 L 114.5 541.5 M 134.5 0.5 L 134.5 541.5 M 145.5 0.5 L 145.5 541.5 M 155.5 0.5 L 155.5 541.5 M 165.5 0.5 L 165.5 541.5 M 185.5 0.5 L 185.5 541.5 M 195.5 0.5 L 195.5 541.5 M 205.5 0.5 L 205.5 541.5 M 216.5 0.5 L 216.5 541.5 M 236.5 0.5 L 236.5 541.5 M 246.5 0.5 L 246.5 541.5 M 256.5 0.5 L 256.5 541.5 M 266.5 0.5 L 266.5 541.5 M 287.5 0.5 L 287.5 541.5 M 297.5 0.5 L 297.5 541.5 M 307.5 0.5 L 307.5 541.5 M 317.5 0.5 L 317.5 541.5 M 337.5 0.5 L 337.5 541.5 M 347.5 0.5 L 347.5 541.5 M 358.5 0.5 L 358.5 541.5 M 368.5 0.5 L 368.5 541.5 M 388.5 0.5 L 388.5 541.5 M 398.5 0.5 L 398.5 541.5 M 408.5 0.5 L 408.5 541.5 M 419.5 0.5 L 419.5 541.5 M 439.5 0.5 L 439.5 541.5 M 449.5 0.5 L 449.5 541.5 M 459.5 0.5 L 459.5 541.5 M 469.5 0.5 L 469.5 541.5 M 490.5 0.5 L 490.5 541.5 M 500.5 0.5 L 500.5 541.5 M 510.5 0.5 L 510.5 541.5 M 520.5 0.5 L 520.5 541.5 M 540.5 0.5 L 540.5 541.5 M 550.5 0.5 L 550.5 541.5 M 561.5 0.5 L 561.5 541.5 M 571.5 0.5 L 571.5 541.5 M 591.5 0.5 L 591.5 541.5 M 601.5 0.5 L 601.5 541.5 M 611.5 0.5 L 611.5 541.5 M 621.5 0.5 L 621.5 541.5" stroke-opacity="0.23529411764705882" stroke-linecap="round" stroke-linejoin="round" stroke-miterlimit="10"/><path fill="none" stroke="rgb(192,192,192)" paint-order="fill stroke markers" d=" M 0.5 46.5 L 622.5 46.5 M 0.5 46.5 L 622.5 46.5 M 0.5 128.5 L 622.5 128.5 M 0.5 210.5 L 622.5 210.5 M 0.5 293.5 L 622.5 293.5 M 0.5 375.5 L 622.5 375.5 M 0.5 539.5 L 622.5 539.5" stroke-opacity="1" stroke-linecap="round" stroke-linejoin="round" stroke-miterlimit="10"/><path fill="none" stroke="rgb(192,192,192)" paint-order="fill stroke markers" d=" M 0.5 13.5 L 622.5 13.5 M 0.5 13.5 L 622.5 13.5 M 0.5 29.5 L 622.5 29.5 M 0.5 62.5 L 622.5 62.5 M 0.5 79.5 L 622.5 79.5 M 0.5 95.5 L 622.5 95.5 M 0.5 112.5 L 622.5 112.5 M 0.5 144.5 L 622.5 144.5 M 0.5 161.5 L 622.5 161.5 M 0.5 177.5 L 622.5 177.5 M 0.5 194.5 L 622.5 194.5 M 0.5 227.5 L 622.5 227.5 M 0.5 243.5 L 622.5 243.5 M 0.5 260.5 L 622.5 260.5 M 0.5 276.5 L 622.5 276.5 M 0.5 309.5 L 622.5 309.5 M 0.5 325.5 L 622.5 325.5 M 0.5 342.5 L 622.5 342.5 M 0.5 358.5 L 622.5 358.5 M 0.5 391.5 L 622.5 391.5 M 0.5 408.5 L 622.5 408.5 M 0.5 424.5 L 622.5 424.5 M 0.5 441.5 L 622.5 441.5 M 0.5 473.5 L 622.5 473.5 M 0.5 490.5 L 622.5 490.5 M 0.5 506.5 L 622.5 506.5 M 0.5 523.5 L 622.5 523.5" stroke-opacity="0.23529411764705882" stroke-linecap="round" stroke-linejoin="round" stroke-miterlimit="10"/><path fill="none" stroke="rgb(0,0,0)" paint-order="fill stroke markers" d=" M 74.5 2.5 L 74.5 541.5" stroke-opacity="1" stroke-miterlimit="10"/><path fill="none" stroke="rgb(0,0,0)" paint-order="fill stroke markers" d=" M 74.5 1.5 L 70.5 5.5" stroke-opacity="1" stroke-miterlimit="10"/><path fill="none" stroke="rgb(0,0,0)" paint-order="fill stroke markers" d=" M 74.5 1.5 L 78.5 5.5" stroke-opacity="1" stroke-miterlimit="10"/><path fill="none" stroke="rgb(0,0,0)" paint-order="fill stroke markers" d=" M 0.5 457.5 L 620.5 457.5" stroke-opacity="1" stroke-miterlimit="10"/><path fill="none" stroke="rgb(0,0,0)" paint-order="fill stroke markers" d=" M 621.5 457.5 L 617.5 453.5" stroke-opacity="1" stroke-miterlimit="10"/><path fill="none" stroke="rgb(0,0,0)" paint-order="fill stroke markers" d=" M 621.5 457.5 L 617.5 461.5" stroke-opacity="1" stroke-miterlimit="10"/><text fill="rgb(0,0,0)" stroke="none" font-family="geogebra-sans-serif, sans-serif" font-size="12px" font-style="normal" font-weight="normal" text-decoration="normal" x="9" y="473" text-anchor="start" dominant-baseline="alphabetic" fill-opacity="1">–5000</text><text fill="none" stroke="rgb(255,255,255)" font-family="geogebra-sans-serif, sans-serif" font-size="12px" font-style="normal" font-weight="normal" text-decoration="normal" x="9" y="473" text-anchor="start" dominant-baseline="alphabetic" stroke-opacity="1" stroke-linejoin="bevel" stroke-miterlimit="10" stroke-width="3">–5000</text><text fill="rgb(0,0,0)" stroke="none" font-family="geogebra-sans-serif, sans-serif" font-size="12px" font-style="normal" font-weight="normal" text-decoration="normal" x="9" y="473" text-anchor="start" dominant-baseline="alphabetic" fill-opacity="1">–5000</text><text fill="rgb(0,0,0)" stroke="none" font-family="geogebra-sans-serif, sans-serif" font-size="12px" font-style="normal" font-weight="normal" text-decoration="normal" x="113" y="473" text-anchor="start" dominant-baseline="alphabetic" fill-opacity="1">5000</text><text fill="none" stroke="rgb(255,255,255)" font-family="geogebra-sans-serif, sans-serif" font-size="12px" font-style="normal" font-weight="normal" text-decoration="normal" x="113" y="473" text-anchor="start" dominant-baseline="alphabetic" stroke-opacity="1" stroke-linejoin="bevel" stroke-miterlimit="10" stroke-width="3">5000</text><text fill="rgb(0,0,0)" stroke="none" font-family="geogebra-sans-serif, sans-serif" font-size="12px" font-style="normal" font-weight="normal" text-decoration="normal" x="113" y="473" text-anchor="start" dominant-baseline="alphabetic" fill-opacity="1">5000</text><text fill="rgb(0,0,0)" stroke="none" font-family="geogebra-sans-serif, sans-serif" font-size="12px" font-style="normal" font-weight="normal" text-decoration="normal" x="161" y="473" text-anchor="start" dominant-baseline="alphabetic" fill-opacity="1">10000</text><text fill="none" stroke="rgb(255,255,255)" font-family="geogebra-sans-serif, sans-serif" font-size="12px" font-style="normal" font-weight="normal" text-decoration="normal" x="161" y="473" text-anchor="start" dominant-baseline="alphabetic" stroke-opacity="1" stroke-linejoin="bevel" stroke-miterlimit="10" stroke-width="3">10000</text><text fill="rgb(0,0,0)" stroke="none" font-family="geogebra-sans-serif, sans-serif" font-size="12px" font-style="normal" font-weight="normal" text-decoration="normal" x="161" y="473" text-anchor="start" dominant-baseline="alphabetic" fill-opacity="1">10000</text><text fill="rgb(0,0,0)" stroke="none" font-family="geogebra-sans-serif, sans-serif" font-size="12px" font-style="normal" font-weight="normal" text-decoration="normal" x="212" y="473" text-anchor="start" dominant-baseline="alphabetic" fill-opacity="1">15000</text><text fill="none" stroke="rgb(255,255,255)" font-family="geogebra-sans-serif, sans-serif" font-size="12px" font-style="normal" font-weight="normal" text-decoration="normal" x="212" y="473" text-anchor="start" dominant-baseline="alphabetic" stroke-opacity="1" stroke-linejoin="bevel" stroke-miterlimit="10" stroke-width="3">15000</text><text fill="rgb(0,0,0)" stroke="none" font-family="geogebra-sans-serif, sans-serif" font-size="12px" font-style="normal" font-weight="normal" text-decoration="normal" x="212" y="473" text-anchor="start" dominant-baseline="alphabetic" fill-opacity="1">15000</text><text fill="rgb(0,0,0)" stroke="none" font-family="geogebra-sans-serif, sans-serif" font-size="12px" font-style="normal" font-weight="normal" text-decoration="normal" x="262" y="473" text-anchor="start" dominant-baseline="alphabetic" fill-opacity="1">20000</text><text fill="none" stroke="rgb(255,255,255)" font-family="geogebra-sans-serif, sans-serif" font-size="12px" font-style="normal" font-weight="normal" text-decoration="normal" x="262" y="473" text-anchor="start" dominant-baseline="alphabetic" stroke-opacity="1" stroke-linejoin="bevel" stroke-miterlimit="10" stroke-width="3">20000</text><text fill="rgb(0,0,0)" stroke="none" font-family="geogebra-sans-serif, sans-serif" font-size="12px" font-style="normal" font-weight="normal" text-decoration="normal" x="262" y="473" text-anchor="start" dominant-baseline="alphabetic" fill-opacity="1">20000</text><text fill="rgb(0,0,0)" stroke="none" font-family="geogebra-sans-serif, sans-serif" font-size="12px" font-style="normal" font-weight="normal" text-decoration="normal" x="313" y="473" text-anchor="start" dominant-baseline="alphabetic" fill-opacity="1">25000</text><text fill="none" stroke="rgb(255,255,255)" font-family="geogebra-sans-serif, sans-serif" font-size="12px" font-style="normal" font-weight="normal" text-decoration="normal" x="313" y="473" text-anchor="start" dominant-baseline="alphabetic" stroke-opacity="1" stroke-linejoin="bevel" stroke-miterlimit="10" stroke-width="3">25000</text><text fill="rgb(0,0,0)" stroke="none" font-family="geogebra-sans-serif, sans-serif" font-size="12px" font-style="normal" font-weight="normal" text-decoration="normal" x="313" y="473" text-anchor="start" dominant-baseline="alphabetic" fill-opacity="1">25000</text><text fill="rgb(0,0,0)" stroke="none" font-family="geogebra-sans-serif, sans-serif" font-size="12px" font-style="normal" font-weight="normal" text-decoration="normal" x="364" y="473" text-anchor="start" dominant-baseline="alphabetic" fill-opacity="1">30000</text><text fill="none" stroke="rgb(255,255,255)" font-family="geogebra-sans-serif, sans-serif" font-size="12px" font-style="normal" font-weight="normal" text-decoration="normal" x="364" y="473" text-anchor="start" dominant-baseline="alphabetic" stroke-opacity="1" stroke-linejoin="bevel" stroke-miterlimit="10" stroke-width="3">30000</text><text fill="rgb(0,0,0)" stroke="none" font-family="geogebra-sans-serif, sans-serif" font-size="12px" font-style="normal" font-weight="normal" text-decoration="normal" x="364" y="473" text-anchor="start" dominant-baseline="alphabetic" fill-opacity="1">30000</text><text fill="rgb(0,0,0)" stroke="none" font-family="geogebra-sans-serif, sans-serif" font-size="12px" font-style="normal" font-weight="normal" text-decoration="normal" x="415" y="473" text-anchor="start" dominant-baseline="alphabetic" fill-opacity="1">35000</text><text fill="none" stroke="rgb(255,255,255)" font-family="geogebra-sans-serif, sans-serif" font-size="12px" font-style="normal" font-weight="normal" text-decoration="normal" x="415" y="473" text-anchor="start" dominant-baseline="alphabetic" stroke-opacity="1" stroke-linejoin="bevel" stroke-miterlimit="10" stroke-width="3">35000</text><text fill="rgb(0,0,0)" stroke="none" font-family="geogebra-sans-serif, sans-serif" font-size="12px" font-style="normal" font-weight="normal" text-decoration="normal" x="415" y="473" text-anchor="start" dominant-baseline="alphabetic" fill-opacity="1">35000</text><text fill="rgb(0,0,0)" stroke="none" font-family="geogebra-sans-serif, sans-serif" font-size="12px" font-style="normal" font-weight="normal" text-decoration="normal" x="465" y="473" text-anchor="start" dominant-baseline="alphabetic" fill-opacity="1">40000</text><text fill="none" stroke="rgb(255,255,255)" font-family="geogebra-sans-serif, sans-serif" font-size="12px" font-style="normal" font-weight="normal" text-decoration="normal" x="465" y="473" text-anchor="start" dominant-baseline="alphabetic" stroke-opacity="1" stroke-linejoin="bevel" stroke-miterlimit="10" stroke-width="3">40000</text><text fill="rgb(0,0,0)" stroke="none" font-family="geogebra-sans-serif, sans-serif" font-size="12px" font-style="normal" font-weight="normal" text-decoration="normal" x="465" y="473" text-anchor="start" dominant-baseline="alphabetic" fill-opacity="1">40000</text><text fill="rgb(0,0,0)" stroke="none" font-family="geogebra-sans-serif, sans-serif" font-size="12px" font-style="normal" font-weight="normal" text-decoration="normal" x="516" y="473" text-anchor="start" dominant-baseline="alphabetic" fill-opacity="1">45000</text><text fill="none" stroke="rgb(255,255,255)" font-family="geogebra-sans-serif, sans-serif" font-size="12px" font-style="normal" font-weight="normal" text-decoration="normal" x="516" y="473" text-anchor="start" dominant-baseline="alphabetic" stroke-opacity="1" stroke-linejoin="bevel" stroke-miterlimit="10" stroke-width="3">45000</text><text fill="rgb(0,0,0)" stroke="none" font-family="geogebra-sans-serif, sans-serif" font-size="12px" font-style="normal" font-weight="normal" text-decoration="normal" x="516" y="473" text-anchor="start" dominant-baseline="alphabetic" fill-opacity="1">45000</text><text fill="rgb(0,0,0)" stroke="none" font-family="geogebra-sans-serif, sans-serif" font-size="12px" font-style="normal" font-weight="normal" text-decoration="normal" x="567" y="473" text-anchor="start" dominant-baseline="alphabetic" fill-opacity="1">50000</text><text fill="none" stroke="rgb(255,255,255)" font-family="geogebra-sans-serif, sans-serif" font-size="12px" font-style="normal" font-weight="normal" text-decoration="normal" x="567" y="473" text-anchor="start" dominant-baseline="alphabetic" stroke-opacity="1" stroke-linejoin="bevel" stroke-miterlimit="10" stroke-width="3">50000</text><text fill="rgb(0,0,0)" stroke="none" font-family="geogebra-sans-serif, sans-serif" font-size="12px" font-style="normal" font-weight="normal" text-decoration="normal" x="567" y="473" text-anchor="start" dominant-baseline="alphabetic" fill-opacity="1">50000</text><text fill="rgb(0,0,0)" stroke="none" font-family="geogebra-sans-serif, sans-serif" font-size="12px" font-style="normal" font-weight="normal" text-decoration="normal" x="44" y="380" text-anchor="start" dominant-baseline="alphabetic" fill-opacity="1">200</text><text fill="none" stroke="rgb(255,255,255)" font-family="geogebra-sans-serif, sans-serif" font-size="12px" font-style="normal" font-weight="normal" text-decoration="normal" x="44" y="380" text-anchor="start" dominant-baseline="alphabetic" stroke-opacity="1" stroke-linejoin="bevel" stroke-miterlimit="10" stroke-width="3">200</text><text fill="rgb(0,0,0)" stroke="none" font-family="geogebra-sans-serif, sans-serif" font-size="12px" font-style="normal" font-weight="normal" text-decoration="normal" x="44" y="380" text-anchor="start" dominant-baseline="alphabetic" fill-opacity="1">200</text><text fill="rgb(0,0,0)" stroke="none" font-family="geogebra-sans-serif, sans-serif" font-size="12px" font-style="normal" font-weight="normal" text-decoration="normal" x="44" y="298" text-anchor="start" dominant-baseline="alphabetic" fill-opacity="1">400</text><text fill="none" stroke="rgb(255,255,255)" font-family="geogebra-sans-serif, sans-serif" font-size="12px" font-style="normal" font-weight="normal" text-decoration="normal" x="44" y="298" text-anchor="start" dominant-baseline="alphabetic" stroke-opacity="1" stroke-linejoin="bevel" stroke-miterlimit="10" stroke-width="3">400</text><text fill="rgb(0,0,0)" stroke="none" font-family="geogebra-sans-serif, sans-serif" font-size="12px" font-style="normal" font-weight="normal" text-decoration="normal" x="44" y="298" text-anchor="start" dominant-baseline="alphabetic" fill-opacity="1">400</text><text fill="rgb(0,0,0)" stroke="none" font-family="geogebra-sans-serif, sans-serif" font-size="12px" font-style="normal" font-weight="normal" text-decoration="normal" x="44" y="215" text-anchor="start" dominant-baseline="alphabetic" fill-opacity="1">600</text><text fill="none" stroke="rgb(255,255,255)" font-family="geogebra-sans-serif, sans-serif" font-size="12px" font-style="normal" font-weight="normal" text-decoration="normal" x="44" y="215" text-anchor="start" dominant-baseline="alphabetic" stroke-opacity="1" stroke-linejoin="bevel" stroke-miterlimit="10" stroke-width="3">600</text><text fill="rgb(0,0,0)" stroke="none" font-family="geogebra-sans-serif, sans-serif" font-size="12px" font-style="normal" font-weight="normal" text-decoration="normal" x="44" y="215" text-anchor="start" dominant-baseline="alphabetic" fill-opacity="1">600</text><text fill="rgb(0,0,0)" stroke="none" font-family="geogebra-sans-serif, sans-serif" font-size="12px" font-style="normal" font-weight="normal" text-decoration="normal" x="44" y="133" text-anchor="start" dominant-baseline="alphabetic" fill-opacity="1">800</text><text fill="none" stroke="rgb(255,255,255)" font-family="geogebra-sans-serif, sans-serif" font-size="12px" font-style="normal" font-weight="normal" text-decoration="normal" x="44" y="133" text-anchor="start" dominant-baseline="alphabetic" stroke-opacity="1" stroke-linejoin="bevel" stroke-miterlimit="10" stroke-width="3">800</text><text fill="rgb(0,0,0)" stroke="none" font-family="geogebra-sans-serif, sans-serif" font-size="12px" font-style="normal" font-weight="normal" text-decoration="normal" x="44" y="133" text-anchor="start" dominant-baseline="alphabetic" fill-opacity="1">800</text><text fill="rgb(0,0,0)" stroke="none" font-family="geogebra-sans-serif, sans-serif" font-size="12px" font-style="normal" font-weight="normal" text-decoration="normal" x="36" y="51" text-anchor="start" dominant-baseline="alphabetic" fill-opacity="1">1000</text><text fill="none" stroke="rgb(255,255,255)" font-family="geogebra-sans-serif, sans-serif" font-size="12px" font-style="normal" font-weight="normal" text-decoration="normal" x="36" y="51" text-anchor="start" dominant-baseline="alphabetic" stroke-opacity="1" stroke-linejoin="bevel" stroke-miterlimit="10" stroke-width="3">1000</text><text fill="rgb(0,0,0)" stroke="none" font-family="geogebra-sans-serif, sans-serif" font-size="12px" font-style="normal" font-weight="normal" text-decoration="normal" x="36" y="51" text-anchor="start" dominant-baseline="alphabetic" fill-opacity="1">1000</text><text fill="rgb(0,0,0)" stroke="none" font-family="geogebra-sans-serif, sans-serif" font-size="12px" font-style="normal" font-weight="normal" text-decoration="normal" x="59" y="473" text-anchor="start" dominant-baseline="alphabetic" fill-opacity="1">0</text><text fill="none" stroke="rgb(255,255,255)" font-family="geogebra-sans-serif, sans-serif" font-size="12px" font-style="normal" font-weight="normal" text-decoration="normal" x="59" y="473" text-anchor="start" dominant-baseline="alphabetic" stroke-opacity="1" stroke-linejoin="bevel" stroke-miterlimit="10" stroke-width="3">0</text><text fill="rgb(0,0,0)" stroke="none" font-family="geogebra-sans-serif, sans-serif" font-size="12px" font-style="normal" font-weight="normal" text-decoration="normal" x="59" y="473" text-anchor="start" dominant-baseline="alphabetic" fill-opacity="1">0</text><path fill="none" stroke="rgb(153,51,255)" paint-order="fill stroke markers" d=" M 1.0000000000000284 -316.40954782813884 L 1.0000000000000284 -311.5079803564425 L 1.0000000000000284 -311.5079803564425 L 2.000000000000014 -306.60641288474625 L 2.000000000000014 -306.60641288474625 L 3.000000000000014 -301.70484541305 L 3.000000000000014 -301.70484541305 L 4 -296.8032779413539 L 4 -296.8032779413539 L 5.000000000000028 -291.9017104696574 L 5.000000000000028 -291.9017104696574 L 6.000000000000014 -287.0001429979612 L 6.000000000000014 -287.0001429979612 L 7 -282.09857552626494 L 7 -282.09857552626494 L 8.000000000000028 -277.19700805456847 L 8.000000000000028 -277.19700805456847 L 9.000000000000014 -272.29544058287223 L 9.000000000000014 -272.29544058287223 L 10.000000000000007 -267.3938731111761 L 10.000000000000007 -267.3938731111761 L 11 -262.49230563947987 L 11 -262.49230563947987 L 12.000000000000028 -257.5907381677835 L 12.000000000000028 -257.5907381677835 L 13.000000000000014 -252.68917069608727 L 13.000000000000014 -252.68917069608727 L 14.000000000000007 -247.78760322439092 L 14.000000000000007 -247.78760322439092 L 15.000000000000028 -242.88603575269457 L 15.000000000000028 -242.88603575269457 L 16.00000000000002 -237.98446828099821 L 16.00000000000002 -237.98446828099821 L 17.000000000000007 -233.0829008093021 L 17.000000000000007 -233.0829008093021 L 18 -228.18133333760585 L 18 -228.18133333760585 L 19.00000000000003 -223.2797658659095 L 19.00000000000003 -223.2797658659095 L 20.000000000000014 -218.37819839421326 L 20.000000000000014 -218.37819839421326 L 21.000000000000007 -213.47663092251702 L 21.000000000000007 -213.47663092251702 L 22.00000000000003 -208.57506345082066 L 22.00000000000003 -208.57506345082066 L 23.00000000000002 -203.67349597912443 L 23.00000000000002 -203.67349597912443 L 24.000000000000007 -198.77192850742819 L 24.000000000000007 -198.77192850742819 L 25 -193.87036103573195 L 25 -193.87036103573195 L 26.00000000000003 -188.96879356403548 L 26.00000000000003 -188.96879356403548 L 27.000000000000014 -184.06722609233924 L 27.000000000000014 -184.06722609233924 L 28.000000000000007 -179.16565862064311 L 28.000000000000007 -179.16565862064311 L 29.00000000000003 -174.26409114894665 L 29.00000000000003 -174.26409114894665 L 30.00000000000002 -169.36252367725052 L 30.00000000000002 -169.36252367725052 L 31.000000000000007 -164.46095620555428 L 31.000000000000007 -164.46095620555428 L 32 -159.55938873385793 L 32 -159.55938873385793 L 33.00000000000003 -154.65782126216158 L 33.00000000000003 -154.65782126216158 L 34.000000000000014 -149.75625379046534 L 34.000000000000014 -149.75625379046534 L 35.00000000000001 -144.8546863187691 L 35.00000000000001 -144.8546863187691 L 36.00000000000003 -139.95311884707274 L 36.00000000000003 -139.95311884707274 L 37.00000000000002 -135.0515513753765 L 37.00000000000002 -135.0515513753765 L 38.00000000000001 -130.14998390368027 L 38.00000000000001 -130.14998390368027 L 39 -125.24841643198414 L 39 -125.24841643198414 L 40.00000000000003 -120.34684896028767 L 40.00000000000003 -120.34684896028767 L 41.000000000000014 -115.44528148859143 L 41.000000000000014 -115.44528148859143 L 42 -110.5437140168952 L 42 -110.5437140168952 L 43.00000000000003 -105.64214654519884 L 43.00000000000003 -105.64214654519884 L 44.00000000000002 -100.74057907350249 L 44.00000000000002 -100.74057907350249 L 45.000000000000014 -95.83901160180625 L 45.000000000000014 -95.83901160180625 L 46 -90.93744413011012 L 46 -90.93744413011012 L 47.00000000000003 -86.03587665841366 L 47.00000000000003 -86.03587665841366 L 48.000000000000014 -81.13430918671753 L 48.000000000000014 -81.13430918671753 L 49 -76.23274171502129 L 49 -76.23274171502129 L 50.00000000000003 -71.33117424332482 L 50.00000000000003 -71.33117424332482 L 51.00000000000002 -66.42960677162858 L 51.00000000000002 -66.42960677162858 L 52.000000000000014 -61.52803929993246 L 52.000000000000014 -61.52803929993246 L 53 -56.62647182823622 L 53 -56.62647182823622 L 54.00000000000003 -51.724904356539696 L 54.00000000000003 -51.724904356539696 L 55.000000000000014 -46.82333688484351 L 55.000000000000014 -46.82333688484351 L 56 -41.92176941314733 L 56 -41.92176941314733 L 57.00000000000003 -37.02020194145092 L 57.00000000000003 -37.02020194145092 L 58.00000000000002 -32.11863446975474 L 58.00000000000002 -32.11863446975474 L 59.000000000000014 -27.217066998058442 L 59.000000000000014 -27.217066998058442 L 60 -22.315499526362203 L 60 -22.315499526362203 L 61.00000000000003 -17.41393205466585 L 61.00000000000003 -17.41393205466585 L 62.000000000000014 -12.51236458296961 L 62.000000000000014 -12.51236458296961 L 63.00000000000001 -7.610797111273314 L 63.00000000000001 -7.610797111273314 L 64.00000000000003 -2.709229639576961 L 64.00000000000003 -2.709229639576961 L 65.00000000000003 2.1923378321192786 L 65.00000000000003 2.1923378321192786 L 66.00000000000001 7.093905303815461 L 66.00000000000001 7.093905303815461 L 67 11.9954727755117 L 67 11.9954727755117 L 68.00000000000003 16.897040247208167 L 68.00000000000003 16.897040247208167 L 69.00000000000001 21.79860771890435 L 69.00000000000001 21.79860771890435 L 70 26.70017519060059 L 70 26.70017519060059 L 71.00000000000003 31.601742662296942 L 71.00000000000003 31.601742662296942 L 72.00000000000001 36.50331013399318 L 72.00000000000001 36.50331013399318 L 73.00000000000001 41.40487760568948 L 73.00000000000001 41.40487760568948 L 74 46.30644507738566 L 74 46.30644507738566 L 75.00000000000003 51.20801254908207 L 75.00000000000003 51.20801254908207 L 76.00000000000001 56.10958002077831 L 76.00000000000001 56.10958002077831 L 77 61.01114749247449 L 77 61.01114749247449 L 78.00000000000003 65.91271496417096 L 78.00000000000003 65.91271496417096 L 79.00000000000003 70.81428243586714 L 79.00000000000003 70.81428243586714 L 80.00000000000001 75.71584990756338 L 80.00000000000001 75.71584990756338 L 81 80.61741737925962 L 81 80.61741737925962 L 82.00000000000003 85.51898485095603 L 82.00000000000003 85.51898485095603 L 83.00000000000001 90.42055232265227 L 83.00000000000001 90.42055232265227 L 84 95.32211979434845 L 84 95.32211979434845 L 85.00000000000003 100.22368726604486 L 85.00000000000003 100.22368726604486 L 86.00000000000003 105.1252547377411 L 86.00000000000003 105.1252547377411 L 87.00000000000001 110.02682220943734 L 87.00000000000001 110.02682220943734 L 88 114.92838968113352 L 88 114.92838968113352 L 89.00000000000003 119.82995715282993 L 89.00000000000003 119.82995715282993 L 90.00000000000001 124.73152462452617 L 90.00000000000001 124.73152462452617 L 91 129.6330920962224 L 91 129.6330920962224 L 92.00000000000003 134.53465956791882 L 92.00000000000003 134.53465956791882 L 93.00000000000003 139.436227039615 L 93.00000000000003 139.436227039615 L 94.00000000000001 144.3377945113113 L 94.00000000000001 144.3377945113113 L 95 149.23936198300748 L 95 149.23936198300748 L 96.00000000000003 154.14092945470395 L 96.00000000000003 154.14092945470395 L 97.00000000000001 159.04249692640013 L 97.00000000000001 159.04249692640013 L 98 163.94406439809632 L 98 163.94406439809632 L 99.00000000000003 168.84563186979278 L 99.00000000000003 168.84563186979278 L 100.00000000000003 173.74719934148902 L 100.00000000000003 173.74719934148902 L 101.00000000000001 178.6487668131852 L 101.00000000000001 178.6487668131852 L 102 183.55033428488144 L 102 183.55033428488144 L 103.00000000000003 188.4519017565778 L 103.00000000000003 188.4519017565778 L 104.00000000000001 193.3534692282741 L 104.00000000000001 193.3534692282741 L 105 198.25503669997033 L 105 198.25503669997033 L 106.00000000000003 203.15660417166671 L 106.00000000000003 203.15660417166671 L 107.00000000000003 208.05817164336293 L 107.00000000000003 208.05817164336293 L 108.00000000000001 212.95973911505916 L 108.00000000000001 212.95973911505916 L 109 217.8613065867554 L 109 217.8613065867554 L 110.00000000000003 222.7628740584518 L 110.00000000000003 222.7628740584518 L 111.00000000000001 227.664441530148 L 111.00000000000001 227.664441530148 L 112 232.5660090018442 L 112 232.5660090018442 L 113.00000000000003 237.46757647354065 L 113.00000000000003 237.46757647354065 L 114.00000000000003 242.3691439452369 L 114.00000000000003 242.3691439452369 L 115.00000000000001 247.2707114169331 L 115.00000000000001 247.2707114169331 L 116 252.17227888862934 L 116 252.17227888862934 L 117.00000000000003 257.0738463603258 L 117.00000000000003 257.0738463603258 L 118.00000000000001 261.97541383202196 L 118.00000000000001 261.97541383202196 L 119 266.8769813037182 L 119 266.8769813037182 L 120.00000000000003 271.7785487754146 L 120.00000000000003 271.7785487754146 L 121.00000000000003 276.68011624711085 L 121.00000000000003 276.68011624711085 L 122.00000000000001 281.5816837188071 L 122.00000000000001 281.5816837188071 L 123 286.4832511905033 L 123 286.4832511905033 L 124.00000000000003 291.3848186621997 L 124.00000000000003 291.3848186621997 L 125.00000000000001 296.2863861338959 L 125.00000000000001 296.2863861338959 L 126 301.18795360559216 L 126 301.18795360559216 L 127.00000000000003 306.08952107728857 L 127.00000000000003 306.08952107728857 L 128.00000000000003 310.99108854898475 L 128.00000000000003 310.99108854898475 L 129 315.89265602068104 L 129 315.89265602068104 L 130 320.7942234923772 L 130 320.7942234923772 L 131.00000000000003 325.69579096407364 L 131.00000000000003 325.69579096407364 L 132 330.5973584357698 L 132 330.5973584357698 L 133 335.49892590746606 L 133 335.49892590746606 L 134.00000000000003 340.40049337916247 L 134.00000000000003 340.40049337916247 L 135.00000000000003 345.3020608508587 L 135.00000000000003 345.3020608508587 L 136 350.2036283225549 L 136 350.2036283225549 L 137 355.1051957942512 L 137 355.1051957942512 L 138.00000000000003 360.0067632659476 L 138.00000000000003 360.0067632659476 L 139 364.90833073764384 L 139 364.90833073764384 L 140 369.80989820934 L 140 369.80989820934 L 141.00000000000003 374.71146568103643 L 141.00000000000003 374.71146568103643 L 142.00000000000003 379.61303315273267 L 142.00000000000003 379.61303315273267 L 143 384.5146006244289 L 143 384.5146006244289 L 144 389.41616809612515 L 144 389.41616809612515 L 145 394.31773556782144 L 145 394.31773556782144 L 146 399.21930303951774 L 146 399.21930303951774 L 147 404.120870511214 L 147 404.120870511214 L 148 409.0224379829103 L 148 409.0224379829103 L 149.00000000000003 413.9240054546066 L 149.00000000000003 413.9240054546066 L 150 418.8255729263028 L 150 418.8255729263028 L 151 423.72714039799916 L 151 423.72714039799916 L 152 428.62870786969535 L 152 428.62870786969535 L 153 433.5302753413917 L 153 433.5302753413917 L 154 438.4318428130879 L 154 438.4318428130879 L 155 443.33341028478424 L 155 443.33341028478424 L 156.00000000000003 448.23497775648053 L 156.00000000000003 448.23497775648053 L 157 453.1365452281768 L 157 453.1365452281768 L 158 458.03811269987307 L 158 458.03811269987307 L 159 462.93968017156936 L 159 462.93968017156936 L 160 467.84124764326566 L 160 467.84124764326566 L 161 472.74281511496184 L 161 472.74281511496184 L 162 477.64438258665814 L 162 477.64438258665814 L 163.00000000000003 482.54595005835444 L 163.00000000000003 482.54595005835444 L 164 487.44751753005073 L 164 487.44751753005073 L 165 492.349085001747 L 165 492.349085001747 L 166 497.2506524734432 L 166 497.2506524734432 L 167 502.15221994513956 L 167 502.15221994513956 L 168 507.0537874168358 L 168 507.0537874168358 L 169 511.95535488853216 L 169 511.95535488853216 L 170.00000000000003 516.8569223602284 L 170.00000000000003 516.8569223602284 L 171 521.7584898319246 L 171 521.7584898319246 L 172 526.660057303621 L 172 526.660057303621 L 173 531.5616247753172 L 173 531.5616247753172 L 174 536.4631922470135 L 174 536.4631922470135 L 175 541.3647597187097 L 175 541.3647597187097 L 176 546.2663271904062 L 176 546.2663271904062 L 177.00000000000003 551.1678946621024 L 177.00000000000003 551.1678946621024 L 178 556.0694621337987 L 178 556.0694621337987 L 179 560.9710296054949 L 179 560.9710296054949 L 180 565.8725970771912 L 180 565.8725970771912 L 181 570.7741645488875 L 181 570.7741645488875 L 182 575.6757320205837 L 182 575.6757320205837 L 183 580.57729949228 L 183 580.57729949228 L 184.00000000000003 585.4788669639764 L 184.00000000000003 585.4788669639764 L 185 590.3804344356727 L 185 590.3804344356727 L 186 595.2820019073689 L 186 595.2820019073689 L 187 600.183569379065 L 187 600.183569379065 L 188 605.0851368507614 L 188 605.0851368507614 L 189 609.9867043224576 L 189 609.9867043224576 L 190 614.8882717941539 L 190 614.8882717941539 L 191.00000000000003 619.7898392658502 L 191.00000000000003 619.7898392658502 L 192 624.6914067375465 L 192 624.6914067375465 L 193 629.5929742092428 L 193 629.5929742092428 L 194 634.4945416809389 L 194 634.4945416809389 L 195 639.3961091526354 L 195 639.3961091526354 L 196 644.2976766243316 L 196 644.2976766243316 L 197 649.1992440960279 L 197 649.1992440960279 L 198.00000000000003 654.1008115677241 L 198.00000000000003 654.1008115677241 L 199 659.0023790394205 L 199 659.0023790394205 L 200 663.9039465111168 L 200 663.9039465111168 L 201 668.805513982813 L 201 668.805513982813 L 202.00000000000003 673.7070814545093 L 202.00000000000003 673.7070814545093 L 203 678.6086489262055 L 203 678.6086489262055 L 204.00000000000003 683.5102163979019 L 204.00000000000003 683.5102163979019 L 205.00000000000003 688.4117838695981 L 205.00000000000003 688.4117838695981 L 206 693.3133513412944 L 206 693.3133513412944 L 207.00000000000003 698.2149188129907 L 207.00000000000003 698.2149188129907 L 208 703.116486284687 L 208 703.116486284687 L 209.00000000000003 708.0180537563833 L 209.00000000000003 708.0180537563833 L 210 712.9196212280794 L 210 712.9196212280794 L 211.00000000000003 717.8211886997758 L 211.00000000000003 717.8211886997758 L 212.00000000000003 722.7227561714722 L 212.00000000000003 722.7227561714722 L 213 727.6243236431683 L 213 727.6243236431683 L 214.00000000000003 732.5258911148646 L 214.00000000000003 732.5258911148646 L 215 737.427458586561 L 215 737.427458586561 L 216.00000000000003 742.3290260582573 L 216.00000000000003 742.3290260582573 L 217 747.2305935299535 L 217 747.2305935299535 L 218.00000000000003 752.1321610016498 L 218.00000000000003 752.1321610016498 L 219.00000000000003 757.0337284733461 L 219.00000000000003 757.0337284733461 L 220 761.9352959450423 L 220 761.9352959450423 L 221.00000000000003 766.8368634167385 L 221.00000000000003 766.8368634167385 L 222 771.7384308884348 L 222 771.7384308884348 L 223.00000000000003 776.6399983601311 L 223.00000000000003 776.6399983601311 L 224 781.5415658318274 L 224 781.5415658318274 L 225.00000000000003 786.4431333035236 L 225.00000000000003 786.4431333035236 L 226.00000000000003 791.34470077522 L 226.00000000000003 791.34470077522 L 227 796.2462682469163 L 227 796.2462682469163 L 228 801.1478357186124 L 228 801.1478357186124 L 229 806.0494031903088 L 229 806.0494031903088 L 230.00000000000003 810.950970662005 L 230.00000000000003 810.950970662005 L 231 815.8525381337013 L 231 815.8525381337013 L 232.00000000000003 820.7541056053976 L 232.00000000000003 820.7541056053976 L 233.00000000000003 825.655673077094 L 233.00000000000003 825.655673077094 L 234 830.5572405487901 L 234 830.5572405487901 L 235 835.4588080204865 L 235 835.4588080204865 L 236 840.3603754921828 L 236 840.3603754921828 L 237.00000000000003 845.261942963879 L 237.00000000000003 845.261942963879 L 238 850.1635104355753 L 238 850.1635104355753 L 239.00000000000003 855.0650779072716 L 239.00000000000003 855.0650779072716 L 240.00000000000003 859.966645378968 L 240.00000000000003 859.966645378968 L 241 864.8682128506641 L 241 864.8682128506641 L 242 869.7697803223604 L 242 869.7697803223604 L 243.00000000000003 874.6713477940568 L 243.00000000000003 874.6713477940568 L 244.00000000000003 879.572915265753 L 244.00000000000003 879.572915265753 L 245 884.4744827374493 L 245 884.4744827374493 L 246.00000000000003 889.3760502091457 L 246.00000000000003 889.3760502091457 L 247.00000000000003 894.2776176808418 L 247.00000000000003 894.2776176808418 L 248.00000000000003 899.179185152538 L 248.00000000000003 899.179185152538 L 249 904.0807526242345 L 249 904.0807526242345 L 250 908.9823200959304 L 250 908.9823200959304 L 251.00000000000003 913.883887567627 L 251.00000000000003 913.883887567627 L 252 918.7854550393231 L 252 918.7854550393231 L 253 923.6870225110194 L 253 923.6870225110194 L 254.00000000000003 928.5885899827158 L 254.00000000000003 928.5885899827158 L 255.00000000000003 933.4901574544119 L 255.00000000000003 933.4901574544119 L 256 938.3917249261083 L 256 938.3917249261083 L 257 943.2932923978049 L 257 943.2932923978049 L 258 948.1948598695008 L 258 948.1948598695008 L 259 953.0964273411972 L 259 953.0964273411972 L 260 957.9979948128935 L 260 957.9979948128935 L 261 962.8995622845898 L 261 962.8995622845898 L 262 967.801129756286 L 262 967.801129756286 L 263 972.7026972279823 L 263 972.7026972279823 L 264 977.6042646996784 L 264 977.6042646996784 L 265 982.505832171375 L 265 982.505832171375 L 266 987.4073996430709 L 266 987.4073996430709 L 267 992.3089671147673 L 267 992.3089671147673 L 268 997.2105345864636 L 268 997.2105345864636 L 269 1002.1121020581597 L 269 1002.1121020581597 L 270 1007.0136695298561 L 270 1007.0136695298561 L 271 1011.9152370015524 L 271 1011.9152370015524 L 272 1016.8168044732488 L 272 1016.8168044732488 L 273 1021.7183719449449 L 273 1021.7183719449449 L 274 1026.6199394166413 L 274 1026.6199394166413 L 275 1031.5215068883376 L 275 1031.5215068883376 L 276 1036.4230743600338 L 276 1036.4230743600338 L 277 1041.3246418317299 L 277 1041.3246418317299 L 278 1046.2262093034265 L 278 1046.2262093034265 L 279 1051.1277767751226 L 279 1051.1277767751226 L 280 1056.029344246819 L 280 1056.029344246819 L 281 1060.9309117185153 L 281 1060.9309117185153 L 282 1065.8324791902116 L 282 1065.8324791902116 L 283 1070.7340466619078 L 283 1070.7340466619078 L 284 1075.635614133604 L 284 1075.635614133604 L 285 1080.5371816053005 L 285 1080.5371816053005 L 286 1085.4387490769968 L 286 1085.4387490769968 L 287 1090.3403165486927 L 287 1090.3403165486927 L 288 1095.2418840203893 L 288 1095.2418840203893 L 289 1100.1434514920857 L 289 1100.1434514920857 L 290 1105.0450189637818 L 290 1105.0450189637818 L 291 1109.946586435478 L 291 1109.946586435478 L 292 1114.8481539071743 L 292 1114.8481539071743 L 293 1119.7497213788706 L 293 1119.7497213788706 L 294 1124.651288850567 L 294 1124.651288850567 L 295 1129.5528563222629 L 295 1129.5528563222629 L 296 1134.4544237939594 L 296 1134.4544237939594 L 297 1139.3559912656558 L 297 1139.3559912656558 L 298 1144.257558737352 L 298 1144.257558737352 L 299 1149.1591262090483 L 299 1149.1591262090483 L 300 1154.0606936807444 L 300 1154.0606936807444 L 301 1158.9622611524408 L 301 1158.9622611524408 L 302 1163.8638286241369 L 302 1163.8638286241369 L 303 1168.7653960958332 L 303 1168.7653960958332 L 304 1173.6669635675296 L 304 1173.6669635675296 L 305 1178.568531039226 L 305 1178.568531039226 L 306 1183.470098510922 L 306 1183.470098510922 L 307 1188.3716659826184 L 307 1188.3716659826184 L 308 1193.2732334543148 L 308 1193.2732334543148 L 309 1198.174800926011 L 309 1198.174800926011 L 310 1203.0763683977073 L 310 1203.0763683977073 L 311 1207.9779358694036 L 311 1207.9779358694036 L 312 1212.8795033410997 L 312 1212.8795033410997 L 313 1217.7810708127963 L 313 1217.7810708127963 L 314 1222.6826382844924 L 314 1222.6826382844924 L 315 1227.5842057561888 L 315 1227.5842057561888 L 316 1232.485773227885 L 316 1232.485773227885 L 317 1237.3873406995813 L 317 1237.3873406995813 L 318 1242.2889081712776 L 318 1242.2889081712776 L 319 1247.1904756429738 L 319 1247.1904756429738 L 320 1252.09204311467 L 320 1252.09204311467 L 321 1256.9936105863665 L 321 1256.9936105863665 L 322 1261.8951780580626 L 322 1261.8951780580626 L 323 1266.796745529759 L 323 1266.796745529759 L 324 1271.6983130014553 L 324 1271.6983130014553 L 325 1276.5998804731514 L 325 1276.5998804731514 L 326 1281.5014479448478 L 326 1281.5014479448478 L 327 1286.4030154165441 L 327 1286.4030154165441 L 328 1291.3045828882402 L 328 1291.3045828882402 L 329 1296.2061503599366 L 329 1296.2061503599366 L 330 1301.1077178316327 L 330 1301.1077178316327 L 331 1306.009285303329 L 331 1306.009285303329 L 332 1310.9108527750254 L 332 1310.9108527750254 L 333 1315.8124202467216 L 333 1315.8124202467216 L 334 1320.713987718418 L 334 1320.713987718418 L 335 1325.615555190114 L 335 1325.615555190114 L 336 1330.5171226618104 L 336 1330.5171226618104 L 337 1335.4186901335067 L 337 1335.4186901335067 L 338 1340.320257605203 L 338 1340.320257605203 L 339 1345.2218250768992 L 339 1345.2218250768992 L 340 1350.1233925485958 L 340 1350.1233925485958 L 341.00000000000006 1355.024960020292 L 341.00000000000006 1355.024960020292 L 342 1359.9265274919883 L 342 1359.9265274919883 L 343 1364.8280949636844 L 343 1364.8280949636844 L 344 1369.7296624353808 L 344 1369.7296624353808 L 345 1374.631229907077 L 345 1374.631229907077 L 346 1379.5327973787732 L 346 1379.5327973787732 L 347 1384.4343648504696 L 347 1384.4343648504696 L 348 1389.335932322166 L 348 1389.335932322166 L 349 1394.237499793862 L 349 1394.237499793862 L 350 1399.1390672655584 L 350 1399.1390672655584 L 351 1404.0406347372545 L 351 1404.0406347372545 L 352 1408.9422022089511 L 352 1408.9422022089511 L 353 1413.8437696806473 L 353 1413.8437696806473 L 354 1418.7453371523434 L 354 1418.7453371523434 L 355.00000000000006 1423.64690462404 L 355.00000000000006 1423.64690462404 L 356 1428.5484720957363 L 356 1428.5484720957363 L 357 1433.4500395674322 L 357 1433.4500395674322 L 358.00000000000006 1438.3516070391288 L 358.00000000000006 1438.3516070391288 L 359 1443.253174510825 L 359 1443.253174510825 L 360 1448.1547419825213 L 360 1448.1547419825213 L 361 1453.0563094542174 L 361 1453.0563094542174 L 362 1457.9578769259138 L 362 1457.9578769259138 L 363 1462.85944439761 L 363 1462.85944439761 L 364 1467.7610118693062 L 364 1467.7610118693062 L 365 1472.6625793410024 L 365 1472.6625793410024 L 366 1477.564146812699 L 366 1477.564146812699 L 367 1482.465714284395 L 367 1482.465714284395 L 368 1487.3672817560914 L 368 1487.3672817560914 L 369.00000000000006 1492.268849227788 L 369.00000000000006 1492.268849227788 L 370 1497.170416699484 L 370 1497.170416699484 L 371 1502.0719841711802 L 371 1502.0719841711802 L 372.00000000000006 1506.9735516428766 L 372.00000000000006 1506.9735516428766 L 373 1511.875119114573 L 373 1511.875119114573 L 374 1516.776686586269 L 374 1516.776686586269 L 375 1521.6782540579652 L 375 1521.6782540579652 L 376 1526.5798215296616 L 376 1526.5798215296616 L 377 1531.4813890013581 L 377 1531.4813890013581 L 378 1536.382956473054 L 378 1536.382956473054 L 379 1541.2845239447504 L 379 1541.2845239447504 L 380 1546.186091416447 L 380 1546.186091416447 L 381 1551.087658888143 L 381 1551.087658888143 L 382 1555.9892263598392 L 382 1555.9892263598392 L 383.00000000000006 1560.8907938315356 L 383.00000000000006 1560.8907938315356 L 384 1565.792361303232 L 384 1565.792361303232 L 385 1570.6939287749283 L 385 1570.6939287749283 L 386.00000000000006 1575.5954962466244 L 386.00000000000006 1575.5954962466244 L 387 1580.497063718321 L 387 1580.497063718321 L 388 1585.398631190017 L 388 1585.398631190017 L 389 1590.3001986617132 L 389 1590.3001986617132 L 390 1595.2017661334096 L 390 1595.2017661334096 L 391 1600.103333605106 L 391 1600.103333605106 L 392 1605.004901076802 L 392 1605.004901076802 L 393 1609.9064685484984 L 393 1609.9064685484984 L 394 1614.8080360201948 L 394 1614.8080360201948 L 395 1619.709603491891 L 395 1619.709603491891 L 396 1624.6111709635873 L 396 1624.6111709635873 L 397.00000000000006 1629.5127384352834 L 397.00000000000006 1629.5127384352834 L 398 1634.41430590698 L 398 1634.41430590698 L 399 1639.3158733786759 L 399 1639.3158733786759 L 400.00000000000006 1644.2174408503724 L 400.00000000000006 1644.2174408503724 L 401 1649.1190083220686 L 401 1649.1190083220686 L 402 1654.020575793765 L 402 1654.020575793765 L 403 1658.922143265461 L 403 1658.922143265461 L 404 1663.8237107371574 L 404 1663.8237107371574 L 405 1668.7252782088538 L 405 1668.7252782088538 L 406 1673.62684568055 L 406 1673.62684568055 L 407 1678.5284131522462 L 407 1678.5284131522462 L 408 1683.4299806239426 L 408 1683.4299806239426 L 409.00000000000006 1688.331548095639 L 409.00000000000006 1688.331548095639 L 410 1693.233115567335 L 410 1693.233115567335 L 411.00000000000006 1698.1346830390314 L 411.00000000000006 1698.1346830390314 L 412.00000000000006 1703.036250510728 L 412.00000000000006 1703.036250510728 L 413 1707.937817982424 L 413 1707.937817982424 L 414.00000000000006 1712.8393854541205 L 414.00000000000006 1712.8393854541205 L 415 1717.7409529258164 L 415 1717.7409529258164 L 416 1722.642520397513 L 416 1722.642520397513 L 416.99999999999994 1727.5440878692089 L 416.99999999999994 1727.5440878692089 L 418 1732.4456553409052 L 418 1732.4456553409052 L 419 1737.3472228126018 L 419 1737.3472228126018 L 420 1742.2487902842977 L 420 1742.2487902842977 L 421 1747.1503577559943 L 421 1747.1503577559943 L 422.00000000000006 1752.0519252276904 L 422.00000000000006 1752.0519252276904 L 423 1756.9534926993867 L 423 1756.9534926993867 L 424 1761.8550601710833 L 424 1761.8550601710833 L 425.00000000000006 1766.7566276427794 L 425.00000000000006 1766.7566276427794 L 426 1771.6581951144753 L 426 1771.6581951144753 L 427 1776.559762586172 L 427 1776.559762586172 L 428.00000000000006 1781.4613300578685 L 428.00000000000006 1781.4613300578685 L 429 1786.3628975295642 L 429 1786.3628975295642 L 430 1791.2644650012605 L 430 1791.2644650012605 L 431.00000000000006 1796.166032472957 L 431.00000000000006 1796.166032472957 L 432 1801.0675999446532 L 432 1801.0675999446532 L 433 1805.9691674163494 L 433 1805.9691674163494 L 434.00000000000006 1810.870734888046 L 434.00000000000006 1810.870734888046 L 435 1815.7723023597423 L 435 1815.7723023597423 L 436.00000000000006 1820.6738698314384 L 436.00000000000006 1820.6738698314384 L 437.00000000000006 1825.5754373031345 L 437.00000000000006 1825.5754373031345 L 438 1830.477004774831 L 438 1830.477004774831 L 439.00000000000006 1835.3785722465275 L 439.00000000000006 1835.3785722465275 L 440.00000000000006 1840.280139718224 L 440.00000000000006 1840.280139718224 L 441 1845.1817071899195 L 441 1845.1817071899195 L 442.00000000000006 1850.083274661616 L 442.00000000000006 1850.083274661616 L 443 1854.9848421333122 L 443 1854.9848421333122 L 444 1859.8864096050088 L 444 1859.8864096050088 L 444.99999999999994 1864.7879770767047 L 444.99999999999994 1864.7879770767047 L 446 1869.6895445484008 L 446 1869.6895445484008 L 447 1874.5911120200974 L 447 1874.5911120200974 L 448 1879.4926794917935 L 448 1879.4926794917935 L 449 1884.3942469634899 L 449 1884.3942469634899 L 450.00000000000006 1889.2958144351865 L 450.00000000000006 1889.2958144351865 L 451 1894.1973819068826 L 451 1894.1973819068826 L 452 1899.0989493785787 L 452 1899.0989493785787 L 453.00000000000006 1904.000516850275 L 453.00000000000006 1904.000516850275 L 454 1908.9020843219712 L 454 1908.9020843219712 L 455 1913.8036517936678 L 455 1913.8036517936678 L 456.00000000000006 1918.7052192653643 L 456.00000000000006 1918.7052192653643 L 457 1923.6067867370598 L 457 1923.6067867370598 L 458 1928.5083542087564 L 458 1928.5083542087564 L 459.00000000000006 1933.409921680453 L 459.00000000000006 1933.409921680453 L 460 1938.3114891521489 L 460 1938.3114891521489 L 461 1943.2130566238454 L 461 1943.2130566238454 L 462.00000000000006 1948.1146240955416 L 462.00000000000006 1948.1146240955416 L 463 1953.0161915672377 L 463 1953.0161915672377 L 464.00000000000006 1957.917759038934 L 464.00000000000006 1957.917759038934 L 465.00000000000006 1962.8193265106306 L 465.00000000000006 1962.8193265106306 L 466 1967.7208939823267 L 466 1967.7208939823267 L 467.00000000000006 1972.6224614540233 L 467.00000000000006 1972.6224614540233 L 468.00000000000006 1977.5240289257192 L 468.00000000000006 1977.5240289257192 L 469 1982.4255963974153 L 469 1982.4255963974153 L 470.00000000000006 1987.327163869112 L 470.00000000000006 1987.327163869112 L 471 1992.228731340808 L 471 1992.228731340808 L 472 1997.1302988125044 L 472 1997.1302988125044 L 473 2002.0318662842003 L 473 2002.0318662842003 L 474 2006.9334337558969 L 474 2006.9334337558969 L 475 2011.8350012275935 L 475 2011.8350012275935 L 476 2016.7365686992891 L 476 2016.7365686992891 L 477 2021.6381361709857 L 477 2021.6381361709857 L 478.00000000000006 2026.539703642682 L 478.00000000000006 2026.539703642682 L 479 2031.4412711143782 L 479 2031.4412711143782 L 480 2036.3428385860743 L 480 2036.3428385860743 L 481.00000000000006 2041.244406057771 L 481.00000000000006 2041.244406057771 L 482 2046.1459735294673 L 482 2046.1459735294673 L 483 2051.0475410011636 L 483 2051.0475410011636 L 484.00000000000006 2055.9491084728593 L 484.00000000000006 2055.9491084728593 L 485 2060.850675944556 L 485 2060.850675944556 L 486 2065.7522434162524 L 486 2065.7522434162524 L 487.00000000000006 2070.653810887949 L 487.00000000000006 2070.653810887949 L 488 2075.5553783596447 L 488 2075.5553783596447 L 489 2080.456945831341 L 489 2080.456945831341 L 490.00000000000006 2085.3585133030374 L 490.00000000000006 2085.3585133030374 L 491 2090.2600807747335 L 491 2090.2600807747335 L 492.00000000000006 2095.1616482464296 L 492.00000000000006 2095.1616482464296 L 493.00000000000006 2100.0632157181262 L 493.00000000000006 2100.0632157181262 L 494 2104.9647831898224 L 494 2104.9647831898224 L 494.99999999999994 2109.866350661518 L 494.99999999999994 2109.866350661518 L 496.00000000000006 2114.767918133215 L 496.00000000000006 2114.767918133215 L 497 2119.669485604911 L 497 2119.669485604911 L 497.99999999999994 2124.5710530766073 L 497.99999999999994 2124.5710530766073 L 499.00000000000006 2129.472620548304 L 499.00000000000006 2129.472620548304 L 500 2134.37418802 L 500 2134.37418802 L 501 2139.275755491696 L 501 2139.275755491696 L 502 2144.1773229633927 L 502 2144.1773229633927 L 503 2149.078890435089 L 503 2149.078890435089 L 504 2153.980457906785 L 504 2153.980457906785 L 505 2158.882025378481 L 505 2158.882025378481 L 506.00000000000006 2163.7835928501777 L 506.00000000000006 2163.7835928501777 L 507 2168.685160321874 L 507 2168.685160321874 L 508 2173.5867277935704 L 508 2173.5867277935704 L 509.00000000000006 2178.488295265267 L 509.00000000000006 2178.488295265267 L 510 2183.3898627369626 L 510 2183.3898627369626 L 511 2188.2914302086588 L 511 2188.2914302086588 L 512 2193.1929976803553 L 512 2193.1929976803553 L 513 2198.0945651520515 L 513 2198.0945651520515 L 514 2202.996132623748 L 514 2202.996132623748 L 515 2207.897700095444 L 515 2207.897700095444 L 516 2212.7992675671403 L 516 2212.7992675671403 L 517 2217.700835038837 L 517 2217.700835038837 L 518 2222.6024025105335 L 518 2222.6024025105335 L 519 2227.503969982229 L 519 2227.503969982229 L 520 2232.4055374539257 L 520 2232.4055374539257 L 521 2237.307104925622 L 521 2237.307104925622 L 522 2242.208672397318 L 522 2242.208672397318 L 523 2247.110239869014 L 523 2247.110239869014 L 524 2252.011807340711 L 524 2252.011807340711 L 525 2256.9133748124073 L 525 2256.9133748124073 L 526 2261.814942284103 L 526 2261.814942284103 L 527 2266.7165097557995 L 527 2266.7165097557995 L 528 2271.6180772274956 L 528 2271.6180772274956 L 529 2276.5196446991918 L 529 2276.5196446991918 L 530 2281.4212121708883 L 530 2281.4212121708883 L 531 2286.322779642585 L 531 2286.322779642585 L 532 2291.2243471142806 L 532 2291.2243471142806 L 533 2296.125914585977 L 533 2296.125914585977 L 534 2301.0274820576733 L 534 2301.0274820576733 L 535 2305.9290495293694 L 535 2305.9290495293694 L 536 2310.830617001066 L 536 2310.830617001066 L 537 2315.7321844727626 L 537 2315.7321844727626 L 538 2320.6337519444583 L 538 2320.6337519444583 L 539 2325.535319416155 L 539 2325.535319416155 L 540 2330.4368868878514 L 540 2330.4368868878514 L 541 2335.3384543595475 L 541 2335.3384543595475 L 542 2340.2400218312437 L 542 2340.2400218312437 L 543 2345.14158930294 L 543 2345.14158930294 L 544 2350.0431567746364 L 544 2350.0431567746364 L 545 2354.944724246333 L 545 2354.944724246333 L 546 2359.846291718029 L 546 2359.846291718029 L 547 2364.747859189725 L 547 2364.747859189725 L 548 2369.6494266614213 L 548 2369.6494266614213 L 549 2374.550994133118 L 549 2374.550994133118 L 550 2379.4525616048136 L 550 2379.4525616048136 L 551 2384.35412907651 L 551 2384.35412907651 L 552 2389.2556965482067 L 552 2389.2556965482067 L 553 2394.157264019903 L 553 2394.157264019903 L 554 2399.0588314915985 L 554 2399.0588314915985 L 555 2403.9603989632956 L 555 2403.9603989632956 L 556 2408.8619664349917 L 556 2408.8619664349917 L 557 2413.7635339066874 L 557 2413.7635339066874 L 558 2418.665101378384 L 558 2418.665101378384 L 559 2423.5666688500805 L 559 2423.5666688500805 L 560 2428.4682363217767 L 560 2428.4682363217767 L 561 2433.369803793473 L 561 2433.369803793473 L 562 2438.2713712651694 L 562 2438.2713712651694 L 563 2443.1729387368655 L 563 2443.1729387368655 L 564 2448.0745062085616 L 564 2448.0745062085616 L 565 2452.9760736802577 L 565 2452.9760736802577 L 566 2457.8776411519543 L 566 2457.8776411519543 L 567 2462.779208623651 L 567 2462.779208623651 L 568 2467.6807760953475 L 568 2467.6807760953475 L 569 2472.5823435670427 L 569 2472.5823435670427 L 570 2477.4839110387393 L 570 2477.4839110387393 L 571 2482.385478510436 L 571 2482.385478510436 L 572 2487.287045982132 L 572 2487.287045982132 L 573 2492.188613453828 L 573 2492.188613453828 L 574 2497.0901809255247 L 574 2497.0901809255247 L 575 2501.991748397221 L 575 2501.991748397221 L 576 2506.8933158689174 L 576 2506.8933158689174 L 577 2511.7948833406135 L 577 2511.7948833406135 L 578 2516.6964508123096 L 578 2516.6964508123096 L 579 2521.5980182840062 L 579 2521.5980182840062 L 580 2526.499585755703 L 580 2526.499585755703 L 581 2531.4011532273985 L 581 2531.4011532273985 L 582 2536.3027206990946 L 582 2536.3027206990946 L 583 2541.2042881707916 L 583 2541.2042881707916 L 584 2546.1058556424878 L 584 2546.1058556424878 L 585 2551.0074231141834 L 585 2551.0074231141834 L 586 2555.90899058588 L 586 2555.90899058588 L 587 2560.8105580575766 L 587 2560.8105580575766 L 588 2565.7121255292723 L 588 2565.7121255292723 L 589 2570.613693000969 L 589 2570.613693000969 L 590 2575.5152604726654 L 590 2575.5152604726654 L 591 2580.416827944361 L 591 2580.416827944361 L 592 2585.3183954160572 L 592 2585.3183954160572 L 593 2590.219962887754 L 593 2590.219962887754 L 594 2595.1215303594504 L 594 2595.1215303594504 L 595 2600.023097831147 L 595 2600.023097831147 L 596 2604.9246653028426 L 596 2604.9246653028426 L 597 2609.8262327745388 L 597 2609.8262327745388 L 598 2614.7278002462353 L 598 2614.7278002462353 L 599 2619.629367717932 L 599 2619.629367717932 L 600 2624.5309351896276 L 600 2624.5309351896276 L 601 2629.432502661324 L 601 2629.432502661324 L 602 2634.3340701330208 L 602 2634.3340701330208 L 603 2639.235637604717 L 603 2639.235637604717 L 604 2644.137205076413 L 604 2644.137205076413 L 605.0000000000001 2649.0387725481096 L 605.0000000000001 2649.0387725481096 L 606 2653.9403400198057 L 606 2653.9403400198057 L 607 2658.8419074915014 L 607 2658.8419074915014 L 608.0000000000001 2663.743474963198 L 608.0000000000001 2663.743474963198 L 609 2668.6450424348945 L 609 2668.6450424348945 L 610 2673.5466099065907 L 610 2673.5466099065907 L 611.0000000000001 2678.4481773782877 L 611.0000000000001 2678.4481773782877 L 612 2683.349744849983 L 612 2683.349744849983 L 613 2688.251312321679 L 613 2688.251312321679 L 614 2693.1528797933756 L 614 2693.1528797933756 L 615 2698.054447265072 L 615 2698.054447265072 L 616 2702.9560147367683 L 616 2702.9560147367683 L 617 2707.8575822084645 L 617 2707.8575822084645 L 618 2712.759149680161 L 618 2712.759149680161 L 619 2717.660717151857 L 619 2717.660717151857 L 620 2722.5622846235533 L 620 2722.5622846235533 L 621 2727.46385209525 L 621 2727.46385209525 L 622 2732.365419566946" stroke-opacity="0.6980392156862745" stroke-linecap="round" stroke-linejoin="round" stroke-miterlimit="10" stroke-width="2.5"/><text fill="rgb(153,51,255)" stroke="none" font-family="geogebra-sans-serif, sans-serif" font-size="16px" font-style="normal" font-weight="normal" text-decoration="normal" x="66" y="24" text-anchor="start" dominant-baseline="alphabetic" fill-opacity="1">Tg</text><text fill="none" stroke="rgb(255,255,255)" font-family="geogebra-sans-serif, sans-serif" font-size="16px" font-style="normal" font-weight="normal" text-decoration="normal" x="66" y="24" text-anchor="start" dominant-baseline="alphabetic" stroke-opacity="1" stroke-linejoin="bevel" stroke-miterlimit="10" stroke-width="3">Tg</text><text fill="rgb(153,51,255)" stroke="none" font-family="geogebra-sans-serif, sans-serif" font-size="16px" font-style="normal" font-weight="normal" text-decoration="normal" x="66" y="24" text-anchor="start" dominant-baseline="alphabetic" fill-opacity="1">Tg</text><path fill="none" stroke="rgb(255,85,0)" paint-order="fill stroke markers" d=" M 73.99999999989852 46.306445076888224 L 75.87499999994927 55.394938916674846 L 77.75 64.28255236987246 M 77.75 64.28255236987246 L 78.96484375 69.93584021979512 L 80.1796875 75.50785074159643 L 81.39453125 80.99975245954789 L 82.609375 86.41269709804573 L 83.82421875 91.74781982314289 L 85.0390625 97.00623948060809 L 86.25390625 102.18905883056277 L 87.46875 107.2973647787444 L 89.8984375 117.29470618517229 L 92.328125 127.006650438225 L 94.7578125 136.44134485745894 L 97.1875 145.60670417841527 L 99.6171875 154.5104171922663 L 102.046875 163.15995319591843 L 104.4765625 171.56256825798175 L 106.90625 179.72531130586344 L 109.3359375 187.65503003909072 L 111.765625 195.35837667382435 L 114.1953125 202.8418135233822 L 116.625 210.11161841945346 L 119.0546875 217.17388997855193 L 121.484375 224.0345527181262 L 123.9140625 230.69936202661896 L 126.34375 237.173908991644 L 128.7734375 243.46362509033244 L 131.203125 249.57378674578163 L 133.6328125 255.50951975342977 L 136.0625 261.27580358107 L 138.4921875 266.87747554610996 L 140.921875 272.31923487358245 L 143.3515625 277.6056466383103 L 145.78125 282.7411455945336 L 150.640625 292.57651471111603 L 155.5 301.8583525860997 M 155.5 301.8583525860997 L 160.359375 310.61781177022226 L 165.21875 318.8842915592201 L 170.078125 326.6855366664265 L 174.9375 334.04773034210837 L 179.796875 340.9955822520787 L 184.65625 347.55241141053006 L 189.515625 353.7402244454372 L 194.375 359.57978945920826 L 199.234375 365.09070573248425 L 204.09374999999997 370.291469505032 L 208.953125 375.1995360545111 L 213.81249999999997 379.83137828146806 L 218.671875 384.20254199718806 L 223.53125 388.3276980999641 L 228.39062499999997 392.2206918149037 L 233.24999999999997 395.89458916253636 L 238.109375 399.3617208121829 L 242.96875 402.6337234672725 L 247.828125 405.72157892150796 L 252.68749999999997 408.6356509169632 L 257.546875 411.38571992781937 L 262.40625 413.9810159864846 L 267.265625 416.43024966227017 L 272.125 418.74164129659766 L 276.984375 420.92294859285875 L 281.84375 422.98149265352635 L 286.703125 424.9241825519067 L 291.5625 426.7575385210014 L 296.421875 428.48771383730747 L 301.28125 430.12051547300575 L 306.140625 431.66142358584995 L 311 433.11560991217226 M 311 433.11560991217226 L 315.859375 434.48795512473635 L 320.71875 435.78306521369615 L 325.578125 437.0052869456404 L 330.4375 438.158722452607 L 335.296875 439.2472430000324 L 340.15625 440.2745019798461 L 345.01562499999994 441.2439471723174 L 349.875 442.1588323178103 L 354.734375 443.0222280372835 L 359.59375 443.8370321381885 L 364.453125 444.605979340355 L 369.3125 445.33165045450767 L 374.17187499999994 446.0164810442175 L 379.03124999999994 446.6627696003632 L 383.890625 447.2726852555356 L 388.75 447.8482750642779 L 393.609375 448.39147087359754 L 398.46875 448.9040958068067 L 403.328125 449.3878703824553 L 408.1875 449.8444182888921 L 413.046875 450.2752718338358 L 417.90625 450.68187708724594 L 422.765625 451.0655987347544 L 427.62499999999994 451.4277246579484 L 432.48437499999994 451.7694702568754 L 437.34374999999994 452.0919825292803 L 442.20312499999994 452.39634392026335 L 447.06249999999994 452.6835759552814 L 451.921875 452.9546426686845 L 456.78125 453.2104538392964 L 461.640625 453.45186804389664 L 466.5 453.6796955388545 L 471.359375 453.89470097958554 L 476.21874999999994 454.0976059869573 L 481.07812500000006 454.28909156925965 L 485.93750000000006 454.46980040786656 L 490.796875 454.6403390142618 L 495.65625 454.80127976566877 L 500.515625 454.9531628261142 L 505.375 455.0964979593766 L 510.234375 455.23176623990184 L 515.09375 455.3594216674289 L 519.953125 455.4798926907451 L 524.8125 455.5935836456853 L 529.671875 455.7008761122008 L 534.53125 455.8021301950521 L 539.390625 455.89768573242594 L 544.25 455.98786343653126 L 549.109375 456.07296597000226 L 553.96875 456.1532789617228 L 558.828125 456.22907196547976 L 563.6875 456.30059936466444 L 568.546875 456.3681012260569 L 573.40625 456.43180410556033 L 578.265625 456.49192180858813 L 583.125 456.5486561076578 L 587.984375 456.60219741959776 L 592.84375 456.6527254446418 L 597.703125 456.7004097695557 L 602.5625 456.74541043681904 L 607.421875 456.78787848177535 L 612.28125 456.82795643954995 L 617.140625 456.86577882343965 L 622 456.9014725763785" stroke-opacity="0.6980392156862745" stroke-linecap="round" stroke-linejoin="round" stroke-miterlimit="10" stroke-width="2.5"/><text fill="rgb(255,85,0)" stroke="none" font-family="geogebra-sans-serif, sans-serif" font-size="16px" font-style="normal" font-weight="normal" text-decoration="normal" x="75" y="55" text-anchor="start" dominant-baseline="alphabetic" fill-opacity="1">N</text><text fill="none" stroke="rgb(255,255,255)" font-family="geogebra-sans-serif, sans-serif" font-size="16px" font-style="normal" font-weight="normal" text-decoration="normal" x="75" y="55" text-anchor="start" dominant-baseline="alphabetic" stroke-opacity="1" stroke-linejoin="bevel" stroke-miterlimit="10" stroke-width="3">N</text><text fill="rgb(255,85,0)" stroke="none" font-family="geogebra-sans-serif, sans-serif" font-size="16px" font-style="normal" font-weight="normal" text-decoration="normal" x="75" y="55" text-anchor="start" dominant-baseline="alphabetic" fill-opacity="1">N</text><path fill="none" stroke="rgb(0,0,0)" paint-order="fill stroke markers" d=" M 493.45108100318896 546 L 493.45108100318896 -5" stroke-opacity="0.6980392156862745" stroke-linecap="round" stroke-linejoin="round" stroke-miterlimit="10" stroke-width="2.5"/><text fill="rgb(0,0,0)" stroke="none" font-family="geogebra-sans-serif, sans-serif" font-size="16px" font-style="normal" font-weight="normal" text-decoration="normal" x="477" y="24" text-anchor="start" dominant-baseline="alphabetic" fill-opacity="1">perm = 5τ</text><text fill="none" stroke="rgb(255,255,255)" font-family="geogebra-sans-serif, sans-serif" font-size="16px" font-style="normal" font-weight="normal" text-decoration="normal" x="477" y="24" text-anchor="start" dominant-baseline="alphabetic" stroke-opacity="1" stroke-linejoin="bevel" stroke-miterlimit="10" stroke-width="3">perm = 5τ</text><text fill="rgb(0,0,0)" stroke="none" font-family="geogebra-sans-serif, sans-serif" font-size="16px" font-style="normal" font-weight="normal" text-decoration="normal" x="477" y="24" text-anchor="start" dominant-baseline="alphabetic" fill-opacity="1">perm = 5τ</text><path fill="rgb(68,68,68)" stroke="none" paint-order="stroke fill markers" d=" M 161.89021620063778 457.49999999999994 C 161.89021620063778 459.7091389993231 160.09935519996094 461.49999999999994 157.89021620063778 461.49999999999994 C 155.6810772013146 461.49999999999994 153.89021620063778 459.7091389993231 153.89021620063778 457.49999999999994 C 153.89021620063778 455.2908610006768 155.6810772013146 453.49999999999994 157.89021620063778 453.49999999999994 C 160.09935519996094 453.49999999999994 161.89021620063778 455.2908610006768 161.89021620063778 457.49999999999994 Z" fill-opacity="1"/><path fill="none" stroke="rgb(0,0,0)" paint-order="fill stroke markers" d=" M 161.89021620063778 457.49999999999994 C 161.89021620063778 459.7091389993231 160.09935519996094 461.49999999999994 157.89021620063778 461.49999999999994 C 155.6810772013146 461.49999999999994 153.89021620063778 459.7091389993231 153.89021620063778 457.49999999999994 C 153.89021620063778 455.2908610006768 155.6810772013146 453.49999999999994 157.89021620063778 453.49999999999994 C 160.09935519996094 453.49999999999994 161.89021620063778 455.2908610006768 161.89021620063778 457.49999999999994 Z" stroke-opacity="1" stroke-linecap="round" stroke-linejoin="round" stroke-miterlimit="10"/><text fill="rgb(68,68,68)" stroke="none" font-family="geogebra-sans-serif, sans-serif" font-size="16px" font-style="normal" font-weight="normal" text-decoration="normal" x="162" y="449" text-anchor="start" dominant-baseline="alphabetic" fill-opacity="1">τ</text><text fill="none" stroke="rgb(255,255,255)" font-family="geogebra-sans-serif, sans-serif" font-size="16px" font-style="normal" font-weight="normal" text-decoration="normal" x="162" y="449" text-anchor="start" dominant-baseline="alphabetic" stroke-opacity="1" stroke-linejoin="bevel" stroke-miterlimit="10" stroke-width="3">τ</text><text fill="rgb(68,68,68)" stroke="none" font-family="geogebra-sans-serif, sans-serif" font-size="16px" font-style="normal" font-weight="normal" text-decoration="normal" x="162" y="449" text-anchor="start" dominant-baseline="alphabetic" fill-opacity="1">τ</text></g></g></svg>