<svg version="1.1" xmlns="http://www.w3.org/2000/svg" xmlns:xlink="http://www.w3.org/1999/xlink" width="622" height="541"><defs><clipPath id="pUuxiOQPzGCW"><path fill="none" stroke="none" d=" M 0 0 L 622 0 L 622 541 L 0 541 L 0 0 Z"/></clipPath></defs><g transform="scale(1,1)" clip-path="url(#pUuxiOQPzGCW)"><g><rect fill="rgb(255,255,255)" stroke="none" x="0" y="0" width="622" height="541" fill-opacity="1"/><path fill="none" stroke="rgb(192,192,192)" paint-order="fill stroke markers" d=" M 31.5 0.5 L 31.5 541.5 M 31.5 0.5 L 31.5 541.5 M 116.5 0.5 L 116.5 541.5 M 159.5 0.5 L 159.5 541.5 M 201.5 0.5 L 201.5 541.5 M 244.5 0.5 L 244.5 541.5 M 286.5 0.5 L 286.5 541.5 M 329.5 0.5 L 329.5 541.5 M 371.5 0.5 L 371.5 541.5 M 414.5 0.5 L 414.5 541.5 M 456.5 0.5 L 456.5 541.5 M 499.5 0.5 L 499.5 541.5 M 541.5 0.5 L 541.5 541.5 M 584.5 0.5 L 584.5 541.5" stroke-opacity="1" stroke-linecap="round" stroke-linejoin="round" stroke-miterlimit="10"/><path fill="none" stroke="rgb(192,192,192)" paint-order="fill stroke markers" d=" M 5.5 0.5 L 5.5 541.5 M 14.5 0.5 L 14.5 541.5 M 22.5 0.5 L 22.5 541.5 M 39.5 0.5 L 39.5 541.5 M 48.5 0.5 L 48.5 541.5 M 56.5 0.5 L 56.5 541.5 M 65.5 0.5 L 65.5 541.5 M 82.5 0.5 L 82.5 541.5 M 91.5 0.5 L 91.5 541.5 M 99.5 0.5 L 99.5 541.5 M 108.5 0.5 L 108.5 541.5 M 125.5 0.5 L 125.5 541.5 M 133.5 0.5 L 133.5 541.5 M 142.5 0.5 L 142.5 541.5 M 150.5 0.5 L 150.5 541.5 M 167.5 0.5 L 167.5 541.5 M 176.5 0.5 L 176.5 541.5 M 184.5 0.5 L 184.5 541.5 M 193.5 0.5 L 193.5 541.5 M 210.5 0.5 L 210.5 541.5 M 218.5 0.5 L 218.5 541.5 M 227.5 0.5 L 227.5 541.5 M 235.5 0.5 L 235.5 541.5 M 252.5 0.5 L 252.5 541.5 M 261.5 0.5 L 261.5 541.5 M 269.5 0.5 L 269.5 541.5 M 278.5 0.5 L 278.5 541.5 M 295.5 0.5 L 295.5 541.5 M 303.5 0.5 L 303.5 541.5 M 312.5 0.5 L 312.5 541.5 M 320.5 0.5 L 320.5 541.5 M 337.5 0.5 L 337.5 541.5 M 346.5 0.5 L 346.5 541.5 M 354.5 0.5 L 354.5 541.5 M 363.5 0.5 L 363.5 541.5 M 380.5 0.5 L 380.5 541.5 M 388.5 0.5 L 388.5 541.5 M 397.5 0.5 L 397.5 541.5 M 405.5 0.5 L 405.5 541.5 M 422.5 0.5 L 422.5 541.5 M 431.5 0.5 L 431.5 541.5 M 439.5 0.5 L 439.5 541.5 M 448.5 0.5 L 448.5 541.5 M 465.5 0.5 L 465.5 541.5 M 473.5 0.5 L 473.5 541.5 M 482.5 0.5 L 482.5 541.5 M 490.5 0.5 L 490.5 541.5 M 507.5 0.5 L 507.5 541.5 M 516.5 0.5 L 516.5 541.5 M 524.5 0.5 L 524.5 541.5 M 533.5 0.5 L 533.5 541.5 M 550.5 0.5 L 550.5 541.5 M 558.5 0.5 L 558.5 541.5 M 567.5 0.5 L 567.5 541.5 M 575.5 0.5 L 575.5 541.5 M 592.5 0.5 L 592.5 541.5 M 601.5 0.5 L 601.5 541.5 M 609.5 0.5 L 609.5 541.5 M 618.5 0.5 L 618.5 541.5" stroke-opacity="0.23529411764705882" stroke-linecap="round" stroke-linejoin="round" stroke-miterlimit="10"/><path fill="none" stroke="rgb(192,192,192)" paint-order="fill stroke markers" d=" M 0.5 36.5 L 622.5 36.5 M 0.5 36.5 L 622.5 36.5 M 0.5 97.5 L 622.5 97.5 M 0.5 157.5 L 622.5 157.5 M 0.5 217.5 L 622.5 217.5 M 0.5 277.5 L 622.5 277.5 M 0.5 337.5 L 622.5 337.5 M 0.5 397.5 L 622.5 397.5 M 0.5 517.5 L 622.5 517.5" stroke-opacity="1" stroke-linecap="round" stroke-linejoin="round" stroke-miterlimit="10"/><path fill="none" stroke="rgb(192,192,192)" paint-order="fill stroke markers" d=" M 0.5 0.5 L 622.5 0.5 M 0.5 0.5 L 622.5 0.5 M 0.5 12.5 L 622.5 12.5 M 0.5 24.5 L 622.5 24.5 M 0.5 48.5 L 622.5 48.5 M 0.5 61.5 L 622.5 61.5 M 0.5 73.5 L 622.5 73.5 M 0.5 85.5 L 622.5 85.5 M 0.5 109.5 L 622.5 109.5 M 0.5 121.5 L 622.5 121.5 M 0.5 133.5 L 622.5 133.5 M 0.5 145.5 L 622.5 145.5 M 0.5 169.5 L 622.5 169.5 M 0.5 181.5 L 622.5 181.5 M 0.5 193.5 L 622.5 193.5 M 0.5 205.5 L 622.5 205.5 M 0.5 229.5 L 622.5 229.5 M 0.5 241.5 L 622.5 241.5 M 0.5 253.5 L 622.5 253.5 M 0.5 265.5 L 622.5 265.5 M 0.5 289.5 L 622.5 289.5 M 0.5 301.5 L 622.5 301.5 M 0.5 313.5 L 622.5 313.5 M 0.5 325.5 L 622.5 325.5 M 0.5 349.5 L 622.5 349.5 M 0.5 361.5 L 622.5 361.5 M 0.5 373.5 L 622.5 373.5 M 0.5 385.5 L 622.5 385.5 M 0.5 409.5 L 622.5 409.5 M 0.5 421.5 L 622.5 421.5 M 0.5 433.5 L 622.5 433.5 M 0.5 445.5 L 622.5 445.5 M 0.5 469.5 L 622.5 469.5 M 0.5 481.5 L 622.5 481.5 M 0.5 493.5 L 622.5 493.5 M 0.5 505.5 L 622.5 505.5 M 0.5 529.5 L 622.5 529.5" stroke-opacity="0.23529411764705882" stroke-linecap="round" stroke-linejoin="round" stroke-miterlimit="10"/><path fill="none" stroke="rgb(0,0,0)" paint-order="fill stroke markers" d=" M 74.5 2.5 L 74.5 541.5" stroke-opacity="1" stroke-miterlimit="10"/><path fill="none" stroke="rgb(0,0,0)" paint-order="fill stroke markers" d=" M 74.5 1.5 L 70.5 5.5" stroke-opacity="1" stroke-miterlimit="10"/><path fill="none" stroke="rgb(0,0,0)" paint-order="fill stroke markers" d=" M 74.5 1.5 L 78.5 5.5" stroke-opacity="1" stroke-miterlimit="10"/><path fill="none" stroke="rgb(0,0,0)" paint-order="fill stroke markers" d=" M 0.5 457.5 L 620.5 457.5" stroke-opacity="1" stroke-miterlimit="10"/><path fill="none" stroke="rgb(0,0,0)" paint-order="fill stroke markers" d=" M 621.5 457.5 L 617.5 453.5" stroke-opacity="1" stroke-miterlimit="10"/><path fill="none" stroke="rgb(0,0,0)" paint-order="fill stroke markers" d=" M 621.5 457.5 L 617.5 461.5" stroke-opacity="1" stroke-miterlimit="10"/><text fill="rgb(0,0,0)" stroke="none" font-family="geogebra-sans-serif, sans-serif" font-size="12px" font-style="normal" font-weight="normal" text-decoration="normal" x="20" y="473" text-anchor="start" dominant-baseline="alphabetic" fill-opacity="1">–0.2</text><text fill="none" stroke="rgb(255,255,255)" font-family="geogebra-sans-serif, sans-serif" font-size="12px" font-style="normal" font-weight="normal" text-decoration="normal" x="20" y="473" text-anchor="start" dominant-baseline="alphabetic" stroke-opacity="1" stroke-linejoin="bevel" stroke-miterlimit="10" stroke-width="3">–0.2</text><text fill="rgb(0,0,0)" stroke="none" font-family="geogebra-sans-serif, sans-serif" font-size="12px" font-style="normal" font-weight="normal" text-decoration="normal" x="20" y="473" text-anchor="start" dominant-baseline="alphabetic" fill-opacity="1">–0.2</text><text fill="rgb(0,0,0)" stroke="none" font-family="geogebra-sans-serif, sans-serif" font-size="12px" font-style="normal" font-weight="normal" text-decoration="normal" x="108" y="473" text-anchor="start" dominant-baseline="alphabetic" fill-opacity="1">0.2</text><text fill="none" stroke="rgb(255,255,255)" font-family="geogebra-sans-serif, sans-serif" font-size="12px" font-style="normal" font-weight="normal" text-decoration="normal" x="108" y="473" text-anchor="start" dominant-baseline="alphabetic" stroke-opacity="1" stroke-linejoin="bevel" stroke-miterlimit="10" stroke-width="3">0.2</text><text fill="rgb(0,0,0)" stroke="none" font-family="geogebra-sans-serif, sans-serif" font-size="12px" font-style="normal" font-weight="normal" text-decoration="normal" x="108" y="473" text-anchor="start" dominant-baseline="alphabetic" fill-opacity="1">0.2</text><text fill="rgb(0,0,0)" stroke="none" font-family="geogebra-sans-serif, sans-serif" font-size="12px" font-style="normal" font-weight="normal" text-decoration="normal" x="151" y="473" text-anchor="start" dominant-baseline="alphabetic" fill-opacity="1">0.4</text><text fill="none" stroke="rgb(255,255,255)" font-family="geogebra-sans-serif, sans-serif" font-size="12px" font-style="normal" font-weight="normal" text-decoration="normal" x="151" y="473" text-anchor="start" dominant-baseline="alphabetic" stroke-opacity="1" stroke-linejoin="bevel" stroke-miterlimit="10" stroke-width="3">0.4</text><text fill="rgb(0,0,0)" stroke="none" font-family="geogebra-sans-serif, sans-serif" font-size="12px" font-style="normal" font-weight="normal" text-decoration="normal" x="151" y="473" text-anchor="start" dominant-baseline="alphabetic" fill-opacity="1">0.4</text><text fill="rgb(0,0,0)" stroke="none" font-family="geogebra-sans-serif, sans-serif" font-size="12px" font-style="normal" font-weight="normal" text-decoration="normal" x="193" y="473" text-anchor="start" dominant-baseline="alphabetic" fill-opacity="1">0.6</text><text fill="none" stroke="rgb(255,255,255)" font-family="geogebra-sans-serif, sans-serif" font-size="12px" font-style="normal" font-weight="normal" text-decoration="normal" x="193" y="473" text-anchor="start" dominant-baseline="alphabetic" stroke-opacity="1" stroke-linejoin="bevel" stroke-miterlimit="10" stroke-width="3">0.6</text><text fill="rgb(0,0,0)" stroke="none" font-family="geogebra-sans-serif, sans-serif" font-size="12px" font-style="normal" font-weight="normal" text-decoration="normal" x="193" y="473" text-anchor="start" dominant-baseline="alphabetic" fill-opacity="1">0.6</text><text fill="rgb(0,0,0)" stroke="none" font-family="geogebra-sans-serif, sans-serif" font-size="12px" font-style="normal" font-weight="normal" text-decoration="normal" x="236" y="473" text-anchor="start" dominant-baseline="alphabetic" fill-opacity="1">0.8</text><text fill="none" stroke="rgb(255,255,255)" font-family="geogebra-sans-serif, sans-serif" font-size="12px" font-style="normal" font-weight="normal" text-decoration="normal" x="236" y="473" text-anchor="start" dominant-baseline="alphabetic" stroke-opacity="1" stroke-linejoin="bevel" stroke-miterlimit="10" stroke-width="3">0.8</text><text fill="rgb(0,0,0)" stroke="none" font-family="geogebra-sans-serif, sans-serif" font-size="12px" font-style="normal" font-weight="normal" text-decoration="normal" x="236" y="473" text-anchor="start" dominant-baseline="alphabetic" fill-opacity="1">0.8</text><text fill="rgb(0,0,0)" stroke="none" font-family="geogebra-sans-serif, sans-serif" font-size="12px" font-style="normal" font-weight="normal" text-decoration="normal" x="284" y="473" text-anchor="start" dominant-baseline="alphabetic" fill-opacity="1">1</text><text fill="none" stroke="rgb(255,255,255)" font-family="geogebra-sans-serif, sans-serif" font-size="12px" font-style="normal" font-weight="normal" text-decoration="normal" x="284" y="473" text-anchor="start" dominant-baseline="alphabetic" stroke-opacity="1" stroke-linejoin="bevel" stroke-miterlimit="10" stroke-width="3">1</text><text fill="rgb(0,0,0)" stroke="none" font-family="geogebra-sans-serif, sans-serif" font-size="12px" font-style="normal" font-weight="normal" text-decoration="normal" x="284" y="473" text-anchor="start" dominant-baseline="alphabetic" fill-opacity="1">1</text><text fill="rgb(0,0,0)" stroke="none" font-family="geogebra-sans-serif, sans-serif" font-size="12px" font-style="normal" font-weight="normal" text-decoration="normal" x="321" y="473" text-anchor="start" dominant-baseline="alphabetic" fill-opacity="1">1.2</text><text fill="none" stroke="rgb(255,255,255)" font-family="geogebra-sans-serif, sans-serif" font-size="12px" font-style="normal" font-weight="normal" text-decoration="normal" x="321" y="473" text-anchor="start" dominant-baseline="alphabetic" stroke-opacity="1" stroke-linejoin="bevel" stroke-miterlimit="10" stroke-width="3">1.2</text><text fill="rgb(0,0,0)" stroke="none" font-family="geogebra-sans-serif, sans-serif" font-size="12px" font-style="normal" font-weight="normal" text-decoration="normal" x="321" y="473" text-anchor="start" dominant-baseline="alphabetic" fill-opacity="1">1.2</text><text fill="rgb(0,0,0)" stroke="none" font-family="geogebra-sans-serif, sans-serif" font-size="12px" font-style="normal" font-weight="normal" text-decoration="normal" x="363" y="473" text-anchor="start" dominant-baseline="alphabetic" fill-opacity="1">1.4</text><text fill="none" stroke="rgb(255,255,255)" font-family="geogebra-sans-serif, sans-serif" font-size="12px" font-style="normal" font-weight="normal" text-decoration="normal" x="363" y="473" text-anchor="start" dominant-baseline="alphabetic" stroke-opacity="1" stroke-linejoin="bevel" stroke-miterlimit="10" stroke-width="3">1.4</text><text fill="rgb(0,0,0)" stroke="none" font-family="geogebra-sans-serif, sans-serif" font-size="12px" font-style="normal" font-weight="normal" text-decoration="normal" x="363" y="473" text-anchor="start" dominant-baseline="alphabetic" fill-opacity="1">1.4</text><text fill="rgb(0,0,0)" stroke="none" font-family="geogebra-sans-serif, sans-serif" font-size="12px" font-style="normal" font-weight="normal" text-decoration="normal" x="406" y="473" text-anchor="start" dominant-baseline="alphabetic" fill-opacity="1">1.6</text><text fill="none" stroke="rgb(255,255,255)" font-family="geogebra-sans-serif, sans-serif" font-size="12px" font-style="normal" font-weight="normal" text-decoration="normal" x="406" y="473" text-anchor="start" dominant-baseline="alphabetic" stroke-opacity="1" stroke-linejoin="bevel" stroke-miterlimit="10" stroke-width="3">1.6</text><text fill="rgb(0,0,0)" stroke="none" font-family="geogebra-sans-serif, sans-serif" font-size="12px" font-style="normal" font-weight="normal" text-decoration="normal" x="406" y="473" text-anchor="start" dominant-baseline="alphabetic" fill-opacity="1">1.6</text><text fill="rgb(0,0,0)" stroke="none" font-family="geogebra-sans-serif, sans-serif" font-size="12px" font-style="normal" font-weight="normal" text-decoration="normal" x="448" y="473" text-anchor="start" dominant-baseline="alphabetic" fill-opacity="1">1.8</text><text fill="none" stroke="rgb(255,255,255)" font-family="geogebra-sans-serif, sans-serif" font-size="12px" font-style="normal" font-weight="normal" text-decoration="normal" x="448" y="473" text-anchor="start" dominant-baseline="alphabetic" stroke-opacity="1" stroke-linejoin="bevel" stroke-miterlimit="10" stroke-width="3">1.8</text><text fill="rgb(0,0,0)" stroke="none" font-family="geogebra-sans-serif, sans-serif" font-size="12px" font-style="normal" font-weight="normal" text-decoration="normal" x="448" y="473" text-anchor="start" dominant-baseline="alphabetic" fill-opacity="1">1.8</text><text fill="rgb(0,0,0)" stroke="none" font-family="geogebra-sans-serif, sans-serif" font-size="12px" font-style="normal" font-weight="normal" text-decoration="normal" x="497" y="473" text-anchor="start" dominant-baseline="alphabetic" fill-opacity="1">2</text><text fill="none" stroke="rgb(255,255,255)" font-family="geogebra-sans-serif, sans-serif" font-size="12px" font-style="normal" font-weight="normal" text-decoration="normal" x="497" y="473" text-anchor="start" dominant-baseline="alphabetic" stroke-opacity="1" stroke-linejoin="bevel" stroke-miterlimit="10" stroke-width="3">2</text><text fill="rgb(0,0,0)" stroke="none" font-family="geogebra-sans-serif, sans-serif" font-size="12px" font-style="normal" font-weight="normal" text-decoration="normal" x="497" y="473" text-anchor="start" dominant-baseline="alphabetic" fill-opacity="1">2</text><text fill="rgb(0,0,0)" stroke="none" font-family="geogebra-sans-serif, sans-serif" font-size="12px" font-style="normal" font-weight="normal" text-decoration="normal" x="533" y="473" text-anchor="start" dominant-baseline="alphabetic" fill-opacity="1">2.2</text><text fill="none" stroke="rgb(255,255,255)" font-family="geogebra-sans-serif, sans-serif" font-size="12px" font-style="normal" font-weight="normal" text-decoration="normal" x="533" y="473" text-anchor="start" dominant-baseline="alphabetic" stroke-opacity="1" stroke-linejoin="bevel" stroke-miterlimit="10" stroke-width="3">2.2</text><text fill="rgb(0,0,0)" stroke="none" font-family="geogebra-sans-serif, sans-serif" font-size="12px" font-style="normal" font-weight="normal" text-decoration="normal" x="533" y="473" text-anchor="start" dominant-baseline="alphabetic" fill-opacity="1">2.2</text><text fill="rgb(0,0,0)" stroke="none" font-family="geogebra-sans-serif, sans-serif" font-size="12px" font-style="normal" font-weight="normal" text-decoration="normal" x="576" y="473" text-anchor="start" dominant-baseline="alphabetic" fill-opacity="1">2.4</text><text fill="none" stroke="rgb(255,255,255)" font-family="geogebra-sans-serif, sans-serif" font-size="12px" font-style="normal" font-weight="normal" text-decoration="normal" x="576" y="473" text-anchor="start" dominant-baseline="alphabetic" stroke-opacity="1" stroke-linejoin="bevel" stroke-miterlimit="10" stroke-width="3">2.4</text><text fill="rgb(0,0,0)" stroke="none" font-family="geogebra-sans-serif, sans-serif" font-size="12px" font-style="normal" font-weight="normal" text-decoration="normal" x="576" y="473" text-anchor="start" dominant-baseline="alphabetic" fill-opacity="1">2.4</text><text fill="rgb(0,0,0)" stroke="none" font-family="geogebra-sans-serif, sans-serif" font-size="12px" font-style="normal" font-weight="normal" text-decoration="normal" x="53" y="522" text-anchor="start" dominant-baseline="alphabetic" fill-opacity="1">–2</text><text fill="none" stroke="rgb(255,255,255)" font-family="geogebra-sans-serif, sans-serif" font-size="12px" font-style="normal" font-weight="normal" text-decoration="normal" x="53" y="522" text-anchor="start" dominant-baseline="alphabetic" stroke-opacity="1" stroke-linejoin="bevel" stroke-miterlimit="10" stroke-width="3">–2</text><text fill="rgb(0,0,0)" stroke="none" font-family="geogebra-sans-serif, sans-serif" font-size="12px" font-style="normal" font-weight="normal" text-decoration="normal" x="53" y="522" text-anchor="start" dominant-baseline="alphabetic" fill-opacity="1">–2</text><text fill="rgb(0,0,0)" stroke="none" font-family="geogebra-sans-serif, sans-serif" font-size="12px" font-style="normal" font-weight="normal" text-decoration="normal" x="59" y="402" text-anchor="start" dominant-baseline="alphabetic" fill-opacity="1">2</text><text fill="none" stroke="rgb(255,255,255)" font-family="geogebra-sans-serif, sans-serif" font-size="12px" font-style="normal" font-weight="normal" text-decoration="normal" x="59" y="402" text-anchor="start" dominant-baseline="alphabetic" stroke-opacity="1" stroke-linejoin="bevel" stroke-miterlimit="10" stroke-width="3">2</text><text fill="rgb(0,0,0)" stroke="none" font-family="geogebra-sans-serif, sans-serif" font-size="12px" font-style="normal" font-weight="normal" text-decoration="normal" x="59" y="402" text-anchor="start" dominant-baseline="alphabetic" fill-opacity="1">2</text><text fill="rgb(0,0,0)" stroke="none" font-family="geogebra-sans-serif, sans-serif" font-size="12px" font-style="normal" font-weight="normal" text-decoration="normal" x="59" y="342" text-anchor="start" dominant-baseline="alphabetic" fill-opacity="1">4</text><text fill="none" stroke="rgb(255,255,255)" font-family="geogebra-sans-serif, sans-serif" font-size="12px" font-style="normal" font-weight="normal" text-decoration="normal" x="59" y="342" text-anchor="start" dominant-baseline="alphabetic" stroke-opacity="1" stroke-linejoin="bevel" stroke-miterlimit="10" stroke-width="3">4</text><text fill="rgb(0,0,0)" stroke="none" font-family="geogebra-sans-serif, sans-serif" font-size="12px" font-style="normal" font-weight="normal" text-decoration="normal" x="59" y="342" text-anchor="start" dominant-baseline="alphabetic" fill-opacity="1">4</text><text fill="rgb(0,0,0)" stroke="none" font-family="geogebra-sans-serif, sans-serif" font-size="12px" font-style="normal" font-weight="normal" text-decoration="normal" x="59" y="282" text-anchor="start" dominant-baseline="alphabetic" fill-opacity="1">6</text><text fill="none" stroke="rgb(255,255,255)" font-family="geogebra-sans-serif, sans-serif" font-size="12px" font-style="normal" font-weight="normal" text-decoration="normal" x="59" y="282" text-anchor="start" dominant-baseline="alphabetic" stroke-opacity="1" stroke-linejoin="bevel" stroke-miterlimit="10" stroke-width="3">6</text><text fill="rgb(0,0,0)" stroke="none" font-family="geogebra-sans-serif, sans-serif" font-size="12px" font-style="normal" font-weight="normal" text-decoration="normal" x="59" y="282" text-anchor="start" dominant-baseline="alphabetic" fill-opacity="1">6</text><text fill="rgb(0,0,0)" stroke="none" font-family="geogebra-sans-serif, sans-serif" font-size="12px" font-style="normal" font-weight="normal" text-decoration="normal" x="59" y="222" text-anchor="start" dominant-baseline="alphabetic" fill-opacity="1">8</text><text fill="none" stroke="rgb(255,255,255)" font-family="geogebra-sans-serif, sans-serif" font-size="12px" font-style="normal" font-weight="normal" text-decoration="normal" x="59" y="222" text-anchor="start" dominant-baseline="alphabetic" stroke-opacity="1" stroke-linejoin="bevel" stroke-miterlimit="10" stroke-width="3">8</text><text fill="rgb(0,0,0)" stroke="none" font-family="geogebra-sans-serif, sans-serif" font-size="12px" font-style="normal" font-weight="normal" text-decoration="normal" x="59" y="222" text-anchor="start" dominant-baseline="alphabetic" fill-opacity="1">8</text><text fill="rgb(0,0,0)" stroke="none" font-family="geogebra-sans-serif, sans-serif" font-size="12px" font-style="normal" font-weight="normal" text-decoration="normal" x="52" y="162" text-anchor="start" dominant-baseline="alphabetic" fill-opacity="1">10</text><text fill="none" stroke="rgb(255,255,255)" font-family="geogebra-sans-serif, sans-serif" font-size="12px" font-style="normal" font-weight="normal" text-decoration="normal" x="52" y="162" text-anchor="start" dominant-baseline="alphabetic" stroke-opacity="1" stroke-linejoin="bevel" stroke-miterlimit="10" stroke-width="3">10</text><text fill="rgb(0,0,0)" stroke="none" font-family="geogebra-sans-serif, sans-serif" font-size="12px" font-style="normal" font-weight="normal" text-decoration="normal" x="52" y="162" text-anchor="start" dominant-baseline="alphabetic" fill-opacity="1">10</text><text fill="rgb(0,0,0)" stroke="none" font-family="geogebra-sans-serif, sans-serif" font-size="12px" font-style="normal" font-weight="normal" text-decoration="normal" x="52" y="102" text-anchor="start" dominant-baseline="alphabetic" fill-opacity="1">12</text><text fill="none" stroke="rgb(255,255,255)" font-family="geogebra-sans-serif, sans-serif" font-size="12px" font-style="normal" font-weight="normal" text-decoration="normal" x="52" y="102" text-anchor="start" dominant-baseline="alphabetic" stroke-opacity="1" stroke-linejoin="bevel" stroke-miterlimit="10" stroke-width="3">12</text><text fill="rgb(0,0,0)" stroke="none" font-family="geogebra-sans-serif, sans-serif" font-size="12px" font-style="normal" font-weight="normal" text-decoration="normal" x="52" y="102" text-anchor="start" dominant-baseline="alphabetic" fill-opacity="1">12</text><text fill="rgb(0,0,0)" stroke="none" font-family="geogebra-sans-serif, sans-serif" font-size="12px" font-style="normal" font-weight="normal" text-decoration="normal" x="52" y="41" text-anchor="start" dominant-baseline="alphabetic" fill-opacity="1">14</text><text fill="none" stroke="rgb(255,255,255)" font-family="geogebra-sans-serif, sans-serif" font-size="12px" font-style="normal" font-weight="normal" text-decoration="normal" x="52" y="41" text-anchor="start" dominant-baseline="alphabetic" stroke-opacity="1" stroke-linejoin="bevel" stroke-miterlimit="10" stroke-width="3">14</text><text fill="rgb(0,0,0)" stroke="none" font-family="geogebra-sans-serif, sans-serif" font-size="12px" font-style="normal" font-weight="normal" text-decoration="normal" x="52" y="41" text-anchor="start" dominant-baseline="alphabetic" fill-opacity="1">14</text><text fill="rgb(0,0,0)" stroke="none" font-family="geogebra-sans-serif, sans-serif" font-size="12px" font-style="normal" font-weight="normal" text-decoration="normal" x="59" y="473" text-anchor="start" dominant-baseline="alphabetic" fill-opacity="1">0</text><text fill="none" stroke="rgb(255,255,255)" font-family="geogebra-sans-serif, sans-serif" font-size="12px" font-style="normal" font-weight="normal" text-decoration="normal" x="59" y="473" text-anchor="start" dominant-baseline="alphabetic" stroke-opacity="1" stroke-linejoin="bevel" stroke-miterlimit="10" stroke-width="3">0</text><text fill="rgb(0,0,0)" stroke="none" font-family="geogebra-sans-serif, sans-serif" font-size="12px" font-style="normal" font-weight="normal" text-decoration="normal" x="59" y="473" text-anchor="start" dominant-baseline="alphabetic" fill-opacity="1">0</text><path fill="none" stroke="rgb(153,51,255)" paint-order="fill stroke markers" d=" M 0.9999999999999574 704.9568853089011 L 0.9999999999999574 708.3467056555985 L 0.9999999999999574 704.9568853089011 L 1.9999999999999574 701.5670649622039 L 1.9999999999999574 701.5670649622039 L 2.999999999999943 698.1772446155065 L 2.999999999999943 698.1772446155065 L 3.999999999999929 694.7874242688093 L 3.999999999999929 694.7874242688093 L 4.999999999999929 691.397603922112 L 4.999999999999929 691.397603922112 L 5.999999999999957 688.0077835754147 L 5.999999999999957 688.0077835754147 L 6.999999999999957 684.6179632287175 L 6.999999999999957 684.6179632287175 L 7.999999999999943 681.2281428820202 L 7.999999999999943 681.2281428820202 L 8.999999999999943 677.838322535323 L 8.999999999999943 677.838322535323 L 9.999999999999929 674.4485021886258 L 9.999999999999929 674.4485021886258 L 10.999999999999964 671.0586818419283 L 10.999999999999964 671.0586818419283 L 11.999999999999957 667.6688614952311 L 11.999999999999957 667.6688614952311 L 12.99999999999995 664.2790411485339 L 12.99999999999995 664.2790411485339 L 13.999999999999936 660.8892208018366 L 13.999999999999936 660.8892208018366 L 14.999999999999929 657.4994004551394 L 14.999999999999929 657.4994004551394 L 15.999999999999964 654.109580108442 L 15.999999999999964 654.109580108442 L 16.999999999999957 650.7197597617447 L 16.999999999999957 650.7197597617447 L 17.99999999999995 647.3299394150475 L 17.99999999999995 647.3299394150475 L 18.999999999999943 643.9401190683502 L 18.999999999999943 643.9401190683502 L 19.99999999999993 640.550298721653 L 19.99999999999993 640.550298721653 L 20.999999999999922 637.1604783749558 L 20.999999999999922 637.1604783749558 L 21.999999999999964 633.7706580282584 L 21.999999999999964 633.7706580282584 L 22.99999999999995 630.3808376815612 L 22.99999999999995 630.3808376815612 L 23.999999999999943 626.991017334864 L 23.999999999999943 626.991017334864 L 24.999999999999936 623.6011969881666 L 24.999999999999936 623.6011969881666 L 25.99999999999993 620.2113766414694 L 25.99999999999993 620.2113766414694 L 26.999999999999964 616.821556294772 L 26.999999999999964 616.821556294772 L 27.999999999999957 613.4317359480748 L 27.999999999999957 613.4317359480748 L 28.999999999999943 610.0419156013776 L 28.999999999999943 610.0419156013776 L 29.999999999999936 606.6520952546803 L 29.999999999999936 606.6520952546803 L 30.99999999999993 603.262274907983 L 30.99999999999993 603.262274907983 L 31.999999999999964 599.8724545612856 L 31.999999999999964 599.8724545612856 L 32.99999999999996 596.4826342145884 L 32.99999999999996 596.4826342145884 L 33.99999999999995 593.0928138678912 L 33.99999999999995 593.0928138678912 L 34.999999999999936 589.702993521194 L 34.999999999999936 589.702993521194 L 35.99999999999993 586.3131731744968 L 35.99999999999993 586.3131731744968 L 36.99999999999997 582.9233528277994 L 36.99999999999997 582.9233528277994 L 37.99999999999996 579.533532481102 L 37.99999999999996 579.533532481102 L 38.99999999999995 576.1437121344048 L 38.99999999999995 576.1437121344048 L 39.99999999999994 572.7538917877076 L 39.99999999999994 572.7538917877076 L 40.999999999999936 569.3640714410104 L 40.999999999999936 569.3640714410104 L 41.99999999999997 565.974251094313 L 41.99999999999997 565.974251094313 L 42.99999999999996 562.5844307476158 L 42.99999999999996 562.5844307476158 L 43.99999999999996 559.1946104009185 L 43.99999999999996 559.1946104009185 L 44.99999999999994 555.8047900542213 L 44.99999999999994 555.8047900542213 L 45.999999999999936 552.414969707524 L 45.999999999999936 552.414969707524 L 46.99999999999993 549.0251493608268 L 46.99999999999993 549.0251493608268 L 47.999999999999964 545.6353290141294 L 47.999999999999964 545.6353290141294 L 48.99999999999996 542.2455086674322 L 48.99999999999996 542.2455086674322 L 49.99999999999994 538.8556883207349 L 49.99999999999994 538.8556883207349 L 50.999999999999936 535.4658679740377 L 50.999999999999936 535.4658679740377 L 51.99999999999993 532.0760476273405 L 51.99999999999993 532.0760476273405 L 52.99999999999997 528.686227280643 L 52.99999999999997 528.686227280643 L 53.99999999999996 525.2964069339458 L 53.99999999999996 525.2964069339458 L 54.99999999999995 521.9065865872485 L 54.99999999999995 521.9065865872485 L 55.99999999999994 518.5167662405513 L 55.99999999999994 518.5167662405513 L 56.99999999999993 515.1269458938541 L 56.99999999999993 515.1269458938541 L 57.99999999999997 511.73712554715667 L 57.99999999999997 511.73712554715667 L 58.99999999999996 508.34730520045946 L 58.99999999999996 508.34730520045946 L 59.99999999999995 504.9574848537622 L 59.99999999999995 504.9574848537622 L 60.99999999999994 501.567664507065 L 60.99999999999994 501.567664507065 L 61.99999999999993 498.1778441603677 L 61.99999999999993 498.1778441603677 L 62.99999999999997 494.78802381367035 L 62.99999999999997 494.78802381367035 L 63.999999999999964 491.3982034669731 L 63.999999999999964 491.3982034669731 L 64.99999999999996 488.0083831202759 L 64.99999999999996 488.0083831202759 L 65.99999999999994 484.6185627735786 L 65.99999999999994 484.6185627735786 L 66.99999999999993 481.22874242688135 L 66.99999999999993 481.22874242688135 L 67.99999999999993 477.83892208018415 L 67.99999999999993 477.83892208018415 L 68.99999999999997 474.4491017334867 L 68.99999999999997 474.4491017334867 L 69.99999999999996 471.0592813867895 L 69.99999999999996 471.0592813867895 L 70.99999999999994 467.66946104009224 L 70.99999999999994 467.66946104009224 L 71.99999999999994 464.27964069339504 L 71.99999999999994 464.27964069339504 L 72.99999999999993 460.8898203466978 L 72.99999999999993 460.8898203466978 L 73.99999999999997 457.5000000000004 L 73.99999999999997 457.5000000000004 L 74.99999999999996 454.11017965330313 L 74.99999999999996 454.11017965330313 L 75.99999999999994 450.7203593066059 L 75.99999999999994 450.7203593066059 L 76.99999999999994 447.33053895990867 L 76.99999999999994 447.33053895990867 L 77.99999999999993 443.94071861321146 L 77.99999999999993 443.94071861321146 L 78.99999999999997 440.550898266514 L 78.99999999999997 440.550898266514 L 79.99999999999996 437.1610779198168 L 79.99999999999996 437.1610779198168 L 80.99999999999996 433.77125757311956 L 80.99999999999996 433.77125757311956 L 81.99999999999994 430.38143722642235 L 81.99999999999994 430.38143722642235 L 82.99999999999993 426.9916168797251 L 82.99999999999993 426.9916168797251 L 83.99999999999997 423.6017965330277 L 83.99999999999997 423.6017965330277 L 84.99999999999996 420.21197618633045 L 84.99999999999996 420.21197618633045 L 85.99999999999996 416.8221558396332 L 85.99999999999996 416.8221558396332 L 86.99999999999994 413.432335492936 L 86.99999999999994 413.432335492936 L 87.99999999999994 410.0425151462387 L 87.99999999999994 410.0425151462387 L 88.99999999999997 406.65269479954134 L 88.99999999999997 406.65269479954134 L 89.99999999999997 403.2628744528441 L 89.99999999999997 403.2628744528441 L 90.99999999999996 399.87305410614687 L 90.99999999999996 399.87305410614687 L 91.99999999999994 396.4832337594496 L 91.99999999999994 396.4832337594496 L 92.99999999999994 393.0934134127524 L 92.99999999999994 393.0934134127524 L 93.99999999999993 389.70359306605513 L 93.99999999999993 389.70359306605513 L 94.99999999999997 386.31377271935776 L 94.99999999999997 386.31377271935776 L 95.99999999999996 382.9239523726605 L 95.99999999999996 382.9239523726605 L 96.99999999999994 379.53413202596323 L 96.99999999999994 379.53413202596323 L 97.99999999999994 376.144311679266 L 97.99999999999994 376.144311679266 L 98.99999999999996 372.7544913325687 L 98.99999999999996 372.7544913325687 L 99.99999999999994 369.3646709858715 L 99.99999999999994 369.3646709858715 L 100.99999999999996 365.9748506391742 L 100.99999999999996 365.9748506391742 L 101.99999999999994 362.5850302924769 L 101.99999999999994 362.5850302924769 L 102.99999999999994 359.19520994577965 L 102.99999999999994 359.19520994577965 L 103.99999999999996 355.80538959908233 L 103.99999999999996 355.80538959908233 L 104.99999999999994 352.4155692523851 L 104.99999999999994 352.4155692523851 L 105.99999999999997 349.0257489056878 L 105.99999999999997 349.0257489056878 L 106.99999999999996 345.63592855899054 L 106.99999999999996 345.63592855899054 L 107.99999999999994 342.24610821229334 L 107.99999999999994 342.24610821229334 L 108.99999999999996 338.856287865596 L 108.99999999999996 338.856287865596 L 109.99999999999994 335.46646751889875 L 109.99999999999994 335.46646751889875 L 110.99999999999994 332.07664717220155 L 110.99999999999994 332.07664717220155 L 111.99999999999996 328.6868268255042 L 111.99999999999996 328.6868268255042 L 112.99999999999994 325.29700647880696 L 112.99999999999994 325.29700647880696 L 113.99999999999997 321.90718613210964 L 113.99999999999997 321.90718613210964 L 114.99999999999994 318.5173657854124 L 114.99999999999994 318.5173657854124 L 115.99999999999994 315.1275454387152 L 115.99999999999994 315.1275454387152 L 116.99999999999996 311.73772509201785 L 116.99999999999996 311.73772509201785 L 117.99999999999994 308.34790474532065 L 117.99999999999994 308.34790474532065 L 118.99999999999994 304.9580843986234 L 118.99999999999994 304.9580843986234 L 119.99999999999996 301.56826405192606 L 119.99999999999996 301.56826405192606 L 120.99999999999994 298.1784437052288 L 120.99999999999994 298.1784437052288 L 121.99999999999997 294.7886233585315 L 121.99999999999997 294.7886233585315 L 122.99999999999994 291.3988030118343 L 122.99999999999994 291.3988030118343 L 123.99999999999994 288.008982665137 L 123.99999999999994 288.008982665137 L 124.99999999999996 284.6191623184397 L 124.99999999999996 284.6191623184397 L 125.99999999999994 281.22934197174243 L 125.99999999999994 281.22934197174243 L 126.99999999999997 277.8395216250451 L 126.99999999999997 277.8395216250451 L 127.99999999999996 274.4497012783479 L 127.99999999999996 274.4497012783479 L 128.99999999999994 271.0598809316507 L 128.99999999999994 271.0598809316507 L 129.99999999999994 267.6700605849534 L 129.99999999999994 267.6700605849534 L 130.99999999999994 264.2802402382561 L 130.99999999999994 264.2802402382561 L 131.99999999999994 260.89041989155885 L 131.99999999999994 260.89041989155885 L 132.99999999999994 257.50059954486153 L 132.99999999999994 257.50059954486153 L 133.99999999999994 254.11077919816432 L 133.99999999999994 254.11077919816432 L 134.99999999999997 250.720958851467 L 134.99999999999997 250.720958851467 L 135.99999999999994 247.33113850476977 L 135.99999999999994 247.33113850476977 L 136.99999999999994 243.94131815807253 L 136.99999999999994 243.94131815807253 L 137.99999999999994 240.5514978113752 L 137.99999999999994 240.5514978113752 L 138.99999999999994 237.16167746467798 L 138.99999999999994 237.16167746467798 L 139.99999999999997 233.77185711798066 L 139.99999999999997 233.77185711798066 L 140.99999999999994 230.38203677128342 L 140.99999999999994 230.38203677128342 L 141.99999999999994 226.99221642458616 L 141.99999999999994 226.99221642458616 L 142.99999999999994 223.60239607788884 L 142.99999999999994 223.60239607788884 L 143.99999999999994 220.2125757311916 L 143.99999999999994 220.2125757311916 L 144.99999999999994 216.82275538449437 L 144.99999999999994 216.82275538449437 L 145.99999999999994 213.43293503779702 L 145.99999999999994 213.43293503779702 L 146.99999999999994 210.0431146910998 L 146.99999999999994 210.0431146910998 L 147.99999999999994 206.6532943444025 L 147.99999999999994 206.6532943444025 L 148.99999999999994 203.26347399770526 L 148.99999999999994 203.26347399770526 L 149.99999999999994 199.873653651008 L 149.99999999999994 199.873653651008 L 150.99999999999994 196.48383330431074 L 150.99999999999994 196.48383330431074 L 151.99999999999994 193.09401295761347 L 151.99999999999994 193.09401295761347 L 152.99999999999997 189.70419261091615 L 152.99999999999997 189.70419261091615 L 153.99999999999994 186.3143722642189 L 153.99999999999994 186.3143722642189 L 154.99999999999994 182.92455191752168 L 154.99999999999994 182.92455191752168 L 155.99999999999994 179.5347315708243 L 155.99999999999994 179.5347315708243 L 156.99999999999994 176.1449112241271 L 156.99999999999994 176.1449112241271 L 157.99999999999994 172.75509087742984 L 157.99999999999994 172.75509087742984 L 158.99999999999994 169.36527053073257 L 158.99999999999994 169.36527053073257 L 159.99999999999994 165.9754501840353 L 159.99999999999994 165.9754501840353 L 160.99999999999997 162.58562983733805 L 160.99999999999997 162.58562983733805 L 161.99999999999994 159.19580949064078 L 161.99999999999994 159.19580949064078 L 162.99999999999994 155.80598914394358 L 162.99999999999994 155.80598914394358 L 163.99999999999994 152.4161687972462 L 163.99999999999994 152.4161687972462 L 164.99999999999994 149.026348450549 L 164.99999999999994 149.026348450549 L 165.99999999999994 145.63652810385173 L 165.99999999999994 145.63652810385173 L 166.99999999999994 142.2467077571544 L 166.99999999999994 142.2467077571544 L 167.99999999999994 138.85688741045715 L 167.99999999999994 138.85688741045715 L 168.99999999999997 135.46706706375983 L 168.99999999999997 135.46706706375983 L 169.99999999999994 132.07724671706262 L 169.99999999999994 132.07724671706262 L 170.99999999999994 128.68742637036536 L 170.99999999999994 128.68742637036536 L 171.99999999999994 125.2976060236681 L 171.99999999999994 125.2976060236681 L 172.99999999999994 121.90778567697083 L 172.99999999999994 121.90778567697083 L 173.99999999999997 118.51796533027351 L 173.99999999999997 118.51796533027351 L 174.99999999999994 115.12814498357625 L 174.99999999999994 115.12814498357625 L 175.99999999999994 111.73832463687904 L 175.99999999999994 111.73832463687904 L 176.99999999999994 108.34850429018167 L 176.99999999999994 108.34850429018167 L 177.99999999999994 104.95868394348446 L 177.99999999999994 104.95868394348446 L 178.99999999999994 101.5688635967872 L 178.99999999999994 101.5688635967872 L 179.99999999999994 98.17904325008993 L 179.99999999999994 98.17904325008993 L 180.99999999999994 94.78922290339267 L 180.99999999999994 94.78922290339267 L 181.99999999999997 91.3994025566954 L 181.99999999999997 91.3994025566954 L 182.99999999999994 88.00958220999814 L 182.99999999999994 88.00958220999814 L 183.99999999999994 84.61976186330088 L 183.99999999999994 84.61976186330088 L 184.99999999999994 81.22994151660356 L 184.99999999999994 81.22994151660356 L 185.99999999999994 77.8401211699063 L 185.99999999999994 77.8401211699063 L 186.99999999999997 74.45030082320898 L 186.99999999999997 74.45030082320898 L 187.99999999999994 71.06048047651171 L 187.99999999999994 71.06048047651171 L 188.99999999999994 67.67066012981451 L 188.99999999999994 67.67066012981451 L 189.99999999999997 64.28083978311719 L 189.99999999999997 64.28083978311719 L 190.99999999999994 60.89101943641998 L 190.99999999999994 60.89101943641998 L 191.99999999999994 57.50119908972272 L 191.99999999999994 57.50119908972272 L 192.99999999999994 54.111378743025455 L 192.99999999999994 54.111378743025455 L 193.99999999999994 50.72155839632819 L 193.99999999999994 50.72155839632819 L 194.99999999999997 47.33173804963087 L 194.99999999999997 47.33173804963087 L 195.99999999999994 43.94191770293361 L 195.99999999999994 43.94191770293361 L 196.99999999999994 40.5520973562364 L 196.99999999999994 40.5520973562364 L 197.99999999999994 37.162277009539025 L 197.99999999999994 37.162277009539025 L 198.99999999999994 33.77245666284182 L 198.99999999999994 33.77245666284182 L 199.99999999999997 30.3826363161445 L 199.99999999999997 30.3826363161445 L 200.99999999999994 26.992815969447236 L 200.99999999999994 26.992815969447236 L 201.99999999999994 23.60299562275003 L 201.99999999999994 23.60299562275003 L 202.99999999999994 20.21317527605271 L 202.99999999999994 20.21317527605271 L 203.99999999999994 16.823354929355503 L 203.99999999999994 16.823354929355503 L 205 13.433534582658126 L 205 13.433534582658126 L 205.99999999999994 10.04371423596092 L 205.99999999999994 10.04371423596092 L 206.99999999999994 6.6538938892636565 L 206.99999999999994 6.6538938892636565 L 207.99999999999994 3.26407354256645 L 207.99999999999994 3.26407354256645 L 208.99999999999994 -0.12574680413092665 L 208.99999999999994 -0.12574680413092665 L 210 -3.51556715082819 L 210 -3.51556715082819 L 210.99999999999994 -6.905387497525453 L 210.99999999999994 -6.905387497525453 L 211.99999999999994 -10.29520784422266 L 211.99999999999994 -10.29520784422266 L 212.99999999999994 -13.685028190919923 L 212.99999999999994 -13.685028190919923 L 213.99999999999994 -17.074848537617186 L 213.99999999999994 -17.074848537617186 L 214.99999999999994 -20.46466888431445 L 214.99999999999994 -20.46466888431445 L 215.99999999999994 -23.85448923101177 L 215.99999999999994 -23.85448923101177 L 216.99999999999994 -27.244309577709032 L 216.99999999999994 -27.244309577709032 L 217.99999999999994 -30.634129924406295 L 217.99999999999994 -30.634129924406295 L 218.99999999999994 -34.023950271103615 L 218.99999999999994 -34.023950271103615 L 219.99999999999994 -37.41377061780088 L 219.99999999999994 -37.41377061780088 L 220.99999999999994 -40.8035909644982 L 220.99999999999994 -40.8035909644982 L 221.99999999999994 -44.19341131119535 L 221.99999999999994 -44.19341131119535 L 222.99999999999994 -47.58323165789267 L 222.99999999999994 -47.58323165789267 L 223.99999999999994 -50.97305200458982 L 223.99999999999994 -50.97305200458982 L 224.99999999999994 -54.36287235128714 L 224.99999999999994 -54.36287235128714 L 226 -57.75269269798446 L 226 -57.75269269798446 L 226.99999999999994 -61.14251304468178 L 226.99999999999994 -61.14251304468178 L 227.99999999999994 -64.53233339137898 L 227.99999999999994 -64.53233339137898 L 228.99999999999994 -67.92215373807619 L 228.99999999999994 -67.92215373807619 L 229.99999999999994 -71.31197408477351 L 229.99999999999994 -71.31197408477351 L 231 -74.70179443147083 L 231 -74.70179443147083 L 231.99999999999994 -78.09161477816815 L 231.99999999999994 -78.09161477816815 L 232.99999999999994 -81.48143512486524 L 232.99999999999994 -81.48143512486524 L 233.99999999999994 -84.87125547156268 L 233.99999999999994 -84.87125547156268 L 234.99999999999994 -88.26107581825988 L 234.99999999999994 -88.26107581825988 L 236 -91.6508961649572 L 236 -91.6508961649572 L 236.99999999999994 -95.04071651165441 L 236.99999999999994 -95.04071651165441 L 237.99999999999994 -98.43053685835173 L 237.99999999999994 -98.43053685835173 L 238.99999999999994 -101.82035720504894 L 238.99999999999994 -101.82035720504894 L 239.99999999999994 -105.21017755174626 L 239.99999999999994 -105.21017755174626 L 240.99999999999994 -108.59999789844346 L 240.99999999999994 -108.59999789844346 L 241.99999999999994 -111.98981824514078 L 241.99999999999994 -111.98981824514078 L 242.99999999999994 -115.3796385918381 L 242.99999999999994 -115.3796385918381 L 243.99999999999994 -118.7694589385352 L 243.99999999999994 -118.7694589385352 L 244.99999999999994 -122.15927928523251 L 244.99999999999994 -122.15927928523251 L 245.99999999999994 -125.54909963192983 L 245.99999999999994 -125.54909963192983 L 247 -128.93891997862715 L 247 -128.93891997862715 L 247.99999999999994 -132.32874032532436 L 247.99999999999994 -132.32874032532436 L 248.99999999999994 -135.71856067202168 L 248.99999999999994 -135.71856067202168 L 249.99999999999994 -139.1083810187189 L 249.99999999999994 -139.1083810187189 L 250.99999999999994 -142.4982013654162 L 250.99999999999994 -142.4982013654162 L 252 -145.88802171211353 L 252 -145.88802171211353 L 252.99999999999994 -149.27784205881073 L 252.99999999999994 -149.27784205881073 L 253.99999999999994 -152.66766240550805 L 253.99999999999994 -152.66766240550805 L 254.99999999999994 -156.05748275220515 L 254.99999999999994 -156.05748275220515 L 255.99999999999994 -159.44730309890247 L 255.99999999999994 -159.44730309890247 L 257 -162.8371234455999 L 257 -162.8371234455999 L 257.99999999999994 -166.2269437922971 L 257.99999999999994 -166.2269437922971 L 258.99999999999994 -169.6167641389943 L 258.99999999999994 -169.6167641389943 L 259.99999999999994 -173.00658448569152 L 259.99999999999994 -173.00658448569152 L 260.99999999999994 -176.39640483238895 L 260.99999999999994 -176.39640483238895 L 261.99999999999994 -179.78622517908616 L 261.99999999999994 -179.78622517908616 L 262.99999999999994 -183.17604552578348 L 262.99999999999994 -183.17604552578348 L 263.99999999999994 -186.56586587248069 L 263.99999999999994 -186.56586587248069 L 264.99999999999994 -189.955686219178 L 264.99999999999994 -189.955686219178 L 265.99999999999994 -193.3455065658752 L 265.99999999999994 -193.3455065658752 L 266.99999999999994 -196.73532691257242 L 266.99999999999994 -196.73532691257242 L 268 -200.12514725926985 L 268 -200.12514725926985 L 268.99999999999994 -203.51496760596706 L 268.99999999999994 -203.51496760596706 L 269.99999999999994 -206.90478795266426 L 269.99999999999994 -206.90478795266426 L 270.99999999999994 -210.29460829936158 L 270.99999999999994 -210.29460829936158 L 271.99999999999994 -213.6844286460589 L 271.99999999999994 -213.6844286460589 L 273 -217.0742489927561 L 273 -217.0742489927561 L 273.99999999999994 -220.46406933945343 L 273.99999999999994 -220.46406933945343 L 274.99999999999994 -223.85388968615052 L 274.99999999999994 -223.85388968615052 L 275.99999999999994 -227.24371003284796 L 275.99999999999994 -227.24371003284796 L 276.99999999999994 -230.63353037954516 L 276.99999999999994 -230.63353037954516 L 277.99999999999994 -234.02335072624237 L 277.99999999999994 -234.02335072624237 L 278.99999999999994 -237.4131710729397 L 278.99999999999994 -237.4131710729397 L 279.99999999999994 -240.802991419637 L 279.99999999999994 -240.802991419637 L 280.99999999999994 -244.19281176633422 L 280.99999999999994 -244.19281176633422 L 281.99999999999994 -247.58263211303154 L 281.99999999999994 -247.58263211303154 L 282.99999999999994 -250.97245245972886 L 282.99999999999994 -250.97245245972886 L 283.99999999999994 -254.36227280642606 L 283.99999999999994 -254.36227280642606 L 284.99999999999994 -257.7520931531234 L 284.99999999999994 -257.7520931531234 L 285.99999999999994 -261.1419134998205 L 285.99999999999994 -261.1419134998205 L 286.99999999999994 -264.5317338465179 L 286.99999999999994 -264.5317338465179 L 288 -267.92155419321523 L 288 -267.92155419321523 L 289 -271.31137453991244 L 289 -271.31137453991244 L 289.99999999999994 -274.70119488660964 L 289.99999999999994 -274.70119488660964 L 290.99999999999994 -278.09101523330696 L 290.99999999999994 -278.09101523330696 L 291.99999999999994 -281.48083558000417 L 291.99999999999994 -281.48083558000417 L 293 -284.8706559267015 L 293 -284.8706559267015 L 294 -288.2604762733988 L 294 -288.2604762733988 L 294.99999999999994 -291.650296620096 L 294.99999999999994 -291.650296620096 L 295.99999999999994 -295.04011696679333 L 295.99999999999994 -295.04011696679333 L 296.99999999999994 -298.4299373134904 L 296.99999999999994 -298.4299373134904 L 298 -301.81975766018786 L 298 -301.81975766018786 L 299 -305.2095780068852 L 299 -305.2095780068852 L 299.99999999999994 -308.5993983535824 L 299.99999999999994 -308.5993983535824 L 300.99999999999994 -311.9892187002796 L 300.99999999999994 -311.9892187002796 L 301.99999999999994 -315.3790390469769 L 301.99999999999994 -315.3790390469769 L 302.99999999999994 -318.7688593936741 L 302.99999999999994 -318.7688593936741 L 304 -322.15867974037144 L 304 -322.15867974037144 L 305 -325.54850008706876 L 305 -325.54850008706876 L 305.99999999999994 -328.93832043376597 L 305.99999999999994 -328.93832043376597 L 306.99999999999994 -332.3281407804633 L 306.99999999999994 -332.3281407804633 L 307.99999999999994 -335.7179611271604 L 307.99999999999994 -335.7179611271604 L 309 -339.1077814738578 L 309 -339.1077814738578 L 310 -342.49760182055513 L 310 -342.49760182055513 L 310.99999999999994 -345.88742216725234 L 310.99999999999994 -345.88742216725234 L 311.99999999999994 -349.27724251394955 L 311.99999999999994 -349.27724251394955 L 312.99999999999994 -352.66706286064675 L 312.99999999999994 -352.66706286064675 L 314 -356.0568832073443 L 314 -356.0568832073443 L 315 -359.4467035540414 L 315 -359.4467035540414 L 315.99999999999994 -362.8365239007387 L 315.99999999999994 -362.8365239007387 L 316.99999999999994 -366.2263442474359 L 316.99999999999994 -366.2263442474359 L 317.99999999999994 -369.61616459413324 L 317.99999999999994 -369.61616459413324 L 319 -373.00598494083056 L 319 -373.00598494083056 L 320 -376.39580528752776 L 320 -376.39580528752776 L 320.99999999999994 -379.7856256342251 L 320.99999999999994 -379.7856256342251 L 321.99999999999994 -383.1754459809223 L 321.99999999999994 -383.1754459809223 L 322.99999999999994 -386.5652663276195 L 322.99999999999994 -386.5652663276195 L 323.99999999999994 -389.9550866743167 L 323.99999999999994 -389.9550866743167 L 325 -393.34490702101425 L 325 -393.34490702101425 L 326 -396.73472736771134 L 326 -396.73472736771134 L 326.99999999999994 -400.12454771440866 L 326.99999999999994 -400.12454771440866 L 327.99999999999994 -403.51436806110576 L 327.99999999999994 -403.51436806110576 L 328.99999999999994 -406.9041884078032 L 328.99999999999994 -406.9041884078032 L 330 -410.2940087545005 L 330 -410.2940087545005 L 330.99999999999994 -413.6838291011977 L 330.99999999999994 -413.6838291011977 L 331.99999999999994 -417.0736494478949 L 331.99999999999994 -417.0736494478949 L 332.99999999999994 -420.46346979459224 L 332.99999999999994 -420.46346979459224 L 333.99999999999994 -423.85329014128945 L 333.99999999999994 -423.85329014128945 L 335 -427.24311048798677 L 335 -427.24311048798677 L 335.99999999999994 -430.6329308346841 L 335.99999999999994 -430.6329308346841 L 336.99999999999994 -434.0227511813813 L 336.99999999999994 -434.0227511813813 L 337.99999999999994 -437.4125715280786 L 337.99999999999994 -437.4125715280786 L 338.99999999999994 -440.8023918747757 L 338.99999999999994 -440.8023918747757 L 340 -444.19221222147326 L 340 -444.19221222147326 L 340.99999999999994 -447.58203256817046 L 340.99999999999994 -447.58203256817046 L 341.99999999999994 -450.97185291486767 L 341.99999999999994 -450.97185291486767 L 342.99999999999994 -454.3616732615649 L 342.99999999999994 -454.3616732615649 L 343.99999999999994 -457.7514936082622 L 343.99999999999994 -457.7514936082622 L 344.99999999999994 -461.1413139549594 L 344.99999999999994 -461.1413139549594 L 345.99999999999994 -464.5311343016567 L 345.99999999999994 -464.5311343016567 L 346.99999999999994 -467.92095464835404 L 346.99999999999994 -467.92095464835404 L 347.99999999999994 -471.31077499505125 L 347.99999999999994 -471.31077499505125 L 348.99999999999994 -474.70059534174857 L 348.99999999999994 -474.70059534174857 L 350 -478.0904156884459 L 350 -478.0904156884459 L 350.99999999999994 -481.4802360351431 L 350.99999999999994 -481.4802360351431 L 351.99999999999994 -484.8700563818404 L 351.99999999999994 -484.8700563818404 L 352.99999999999994 -488.2598767285376 L 352.99999999999994 -488.2598767285376 L 353.99999999999994 -491.6496970752348 L 353.99999999999994 -491.6496970752348 L 354.99999999999994 -495.03951742193215 L 354.99999999999994 -495.03951742193215 L 356 -498.4293377686296 L 356 -498.4293377686296 L 356.99999999999994 -501.8191581153267 L 356.99999999999994 -501.8191581153267 L 357.99999999999994 -505.208978462024 L 357.99999999999994 -505.208978462024 L 358.99999999999994 -508.5987988087212 L 358.99999999999994 -508.5987988087212 L 359.99999999999994 -511.9886191554185 L 359.99999999999994 -511.9886191554185 L 361 -515.3784395021158 L 361 -515.3784395021158 L 361.99999999999994 -518.7682598488129 L 361.99999999999994 -518.7682598488129 L 362.99999999999994 -522.1580801955104 L 362.99999999999994 -522.1580801955104 L 363.99999999999994 -525.5479005422077 L 363.99999999999994 -525.5479005422077 L 364.99999999999994 -528.9377208889048 L 364.99999999999994 -528.9377208889048 L 365.99999999999994 -532.327541235602 L 365.99999999999994 -532.327541235602 L 366.99999999999994 -535.7173615822995 L 366.99999999999994 -535.7173615822995 L 367.99999999999994 -539.1071819289966 L 367.99999999999994 -539.1071819289966 L 368.99999999999994 -542.497002275694 L 368.99999999999994 -542.497002275694 L 369.99999999999994 -545.8868226223912 L 369.99999999999994 -545.8868226223912 L 371 -549.2766429690885 L 371 -549.2766429690885 L 371.99999999999994 -552.6664633157858 L 371.99999999999994 -552.6664633157858 L 372.99999999999994 -556.0562836624831 L 372.99999999999994 -556.0562836624831 L 373.99999999999994 -559.4461040091803 L 373.99999999999994 -559.4461040091803 L 374.99999999999994 -562.8359243558774 L 374.99999999999994 -562.8359243558774 L 375.99999999999994 -566.2257447025747 L 375.99999999999994 -566.2257447025747 L 377 -569.6155650492722 L 377 -569.6155650492722 L 377.99999999999994 -573.0053853959694 L 377.99999999999994 -573.0053853959694 L 378.99999999999994 -576.3952057426666 L 378.99999999999994 -576.3952057426666 L 379.99999999999994 -579.785026089364 L 379.99999999999994 -579.785026089364 L 381 -583.1748464360612 L 381 -583.1748464360612 L 382 -586.5646667827586 L 382 -586.5646667827586 L 382.99999999999994 -589.9544871294556 L 382.99999999999994 -589.9544871294556 L 383.99999999999994 -593.3443074761528 L 383.99999999999994 -593.3443074761528 L 384.99999999999994 -596.7341278228503 L 384.99999999999994 -596.7341278228503 L 385.99999999999994 -600.1239481695475 L 385.99999999999994 -600.1239481695475 L 386.99999999999994 -603.5137685162447 L 386.99999999999994 -603.5137685162447 L 387.99999999999994 -606.9035888629421 L 387.99999999999994 -606.9035888629421 L 388.99999999999994 -610.2934092096393 L 388.99999999999994 -610.2934092096393 L 389.99999999999994 -613.6832295563365 L 389.99999999999994 -613.6832295563365 L 390.99999999999994 -617.073049903034 L 390.99999999999994 -617.073049903034 L 392 -620.4628702497312 L 392 -620.4628702497312 L 392.99999999999994 -623.8526905964284 L 392.99999999999994 -623.8526905964284 L 393.99999999999994 -627.2425109431256 L 393.99999999999994 -627.2425109431256 L 394.99999999999994 -630.632331289823 L 394.99999999999994 -630.632331289823 L 395.99999999999994 -634.0221516365202 L 395.99999999999994 -634.0221516365202 L 396.99999999999994 -637.4119719832172 L 396.99999999999994 -637.4119719832172 L 398 -640.8017923299149 L 398 -640.8017923299149 L 398.99999999999994 -644.1916126766121 L 398.99999999999994 -644.1916126766121 L 399.99999999999994 -647.5814330233093 L 399.99999999999994 -647.5814330233093 L 400.99999999999994 -650.9712533700065 L 400.99999999999994 -650.9712533700065 L 402 -654.3610737167039 L 402 -654.3610737167039 L 403 -657.7508940634011 L 403 -657.7508940634011 L 403.99999999999994 -661.1407144100986 L 403.99999999999994 -661.1407144100986 L 404.99999999999994 -664.5305347567955 L 404.99999999999994 -664.5305347567955 L 405.99999999999994 -667.9203551034927 L 405.99999999999994 -667.9203551034927 L 406.99999999999994 -671.3101754501902 L 406.99999999999994 -671.3101754501902 L 407.99999999999994 -674.6999957968874 L 407.99999999999994 -674.6999957968874 L 408.99999999999994 -678.0898161435848 L 408.99999999999994 -678.0898161435848 L 409.99999999999994 -681.479636490282 L 409.99999999999994 -681.479636490282 L 410.99999999999994 -684.8694568369792 L 410.99999999999994 -684.8694568369792 L 411.99999999999994 -688.2592771836764 L 411.99999999999994 -688.2592771836764 L 413 -691.6490975303739 L 413 -691.6490975303739 L 413.99999999999994 -695.0389178770711 L 413.99999999999994 -695.0389178770711 L 414.99999999999994 -698.4287382237683 L 414.99999999999994 -698.4287382237683 L 415.99999999999994 -701.8185585704655 L 415.99999999999994 -701.8185585704655 L 416.99999999999994 -705.2083789171629 L 416.99999999999994 -705.2083789171629 L 417.99999999999994 -708.5981992638601 L 417.99999999999994 -708.5981992638601 L 418.99999999999994 -711.9880196105571 L 418.99999999999994 -711.9880196105571 L 419.99999999999994 -715.3778399572548 L 419.99999999999994 -715.3778399572548 L 420.99999999999994 -718.767660303952 L 420.99999999999994 -718.767660303952 L 421.99999999999994 -722.1574806506492 L 421.99999999999994 -722.1574806506492 L 423 -725.5473009973466 L 423 -725.5473009973466 L 424 -728.9371213440436 L 424 -728.9371213440436 L 424.99999999999994 -732.326941690741 L 424.99999999999994 -732.326941690741 L 425.99999999999994 -735.7167620374385 L 425.99999999999994 -735.7167620374385 L 426.99999999999994 -739.1065823841354 L 426.99999999999994 -739.1065823841354 L 427.99999999999994 -742.4964027308326 L 427.99999999999994 -742.4964027308326 L 428.99999999999994 -745.8862230775301 L 428.99999999999994 -745.8862230775301 L 429.99999999999994 -749.2760434242273 L 429.99999999999994 -749.2760434242273 L 430.99999999999994 -752.6658637709247 L 430.99999999999994 -752.6658637709247 L 431.99999999999994 -756.0556841176219 L 431.99999999999994 -756.0556841176219 L 433 -759.4455044643191 L 433 -759.4455044643191 L 434 -762.8353248110166 L 434 -762.8353248110166 L 435 -766.2251451577138 L 435 -766.2251451577138 L 435.99999999999994 -769.614965504411 L 435.99999999999994 -769.614965504411 L 436.99999999999994 -773.0047858511082 L 436.99999999999994 -773.0047858511082 L 437.99999999999994 -776.3946061978054 L 437.99999999999994 -776.3946061978054 L 438.99999999999994 -779.7844265445028 L 438.99999999999994 -779.7844265445028 L 439.99999999999994 -783.1742468912 L 439.99999999999994 -783.1742468912 L 440.99999999999994 -786.5640672378972 L 440.99999999999994 -786.5640672378972 L 441.99999999999994 -789.9538875845947 L 441.99999999999994 -789.9538875845947 L 443 -793.3437079312919 L 443 -793.3437079312919 L 444 -796.7335282779893 L 444 -796.7335282779893 L 445 -800.1233486246865 L 445 -800.1233486246865 L 445.99999999999994 -803.5131689713835 L 445.99999999999994 -803.5131689713835 L 446.99999999999994 -806.9029893180809 L 446.99999999999994 -806.9029893180809 L 447.99999999999994 -810.2928096647784 L 447.99999999999994 -810.2928096647784 L 448.99999999999994 -813.6826300114753 L 448.99999999999994 -813.6826300114753 L 449.99999999999994 -817.0724503581725 L 449.99999999999994 -817.0724503581725 L 450.99999999999994 -820.46227070487 L 450.99999999999994 -820.46227070487 L 451.99999999999994 -823.8520910515672 L 451.99999999999994 -823.8520910515672 L 452.99999999999994 -827.2419113982646 L 452.99999999999994 -827.2419113982646 L 454 -830.6317317449618 L 454 -830.6317317449618 L 455 -834.021552091659 L 455 -834.021552091659 L 456 -837.4113724383565 L 456 -837.4113724383565 L 456.99999999999994 -840.8011927850537 L 456.99999999999994 -840.8011927850537 L 457.99999999999994 -844.1910131317509 L 457.99999999999994 -844.1910131317509 L 458.99999999999994 -847.5808334784481 L 458.99999999999994 -847.5808334784481 L 459.99999999999994 -850.9706538251453 L 459.99999999999994 -850.9706538251453 L 460.99999999999994 -854.3604741718427 L 460.99999999999994 -854.3604741718427 L 461.99999999999994 -857.7502945185399 L 461.99999999999994 -857.7502945185399 L 462.99999999999994 -861.1401148652371 L 462.99999999999994 -861.1401148652371 L 464 -864.5299352119346 L 464 -864.5299352119346 L 465 -867.9197555586318 L 465 -867.9197555586318 L 466 -871.3095759053292 L 466 -871.3095759053292 L 466.99999999999994 -874.6993962520264 L 466.99999999999994 -874.6993962520264 L 467.99999999999994 -878.0892165987234 L 467.99999999999994 -878.0892165987234 L 468.99999999999994 -881.4790369454208 L 468.99999999999994 -881.4790369454208 L 469.99999999999994 -884.8688572921183 L 469.99999999999994 -884.8688572921183 L 470.99999999999994 -888.2586776388152 L 470.99999999999994 -888.2586776388152 L 471.99999999999994 -891.6484979855127 L 471.99999999999994 -891.6484979855127 L 472.99999999999994 -895.0383183322099 L 472.99999999999994 -895.0383183322099 L 473.99999999999994 -898.4281386789071 L 473.99999999999994 -898.4281386789071 L 475 -901.8179590256048 L 475 -901.8179590256048 L 476 -905.2077793723017 L 476 -905.2077793723017 L 477 -908.5975997189989 L 477 -908.5975997189989 L 477.99999999999994 -911.9874200656964 L 477.99999999999994 -911.9874200656964 L 478.99999999999994 -915.3772404123936 L 478.99999999999994 -915.3772404123936 L 479.99999999999994 -918.7670607590908 L 479.99999999999994 -918.7670607590908 L 480.99999999999994 -922.156881105788 L 480.99999999999994 -922.156881105788 L 481.99999999999994 -925.5467014524852 L 481.99999999999994 -925.5467014524852 L 482.99999999999994 -928.9365217991826 L 482.99999999999994 -928.9365217991826 L 483.99999999999994 -932.3263421458798 L 483.99999999999994 -932.3263421458798 L 485 -935.7161624925773 L 485 -935.7161624925773 L 486 -939.1059828392745 L 486 -939.1059828392745 L 487 -942.4958031859717 L 487 -942.4958031859717 L 487.99999999999994 -945.8856235326691 L 487.99999999999994 -945.8856235326691 L 488.99999999999994 -949.2754438793663 L 488.99999999999994 -949.2754438793663 L 489.99999999999994 -952.6652642260633 L 489.99999999999994 -952.6652642260633 L 490.99999999999994 -956.0550845727607 L 490.99999999999994 -956.0550845727607 L 491.99999999999994 -959.4449049194579 L 491.99999999999994 -959.4449049194579 L 492.99999999999994 -962.8347252661554 L 492.99999999999994 -962.8347252661554 L 493.99999999999994 -966.2245456128526 L 493.99999999999994 -966.2245456128526 L 494.99999999999994 -969.6143659595498 L 494.99999999999994 -969.6143659595498 L 496 -973.0041863062472 L 496 -973.0041863062472 L 497 -976.3940066529447 L 497 -976.3940066529447 L 498 -979.7838269996416 L 498 -979.7838269996416 L 498.99999999999994 -983.1736473463388 L 498.99999999999994 -983.1736473463388 L 499.99999999999994 -986.5634676930363 L 499.99999999999994 -986.5634676930363 L 500.99999999999994 -989.9532880397335 L 500.99999999999994 -989.9532880397335 L 501.99999999999994 -993.3431083864307 L 501.99999999999994 -993.3431083864307 L 503 -996.7329287331281 L 503 -996.7329287331281 L 503.99999999999994 -1000.1227490798251 L 503.99999999999994 -1000.1227490798251 L 505 -1003.5125694265228 L 505 -1003.5125694265228 L 506 -1006.90238977322 L 506 -1006.90238977322 L 507 -1010.2922101199172 L 507 -1010.2922101199172 L 508 -1013.6820304666144 L 508 -1013.6820304666144 L 508.99999999999994 -1017.0718508133116 L 508.99999999999994 -1017.0718508133116 L 509.99999999999994 -1020.461671160009 L 509.99999999999994 -1020.461671160009 L 510.99999999999994 -1023.851491506706 L 510.99999999999994 -1023.851491506706 L 511.99999999999994 -1027.2413118534032 L 511.99999999999994 -1027.2413118534032 L 513 -1030.6311322001006 L 513 -1030.6311322001006 L 514 -1034.020952546798 L 514 -1034.020952546798 L 515 -1037.410772893495 L 515 -1037.410772893495 L 516 -1040.8005932401927 L 516 -1040.8005932401927 L 517 -1044.1904135868897 L 517 -1044.1904135868897 L 518 -1047.5802339335871 L 518 -1047.5802339335871 L 519 -1050.9700542802843 L 519 -1050.9700542802843 L 520 -1054.3598746269815 L 520 -1054.3598746269815 L 521 -1057.7496949736787 L 521 -1057.7496949736787 L 522 -1061.139515320376 L 522 -1061.139515320376 L 523 -1064.5293356670734 L 523 -1064.5293356670734 L 524 -1067.9191560137706 L 524 -1067.9191560137706 L 525 -1071.308976360468 L 525 -1071.308976360468 L 525.9999999999999 -1074.698796707165 L 525.9999999999999 -1074.698796707165 L 527 -1078.0886170538627 L 527 -1078.0886170538627 L 528 -1081.4784374005599 L 528 -1081.4784374005599 L 529 -1084.868257747257 L 529 -1084.868257747257 L 530 -1088.2580780939543 L 530 -1088.2580780939543 L 531 -1091.6478984406515 L 531 -1091.6478984406515 L 532 -1095.037718787349 L 532 -1095.037718787349 L 533 -1098.427539134046 L 533 -1098.427539134046 L 534 -1101.8173594807436 L 534 -1101.8173594807436 L 535 -1105.2071798274405 L 535 -1105.2071798274405 L 536 -1108.597000174138 L 536 -1108.597000174138 L 536.9999999999999 -1111.986820520835 L 536.9999999999999 -1111.986820520835 L 538 -1115.3766408675326 L 538 -1115.3766408675326 L 539 -1118.7664612142296 L 539 -1118.7664612142296 L 540 -1122.156281560927 L 540 -1122.156281560927 L 541 -1125.5461019076242 L 541 -1125.5461019076242 L 542 -1128.9359222543214 L 542 -1128.9359222543214 L 543 -1132.3257426010186 L 543 -1132.3257426010186 L 544 -1135.7155629477159 L 544 -1135.7155629477159 L 545 -1139.1053832944135 L 545 -1139.1053832944135 L 546 -1142.4952036411105 L 546 -1142.4952036411105 L 547 -1145.885023987808 L 547 -1145.885023987808 L 547.9999999999999 -1149.274844334505 L 547.9999999999999 -1149.274844334505 L 549 -1152.6646646812023 L 549 -1152.6646646812023 L 550 -1156.0544850278998 L 550 -1156.0544850278998 L 551 -1159.444305374597 L 551 -1159.444305374597 L 552 -1162.834125721294 L 552 -1162.834125721294 L 553 -1166.2239460679914 L 553 -1166.2239460679914 L 554.0000000000001 -1169.613766414689 L 554.0000000000001 -1169.613766414689 L 555 -1173.0035867613858 L 555 -1173.0035867613858 L 556 -1176.3934071080835 L 556 -1176.3934071080835 L 557 -1179.7832274547804 L 557 -1179.7832274547804 L 558 -1183.1730478014779 L 558 -1183.1730478014779 L 558.9999999999999 -1186.5628681481749 L 558.9999999999999 -1186.5628681481749 L 560 -1189.9526884948723 L 560 -1189.9526884948723 L 561 -1193.3425088415695 L 561 -1193.3425088415695 L 562 -1196.732329188267 L 562 -1196.732329188267 L 563 -1200.1221495349641 L 563 -1200.1221495349641 L 564 -1203.5119698816613 L 564 -1203.5119698816613 L 565.0000000000001 -1206.901790228359 L 565.0000000000001 -1206.901790228359 L 566 -1210.2916105750558 L 566 -1210.2916105750558 L 567 -1213.6814309217534 L 567 -1213.6814309217534 L 567.9999999999999 -1217.0712512684504 L 567.9999999999999 -1217.0712512684504 L 569 -1220.4610716151478 L 569 -1220.4610716151478 L 570 -1223.850891961845 L 570 -1223.850891961845 L 571 -1227.2407123085422 L 571 -1227.2407123085422 L 572 -1230.6305326552397 L 572 -1230.6305326552397 L 573 -1234.0203530019369 L 573 -1234.0203530019369 L 574 -1237.4101733486339 L 574 -1237.4101733486339 L 575 -1240.7999936953313 L 575 -1240.7999936953313 L 576.0000000000001 -1244.189814042029 L 576.0000000000001 -1244.189814042029 L 577 -1247.5796343887257 L 577 -1247.5796343887257 L 578 -1250.9694547354234 L 578 -1250.9694547354234 L 578.9999999999999 -1254.3592750821203 L 578.9999999999999 -1254.3592750821203 L 580 -1257.7490954288178 L 580 -1257.7490954288178 L 581 -1261.1389157755152 L 581 -1261.1389157755152 L 582 -1264.5287361222122 L 582 -1264.5287361222122 L 583 -1267.9185564689094 L 583 -1267.9185564689094 L 584 -1271.3083768156068 L 584 -1271.3083768156068 L 585 -1274.698197162304 L 585 -1274.698197162304 L 586 -1278.0880175090012 L 586 -1278.0880175090012 L 587 -1281.4778378556987 L 587 -1281.4778378556987 L 587.9999999999999 -1284.8676582023957 L 587.9999999999999 -1284.8676582023957 L 589 -1288.2574785490933 L 589 -1288.2574785490933 L 589.9999999999999 -1291.64729889579 L 589.9999999999999 -1291.64729889579 L 591 -1295.0371192424877 L 591 -1295.0371192424877 L 592 -1298.426939589185 L 592 -1298.426939589185 L 593 -1301.8167599358821 L 593 -1301.8167599358821 L 594 -1305.2065802825796 L 594 -1305.2065802825796 L 595 -1308.5964006292768 L 595 -1308.5964006292768 L 596 -1311.9862209759742 L 596 -1311.9862209759742 L 596.9999999999999 -1315.3760413226712 L 596.9999999999999 -1315.3760413226712 L 598 -1318.7658616693686 L 598 -1318.7658616693686 L 598.9999999999999 -1322.1556820160656 L 598.9999999999999 -1322.1556820160656 L 600 -1325.5455023627633 L 600 -1325.5455023627633 L 601 -1328.9353227094603 L 601 -1328.9353227094603 L 602 -1332.3251430561577 L 602 -1332.3251430561577 L 603 -1335.7149634028551 L 603 -1335.7149634028551 L 604 -1339.104783749552 L 604 -1339.104783749552 L 605 -1342.4946040962493 L 605 -1342.4946040962493 L 606 -1345.8844244429467 L 606 -1345.8844244429467 L 607 -1349.2742447896442 L 607 -1349.2742447896442 L 607.9999999999999 -1352.6640651363412 L 607.9999999999999 -1352.6640651363412 L 609 -1356.0538854830386 L 609 -1356.0538854830386 L 609.9999999999999 -1359.4437058297356 L 609.9999999999999 -1359.4437058297356 L 611 -1362.8335261764332 L 611 -1362.8335261764332 L 612 -1366.2233465231304 L 612 -1366.2233465231304 L 613 -1369.6131668698276 L 613 -1369.6131668698276 L 614 -1373.0029872165248 L 614 -1373.0029872165248 L 615 -1376.392807563222 L 615 -1376.392807563222 L 616 -1379.7826279099195 L 616 -1379.7826279099195 L 617 -1383.1724482566167 L 617 -1383.1724482566167 L 618 -1386.5622686033141 L 618 -1386.5622686033141 L 618.9999999999999 -1389.952088950011 L 618.9999999999999 -1389.952088950011 L 620 -1393.3419092967085 L 620 -1393.3419092967085 L 620.9999999999999 -1396.7317296434055 L 620.9999999999999 -1396.7317296434055 L 622 -1400.1215499901032" stroke-opacity="0.6980392156862745" stroke-linecap="round" stroke-linejoin="round" stroke-miterlimit="10" stroke-width="2.5"/><text fill="rgb(153,51,255)" stroke="none" font-family="geogebra-sans-serif, sans-serif" font-size="16px" font-style="normal" font-weight="normal" text-decoration="normal" x="51" y="532" text-anchor="start" dominant-baseline="alphabetic" fill-opacity="1">Tg</text><text fill="none" stroke="rgb(255,255,255)" font-family="geogebra-sans-serif, sans-serif" font-size="16px" font-style="normal" font-weight="normal" text-decoration="normal" x="51" y="532" text-anchor="start" dominant-baseline="alphabetic" stroke-opacity="1" stroke-linejoin="bevel" stroke-miterlimit="10" stroke-width="3">Tg</text><text fill="rgb(153,51,255)" stroke="none" font-family="geogebra-sans-serif, sans-serif" font-size="16px" font-style="normal" font-weight="normal" text-decoration="normal" x="51" y="532" text-anchor="start" dominant-baseline="alphabetic" fill-opacity="1">Tg</text><path fill="none" stroke="rgb(255,85,0)" paint-order="fill stroke markers" d=" M 73.9999978733685 457.50000720889904 L 75.87499893668425 451.19980101441223 L 77.75 445.0097159313507 M 77.75 445.0097159313507 L 80.1796875 437.14906643550074 L 82.609375 429.4659970053479 L 85.0390625 421.9564959266247 L 87.46875 414.6166421137689 L 89.8984375 407.442603062528 L 92.328125 400.4306328488184 L 94.7578125 393.57707017279046 L 97.1875 386.87833644708155 L 99.6171875 380.3309339282565 L 102.046875 373.9314438904615 L 104.4765625 367.676524840336 L 106.90625 361.56291077225274 L 109.3359375 355.5874094629727 L 111.765625 349.74690080482594 L 114.1953125 344.03833517654783 L 116.625 338.45873185091926 L 119.0546875 333.0051774383802 L 121.484375 327.67482436580315 L 123.9140625 322.4648893896336 L 126.34375 317.3726521426192 L 131.203125 307.53069525800856 L 136.0625 298.12839511973743 L 140.921875 289.14611152242117 L 145.78125 280.5650816216406 L 150.640625 272.36738074075447 L 155.5 264.5358849285362 M 155.5 264.5358849285362 L 160.359375 257.05423518942507 L 165.21875 249.9068033116718 L 170.078125 243.07865922199764 L 174.9375 236.55553979857638 L 179.796875 230.32381907719272 L 184.65625 224.37047978834153 L 189.515625 218.68308616581245 L 194.375 213.2497579699613 L 199.234375 208.0591456714047 L 204.09375 203.1004067433018 L 208.953125 198.36318301269836 L 213.8125 193.8375790236259 L 218.671875 189.51414136675595 L 223.53125 185.38383893243446 L 228.390625 181.43804404584586 L 233.25 177.66851444490118 L 238.109375 174.06737606320405 L 242.96875000000006 170.62710658213092 L 247.82812500000006 167.34051971766678 L 252.68750000000006 164.200750209175 L 257.546875 161.2012394787438 L 262.40625000000006 158.3357219311534 L 267.26562500000006 155.5982118658477 L 272.125 152.98299097356875 L 276.984375 150.48459639153873 L 281.84375 148.0978092922366 L 286.703125 145.81764398193314 L 291.5625 143.6393374862128 L 296.421875 141.55833960072783 L 301.28125 139.57030338640232 L 306.140625 137.6710760892305 L 311 135.85669046570376 M 311 135.85669046570376 L 315.859375 134.12335649574527 L 320.71875 132.46745346584146 L 325.578125 130.88552240583306 L 330.4375 129.37425886356846 L 335.296875 127.93050600232425 L 340.15625 126.55124800657643 L 345.015625 125.23360378234594 L 349.875 123.9748209389619 L 354.734375 122.77227003966766 L 359.59375 121.62343910906372 L 364.453125 120.52592838591079 L 369.3125 119.47744531033572 L 374.171875 118.4757997349655 L 379.03125 117.51889934998951 L 383.890625 116.60474531259058 L 388.75 115.73142807161832 L 393.609375 114.8971233787795 L 398.46875 114.10008847801652 L 403.328125 113.33865846511247 L 408.1875 112.6112428099184 L 413.046875 111.91632203393863 L 417.90625 111.25244453633468 L 422.765625 110.61822356171558 L 427.625 110.01233430338328 L 432.484375 109.43351113598015 L 437.34375 108.88054497175955 L 442.20312499999994 108.35228073495506 L 447.0625 107.84761494897538 L 451.92187499999994 107.36549343138199 L 456.78125 106.90490909183654 L 461.64062499999994 106.4648998284182 L 466.5 106.04454651791468 L 471.359375 105.64297109589171 L 476.21875 105.25933472252802 L 481.078125 104.89283603038655 L 485.9375 104.54270945045954 L 490.796875 104.20822361299281 L 495.65625 103.88867981974778 L 500.515625 103.58341058450958 L 505.37499999999994 103.29177823879405 L 510.234375 103.01317359983943 L 515.0937500000001 102.74701469810077 L 519.953125 102.49274556159065 L 524.8125 102.24983505452423 L 529.671875 102.01777576784428 L 534.5312500000001 101.79608295930836 L 539.390625 101.58429354092453 L 544.25 101.38196511161908 L 549.109375 101.18867503311759 L 553.9687500000001 101.00401954710725 L 558.828125 100.82761293183722 L 563.6875 100.65908669639526 L 568.546875 100.49808881097721 L 573.40625 100.34428297154153 L 578.265625 100.19734789731308 L 583.125 100.05697665966875 L 587.984375 99.92287604100255 L 592.84375 99.79476592223142 L 597.7031249999999 99.6723786976624 L 602.5625 99.55545871599827 L 607.421875 99.44376174631464 L 612.28125 99.33705446789298 L 617.140625 99.23511398284296 L 622 99.13772735049753" stroke-opacity="0.6980392156862745" stroke-linecap="round" stroke-linejoin="round" stroke-miterlimit="10" stroke-width="2.5"/><text fill="rgb(255,85,0)" stroke="none" font-family="geogebra-sans-serif, sans-serif" font-size="16px" font-style="normal" font-weight="normal" text-decoration="normal" x="75" y="451" text-anchor="start" dominant-baseline="alphabetic" fill-opacity="1">u</text><text fill="none" stroke="rgb(255,255,255)" font-family="geogebra-sans-serif, sans-serif" font-size="16px" font-style="normal" font-weight="normal" text-decoration="normal" x="75" y="451" text-anchor="start" dominant-baseline="alphabetic" stroke-opacity="1" stroke-linejoin="bevel" stroke-miterlimit="10" stroke-width="3">u</text><text fill="rgb(255,85,0)" stroke="none" font-family="geogebra-sans-serif, sans-serif" font-size="16px" font-style="normal" font-weight="normal" text-decoration="normal" x="75" y="451" text-anchor="start" dominant-baseline="alphabetic" fill-opacity="1">u</text><path fill="none" stroke="rgb(0,0,0)" paint-order="fill stroke markers" d=" M -5 97.05506091949019 L 627 97.05506091949019" stroke-opacity="0.6980392156862745" stroke-linecap="round" stroke-linejoin="round" stroke-miterlimit="10" stroke-width="2.5"/><text fill="rgb(0,0,0)" stroke="none" font-family="geogebra-sans-serif, sans-serif" font-size="16px" font-style="normal" font-weight="normal" text-decoration="normal" x="8" y="113" text-anchor="start" dominant-baseline="alphabetic" fill-opacity="1">lim</text><text fill="none" stroke="rgb(255,255,255)" font-family="geogebra-sans-serif, sans-serif" font-size="16px" font-style="normal" font-weight="normal" text-decoration="normal" x="8" y="113" text-anchor="start" dominant-baseline="alphabetic" stroke-opacity="1" stroke-linejoin="bevel" stroke-miterlimit="10" stroke-width="3">lim</text><text fill="rgb(0,0,0)" stroke="none" font-family="geogebra-sans-serif, sans-serif" font-size="16px" font-style="normal" font-weight="normal" text-decoration="normal" x="8" y="113" text-anchor="start" dominant-baseline="alphabetic" fill-opacity="1">lim</text><path fill="none" stroke="rgb(0,0,0)" paint-order="fill stroke markers" d=" M 605.6578789074982 546 L 605.6578789074982 -5" stroke-opacity="0.6980392156862745" stroke-linecap="round" stroke-linejoin="round" stroke-miterlimit="10" stroke-width="2.5"/><text fill="rgb(0,0,0)" stroke="none" font-family="geogebra-sans-serif, sans-serif" font-size="16px" font-style="normal" font-weight="normal" text-decoration="normal" x="529" y="24" text-anchor="start" dominant-baseline="alphabetic" fill-opacity="1">perm = 5τ</text><text fill="none" stroke="rgb(255,255,255)" font-family="geogebra-sans-serif, sans-serif" font-size="16px" font-style="normal" font-weight="normal" text-decoration="normal" x="529" y="24" text-anchor="start" dominant-baseline="alphabetic" stroke-opacity="1" stroke-linejoin="bevel" stroke-miterlimit="10" stroke-width="3">perm = 5τ</text><text fill="rgb(0,0,0)" stroke="none" font-family="geogebra-sans-serif, sans-serif" font-size="16px" font-style="normal" font-weight="normal" text-decoration="normal" x="529" y="24" text-anchor="start" dominant-baseline="alphabetic" fill-opacity="1">perm = 5τ</text><path fill="rgb(68,68,68)" stroke="none" paint-order="stroke fill markers" d=" M 184.33157578149968 97.05506091949019 C 184.33157578149968 99.26419991881336 182.54071478082284 101.05506091949019 180.33157578149968 101.05506091949019 C 178.1224367821765 101.05506091949019 176.33157578149968 99.26419991881336 176.33157578149968 97.05506091949019 C 176.33157578149968 94.84592192016702 178.1224367821765 93.05506091949019 180.33157578149968 93.05506091949019 C 182.54071478082284 93.05506091949019 184.33157578149968 94.84592192016702 184.33157578149968 97.05506091949019 Z" fill-opacity="1"/><path fill="none" stroke="rgb(0,0,0)" paint-order="fill stroke markers" d=" M 184.33157578149968 97.05506091949019 C 184.33157578149968 99.26419991881336 182.54071478082284 101.05506091949019 180.33157578149968 101.05506091949019 C 178.1224367821765 101.05506091949019 176.33157578149968 99.26419991881336 176.33157578149968 97.05506091949019 C 176.33157578149968 94.84592192016702 178.1224367821765 93.05506091949019 180.33157578149968 93.05506091949019 C 182.54071478082284 93.05506091949019 184.33157578149968 94.84592192016702 184.33157578149968 97.05506091949019 Z" stroke-opacity="1" stroke-linecap="round" stroke-linejoin="round" stroke-miterlimit="10"/><text fill="rgb(68,68,68)" stroke="none" font-family="geogebra-sans-serif, sans-serif" font-size="16px" font-style="normal" font-weight="normal" text-decoration="normal" x="184" y="89" text-anchor="start" dominant-baseline="alphabetic" fill-opacity="1">τ</text><text fill="none" stroke="rgb(255,255,255)" font-family="geogebra-sans-serif, sans-serif" font-size="16px" font-style="normal" font-weight="normal" text-decoration="normal" x="184" y="89" text-anchor="start" dominant-baseline="alphabetic" stroke-opacity="1" stroke-linejoin="bevel" stroke-miterlimit="10" stroke-width="3">τ</text><text fill="rgb(68,68,68)" stroke="none" font-family="geogebra-sans-serif, sans-serif" font-size="16px" font-style="normal" font-weight="normal" text-decoration="normal" x="184" y="89" text-anchor="start" dominant-baseline="alphabetic" fill-opacity="1">τ</text></g></g></svg>