<svg version="1.1" xmlns="http://www.w3.org/2000/svg" xmlns:xlink="http://www.w3.org/1999/xlink" width="892" height="568"><defs><clipPath id="GBllVryAZVJf"><path fill="none" stroke="none" d=" M 0 0 L 892 0 L 892 568 L 0 568 L 0 0 Z"/></clipPath></defs><g transform="scale(1,1)" clip-path="url(#GBllVryAZVJf)"><g><rect fill="rgb(255,255,255)" stroke="none" x="0" y="0" width="892" height="568" fill-opacity="1"/><path fill="none" stroke="rgb(192,192,192)" paint-order="fill stroke markers" d=" M 12.5 0.5 L 12.5 568.5 M 12.5 0.5 L 12.5 568.5 M 83.5 0.5 L 83.5 568.5 M 154.5 0.5 L 154.5 568.5 M 225.5 0.5 L 225.5 568.5 M 296.5 0.5 L 296.5 568.5 M 439.5 0.5 L 439.5 568.5 M 510.5 0.5 L 510.5 568.5 M 581.5 0.5 L 581.5 568.5 M 652.5 0.5 L 652.5 568.5 M 723.5 0.5 L 723.5 568.5 M 794.5 0.5 L 794.5 568.5 M 865.5 0.5 L 865.5 568.5" stroke-opacity="1" stroke-linecap="round" stroke-linejoin="round" stroke-miterlimit="10"/><path fill="none" stroke="rgb(192,192,192)" paint-order="fill stroke markers" d=" M 27.5 0.5 L 27.5 568.5 M 41.5 0.5 L 41.5 568.5 M 55.5 0.5 L 55.5 568.5 M 69.5 0.5 L 69.5 568.5 M 98.5 0.5 L 98.5 568.5 M 112.5 0.5 L 112.5 568.5 M 126.5 0.5 L 126.5 568.5 M 140.5 0.5 L 140.5 568.5 M 169.5 0.5 L 169.5 568.5 M 183.5 0.5 L 183.5 568.5 M 197.5 0.5 L 197.5 568.5 M 211.5 0.5 L 211.5 568.5 M 240.5 0.5 L 240.5 568.5 M 254.5 0.5 L 254.5 568.5 M 268.5 0.5 L 268.5 568.5 M 282.5 0.5 L 282.5 568.5 M 311.5 0.5 L 311.5 568.5 M 325.5 0.5 L 325.5 568.5 M 339.5 0.5 L 339.5 568.5 M 353.5 0.5 L 353.5 568.5 M 382.5 0.5 L 382.5 568.5 M 396.5 0.5 L 396.5 568.5 M 410.5 0.5 L 410.5 568.5 M 424.5 0.5 L 424.5 568.5 M 453.5 0.5 L 453.5 568.5 M 467.5 0.5 L 467.5 568.5 M 481.5 0.5 L 481.5 568.5 M 495.5 0.5 L 495.5 568.5 M 524.5 0.5 L 524.5 568.5 M 538.5 0.5 L 538.5 568.5 M 552.5 0.5 L 552.5 568.5 M 566.5 0.5 L 566.5 568.5 M 595.5 0.5 L 595.5 568.5 M 609.5 0.5 L 609.5 568.5 M 623.5 0.5 L 623.5 568.5 M 637.5 0.5 L 637.5 568.5 M 666.5 0.5 L 666.5 568.5 M 680.5 0.5 L 680.5 568.5 M 694.5 0.5 L 694.5 568.5 M 708.5 0.5 L 708.5 568.5 M 737.5 0.5 L 737.5 568.5 M 751.5 0.5 L 751.5 568.5 M 765.5 0.5 L 765.5 568.5 M 779.5 0.5 L 779.5 568.5 M 808.5 0.5 L 808.5 568.5 M 822.5 0.5 L 822.5 568.5 M 836.5 0.5 L 836.5 568.5 M 850.5 0.5 L 850.5 568.5 M 879.5 0.5 L 879.5 568.5" stroke-opacity="0.23529411764705882" stroke-linecap="round" stroke-linejoin="round" stroke-miterlimit="10"/><path fill="none" stroke="rgb(192,192,192)" paint-order="fill stroke markers" d=" M 0.5 21.5 L 892.5 21.5 M 0.5 21.5 L 892.5 21.5 M 0.5 81.5 L 892.5 81.5 M 0.5 140.5 L 892.5 140.5 M 0.5 199.5 L 892.5 199.5 M 0.5 318.5 L 892.5 318.5 M 0.5 377.5 L 892.5 377.5 M 0.5 436.5 L 892.5 436.5 M 0.5 496.5 L 892.5 496.5 M 0.5 555.5 L 892.5 555.5" stroke-opacity="1" stroke-linecap="round" stroke-linejoin="round" stroke-miterlimit="10"/><path fill="none" stroke="rgb(192,192,192)" paint-order="fill stroke markers" d=" M 0.5 9.5 L 892.5 9.5 M 0.5 9.5 L 892.5 9.5 M 0.5 33.5 L 892.5 33.5 M 0.5 45.5 L 892.5 45.5 M 0.5 57.5 L 892.5 57.5 M 0.5 69.5 L 892.5 69.5 M 0.5 92.5 L 892.5 92.5 M 0.5 104.5 L 892.5 104.5 M 0.5 116.5 L 892.5 116.5 M 0.5 128.5 L 892.5 128.5 M 0.5 152.5 L 892.5 152.5 M 0.5 164.5 L 892.5 164.5 M 0.5 175.5 L 892.5 175.5 M 0.5 187.5 L 892.5 187.5 M 0.5 211.5 L 892.5 211.5 M 0.5 223.5 L 892.5 223.5 M 0.5 235.5 L 892.5 235.5 M 0.5 247.5 L 892.5 247.5 M 0.5 270.5 L 892.5 270.5 M 0.5 282.5 L 892.5 282.5 M 0.5 294.5 L 892.5 294.5 M 0.5 306.5 L 892.5 306.5 M 0.5 330.5 L 892.5 330.5 M 0.5 342.5 L 892.5 342.5 M 0.5 353.5 L 892.5 353.5 M 0.5 365.5 L 892.5 365.5 M 0.5 389.5 L 892.5 389.5 M 0.5 401.5 L 892.5 401.5 M 0.5 413.5 L 892.5 413.5 M 0.5 424.5 L 892.5 424.5 M 0.5 448.5 L 892.5 448.5 M 0.5 460.5 L 892.5 460.5 M 0.5 472.5 L 892.5 472.5 M 0.5 484.5 L 892.5 484.5 M 0.5 508.5 L 892.5 508.5 M 0.5 519.5 L 892.5 519.5 M 0.5 531.5 L 892.5 531.5 M 0.5 543.5 L 892.5 543.5 M 0.5 567.5 L 892.5 567.5" stroke-opacity="0.23529411764705882" stroke-linecap="round" stroke-linejoin="round" stroke-miterlimit="10"/><path fill="none" stroke="rgb(37,37,37)" paint-order="fill stroke markers" d=" M 368.5 2.5 L 368.5 568.5" stroke-opacity="1" stroke-miterlimit="10"/><path fill="none" stroke="rgb(37,37,37)" paint-order="fill stroke markers" d=" M 368.5 1.5 L 364.5 5.5" stroke-opacity="1" stroke-miterlimit="10"/><path fill="none" stroke="rgb(37,37,37)" paint-order="fill stroke markers" d=" M 368.5 1.5 L 372.5 5.5" stroke-opacity="1" stroke-miterlimit="10"/><path fill="none" stroke="rgb(37,37,37)" paint-order="fill stroke markers" d=" M 0.5 258.5 L 890.5 258.5" stroke-opacity="1" stroke-miterlimit="10"/><path fill="none" stroke="rgb(37,37,37)" paint-order="fill stroke markers" d=" M 891.5 258.5 L 887.5 254.5" stroke-opacity="1" stroke-miterlimit="10"/><path fill="none" stroke="rgb(37,37,37)" paint-order="fill stroke markers" d=" M 891.5 258.5 L 887.5 262.5" stroke-opacity="1" stroke-miterlimit="10"/><text fill="rgb(37,37,37)" stroke="none" font-family="geogebra-sans-serif, sans-serif" font-size="12px" font-style="normal" font-weight="normal" text-decoration="normal" x="1" y="274" text-anchor="start" dominant-baseline="alphabetic" fill-opacity="1">–0.1</text><text fill="none" stroke="rgb(255,255,255)" font-family="geogebra-sans-serif, sans-serif" font-size="12px" font-style="normal" font-weight="normal" text-decoration="normal" x="1" y="274" text-anchor="start" dominant-baseline="alphabetic" stroke-opacity="1" stroke-linejoin="bevel" stroke-miterlimit="10" stroke-width="3">–0.1</text><text fill="rgb(37,37,37)" stroke="none" font-family="geogebra-sans-serif, sans-serif" font-size="12px" font-style="normal" font-weight="normal" text-decoration="normal" x="1" y="274" text-anchor="start" dominant-baseline="alphabetic" fill-opacity="1">–0.1</text><text fill="rgb(37,37,37)" stroke="none" font-family="geogebra-sans-serif, sans-serif" font-size="12px" font-style="normal" font-weight="normal" text-decoration="normal" x="69" y="274" text-anchor="start" dominant-baseline="alphabetic" fill-opacity="1">–0.08</text><text fill="none" stroke="rgb(255,255,255)" font-family="geogebra-sans-serif, sans-serif" font-size="12px" font-style="normal" font-weight="normal" text-decoration="normal" x="69" y="274" text-anchor="start" dominant-baseline="alphabetic" stroke-opacity="1" stroke-linejoin="bevel" stroke-miterlimit="10" stroke-width="3">–0.08</text><text fill="rgb(37,37,37)" stroke="none" font-family="geogebra-sans-serif, sans-serif" font-size="12px" font-style="normal" font-weight="normal" text-decoration="normal" x="69" y="274" text-anchor="start" dominant-baseline="alphabetic" fill-opacity="1">–0.08</text><text fill="rgb(37,37,37)" stroke="none" font-family="geogebra-sans-serif, sans-serif" font-size="12px" font-style="normal" font-weight="normal" text-decoration="normal" x="140" y="274" text-anchor="start" dominant-baseline="alphabetic" fill-opacity="1">–0.06</text><text fill="none" stroke="rgb(255,255,255)" font-family="geogebra-sans-serif, sans-serif" font-size="12px" font-style="normal" font-weight="normal" text-decoration="normal" x="140" y="274" text-anchor="start" dominant-baseline="alphabetic" stroke-opacity="1" stroke-linejoin="bevel" stroke-miterlimit="10" stroke-width="3">–0.06</text><text fill="rgb(37,37,37)" stroke="none" font-family="geogebra-sans-serif, sans-serif" font-size="12px" font-style="normal" font-weight="normal" text-decoration="normal" x="140" y="274" text-anchor="start" dominant-baseline="alphabetic" fill-opacity="1">–0.06</text><text fill="rgb(37,37,37)" stroke="none" font-family="geogebra-sans-serif, sans-serif" font-size="12px" font-style="normal" font-weight="normal" text-decoration="normal" x="211" y="274" text-anchor="start" dominant-baseline="alphabetic" fill-opacity="1">–0.04</text><text fill="none" stroke="rgb(255,255,255)" font-family="geogebra-sans-serif, sans-serif" font-size="12px" font-style="normal" font-weight="normal" text-decoration="normal" x="211" y="274" text-anchor="start" dominant-baseline="alphabetic" stroke-opacity="1" stroke-linejoin="bevel" stroke-miterlimit="10" stroke-width="3">–0.04</text><text fill="rgb(37,37,37)" stroke="none" font-family="geogebra-sans-serif, sans-serif" font-size="12px" font-style="normal" font-weight="normal" text-decoration="normal" x="211" y="274" text-anchor="start" dominant-baseline="alphabetic" fill-opacity="1">–0.04</text><text fill="rgb(37,37,37)" stroke="none" font-family="geogebra-sans-serif, sans-serif" font-size="12px" font-style="normal" font-weight="normal" text-decoration="normal" x="282" y="274" text-anchor="start" dominant-baseline="alphabetic" fill-opacity="1">–0.02</text><text fill="none" stroke="rgb(255,255,255)" font-family="geogebra-sans-serif, sans-serif" font-size="12px" font-style="normal" font-weight="normal" text-decoration="normal" x="282" y="274" text-anchor="start" dominant-baseline="alphabetic" stroke-opacity="1" stroke-linejoin="bevel" stroke-miterlimit="10" stroke-width="3">–0.02</text><text fill="rgb(37,37,37)" stroke="none" font-family="geogebra-sans-serif, sans-serif" font-size="12px" font-style="normal" font-weight="normal" text-decoration="normal" x="282" y="274" text-anchor="start" dominant-baseline="alphabetic" fill-opacity="1">–0.02</text><text fill="rgb(37,37,37)" stroke="none" font-family="geogebra-sans-serif, sans-serif" font-size="12px" font-style="normal" font-weight="normal" text-decoration="normal" x="428" y="274" text-anchor="start" dominant-baseline="alphabetic" fill-opacity="1">0.02</text><text fill="none" stroke="rgb(255,255,255)" font-family="geogebra-sans-serif, sans-serif" font-size="12px" font-style="normal" font-weight="normal" text-decoration="normal" x="428" y="274" text-anchor="start" dominant-baseline="alphabetic" stroke-opacity="1" stroke-linejoin="bevel" stroke-miterlimit="10" stroke-width="3">0.02</text><text fill="rgb(37,37,37)" stroke="none" font-family="geogebra-sans-serif, sans-serif" font-size="12px" font-style="normal" font-weight="normal" text-decoration="normal" x="428" y="274" text-anchor="start" dominant-baseline="alphabetic" fill-opacity="1">0.02</text><text fill="rgb(37,37,37)" stroke="none" font-family="geogebra-sans-serif, sans-serif" font-size="12px" font-style="normal" font-weight="normal" text-decoration="normal" x="499" y="274" text-anchor="start" dominant-baseline="alphabetic" fill-opacity="1">0.04</text><text fill="none" stroke="rgb(255,255,255)" font-family="geogebra-sans-serif, sans-serif" font-size="12px" font-style="normal" font-weight="normal" text-decoration="normal" x="499" y="274" text-anchor="start" dominant-baseline="alphabetic" stroke-opacity="1" stroke-linejoin="bevel" stroke-miterlimit="10" stroke-width="3">0.04</text><text fill="rgb(37,37,37)" stroke="none" font-family="geogebra-sans-serif, sans-serif" font-size="12px" font-style="normal" font-weight="normal" text-decoration="normal" x="499" y="274" text-anchor="start" dominant-baseline="alphabetic" fill-opacity="1">0.04</text><text fill="rgb(37,37,37)" stroke="none" font-family="geogebra-sans-serif, sans-serif" font-size="12px" font-style="normal" font-weight="normal" text-decoration="normal" x="570" y="274" text-anchor="start" dominant-baseline="alphabetic" fill-opacity="1">0.06</text><text fill="none" stroke="rgb(255,255,255)" font-family="geogebra-sans-serif, sans-serif" font-size="12px" font-style="normal" font-weight="normal" text-decoration="normal" x="570" y="274" text-anchor="start" dominant-baseline="alphabetic" stroke-opacity="1" stroke-linejoin="bevel" stroke-miterlimit="10" stroke-width="3">0.06</text><text fill="rgb(37,37,37)" stroke="none" font-family="geogebra-sans-serif, sans-serif" font-size="12px" font-style="normal" font-weight="normal" text-decoration="normal" x="570" y="274" text-anchor="start" dominant-baseline="alphabetic" fill-opacity="1">0.06</text><text fill="rgb(37,37,37)" stroke="none" font-family="geogebra-sans-serif, sans-serif" font-size="12px" font-style="normal" font-weight="normal" text-decoration="normal" x="641" y="274" text-anchor="start" dominant-baseline="alphabetic" fill-opacity="1">0.08</text><text fill="none" stroke="rgb(255,255,255)" font-family="geogebra-sans-serif, sans-serif" font-size="12px" font-style="normal" font-weight="normal" text-decoration="normal" x="641" y="274" text-anchor="start" dominant-baseline="alphabetic" stroke-opacity="1" stroke-linejoin="bevel" stroke-miterlimit="10" stroke-width="3">0.08</text><text fill="rgb(37,37,37)" stroke="none" font-family="geogebra-sans-serif, sans-serif" font-size="12px" font-style="normal" font-weight="normal" text-decoration="normal" x="641" y="274" text-anchor="start" dominant-baseline="alphabetic" fill-opacity="1">0.08</text><text fill="rgb(37,37,37)" stroke="none" font-family="geogebra-sans-serif, sans-serif" font-size="12px" font-style="normal" font-weight="normal" text-decoration="normal" x="715" y="274" text-anchor="start" dominant-baseline="alphabetic" fill-opacity="1">0.1</text><text fill="none" stroke="rgb(255,255,255)" font-family="geogebra-sans-serif, sans-serif" font-size="12px" font-style="normal" font-weight="normal" text-decoration="normal" x="715" y="274" text-anchor="start" dominant-baseline="alphabetic" stroke-opacity="1" stroke-linejoin="bevel" stroke-miterlimit="10" stroke-width="3">0.1</text><text fill="rgb(37,37,37)" stroke="none" font-family="geogebra-sans-serif, sans-serif" font-size="12px" font-style="normal" font-weight="normal" text-decoration="normal" x="715" y="274" text-anchor="start" dominant-baseline="alphabetic" fill-opacity="1">0.1</text><text fill="rgb(37,37,37)" stroke="none" font-family="geogebra-sans-serif, sans-serif" font-size="12px" font-style="normal" font-weight="normal" text-decoration="normal" x="783" y="274" text-anchor="start" dominant-baseline="alphabetic" fill-opacity="1">0.12</text><text fill="none" stroke="rgb(255,255,255)" font-family="geogebra-sans-serif, sans-serif" font-size="12px" font-style="normal" font-weight="normal" text-decoration="normal" x="783" y="274" text-anchor="start" dominant-baseline="alphabetic" stroke-opacity="1" stroke-linejoin="bevel" stroke-miterlimit="10" stroke-width="3">0.12</text><text fill="rgb(37,37,37)" stroke="none" font-family="geogebra-sans-serif, sans-serif" font-size="12px" font-style="normal" font-weight="normal" text-decoration="normal" x="783" y="274" text-anchor="start" dominant-baseline="alphabetic" fill-opacity="1">0.12</text><text fill="rgb(37,37,37)" stroke="none" font-family="geogebra-sans-serif, sans-serif" font-size="12px" font-style="normal" font-weight="normal" text-decoration="normal" x="854" y="274" text-anchor="start" dominant-baseline="alphabetic" fill-opacity="1">0.14</text><text fill="none" stroke="rgb(255,255,255)" font-family="geogebra-sans-serif, sans-serif" font-size="12px" font-style="normal" font-weight="normal" text-decoration="normal" x="854" y="274" text-anchor="start" dominant-baseline="alphabetic" stroke-opacity="1" stroke-linejoin="bevel" stroke-miterlimit="10" stroke-width="3">0.14</text><text fill="rgb(37,37,37)" stroke="none" font-family="geogebra-sans-serif, sans-serif" font-size="12px" font-style="normal" font-weight="normal" text-decoration="normal" x="854" y="274" text-anchor="start" dominant-baseline="alphabetic" fill-opacity="1">0.14</text><text fill="rgb(37,37,37)" stroke="none" font-family="geogebra-sans-serif, sans-serif" font-size="12px" font-style="normal" font-weight="normal" text-decoration="normal" x="340" y="560" text-anchor="start" dominant-baseline="alphabetic" fill-opacity="1">–25</text><text fill="none" stroke="rgb(255,255,255)" font-family="geogebra-sans-serif, sans-serif" font-size="12px" font-style="normal" font-weight="normal" text-decoration="normal" x="340" y="560" text-anchor="start" dominant-baseline="alphabetic" stroke-opacity="1" stroke-linejoin="bevel" stroke-miterlimit="10" stroke-width="3">–25</text><text fill="rgb(37,37,37)" stroke="none" font-family="geogebra-sans-serif, sans-serif" font-size="12px" font-style="normal" font-weight="normal" text-decoration="normal" x="340" y="560" text-anchor="start" dominant-baseline="alphabetic" fill-opacity="1">–25</text><text fill="rgb(37,37,37)" stroke="none" font-family="geogebra-sans-serif, sans-serif" font-size="12px" font-style="normal" font-weight="normal" text-decoration="normal" x="340" y="501" text-anchor="start" dominant-baseline="alphabetic" fill-opacity="1">–20</text><text fill="none" stroke="rgb(255,255,255)" font-family="geogebra-sans-serif, sans-serif" font-size="12px" font-style="normal" font-weight="normal" text-decoration="normal" x="340" y="501" text-anchor="start" dominant-baseline="alphabetic" stroke-opacity="1" stroke-linejoin="bevel" stroke-miterlimit="10" stroke-width="3">–20</text><text fill="rgb(37,37,37)" stroke="none" font-family="geogebra-sans-serif, sans-serif" font-size="12px" font-style="normal" font-weight="normal" text-decoration="normal" x="340" y="501" text-anchor="start" dominant-baseline="alphabetic" fill-opacity="1">–20</text><text fill="rgb(37,37,37)" stroke="none" font-family="geogebra-sans-serif, sans-serif" font-size="12px" font-style="normal" font-weight="normal" text-decoration="normal" x="340" y="441" text-anchor="start" dominant-baseline="alphabetic" fill-opacity="1">–15</text><text fill="none" stroke="rgb(255,255,255)" font-family="geogebra-sans-serif, sans-serif" font-size="12px" font-style="normal" font-weight="normal" text-decoration="normal" x="340" y="441" text-anchor="start" dominant-baseline="alphabetic" stroke-opacity="1" stroke-linejoin="bevel" stroke-miterlimit="10" stroke-width="3">–15</text><text fill="rgb(37,37,37)" stroke="none" font-family="geogebra-sans-serif, sans-serif" font-size="12px" font-style="normal" font-weight="normal" text-decoration="normal" x="340" y="441" text-anchor="start" dominant-baseline="alphabetic" fill-opacity="1">–15</text><text fill="rgb(37,37,37)" stroke="none" font-family="geogebra-sans-serif, sans-serif" font-size="12px" font-style="normal" font-weight="normal" text-decoration="normal" x="340" y="382" text-anchor="start" dominant-baseline="alphabetic" fill-opacity="1">–10</text><text fill="none" stroke="rgb(255,255,255)" font-family="geogebra-sans-serif, sans-serif" font-size="12px" font-style="normal" font-weight="normal" text-decoration="normal" x="340" y="382" text-anchor="start" dominant-baseline="alphabetic" stroke-opacity="1" stroke-linejoin="bevel" stroke-miterlimit="10" stroke-width="3">–10</text><text fill="rgb(37,37,37)" stroke="none" font-family="geogebra-sans-serif, sans-serif" font-size="12px" font-style="normal" font-weight="normal" text-decoration="normal" x="340" y="382" text-anchor="start" dominant-baseline="alphabetic" fill-opacity="1">–10</text><text fill="rgb(37,37,37)" stroke="none" font-family="geogebra-sans-serif, sans-serif" font-size="12px" font-style="normal" font-weight="normal" text-decoration="normal" x="347" y="323" text-anchor="start" dominant-baseline="alphabetic" fill-opacity="1">–5</text><text fill="none" stroke="rgb(255,255,255)" font-family="geogebra-sans-serif, sans-serif" font-size="12px" font-style="normal" font-weight="normal" text-decoration="normal" x="347" y="323" text-anchor="start" dominant-baseline="alphabetic" stroke-opacity="1" stroke-linejoin="bevel" stroke-miterlimit="10" stroke-width="3">–5</text><text fill="rgb(37,37,37)" stroke="none" font-family="geogebra-sans-serif, sans-serif" font-size="12px" font-style="normal" font-weight="normal" text-decoration="normal" x="347" y="323" text-anchor="start" dominant-baseline="alphabetic" fill-opacity="1">–5</text><text fill="rgb(37,37,37)" stroke="none" font-family="geogebra-sans-serif, sans-serif" font-size="12px" font-style="normal" font-weight="normal" text-decoration="normal" x="353" y="204" text-anchor="start" dominant-baseline="alphabetic" fill-opacity="1">5</text><text fill="none" stroke="rgb(255,255,255)" font-family="geogebra-sans-serif, sans-serif" font-size="12px" font-style="normal" font-weight="normal" text-decoration="normal" x="353" y="204" text-anchor="start" dominant-baseline="alphabetic" stroke-opacity="1" stroke-linejoin="bevel" stroke-miterlimit="10" stroke-width="3">5</text><text fill="rgb(37,37,37)" stroke="none" font-family="geogebra-sans-serif, sans-serif" font-size="12px" font-style="normal" font-weight="normal" text-decoration="normal" x="353" y="204" text-anchor="start" dominant-baseline="alphabetic" fill-opacity="1">5</text><text fill="rgb(37,37,37)" stroke="none" font-family="geogebra-sans-serif, sans-serif" font-size="12px" font-style="normal" font-weight="normal" text-decoration="normal" x="346" y="145" text-anchor="start" dominant-baseline="alphabetic" fill-opacity="1">10</text><text fill="none" stroke="rgb(255,255,255)" font-family="geogebra-sans-serif, sans-serif" font-size="12px" font-style="normal" font-weight="normal" text-decoration="normal" x="346" y="145" text-anchor="start" dominant-baseline="alphabetic" stroke-opacity="1" stroke-linejoin="bevel" stroke-miterlimit="10" stroke-width="3">10</text><text fill="rgb(37,37,37)" stroke="none" font-family="geogebra-sans-serif, sans-serif" font-size="12px" font-style="normal" font-weight="normal" text-decoration="normal" x="346" y="145" text-anchor="start" dominant-baseline="alphabetic" fill-opacity="1">10</text><text fill="rgb(37,37,37)" stroke="none" font-family="geogebra-sans-serif, sans-serif" font-size="12px" font-style="normal" font-weight="normal" text-decoration="normal" x="346" y="86" text-anchor="start" dominant-baseline="alphabetic" fill-opacity="1">15</text><text fill="none" stroke="rgb(255,255,255)" font-family="geogebra-sans-serif, sans-serif" font-size="12px" font-style="normal" font-weight="normal" text-decoration="normal" x="346" y="86" text-anchor="start" dominant-baseline="alphabetic" stroke-opacity="1" stroke-linejoin="bevel" stroke-miterlimit="10" stroke-width="3">15</text><text fill="rgb(37,37,37)" stroke="none" font-family="geogebra-sans-serif, sans-serif" font-size="12px" font-style="normal" font-weight="normal" text-decoration="normal" x="346" y="86" text-anchor="start" dominant-baseline="alphabetic" fill-opacity="1">15</text><text fill="rgb(37,37,37)" stroke="none" font-family="geogebra-sans-serif, sans-serif" font-size="12px" font-style="normal" font-weight="normal" text-decoration="normal" x="346" y="26" text-anchor="start" dominant-baseline="alphabetic" fill-opacity="1">20</text><text fill="none" stroke="rgb(255,255,255)" font-family="geogebra-sans-serif, sans-serif" font-size="12px" font-style="normal" font-weight="normal" text-decoration="normal" x="346" y="26" text-anchor="start" dominant-baseline="alphabetic" stroke-opacity="1" stroke-linejoin="bevel" stroke-miterlimit="10" stroke-width="3">20</text><text fill="rgb(37,37,37)" stroke="none" font-family="geogebra-sans-serif, sans-serif" font-size="12px" font-style="normal" font-weight="normal" text-decoration="normal" x="346" y="26" text-anchor="start" dominant-baseline="alphabetic" fill-opacity="1">20</text><text fill="rgb(37,37,37)" stroke="none" font-family="geogebra-sans-serif, sans-serif" font-size="12px" font-style="normal" font-weight="normal" text-decoration="normal" x="353" y="274" text-anchor="start" dominant-baseline="alphabetic" fill-opacity="1">0</text><text fill="none" stroke="rgb(255,255,255)" font-family="geogebra-sans-serif, sans-serif" font-size="12px" font-style="normal" font-weight="normal" text-decoration="normal" x="353" y="274" text-anchor="start" dominant-baseline="alphabetic" stroke-opacity="1" stroke-linejoin="bevel" stroke-miterlimit="10" stroke-width="3">0</text><text fill="rgb(37,37,37)" stroke="none" font-family="geogebra-sans-serif, sans-serif" font-size="12px" font-style="normal" font-weight="normal" text-decoration="normal" x="353" y="274" text-anchor="start" dominant-baseline="alphabetic" fill-opacity="1">0</text><path fill="none" stroke="rgb(153,51,255)" paint-order="fill stroke markers" d=" M 0 434.29087493701843 L 0.43554687500005684 434.7979788865476 L 0.97998046875 435.0647862495131 L 1.5244140625 434.92320175245345 L 2.177734375000057 434.21475216747365 L 2.61328125 433.4171173554526 L 3.484375 431.0465878742107 L 5.226562500000057 423.2617195172184 L 6.097656250000057 417.8935937113692 L 6.968750000000057 411.5822328479237 L 7.83984375 404.36510286045797 L 8.7109375 396.28504657139297 L 9.58203125 387.39002936549605 L 10.453125000000057 377.7328544544656 L 10.888671875000057 372.6362051268673 L 11.324218750000057 367.37084942288686 L 11.759765625000057 361.9446043853444 L 12.195312500000057 356.36552591628725 L 12.630859375 350.64189681705454 L 13.06640625 344.78221449148043 L 13.501953125 338.7951783304927 L 13.9375 332.6896767968373 L 14.373046875 326.47477422910816 L 14.80859375 320.15969738466305 L 15.244140625000057 313.753821741413 L 15.679687500000057 307.26665757881494 L 16.115234375000057 300.7078358587416 L 16.550781250000057 294.0870939271784 L 16.986328125000057 287.4142610579808 L 17.421875 280.69924386016 L 17.857421875 273.9520115703465 L 18.29296875 267.1825812522822 L 18.728515625 260.4010029253067 L 19.1640625 253.6173446439139 L 19.599609375 246.84167755053628 L 20.035156250000057 240.08406092374156 L 20.470703125000057 233.35452724404846 L 20.906250000000057 226.6630672995211 L 21.341796875000057 220.0196153532647 L 21.777343750000057 213.4340343948355 L 22.212890625 206.9161014974714 L 22.6484375 200.4754933028669 L 23.083984375 194.12177165505693 L 23.51953125 187.86436940473024 L 23.955078125 181.71257640504678 L 24.390625 175.67552571975085 L 24.826171875000057 169.76218006406236 L 25.261718750000057 163.98131849846422 L 25.697265625000057 158.34152339515072 L 26.132812500000057 152.8511676964798 L 26.568359375000057 147.5184024843535 L 27.00390625 142.3511448789724 L 27.875 132.54358100212144 L 28.74609375 123.48669639981446 L 29.617187500000057 115.23425517210012 L 30.488281250000057 107.83524602705043 L 31.359375000000057 101.33359147062654 L 32.23046875 95.7678870708869 L 33.1015625 91.1711723443236 L 34.84375000000006 84.98794707670521 L 35.27929687500006 84.08320211998122 L 35.71484375000006 83.4381418219063 L 36.25927734375006 82.99842011896038 L 36.80371093750006 82.96694366542579 L 37.45703125 83.46809175796756 L 37.892578125 84.12807143554085 L 38.328125 85.04766915796151 L 40.07031250000006 91.28920050612709 L 40.94140625000006 95.91410304748504 L 41.8125 101.50712728470262 L 42.68359375 108.0350715233933 L 43.5546875 115.4591841328822 L 44.42578125000006 123.73539358629944 L 45.29687500000006 132.814570081 L 46.16796875 142.64281718627313 L 46.603515625 147.81977439438913 L 47.0390625 153.1617917870324 L 47.474609375 158.66093850804737 L 47.91015625 164.30905042422032 L 48.345703125 170.09774224590183 L 48.78125 176.018419975957 L 49.21679687500006 182.06229366857193 L 49.65234375000006 188.22039047896612 L 50.08789062500006 194.48356798464312 L 50.52343750000006 200.842527758394 L 50.958984375 207.28782917291232 L 51.39453125 213.80990341652534 L 51.830078125 220.39906769921882 L 52.265625 227.0455396278877 L 52.701171875 233.73945172945318 L 53.13671875 240.47086610029484 L 53.572265625 247.22978916023973 L 54.00781250000006 254.0061864892147 L 54.44335937500006 260.7899977245311 L 54.87890625000006 267.571151496678 L 55.31445312500006 274.3395803814635 L 55.75 281.08523584629353 L 56.18554687500006 287.7981031684116 L 56.62109375 294.468216302928 L 57.056640625 301.08567267860167 L 57.4921875 307.6406478993725 L 57.927734375 314.1234103298378 L 58.36328125 320.5243355430171 L 58.79882812500006 326.8339206089502 L 59.23437500000006 333.0427982029221 L 59.66992187500006 339.1417505123598 L 60.10546875000006 345.121722921767 L 60.541015625 350.97383745537115 L 60.97656250000006 356.68940595752764 L 61.412109375 362.2599429913092 L 61.84765625 367.6771784361488 L 62.283203125 372.9330697658024 L 62.71875 378.01981398843384 L 63.58984375000006 387.6559159512875 L 64.46093750000006 396.52828183480756 L 65.33203125 404.5842428916276 L 66.203125 411.77597677275435 L 67.07421875 418.0607914138752 L 67.9453125 423.40137846692136 L 69.68750000000006 431.12885055809375 L 70.55859375000006 433.4698632459714 L 70.994140625 434.25261120753186 L 71.4296875 434.77517595587136 L 71.97412109375 435.06135422891634 L 72.51855468750006 434.93914860269473 L 73.17187500000006 434.25390088570146 L 73.60742187500006 433.47166611406044 L 74.04296875000006 432.43040753448383 L 74.9140625 429.5773846936327 L 76.65625 420.8565068082555 L 77.52734375 415.0404212376419 L 78.39843750000006 408.29803780771533 L 79.26953125000006 400.6693811177955 L 80.14062500000006 392.19973692336407 L 81.01171875 382.9393833076526 L 81.8828125 372.9432922174326 L 82.318359375 367.68772756441115 L 82.75390625 362.27080313477643 L 83.18945312500006 356.70056099303184 L 83.62500000000006 350.98527082194533 L 84.06054687500006 345.13341764522613 L 84.49609375 339.15368923050596 L 84.93164062500006 333.054963191316 L 85.3671875 326.8462938072308 L 85.802734375 320.53689858170736 L 86.23828125 314.13614455762263 L 86.673828125 307.6535344107858 L 87.109375 301.098692342095 L 87.544921875 294.4813497892709 L 87.98046875000006 287.81133097939136 L 88.41601562500006 281.09853834366277 L 88.85156250000006 274.3529378160915 L 89.287109375 267.5845440378757 L 89.72265625000006 260.8034054894869 L 90.158203125 254.01958957251904 L 90.59375 247.24316766342946 L 91.029296875 240.48420016140153 L 91.46484375 233.75272155248783 L 91.900390625 227.05872551222853 L 92.3359375 220.4121500688628 L 92.77148437500006 213.8228628491486 L 93.20703125000006 207.30064642870616 L 93.64257812500006 200.85518380862567 L 94.078125 194.49604403991202 L 94.51367187500006 188.2326680170926 L 94.94921875 182.07435446210084 L 95.384765625 176.03024611921435 L 95.8203125 170.1093161815803 L 96.255859375 164.32035496944513 L 96.69140625 158.67195687988402 L 97.126953125 153.17250762740628 L 97.56250000000006 147.83017179436922 L 97.99804687500006 142.65288070968944 L 98.43359375000006 137.64832067385055 L 99.30468750000006 128.18684572184247 L 100.17578125 119.50191279539916 L 101.046875 111.64507798950066 L 101.91796875 104.66298158622197 L 102.78906250000006 98.59707118549065 L 104.53125 89.35219140184768 L 106.2734375 84.12963321541025 L 106.708984375 83.4691393522603 L 107.25341796875 83.01006367015628 L 107.7978515625 82.95920622961259 L 108.45117187500006 83.43712478262236 L 108.88671875000006 84.08167078154557 L 109.7578125 86.14848113504647 L 111.5 93.3420206894935 L 112.37109375000003 98.42604710716512 L 113.2421875 104.46328364594692 L 114.11328125 111.41789164789645 L 114.984375 119.24858669162182 L 115.85546875000003 127.90888366769744 L 116.72656250000003 137.3473727267637 L 117.16210937500003 142.34110163361868 L 117.59765625000003 147.50802446220047 L 118.033203125 152.84047030492644 L 118.46875000000006 158.33052251574003 L 118.904296875 163.97003046330076 L 119.33984375000006 169.75062163156946 L 119.775390625 175.6637140497865 L 120.2109375 181.70052903343088 L 120.64648437500003 187.85210421721095 L 121.08203125000003 194.10930686075406 L 121.51757812500003 200.46284740724076 L 121.95312500000003 206.90329327484852 L 122.38867187500003 213.4210828605367 L 122.82421875 220.00653973537146 L 123.25976562500006 226.649887010336 L 123.6953125 233.3412618512666 L 124.13085937500006 240.0707301214075 L 124.56640625 246.8283011297997 L 125.001953125 253.60394246365414 L 125.43750000000003 260.38759488264367 L 125.87304687500003 267.16918725303975 L 126.30859375000003 273.9386514994988 L 126.74414062500003 280.6859375523125 L 127.17968750000003 287.4010282679201 L 127.615234375 294.0739543005433 L 128.05078125000006 300.6948089028632 L 128.486328125 307.253762633747 L 128.92187500000006 313.74107795122654 L 129.357421875 320.14712366901966 L 129.79296875 326.46238925517525 L 130.22851562500003 332.6774989515724 L 130.66406250000003 338.7832256933457 L 131.09960937500003 344.77050480755486 L 131.53515625000003 350.6304474707596 L 131.97070312500003 356.3543539055306 L 132.40625 361.93372629629584 L 132.84179687500003 367.36028140535666 L 133.27734375 372.62596287032454 L 133.71289062500006 377.7229531647524 L 134.1484375 382.6436852041682 L 135.01953125000003 391.92742540688323 L 135.89062500000003 400.42207270263395 L 136.76171875000003 408.07720058306177 L 137.63281250000003 414.8473661525886 L 138.50390625000006 420.6923798896492 L 139.375 425.5775442224908 L 141.11718750000003 432.3581961577955 L 141.55273437500003 433.4152841244069 L 141.98828125 434.2134319888099 L 142.42382812500003 434.7514548061723 L 142.96826171875003 435.05700249435097 L 143.51269531250003 434.9541763773485 L 144.16601562500006 434.29213410795694 L 144.6015625 433.52530346295464 L 145.47265625000003 431.21585497658873 L 146.34375000000003 427.8840869108514 L 148.08593750000003 418.2386564769471 L 148.95703125000003 411.98225197499295 L 149.82812500000003 404.8177037280185 L 150.69921875000003 396.7875424191085 L 151.5703125 387.9394372430227 L 152.44140625000003 378.3259129290499 L 152.87695312500003 373.2497840880085 L 153.31250000000003 368.0040379401034 L 153.74804687500003 362.5964624154494 L 154.18359375 357.0350856989969 L 154.61914062500003 351.32816431174143 L 155.05468750000003 345.48417085294295 L 155.49023437500003 339.5117814215524 L 155.92578125000003 333.4198627355158 L 156.361328125 327.21745896808443 L 156.796875 320.9137783206693 L 157.23242187500003 314.518179352179 L 157.66796875000003 308.0401570851341 L 158.10351562500003 301.48932890918223 L 158.53906250000003 294.87542030294793 L 158.974609375 288.2082503954082 L 159.41015625000003 281.4977173882365 L 159.84570312500003 274.7537838607537 L 160.28125000000003 267.9864619792998 L 160.71679687500003 261.205798632991 L 161.15234375000003 254.42186051792294 L 161.587890625 247.644719191975 L 162.02343750000003 240.8844361223874 L 162.45898437500003 234.15104774832824 L 162.89453125000003 227.45455058061162 L 163.33007812500003 220.8048863606941 L 163.765625 214.21192730098875 L 164.20117187500003 207.68546142839435 L 164.63671875000003 201.23517805281688 L 165.07226562500003 194.87065338224193 L 165.50781250000003 188.60133630572057 L 165.94335937500003 182.43653436538034 L 166.37890625 176.3853999382772 L 166.81445312500003 170.45691664860837 L 167.25000000000003 164.6598860304641 L 167.68554687500003 159.00291446090807 L 168.12109375000003 153.49440038279226 L 168.556640625 148.14252183627957 L 168.99218750000003 142.9552243175724 L 169.86328125000003 133.10492121518183 L 170.73437500000003 124.00196512103082 L 171.60546875000003 115.7003936279217 L 172.47656250000003 108.24948709437922 L 173.34765625 101.69347610320509 L 174.21875000000003 96.07127889685592 L 175.9609375 87.75608383881013 L 176.83203125000003 85.11244721878018 L 177.26757812500003 84.17697780329607 L 177.70312500000003 83.5010538253764 L 178.24755859375003 83.0226265622461 L 178.79199218750003 82.9523884003637 L 179.33642578125003 83.29050226097084 L 179.88085937500003 84.03618387055442 L 180.31640625000003 84.92504728662803 L 181.18750000000003 87.47637533894499 L 182.92968750000003 95.61247264768201 L 183.80078125000003 101.14894384478833 L 184.67187500000003 107.62246131648922 L 185.54296875 114.99459652402075 L 186.41406250000003 123.22158649233413 L 187.28515625000003 132.2545935988702 L 188.15625 142.03999548680946 L 188.59179687500003 147.19685694474813 L 189.02734375000003 152.51970338178535 L 189.46289062500003 158.00063240331633 L 189.89843750000003 163.6315069224553 L 190.333984375 169.40396724050424 L 190.76953125 175.30944345791528 L 191.20507812500003 181.3391681973156 L 191.64062500000003 187.48418961971947 L 192.07617187500003 193.73538471458767 L 192.51171875000003 200.08347284401668 L 192.947265625 206.51902952094147 L 193.38281250000003 213.03250040090253 L 193.81835937500003 219.61421546659687 L 194.25390625000003 226.2544033841619 L 194.68945312500003 232.94320600987703 L 195.12500000000003 239.67069302574095 L 195.560546875 246.42687668220378 L 195.99609375000003 253.20172662616224 L 196.43164062500003 259.9851847922013 L 196.86718750000003 266.7671803349846 L 197.30273437500003 273.53764458061136 L 197.73828125 280.28652597475514 L 198.17382812500003 287.00380500538404 L 198.60937500000003 293.6795090779077 L 199.04492187500003 300.3037273206763 L 199.48046875000003 306.8666252988376 L 199.91601562500003 313.3584596147206 L 200.3515625 319.7695923730578 L 200.78710937500003 326.0905054895833 L 201.22265625000003 332.3118148217509 L 201.65820312500003 338.42428410060336 L 202.09375000000003 344.4188386431067 L 202.529296875 350.28657882458714 L 202.96484375 356.01879329127877 L 203.40039062500003 361.60697189335536 L 203.83593750000003 367.0428183192538 L 204.27148437500003 372.31826241253054 L 204.70703125000003 377.42547215296065 L 205.57812500000003 387.1051205700363 L 206.44921875000003 396.0243025771275 L 207.3203125 404.13007151378224 L 208.19140625000003 411.3743093580514 L 209.06250000000003 417.71401236799227 L 210.80468750000003 427.53487013258143 L 212.546875 433.3597938876586 L 212.98242187500003 434.173337485518 L 213.41796875000003 434.72681556136536 L 213.96240234375003 435.05173106854977 L 214.50683593750003 434.9682849979121 L 215.16015625000003 434.3294516345163 L 215.59570312500003 433.57802912194296 L 216.03125000000003 432.5674248929786 L 217.77343750000003 425.96891908156505 L 218.64453125000003 421.1716105148146 L 219.515625 415.41160770211326 L 220.38671875000003 408.72310356752956 L 221.25781250000003 401.1458028684126 L 222.12890625 392.7246864972858 L 223.00000000000003 383.5097444631844 L 223.87109375000003 373.5556791375339 L 224.30664062500003 368.3197788976132 L 224.74218750000003 362.92158052617674 L 225.17773437500003 357.3690982866828 L 225.61328125 351.6705754952252 L 226.048828125 345.83447228235536 L 226.484375 339.86945303302207 L 226.919921875 333.7843735232647 L 227.35546875000003 327.5882677727684 L 227.79101562500003 321.2903346327948 L 228.22656250000003 314.89992412939836 L 228.66210937500003 308.42652358221005 L 229.09765625000003 301.8797435193876 L 229.53320312500003 295.2693034096532 L 229.96875000000003 288.60501723259085 L 230.404296875 281.89677890863726 L 230.83984375 275.15454761038256 L 231.275390625 268.3883329770066 L 231.7109375 261.60818025378506 L 232.14648437500003 254.82415537873382 L 232.58203125000003 248.04633003853712 L 233.01757812500003 241.28476671593603 L 233.45312500000003 234.54950375078468 L 233.88867187500003 227.8505404369492 L 234.32421875000003 221.19782217717204 L 234.75976562500003 214.60122571794892 L 235.1953125 208.0705444863295 L 235.630859375 201.6154740504163 L 236.06640625 195.24559772515235 L 236.501953125 188.97037234475323 L 236.9375 182.79911422292176 L 237.37304687500003 176.74098532167721 L 237.80859375000003 170.80497964934202 L 238.24414062500003 164.99990990787134 L 238.67968750000003 159.33439440935763 L 239.11523437500003 153.8168442811259 L 239.55078125000003 148.45545097842194 L 239.986328125 143.25817412323045 L 240.421875 138.23272968727147 L 241.29296875 128.72691535573054 L 242.1640625 119.99443705132282 L 243.03515625000003 112.0871331111646 L 243.90625000000003 105.05194341567028 L 244.77734375000006 98.93063074081226 L 245.6484375 93.75953284306416 L 247.390625 86.3849465280764 L 248.26171875000003 84.22523563631879 L 248.69726562500003 83.533885074539 L 249.24169921875003 83.0361087296034 L 249.7861328125 82.94649021329431 L 250.33056640625 83.26523740064084 L 250.875 83.9916109401833 L 251.310546875 84.8651001980372 L 251.74609375 85.99711329443616 L 252.61718750000003 89.02960725983272 L 254.35937500000006 98.09757359355856 L 255.23046875 104.0792160777035 L 256.1015625 110.98050995327762 L 256.97265625 118.76048728586514 L 257.84375 127.37296403999909 L 258.71484375000006 136.76681424000344 L 259.15039062500006 141.73950031877217 L 259.5859375 146.8862734675175 L 260.021484375 152.19949269323996 L 260.45703125 157.6712698940665 L 260.892578125 163.2934815700708 L 261.328125 169.0577808835704 L 261.763671875 174.95561005099154 L 262.19921875 180.97821304791236 L 262.634765625 187.11664860841404 L 263.0703125 193.36180349944868 L 263.50585937500006 199.70440605050868 L 263.94140625000006 206.1350399185193 L 264.376953125 212.6441580675111 L 264.8125 219.2220969423262 L 265.248046875 225.85909081530298 L 265.68359375 232.54528628465764 L 266.119140625 239.27075690302047 L 266.5546875 246.02551791442266 L 266.990234375 252.79954107784414 L 267.42578125 259.5827695553249 L 267.861328125 266.3651328425269 L 268.29687500000006 273.1365617195909 L 268.73242187500006 279.8870032000802 L 269.16796875 286.60643545582917 L 269.603515625 293.2848826955328 L 270.0390625 299.9124299749836 L 270.474609375 306.47923791698173 L 270.91015625 312.97555731905254 L 271.345703125 319.3917436272883 L 271.78125 325.71827125483077 L 272.216796875 331.94574772372806 L 272.65234375 338.0649276091807 L 273.087890625 344.06672626546504 L 273.52343750000006 349.9422333131655 L 273.958984375 355.68272586768364 L 274.39453125 361.2796814893949 L 274.830078125 366.72479083621323 L 275.265625 372.0099699997935 L 275.701171875 377.1273725070492 L 276.13671875 382.0694009691679 L 277.0078125 391.3982589129088 L 277.87890625 399.941165224149 L 278.75 407.64740691605004 L 279.62109375 414.4712376677177 L 280.4921875 420.3721493866492 L 282.234375 429.27078477676764 L 283.9765625 434.1323279071029 L 284.412109375 434.70125835016177 L 284.95654296875 435.04553997904964 L 285.50097656250006 434.9814743906847 L 286.154296875 434.3658532704393 L 286.58984375 433.62984281559574 L 287.4609375 431.38152358067566 L 289.203125 423.834397241376 L 290.07421875 418.58039190641347 L 290.9453125 412.3790744952669 L 291.81640625 405.26725769401645 L 292.68750000000006 397.28715915771966 L 293.55859375 388.4861508950697 L 294.4296875 378.9164780554239 L 294.865234375 373.86097576806696 L 295.30078125 368.63494878756484 L 295.736328125 363.24615576859776 L 296.171875 357.7025970112663 L 296.607421875 352.01250258370015 L 297.04296875 346.1843201035497 L 297.47851562500006 340.2267021964989 L 297.91406250000006 334.14849365042016 L 298.349609375 327.95871828424174 L 298.78515625 321.6665655510198 L 299.220703125 315.28137689511317 L 299.65625 308.81263188370235 L 300.091796875 302.2699341332528 L 300.52734375 295.6629970518107 L 300.962890625 289.00162941830126 L 301.3984375 282.29572082023714 L 301.833984375 275.5552269714566 L 302.26953125 268.79015493169015 L 302.70507812500006 262.0105482498975 L 303.140625 255.22647205343299 L 303.576171875 248.44799810517128 L 304.01171875 241.68518985078995 L 304.447265625 234.9480874783919 L 304.8828125 228.2466930126598 L 305.318359375 221.5909554656692 L 305.75390625 214.99075606640383 L 306.189453125 208.45589359090346 L 306.625 201.9960698148227 L 307.06054687500006 195.62087510999874 L 307.49609375000006 189.3397742064106 L 307.931640625 183.16209214066993 L 308.3671875 177.097000411899 L 308.802734375 171.15350336556077 L 309.23828125 165.340424825441 L 309.673828125 159.66639499363976 L 310.109375 154.13983763801625 L 310.544921875 148.76895758611033 L 310.98046875 143.5617285441057 L 311.85156250000006 133.6688920410038 L 312.72265625 124.52005466381462 L 313.59375 116.16952636896039 L 314.46484375 108.66687813569374 L 315.3359375 102.05664769944593 L 316.20703125 96.37807516386505 L 317.07812500000006 91.66487006101946 L 318.8203125 85.24058078973795 L 319.255859375 84.27440646238787 L 319.69140625 83.5676329282434 L 320.23583984375 83.05051010179974 L 320.7802734375 82.94151169921551 L 321.43359375000006 83.34972713970046 L 321.86914062500006 83.9479522232734 L 322.30468750000006 84.80606275995126 L 323.17578125 87.29646038728319 L 324.046875 90.80613635235784 L 325.7890625 100.79405874668976 L 326.66015625000006 107.21301418544937 L 327.53125 114.53301794820337 L 328.40234375 122.71061652616419 L 329.2734375 131.69726549733474 L 330.14453125 141.4396176992404 L 330.580078125 146.57627565294354 L 331.015625 151.8798399120157 L 331.45117187500006 157.34243670852297 L 331.88671875000006 162.95595617193467 L 332.322265625 168.71206436918402 L 332.7578125 174.60221567737926 L 333.193359375 180.61766547078682 L 333.62890625 186.74948310326425 L 334.064453125 192.9885651668596 L 334.5 199.32564900689567 M 334.5 199.32564900689567 L 335.04443359375 207.37047335179716 L 335.5888671875 215.5350551954537 L 336.13330078125 223.8004563456436 L 336.677734375 232.1475047542732 L 337.22216796875 240.55683898798654 L 337.7666015625 249.00895313806396 L 338.31103515625 257.48424206544047 L 338.85546875 265.9630468758929 L 339.39990234375 274.42570051991595 L 339.9443359375 282.8525734115141 L 340.48876953125 291.22411896009595 L 341.033203125 299.52091890985525 L 341.57763671875 307.7237283814728 L 342.1220703125 315.813520511662 L 342.66650390625 323.77153058701447 L 343.2109375 331.5792995697749 L 343.75537109375 339.2187169145842 L 344.2998046875 346.67206257687565 L 344.84423828125 353.92204811548356 L 345.388671875 360.95185679412384 L 345.93310546875 367.7451825887298 L 346.4775390625 374.28626801016287 L 347.02197265625 380.5599406545666 L 347.56640625 386.55164839658437 L 348.11083984375 392.2474931438057 L 348.6552734375 397.63426307414926 L 349.744140625 407.431344757841 L 350.8330078125 415.8520467012003 L 351.921875 422.8182851034431 M 351.921875 422.8182851034431 L 354.099609375 432.14307009739673 L 354.64404296875 433.4814694204583 L 355.1884765625 434.41514947310566 L 355.73291015625 434.9419445336092 L 356.27734375 435.0606326721375 L 356.82177734375 434.7709385850894 L 357.3662109375 434.07353423367647 L 357.91064453125 432.9700372852716 L 358.455078125 431.4630073611421 L 360.6328125 421.4833256003703 M 360.6328125 421.4833256003703 L 361.7216796875 414.2067106794349 L 362.810546875 405.4908891509509 L 363.35498046875 400.618030648541 L 363.8994140625 395.4166814116596 L 364.44384765625 389.8989062531222 L 364.98828125 384.07750395290174 M 364.98828125 384.07750395290174 L 365.74120206000316 375.5517465430828 L 366.4941228700063 366.5090308400512 L 367.2470436800094 356.98946526787176 L 367.9999644900126 347.03527328965225 M 439.020010340643 259.0008203476454 L 439.03125 258.8490819775678 M 439.03125 258.8490819775678 L 439.57568359375 251.50210993896218 L 440.1201171875 244.17254109131088 L 440.66455078125 236.8773758350151 L 441.208984375 229.63353484576888 L 441.75341796875 222.45781981989367 L 442.2978515625 215.36687449616602 L 442.84228515625 208.37714604449997 L 443.38671875 201.5048469110151 L 443.93115234375 194.76591720795003 L 444.4755859375 188.17598773563466 L 445.02001953125 181.75034372225892 L 445.564453125 175.50388936551994 L 446.10888671875 169.45111325837325 L 446.6533203125 163.6060547790561 L 447.19775390625 157.98227152332845 L 447.7421875 152.592807854449 L 448.28662109375 147.4501646438238 L 448.8310546875 142.56627027249567 L 449.919921875 133.61941448982643 L 451.0087890625 125.83520156223202 L 452.09765625 119.28581181120569 L 454.275390625 110.12240948805658 L 455.3642578125 107.59336579538035 L 455.90869140625 106.85437496402528 L 456.453125 106.46829508132123 L 456.99755859375 106.43602160821061 L 457.5419921875 106.75762933831459 L 458.08642578125 107.4323722239618 L 458.630859375 108.45868510624288 L 459.7197265625 111.5556883408488 L 460.80859375 116.01992067133907 L 461.8974609375 121.80998569059304 L 462.986328125 128.87219280839747 L 464.0751953125 137.14105510804413 L 465.1640625 146.53989658952372 L 465.70849609375 151.63621170648884 L 466.2529296875 156.98156316826567 L 466.79736328125 162.56355212543428 L 467.341796875 168.36923083629185 L 467.88623046875 174.38513269974032 L 468.4306640625 180.59730349170565 L 468.97509765625 186.99133373263328 L 469.51953125 193.55239211097893 L 470.06396484375 200.26525988516966 L 470.6083984375 207.11436618423642 L 471.15283203125 214.08382412523434 L 471.697265625 221.15746766367488 L 472.24169921875 228.31888909149436 L 472.7861328125 235.55147709557875 L 473.33056640625 242.838455288563 L 473.875 250.1629211225353 M 473.875 250.1629211225353 L 474.41943359375 257.50788509538074 L 474.9638671875 264.85631015882035 L 475.50830078125 272.19115123674317 L 476.052734375 279.4953947621571 L 476.59716796875 286.75209814106 L 477.1416015625 293.94442905168216 L 477.68603515625 301.05570448795316 L 478.23046875 308.0694294566203 L 478.77490234375 314.96933523826686 L 479.3193359375 321.7394171234735 L 479.86376953125 328.3639715365983 L 480.408203125 334.82763246106134 L 480.95263671875006 341.1154070816432 L 481.4970703125 347.2127105611231 L 482.04150390625 353.10539987059303 L 482.5859375 358.7798065949727 L 483.13037109375 364.222768637633 L 483.6748046875 369.42166075058685 L 484.76367187500006 379.0395928351149 L 485.8525390625 387.54441732002545 L 486.94140625 394.85727034380966 L 488.0302734375 400.910341003577 L 489.119140625 405.64750015438995 L 491.296875 411.0109858477373 L 491.84130859375 411.4761200810552 L 492.3857421875 411.5875776533324 L 492.93017578125 411.3451000323992 L 493.474609375 410.74924965806315 L 494.01904296875 409.80140863749716 L 494.56347656250006 408.50377553936494 L 495.65234375 404.87197721230734 L 496.7412109375 399.887531751314 L 497.830078125 393.59665910808576 L 498.9189453125 386.0576935214671 L 500.0078125 377.3405425935015 L 501.0966796875 367.5260390475739 L 501.64111328125 362.2353451158321 L 502.185546875 356.7051911796838 L 502.72998046875 350.94840473229505 L 503.2744140625 344.97833895328756 L 503.81884765625 338.80884173531274 L 504.36328125 332.45422356310905 L 504.90771484375 325.929224319553 L 505.4521484375 319.2489790956987 L 505.99658203125 312.4289830841093 L 506.541015625 305.48505563691265 L 507.08544921875 298.43330357195396 L 507.6298828125 291.29008381215374 L 508.17431640625 284.0719654447335 L 508.71875 276.79569128831605 L 509.26318359375 269.4781390570461 L 509.8076171875 262.1362822118128 L 510.35205078125 254.78715058938144 L 510.896484375 247.4477909007619 L 511.44091796875 240.13522719043146 L 511.9853515625 232.86642134813883 L 512.52978515625 225.6582337648747 L 513.07421875 218.52738422427862 L 513.61865234375 211.49041312018926 L 514.1630859375 204.5636430902994 L 514.70751953125 197.76314115491044 L 515.251953125 191.10468144860195 L 515.79638671875 184.60370863126928 L 516.3408203125 178.27530206339185 L 516.88525390625 172.13414082863687 L 517.4296875 166.19446968492474 L 517.97412109375 160.47006602293646 L 518.5185546875 154.97420790870729 L 519.06298828125 149.7196432844275 L 519.607421875 144.7185603988981 L 520.6962890625 135.52262610831588 L 521.78515625 127.47167744130184 L 522.8740234375 120.64036953657092 L 523.962890625 115.09204800224006 L 526.140625 108.03778478131528 L 526.68505859375 107.14139830792672 L 527.2294921875 106.59725613125042 L 527.77392578125 106.40662041869749 L 528.318359375 106.56993336018411 L 528.86279296875 107.08681614244762 L 529.4072265625 107.95606982772478 L 529.95166015625 109.17567813475304 L 530.49609375 110.74281211564482 L 532.673828125 120.40200214829767 L 533.7626953125 127.1848817934358 L 534.8515625 135.19006161019658 L 535.9404296875 144.3433108669517 L 536.48486328125 149.3243325771221 L 537.029296875 154.5597529707145 L 537.57373046875 160.0374282050098 L 538.1181640625 165.7446525139926 L 538.66259765625 171.66818768006829 L 539.20703125 177.79429374082918 L 539.75146484375 184.1087608596448 L 540.2958984375 190.59694228615353 L 540.84033203125 197.24378833019614 L 541.384765625 204.03388127039244 L 541.92919921875 210.95147111638528 L 542.4736328125 217.98051214180174 L 543.01806640625 225.1047001031887 L 543.5625 232.30751005859264 L 544.10693359375 239.57223469806434 L 544.6513671875 246.8820230971722 L 545.19580078125 254.21991980364044 L 545.740234375 261.5689041664432 L 546.28466796875 268.9119298161325 L 546.8291015625 276.23196420482 L 547.37353515625 283.5120281140985 L 547.91796875 290.73523503926526 L 548.46240234375 297.8848303584888 L 549.0068359375 304.9442301960659 L 549.55126953125 311.89705988962464 L 550.095703125 318.72719197204617 L 550.64013671875 325.4187835800037 L 551.1845703125 331.956313202344 L 551.72900390625 338.3246166830814 L 552.2734375 344.50892239548 L 552.81787109375 350.4948855056486 L 553.3623046875 356.2686212461633 L 553.90673828125 361.81673712254195 L 554.451171875 367.12636397786366 L 555.5400390625 376.9814685065778 L 556.62890625 385.7425500494335 L 557.7177734375 393.32836852093016 L 558.806640625 399.6685818590522 L 560.984375 408.3891215235974 L 561.52880859375 409.7136468690003 L 562.0732421875 410.68858370276985 L 562.61767578125 411.31167060582607 L 563.162109375 411.58146229416457 L 563.70654296875 411.4973329712717 L 564.2509765625 411.0594777796934 L 564.79541015625 410.2689123483917 L 565.33984375 409.12747043693804 L 566.4287109375 405.80335545604316 L 567.517578125 401.11795681506874 L 568.6064453125 395.1147214542501 L 569.6953125 387.849316399583 L 570.7841796875 379.3891125715343 L 571.873046875 369.81256006544584 L 572.41748046875 364.6330211536165 L 572.9619140625 359.20846069654834 L 573.50634765625 353.5514612576378 L 574.05078125 347.6751445551587 L 574.59521484375 341.5931410257201 L 575.1396484375 335.31955820772953 L 575.68408203125 328.8689480181852 L 576.228515625 322.2562729987178 L 576.77294921875 315.49687160915335 L 577.3173828125 308.606422649126 L 577.86181640625 301.60090889024576 L 578.40625 294.4965800031905 L 578.95068359375 287.30991486570764 L 579.4951171875 280.0575833389629 L 580.03955078125 272.7564076008876 L 580.583984375 265.4233231262213 L 581.12841796875 258.0753394037558 L 581.6728515625 250.72950048189983 L 582.21728515625 243.4028454340791 L 582.76171875 236.11236883568063 L 583.30615234375 228.87498134420574 L 583.8505859375 221.70747047408258 L 584.39501953125 214.62646165711018 L 584.939453125 207.6483796788645 L 585.48388671875 200.78941058051373 L 586.0283203125 194.06546411441482 L 586.57275390625 187.49213684057463 L 587.1171875 181.0846759495824 L 587.66162109375 174.857943895919 L 588.2060546875 168.8263839236851 L 588.75048828125 163.0039865647085 L 589.294921875 157.40425718674595 L 589.83935546875 152.04018466704548 L 590.3837890625 146.92421126393918 L 591.47265625 137.4834259181335 L 592.5615234375 129.16944401774353 L 593.650390625 122.05935976593719 L 594.7392578125 116.21910381861585 L 595.828125 111.70283192015714 L 596.9169921875 108.55242272599568 L 597.46142578125 107.499048743809 L 598.005859375 106.79708946865767 L 598.55029296875 106.44817313330833 L 599.0947265625 106.45310906820256 L 599.63916015625 106.81188582417053 L 600.18359375 107.5236711989881 L 600.72802734375 108.58681416771532 L 601.2724609375 109.99884871233843 L 602.361328125 113.85568968938026 L 603.4501953125 119.0584302704581 L 604.5390625 125.5588262875911 L 605.6279296875 133.29660062480576 L 606.716796875 142.20000215803606 L 607.8056640625 152.18647109163834 L 608.35009765625 157.557286857996 L 608.89453125 163.16340452195945 L 609.43896484375 168.99182038830335 L 609.9833984375 175.0290151290153 L 610.52783203125 181.2609851421153 L 611.072265625 187.67327503377084 L 611.61669921875 194.25101114836917 L 612.1611328125 200.9789360687782 L 612.70556640625 207.84144400674623 L 613.25 214.82261700138704 M 613.25 214.82261700138704 L 613.79443359375 221.90626184175105 L 614.3388671875 229.075947627862 L 614.88330078125 236.31504388308588 L 615.427734375 243.60675912942443 L 615.97216796875 250.93417983626233 L 616.5166015625 258.2803096522274 L 617.06103515625 265.6281088291478 L 617.60546875 272.960533746678 L 618.14990234375 280.260576445906 L 618.6943359375 287.5113040802366 L 619.23876953125 294.6958981920553 L 619.783203125 301.7976937240537 L 620.32763671875 308.80021767473676 L 620.8720703125 315.6872273084516 L 621.41650390625 322.4427478312925 L 621.9609375 329.05110944550694 L 622.50537109375 335.49698369644676 L 623.0498046875 341.76541902774983 L 623.59423828125 347.84187546229356 L 624.138671875 353.7122583284587 L 624.68310546875 359.36295095349215 L 625.2275390625 364.78084624811845 L 625.77197265625 369.9533771091492 L 626.31640625 374.8685455695603 L 627.4052734375 383.8818146961953 L 628.494140625 391.73707504803747 L 629.5830078125 398.36148607229893 L 630.671875 403.6936206819969 L 632.849609375 410.29572614212077 L 633.39404296875 411.07647627610885 L 633.9384765625 411.5044767414353 L 634.48291015625 411.5787347677125 L 635.02734375 411.29907810940426 L 635.57177734375 410.66615544535955 L 636.1162109375 409.6814348741658 L 637.205078125 406.6665471785787 L 638.2939453125 402.28237158633465 L 639.3828125 396.569561845286 L 640.4716796875 389.58109191184946 L 641.560546875 381.3817647321139 L 642.6494140625 372.0476113346532 L 643.19384765625 366.98163321030654 L 643.73828125 361.66518580715194 L 644.28271484375 356.1106009144708 L 644.8271484375 350.3307626944179 L 645.37158203125 344.33907779650957 L 645.916015625 338.1494442601683 L 646.46044921875 331.77621927746225 L 647.0048828125 325.234185890819 L 647.54931640625 318.5385187029517 L 648.09375 311.7047486785423 L 648.63818359375 304.74872711932284 L 649.1826171875 297.68658889611885 L 649.72705078125 290.5347150231353 L 650.271484375 283.3096946613057 L 650.81591796875 276.02828663882605 L 651.3603515625 268.7073805781429 L 651.90478515625 261.3639577195552 L 652.44921875 254.01505153229758 L 652.99365234375 246.67770820448632 L 653.5380859375 239.36894710355546 L 654.08251953125 232.10572129890573 L 654.626953125 224.90487823834033 L 655.17138671875 217.7831206694877 L 655.7158203125 210.75696789687444 L 656.26025390625 203.84271746449417 L 656.8046875 197.05640735276725 L 657.34912109375 190.41377877757424 L 657.8935546875 183.930239677647 L 658.43798828125 177.62082897501415 L 658.982421875 171.50018169140498 L 659.52685546875 165.5824950015197 L 660.0712890625 159.88149530190572 L 660.61572265625 154.4104063718377 L 661.16015625 149.1819187000396 L 662.2490234375 139.5006673209897 L 663.337890625 130.9275138356216 L 664.4267578125 123.5419557030971 L 665.515625 117.41247800384946 L 667.693359375 109.136940031877 L 668.23779296875 107.92706780819486 L 668.7822265625 107.06761747801878 L 669.32666015625 106.56058258319425 L 669.87109375 106.40713921877256 L 670.41552734375 106.60764330499384 L 670.9599609375 107.16162976171086 L 671.50439453125 108.06781358716768 L 672.048828125 109.3240928386312 L 674.2265625 117.77985795952682 L 675.3154296875 123.99475106757066 L 676.404296875 131.4615259110539 L 677.4931640625 140.11094430017977 L 678.58203125 149.86280158372807 L 679.12646484375 155.12426326457592 L 679.6708984375 160.62667037375417 L 680.21533203125 166.35725977831777 L 680.759765625 172.30273906405995 L 681.30419921875 178.44931736799322 L 681.8486328125 184.78273736700385 L 682.39306640625 191.28830834849322 L 682.9375 197.95094028628253 L 683.48193359375 204.7551788427501 L 684.0263671875 211.68524121601337 L 684.57080078125 218.7250527489925 L 685.115234375 225.85828421545486 L 685.65966796875 233.06838969654606 L 686.2041015625 240.3386449599462 L 686.74853515625 247.65218625264237 L 687.29296875 254.99204941731549 L 687.83740234375 262.34120924163483 L 688.3818359375 269.6826189491591 L 688.92626953125 276.99924974026567 L 689.470703125 284.2741302913773 L 690.01513671875 291.4903861208736 L 690.5595703125 298.63127873036785 L 691.10400390625 305.680244430564 L 691.6484375 312.62093276164364 L 692.19287109375 319.43724441903754 L 692.7373046875 326.1133685966466 L 693.28173828125 332.6338196608665 L 693.826171875 338.98347307035533 L 694.37060546875 345.14760045823465 L 694.9150390625 351.11190379533537 L 695.45947265625 356.8625485552568 L 696.00390625 362.3861958043038 L 696.54833984375 367.6700331418695 L 697.0927734375 372.7018044194965 L 698.181640625 381.96307467847794 L 699.2705078125 390.0841283270631 L 700.359375 396.9896601544121 L 702.537109375 406.90988795941195 L 703.6259765625 409.8325952766314 L 704.17041015625 410.7706460014844 L 704.71484375 411.35665644765305 L 705.25927734375 411.58926733199394 L 705.8037109375 411.4679391008931 L 706.34814453125 410.99295318178986 L 706.892578125 410.16541133039095 L 707.9814453125 407.4611512645061 L 709.0703125 403.3802350673962 L 710.1591796875 397.9605044118215 L 711.248046875 391.25221557946224 L 712.3369140625 383.3175734425863 L 713.42578125 374.2301546483759 L 713.97021484375 369.2800903391494 L 714.5146484375 364.07422535463286 L 715.05908203125 358.62463498216584 L 715.603515625 352.9439598433944 L 716.14794921875 347.04537657366853 L 716.6923828125 340.94256725811374 L 717.23681640625 334.64968769528963 L 717.78125 328.1813345620473 L 718.32568359375 321.5525115557382 L 718.8701171875 314.7785945923267 L 719.41455078125 307.87529614110906 L 719.958984375 300.85862877879026 L 720.50341796875 293.74486804743833 L 721.0478515625 286.55051470247867 L 721.59228515625 279.2922564382915 L 722.13671875 271.9869291801993 L 722.68115234375 264.6514780326175 L 723.2255859375 257.3029179739643 L 723.77001953125 249.9582943894926 L 724.314453125 242.63464353358762 L 724.85888671875 235.34895301324755 L 725.4033203125 228.11812238440712 L 725.94775390625 220.95892395249246 L 726.4921875 213.8879638681516 L 727.03662109375 206.92164360837623 L 727.5810546875 200.07612193238913 L 728.12548828125 193.36727740051677 L 728.669921875 186.81067154301005 L 729.21435546875 180.42151276422044 L 729.7587890625 174.21462106588334 L 730.30322265625 168.2043936713148 L 730.84765625 162.40477163026648 L 731.39208984375 156.8292074819061 L 731.9365234375 151.49063405091408 L 733.025390625 141.57341335208866 L 734.1142578125 132.74507030981303 L 735.203125 125.08746871454272 L 736.2919921875 118.67161626153398 L 737.380859375 113.55700610803038 L 739.55859375 107.40871450413391 L 740.10302734375 106.7437965556125 L 740.6474609375 106.43204516270717 L 741.19189453125 106.47418344975154 L 741.736328125 106.87011367469387 L 742.28076171875 107.61891745581565 L 742.8251953125 108.7188579019672 L 743.9140625 111.96113473972247 L 745.0029296875 116.56687908170258 L 746.091796875 122.49338260904267 L 747.1806640625 129.68568981757062 L 748.26953125 138.07710761126907 L 749.3583984375 147.58982373651452 L 749.90283203125 152.7394875067021 L 750.447265625 158.13562832246197 L 750.99169921875 163.7657295413064 L 751.5361328125 169.61673183684604 L 752.08056640625 175.67506349061813 L 752.625 181.92667187241895 L 753.16943359375 188.35705603615125 L 753.7138671875 194.95130035555567 L 754.25830078125 201.6941091218152 L 754.802734375 208.56984202279153 L 755.34716796875 215.56255042157306 L 755.8916015625 222.65601435021466 L 756.43603515625 229.8337801328285 L 756.98046875 237.0791985507886 L 757.52490234375 244.375463461496 L 758.0693359375 251.70565078114373 L 758.61376953125 259.0527577410479 L 759.158203125 266.39974232649644 L 759.70263671875 273.7295628066379 L 760.2470703125 281.0252172636915 L 760.79150390625 288.2697830298287 L 761.3359375 295.44645594022387 L 761.88037109375 302.5385893112267 L 762.4248046875 309.52973255325327 L 762.96923828125 316.4036693288208 L 763.513671875 323.1444551672323 L 764.05810546875 329.7364544486369 L 764.6025390625 336.1643766717093 L 765.14697265625 342.4133119207928 L 765.69140625 348.46876545026703 L 766.23583984375 354.31669130589705 L 766.7802734375 359.9435249051865 L 767.32470703125 365.33621450117164 L 767.869140625 370.4822514566522 L 768.9580078125 379.9872212058608 L 770.046875 388.3702961128545 L 771.1357421875 395.55374128624226 L 772.224609375 401.47094580621877 L 774.40234375 409.2994062196856 L 774.674560546875 409.89062024703105 L 774.94677734375 410.3943218329141 L 775.4912109375 411.1380700718613 L 776.03564453125 411.5289257719835 L 776.580078125 411.56598232219847 L 777.12451171875 411.24915376781996 L 777.6689453125 410.5791750099339 L 778.21337890625 409.55760010075596 L 778.7578125 408.1867986389215 L 780.935546875 399.28690309375975 L 782.0244140625 392.86191120479657 L 783.11328125 385.19563956535376 L 784.2021484375 376.35917626659807 L 785.291015625 366.43446039680515 L 785.83544921875 361.0923957510513 L 786.3798828125 355.51352223349966 L 786.92431640625 349.71078034509355 L 787.46875 343.697629861654 L 788.01318359375 337.48801861319953 L 788.5576171875 331.0963501311885 L 789.10205078125 324.53745023875103 L 789.646484375 317.8265326613781 L 790.19091796875 310.9791637378595 L 790.7353515625 304.01122631331657 L 791.27978515625 296.9388828980706 L 791.82421875 289.7785381778284 L 792.36865234375 282.546800962113 L 792.9130859375 275.2604456592288 L 793.45751953125 267.9363733671108 L 794.001953125 260.5915726703003 L 794.54638671875 253.24308023400667 L 795.0908203125 245.9079412866266 L 795.63525390625 238.60317008241205 L 796.1796875 231.34571043598422 L 796.72412109375 224.15239642022624 L 797.2685546875 217.03991331873755 L 797.81298828125 210.02475892341218 L 798.357421875 203.12320526691067 L 798.90185546875 196.3512608787872 L 799.4462890625 189.72463365284568 L 799.99072265625 183.25869441181743 L 800.53515625 176.9684412538998 L 801.07958984375 170.8684647638538 L 801.6240234375 164.97291416934607 L 802.16845703125 159.29546452104836 L 802.712890625 153.84928497260668 L 803.25732421875 148.64700823407898 L 803.8017578125 143.70070126966974 L 804.890625 134.6212692281016 L 805.9794921875 126.69518094584441 L 807.068359375 119.99593375157738 L 809.24609375 110.51449441324434 L 810.3349609375 107.82022211546044 L 810.87939453125 106.99772995198384 L 811.423828125 106.52781533178143 L 811.96826171875 106.41156824740602 L 812.5126953125 106.64925834030046 L 813.05712890625 107.24033427534977 L 813.6015625 108.1834250197335 L 814.6904296875 111.11608929175944 L 815.779296875 115.42005703713247 L 816.8681640625 121.05541826232871 L 817.95703125 127.96991717843724 L 819.0458984375 136.09943676059063 L 820.134765625 145.36859329472358 L 820.67919921875 150.40406725659906 L 821.2236328125 155.691435398504 L 821.76806640625 161.21843338208754 L 822.3125 166.97224103453004 L 822.85693359375 172.93951208563817 L 823.4013671875 179.10640512523543 L 823.94580078125 185.4586157090723 L 824.490234375 191.98140953876526 L 825.03466796875 198.65965663880124 L 825.5791015625 205.47786645134175 L 826.12353515625 212.42022376741147 L 826.66796875 219.47062541114366 L 827.21240234375 226.61271759196552 L 827.7568359375 233.82993383811421 L 828.30126953125 241.10553342346094 L 828.845703125 248.4226401985496 L 829.39013671875 255.76428173573058 L 829.9345703125 263.1134286976386 L 830.47900390625 270.4530343376701 L 831.0234375 277.76607404083194 L 831.56787109375 285.0355848132759 L 832.1123046875 292.2447046288713 L 832.65673828125 299.3767115416064 L 833.201171875 306.41506247304375 L 833.74560546875 313.343431584895 L 834.2900390625 320.14574814769384 L 834.83447265625 326.80623381772534 L 835.37890625 333.3094392357551 L 835.92333984375 339.64027986265575 L 836.4677734375 345.7840709688236 L 837.01220703125 351.7265616962018 L 837.556640625 357.45396811392436 L 838.10107421875 362.95300519089886 L 838.6455078125 368.2109176111536 L 839.734375 377.9551720157886 L 840.8232421875 386.5963744401489 L 841.912109375 394.0543964183172 L 843.0009765625 400.26008092439633 L 844.08984375 405.1558836543628 L 846.267578125 410.84881914228856 L 846.81201171875 411.39773811491585 L 847.3564453125 411.59316223455096 L 847.90087890625 411.43463820430577 L 848.4453125 410.92253372930134 L 848.98974609375 410.0580366637564 L 849.5341796875 408.843152255694 L 850.623046875 405.3742995802404 L 851.7119140625 400.5481418101234 L 852.80078125 394.40943112211073 L 853.8896484375 387.01509078289115 L 854.978515625 378.43368730887516 L 856.0673828125 368.7447946600255 L 856.61181640625 363.51273700431733 L 857.15625 358.0382563634643 L 857.70068359375 352.3340510934468 L 858.2451171875 346.41335240903607 L 858.78955078125 340.2898936932651 L 859.333984375 333.9778786421021 L 859.87841796875 327.4919483182053 L 860.4228515625 320.8471471901795 L 860.96728515625 314.0588882361108 L 861.51171875 307.14291719232216 L 862.05615234375 300.1152760302888 L 862.6005859375 292.9922657464057 L 863.14501953125 285.7904085509365 L 863.689453125 278.52640954385345 L 864.23388671875 271.21711796644604 L 864.7783203125 263.8794881185819 L 865.32275390625 256.5305400322933 L 865.8671875 249.18731999288426 L 866.41162109375 241.86686099914195 L 866.9560546875 234.5861432543654 L 867.50048828125 227.36205477986664 L 868.044921875 220.21135224227814 L 868.58935546875 213.15062208555622 L 869.1337890625 206.196242057819 L 869.67822265625 199.36434322227075 L 870.22265625 192.67077254032108 L 870.76708984375 186.13105611368835 L 871.3115234375 179.76036317077273 L 871.85595703125 173.57347088079814 L 872.400390625 167.5847300773624 L 872.94482421875 161.80803197090012 L 873.4892578125 156.2567759272619 L 874.03369140625 150.94383838715876 L 874.578125 145.8815429985508 L 875.6669921875 136.55523914023553 L 876.755859375 128.36434565250104 L 877.8447265625 121.3848153596646 L 878.93359375 115.68136831198106 L 881.111328125 108.30194917639531 L 881.383544921875 107.76825185814246 L 882.2001953125 106.69440524300524 L 882.7446289062501 106.41982678124546 L 883.2890625 106.49916634063658 L 883.83349609375 106.93223988874976 L 884.3779296875 107.71804288790551 L 885.466796875 110.33973244065243 L 887.64453125 119.68152592803452 L 888.7333984375 126.31500492967189 L 889.8222656249999 134.17885032971895 L 890.9111328125 143.20014196763202 L 891.45556640625 148.1190872620235 L 892 153.2952268719804" stroke-opacity="0.6980392156862745" stroke-linecap="round" stroke-linejoin="round" stroke-miterlimit="10" stroke-width="2.5"/><text fill="rgb(153,51,255)" stroke="none" font-family="geogebra-sans-serif, sans-serif" font-size="16px" font-style="normal" font-weight="normal" text-decoration="normal" x="8" y="434" text-anchor="start" dominant-baseline="alphabetic" fill-opacity="1">i</text><text fill="none" stroke="rgb(255,255,255)" font-family="geogebra-sans-serif, sans-serif" font-size="16px" font-style="normal" font-weight="normal" text-decoration="normal" x="8" y="434" text-anchor="start" dominant-baseline="alphabetic" stroke-opacity="1" stroke-linejoin="bevel" stroke-miterlimit="10" stroke-width="3">i</text><text fill="rgb(153,51,255)" stroke="none" font-family="geogebra-sans-serif, sans-serif" font-size="16px" font-style="normal" font-weight="normal" text-decoration="normal" x="8" y="434" text-anchor="start" dominant-baseline="alphabetic" fill-opacity="1">i</text><text fill="rgb(153,51,255)" stroke="none" font-family="geogebra-sans-serif, sans-serif" font-size="14px" font-style="normal" font-weight="normal" text-decoration="normal" x="12" y="441" text-anchor="start" dominant-baseline="alphabetic" fill-opacity="1">w</text><text fill="none" stroke="rgb(255,255,255)" font-family="geogebra-sans-serif, sans-serif" font-size="14px" font-style="normal" font-weight="normal" text-decoration="normal" x="12" y="441" text-anchor="start" dominant-baseline="alphabetic" stroke-opacity="1" stroke-linejoin="bevel" stroke-miterlimit="10" stroke-width="3">w</text><text fill="rgb(153,51,255)" stroke="none" font-family="geogebra-sans-serif, sans-serif" font-size="14px" font-style="normal" font-weight="normal" text-decoration="normal" x="12" y="441" text-anchor="start" dominant-baseline="alphabetic" fill-opacity="1">w</text></g></g></svg>