<svg version="1.1" xmlns="http://www.w3.org/2000/svg" xmlns:xlink="http://www.w3.org/1999/xlink" width="892" height="568"><defs><clipPath id="vShPNFdQEyHA"><path fill="none" stroke="none" d=" M 0 0 L 892 0 L 892 568 L 0 568 L 0 0 Z"/></clipPath></defs><g transform="scale(1,1)" clip-path="url(#vShPNFdQEyHA)"><g><rect fill="rgb(255,255,255)" stroke="none" x="0" y="0" width="892" height="568" fill-opacity="1"/><path fill="none" stroke="rgb(192,192,192)" paint-order="fill stroke markers" d=" M 32.5 0.5 L 32.5 568.5 M 32.5 0.5 L 32.5 568.5 M 116.5 0.5 L 116.5 568.5 M 200.5 0.5 L 200.5 568.5 M 284.5 0.5 L 284.5 568.5 M 451.5 0.5 L 451.5 568.5 M 535.5 0.5 L 535.5 568.5 M 619.5 0.5 L 619.5 568.5 M 703.5 0.5 L 703.5 568.5 M 786.5 0.5 L 786.5 568.5 M 870.5 0.5 L 870.5 568.5" stroke-opacity="1" stroke-linecap="round" stroke-linejoin="round" stroke-miterlimit="10"/><path fill="none" stroke="rgb(192,192,192)" paint-order="fill stroke markers" d=" M 16.5 0.5 L 16.5 568.5 M 49.5 0.5 L 49.5 568.5 M 66.5 0.5 L 66.5 568.5 M 83.5 0.5 L 83.5 568.5 M 99.5 0.5 L 99.5 568.5 M 133.5 0.5 L 133.5 568.5 M 150.5 0.5 L 150.5 568.5 M 166.5 0.5 L 166.5 568.5 M 183.5 0.5 L 183.5 568.5 M 217.5 0.5 L 217.5 568.5 M 233.5 0.5 L 233.5 568.5 M 250.5 0.5 L 250.5 568.5 M 267.5 0.5 L 267.5 568.5 M 300.5 0.5 L 300.5 568.5 M 317.5 0.5 L 317.5 568.5 M 334.5 0.5 L 334.5 568.5 M 351.5 0.5 L 351.5 568.5 M 384.5 0.5 L 384.5 568.5 M 401.5 0.5 L 401.5 568.5 M 418.5 0.5 L 418.5 568.5 M 435.5 0.5 L 435.5 568.5 M 468.5 0.5 L 468.5 568.5 M 485.5 0.5 L 485.5 568.5 M 502.5 0.5 L 502.5 568.5 M 518.5 0.5 L 518.5 568.5 M 552.5 0.5 L 552.5 568.5 M 569.5 0.5 L 569.5 568.5 M 585.5 0.5 L 585.5 568.5 M 602.5 0.5 L 602.5 568.5 M 636.5 0.5 L 636.5 568.5 M 652.5 0.5 L 652.5 568.5 M 669.5 0.5 L 669.5 568.5 M 686.5 0.5 L 686.5 568.5 M 719.5 0.5 L 719.5 568.5 M 736.5 0.5 L 736.5 568.5 M 753.5 0.5 L 753.5 568.5 M 770.5 0.5 L 770.5 568.5 M 803.5 0.5 L 803.5 568.5 M 820.5 0.5 L 820.5 568.5 M 837.5 0.5 L 837.5 568.5 M 853.5 0.5 L 853.5 568.5 M 887.5 0.5 L 887.5 568.5" stroke-opacity="0.23529411764705882" stroke-linecap="round" stroke-linejoin="round" stroke-miterlimit="10"/><path fill="none" stroke="rgb(192,192,192)" paint-order="fill stroke markers" d=" M 0.5 21.5 L 892.5 21.5 M 0.5 21.5 L 892.5 21.5 M 0.5 81.5 L 892.5 81.5 M 0.5 140.5 L 892.5 140.5 M 0.5 199.5 L 892.5 199.5 M 0.5 318.5 L 892.5 318.5 M 0.5 377.5 L 892.5 377.5 M 0.5 436.5 L 892.5 436.5 M 0.5 496.5 L 892.5 496.5 M 0.5 555.5 L 892.5 555.5" stroke-opacity="1" stroke-linecap="round" stroke-linejoin="round" stroke-miterlimit="10"/><path fill="none" stroke="rgb(192,192,192)" paint-order="fill stroke markers" d=" M 0.5 9.5 L 892.5 9.5 M 0.5 9.5 L 892.5 9.5 M 0.5 33.5 L 892.5 33.5 M 0.5 45.5 L 892.5 45.5 M 0.5 57.5 L 892.5 57.5 M 0.5 69.5 L 892.5 69.5 M 0.5 92.5 L 892.5 92.5 M 0.5 104.5 L 892.5 104.5 M 0.5 116.5 L 892.5 116.5 M 0.5 128.5 L 892.5 128.5 M 0.5 152.5 L 892.5 152.5 M 0.5 164.5 L 892.5 164.5 M 0.5 175.5 L 892.5 175.5 M 0.5 187.5 L 892.5 187.5 M 0.5 211.5 L 892.5 211.5 M 0.5 223.5 L 892.5 223.5 M 0.5 235.5 L 892.5 235.5 M 0.5 247.5 L 892.5 247.5 M 0.5 270.5 L 892.5 270.5 M 0.5 282.5 L 892.5 282.5 M 0.5 294.5 L 892.5 294.5 M 0.5 306.5 L 892.5 306.5 M 0.5 330.5 L 892.5 330.5 M 0.5 342.5 L 892.5 342.5 M 0.5 353.5 L 892.5 353.5 M 0.5 365.5 L 892.5 365.5 M 0.5 389.5 L 892.5 389.5 M 0.5 401.5 L 892.5 401.5 M 0.5 413.5 L 892.5 413.5 M 0.5 424.5 L 892.5 424.5 M 0.5 448.5 L 892.5 448.5 M 0.5 460.5 L 892.5 460.5 M 0.5 472.5 L 892.5 472.5 M 0.5 484.5 L 892.5 484.5 M 0.5 508.5 L 892.5 508.5 M 0.5 519.5 L 892.5 519.5 M 0.5 531.5 L 892.5 531.5 M 0.5 543.5 L 892.5 543.5 M 0.5 567.5 L 892.5 567.5" stroke-opacity="0.23529411764705882" stroke-linecap="round" stroke-linejoin="round" stroke-miterlimit="10"/><path fill="none" stroke="rgb(37,37,37)" paint-order="fill stroke markers" d=" M 368.5 2.5 L 368.5 568.5" stroke-opacity="1" stroke-miterlimit="10"/><path fill="none" stroke="rgb(37,37,37)" paint-order="fill stroke markers" d=" M 368.5 1.5 L 364.5 5.5" stroke-opacity="1" stroke-miterlimit="10"/><path fill="none" stroke="rgb(37,37,37)" paint-order="fill stroke markers" d=" M 368.5 1.5 L 372.5 5.5" stroke-opacity="1" stroke-miterlimit="10"/><path fill="none" stroke="rgb(37,37,37)" paint-order="fill stroke markers" d=" M 0.5 258.5 L 890.5 258.5" stroke-opacity="1" stroke-miterlimit="10"/><path fill="none" stroke="rgb(37,37,37)" paint-order="fill stroke markers" d=" M 891.5 258.5 L 887.5 254.5" stroke-opacity="1" stroke-miterlimit="10"/><path fill="none" stroke="rgb(37,37,37)" paint-order="fill stroke markers" d=" M 891.5 258.5 L 887.5 262.5" stroke-opacity="1" stroke-miterlimit="10"/><text fill="rgb(37,37,37)" stroke="none" font-family="geogebra-sans-serif, sans-serif" font-size="12px" font-style="normal" font-weight="normal" text-decoration="normal" x="18" y="274" text-anchor="start" dominant-baseline="alphabetic" fill-opacity="1">–0.04</text><text fill="none" stroke="rgb(255,255,255)" font-family="geogebra-sans-serif, sans-serif" font-size="12px" font-style="normal" font-weight="normal" text-decoration="normal" x="18" y="274" text-anchor="start" dominant-baseline="alphabetic" stroke-opacity="1" stroke-linejoin="bevel" stroke-miterlimit="10" stroke-width="3">–0.04</text><text fill="rgb(37,37,37)" stroke="none" font-family="geogebra-sans-serif, sans-serif" font-size="12px" font-style="normal" font-weight="normal" text-decoration="normal" x="18" y="274" text-anchor="start" dominant-baseline="alphabetic" fill-opacity="1">–0.04</text><text fill="rgb(37,37,37)" stroke="none" font-family="geogebra-sans-serif, sans-serif" font-size="12px" font-style="normal" font-weight="normal" text-decoration="normal" x="102" y="274" text-anchor="start" dominant-baseline="alphabetic" fill-opacity="1">–0.03</text><text fill="none" stroke="rgb(255,255,255)" font-family="geogebra-sans-serif, sans-serif" font-size="12px" font-style="normal" font-weight="normal" text-decoration="normal" x="102" y="274" text-anchor="start" dominant-baseline="alphabetic" stroke-opacity="1" stroke-linejoin="bevel" stroke-miterlimit="10" stroke-width="3">–0.03</text><text fill="rgb(37,37,37)" stroke="none" font-family="geogebra-sans-serif, sans-serif" font-size="12px" font-style="normal" font-weight="normal" text-decoration="normal" x="102" y="274" text-anchor="start" dominant-baseline="alphabetic" fill-opacity="1">–0.03</text><text fill="rgb(37,37,37)" stroke="none" font-family="geogebra-sans-serif, sans-serif" font-size="12px" font-style="normal" font-weight="normal" text-decoration="normal" x="186" y="274" text-anchor="start" dominant-baseline="alphabetic" fill-opacity="1">–0.02</text><text fill="none" stroke="rgb(255,255,255)" font-family="geogebra-sans-serif, sans-serif" font-size="12px" font-style="normal" font-weight="normal" text-decoration="normal" x="186" y="274" text-anchor="start" dominant-baseline="alphabetic" stroke-opacity="1" stroke-linejoin="bevel" stroke-miterlimit="10" stroke-width="3">–0.02</text><text fill="rgb(37,37,37)" stroke="none" font-family="geogebra-sans-serif, sans-serif" font-size="12px" font-style="normal" font-weight="normal" text-decoration="normal" x="186" y="274" text-anchor="start" dominant-baseline="alphabetic" fill-opacity="1">–0.02</text><text fill="rgb(37,37,37)" stroke="none" font-family="geogebra-sans-serif, sans-serif" font-size="12px" font-style="normal" font-weight="normal" text-decoration="normal" x="270" y="274" text-anchor="start" dominant-baseline="alphabetic" fill-opacity="1">–0.01</text><text fill="none" stroke="rgb(255,255,255)" font-family="geogebra-sans-serif, sans-serif" font-size="12px" font-style="normal" font-weight="normal" text-decoration="normal" x="270" y="274" text-anchor="start" dominant-baseline="alphabetic" stroke-opacity="1" stroke-linejoin="bevel" stroke-miterlimit="10" stroke-width="3">–0.01</text><text fill="rgb(37,37,37)" stroke="none" font-family="geogebra-sans-serif, sans-serif" font-size="12px" font-style="normal" font-weight="normal" text-decoration="normal" x="270" y="274" text-anchor="start" dominant-baseline="alphabetic" fill-opacity="1">–0.01</text><text fill="rgb(37,37,37)" stroke="none" font-family="geogebra-sans-serif, sans-serif" font-size="12px" font-style="normal" font-weight="normal" text-decoration="normal" x="440" y="274" text-anchor="start" dominant-baseline="alphabetic" fill-opacity="1">0.01</text><text fill="none" stroke="rgb(255,255,255)" font-family="geogebra-sans-serif, sans-serif" font-size="12px" font-style="normal" font-weight="normal" text-decoration="normal" x="440" y="274" text-anchor="start" dominant-baseline="alphabetic" stroke-opacity="1" stroke-linejoin="bevel" stroke-miterlimit="10" stroke-width="3">0.01</text><text fill="rgb(37,37,37)" stroke="none" font-family="geogebra-sans-serif, sans-serif" font-size="12px" font-style="normal" font-weight="normal" text-decoration="normal" x="440" y="274" text-anchor="start" dominant-baseline="alphabetic" fill-opacity="1">0.01</text><text fill="rgb(37,37,37)" stroke="none" font-family="geogebra-sans-serif, sans-serif" font-size="12px" font-style="normal" font-weight="normal" text-decoration="normal" x="524" y="274" text-anchor="start" dominant-baseline="alphabetic" fill-opacity="1">0.02</text><text fill="none" stroke="rgb(255,255,255)" font-family="geogebra-sans-serif, sans-serif" font-size="12px" font-style="normal" font-weight="normal" text-decoration="normal" x="524" y="274" text-anchor="start" dominant-baseline="alphabetic" stroke-opacity="1" stroke-linejoin="bevel" stroke-miterlimit="10" stroke-width="3">0.02</text><text fill="rgb(37,37,37)" stroke="none" font-family="geogebra-sans-serif, sans-serif" font-size="12px" font-style="normal" font-weight="normal" text-decoration="normal" x="524" y="274" text-anchor="start" dominant-baseline="alphabetic" fill-opacity="1">0.02</text><text fill="rgb(37,37,37)" stroke="none" font-family="geogebra-sans-serif, sans-serif" font-size="12px" font-style="normal" font-weight="normal" text-decoration="normal" x="608" y="274" text-anchor="start" dominant-baseline="alphabetic" fill-opacity="1">0.03</text><text fill="none" stroke="rgb(255,255,255)" font-family="geogebra-sans-serif, sans-serif" font-size="12px" font-style="normal" font-weight="normal" text-decoration="normal" x="608" y="274" text-anchor="start" dominant-baseline="alphabetic" stroke-opacity="1" stroke-linejoin="bevel" stroke-miterlimit="10" stroke-width="3">0.03</text><text fill="rgb(37,37,37)" stroke="none" font-family="geogebra-sans-serif, sans-serif" font-size="12px" font-style="normal" font-weight="normal" text-decoration="normal" x="608" y="274" text-anchor="start" dominant-baseline="alphabetic" fill-opacity="1">0.03</text><text fill="rgb(37,37,37)" stroke="none" font-family="geogebra-sans-serif, sans-serif" font-size="12px" font-style="normal" font-weight="normal" text-decoration="normal" x="692" y="274" text-anchor="start" dominant-baseline="alphabetic" fill-opacity="1">0.04</text><text fill="none" stroke="rgb(255,255,255)" font-family="geogebra-sans-serif, sans-serif" font-size="12px" font-style="normal" font-weight="normal" text-decoration="normal" x="692" y="274" text-anchor="start" dominant-baseline="alphabetic" stroke-opacity="1" stroke-linejoin="bevel" stroke-miterlimit="10" stroke-width="3">0.04</text><text fill="rgb(37,37,37)" stroke="none" font-family="geogebra-sans-serif, sans-serif" font-size="12px" font-style="normal" font-weight="normal" text-decoration="normal" x="692" y="274" text-anchor="start" dominant-baseline="alphabetic" fill-opacity="1">0.04</text><text fill="rgb(37,37,37)" stroke="none" font-family="geogebra-sans-serif, sans-serif" font-size="12px" font-style="normal" font-weight="normal" text-decoration="normal" x="775" y="274" text-anchor="start" dominant-baseline="alphabetic" fill-opacity="1">0.05</text><text fill="none" stroke="rgb(255,255,255)" font-family="geogebra-sans-serif, sans-serif" font-size="12px" font-style="normal" font-weight="normal" text-decoration="normal" x="775" y="274" text-anchor="start" dominant-baseline="alphabetic" stroke-opacity="1" stroke-linejoin="bevel" stroke-miterlimit="10" stroke-width="3">0.05</text><text fill="rgb(37,37,37)" stroke="none" font-family="geogebra-sans-serif, sans-serif" font-size="12px" font-style="normal" font-weight="normal" text-decoration="normal" x="775" y="274" text-anchor="start" dominant-baseline="alphabetic" fill-opacity="1">0.05</text><text fill="rgb(37,37,37)" stroke="none" font-family="geogebra-sans-serif, sans-serif" font-size="12px" font-style="normal" font-weight="normal" text-decoration="normal" x="859" y="274" text-anchor="start" dominant-baseline="alphabetic" fill-opacity="1">0.06</text><text fill="none" stroke="rgb(255,255,255)" font-family="geogebra-sans-serif, sans-serif" font-size="12px" font-style="normal" font-weight="normal" text-decoration="normal" x="859" y="274" text-anchor="start" dominant-baseline="alphabetic" stroke-opacity="1" stroke-linejoin="bevel" stroke-miterlimit="10" stroke-width="3">0.06</text><text fill="rgb(37,37,37)" stroke="none" font-family="geogebra-sans-serif, sans-serif" font-size="12px" font-style="normal" font-weight="normal" text-decoration="normal" x="859" y="274" text-anchor="start" dominant-baseline="alphabetic" fill-opacity="1">0.06</text><text fill="rgb(37,37,37)" stroke="none" font-family="geogebra-sans-serif, sans-serif" font-size="12px" font-style="normal" font-weight="normal" text-decoration="normal" x="340" y="560" text-anchor="start" dominant-baseline="alphabetic" fill-opacity="1">–25</text><text fill="none" stroke="rgb(255,255,255)" font-family="geogebra-sans-serif, sans-serif" font-size="12px" font-style="normal" font-weight="normal" text-decoration="normal" x="340" y="560" text-anchor="start" dominant-baseline="alphabetic" stroke-opacity="1" stroke-linejoin="bevel" stroke-miterlimit="10" stroke-width="3">–25</text><text fill="rgb(37,37,37)" stroke="none" font-family="geogebra-sans-serif, sans-serif" font-size="12px" font-style="normal" font-weight="normal" text-decoration="normal" x="340" y="560" text-anchor="start" dominant-baseline="alphabetic" fill-opacity="1">–25</text><text fill="rgb(37,37,37)" stroke="none" font-family="geogebra-sans-serif, sans-serif" font-size="12px" font-style="normal" font-weight="normal" text-decoration="normal" x="340" y="501" text-anchor="start" dominant-baseline="alphabetic" fill-opacity="1">–20</text><text fill="none" stroke="rgb(255,255,255)" font-family="geogebra-sans-serif, sans-serif" font-size="12px" font-style="normal" font-weight="normal" text-decoration="normal" x="340" y="501" text-anchor="start" dominant-baseline="alphabetic" stroke-opacity="1" stroke-linejoin="bevel" stroke-miterlimit="10" stroke-width="3">–20</text><text fill="rgb(37,37,37)" stroke="none" font-family="geogebra-sans-serif, sans-serif" font-size="12px" font-style="normal" font-weight="normal" text-decoration="normal" x="340" y="501" text-anchor="start" dominant-baseline="alphabetic" fill-opacity="1">–20</text><text fill="rgb(37,37,37)" stroke="none" font-family="geogebra-sans-serif, sans-serif" font-size="12px" font-style="normal" font-weight="normal" text-decoration="normal" x="340" y="441" text-anchor="start" dominant-baseline="alphabetic" fill-opacity="1">–15</text><text fill="none" stroke="rgb(255,255,255)" font-family="geogebra-sans-serif, sans-serif" font-size="12px" font-style="normal" font-weight="normal" text-decoration="normal" x="340" y="441" text-anchor="start" dominant-baseline="alphabetic" stroke-opacity="1" stroke-linejoin="bevel" stroke-miterlimit="10" stroke-width="3">–15</text><text fill="rgb(37,37,37)" stroke="none" font-family="geogebra-sans-serif, sans-serif" font-size="12px" font-style="normal" font-weight="normal" text-decoration="normal" x="340" y="441" text-anchor="start" dominant-baseline="alphabetic" fill-opacity="1">–15</text><text fill="rgb(37,37,37)" stroke="none" font-family="geogebra-sans-serif, sans-serif" font-size="12px" font-style="normal" font-weight="normal" text-decoration="normal" x="340" y="382" text-anchor="start" dominant-baseline="alphabetic" fill-opacity="1">–10</text><text fill="none" stroke="rgb(255,255,255)" font-family="geogebra-sans-serif, sans-serif" font-size="12px" font-style="normal" font-weight="normal" text-decoration="normal" x="340" y="382" text-anchor="start" dominant-baseline="alphabetic" stroke-opacity="1" stroke-linejoin="bevel" stroke-miterlimit="10" stroke-width="3">–10</text><text fill="rgb(37,37,37)" stroke="none" font-family="geogebra-sans-serif, sans-serif" font-size="12px" font-style="normal" font-weight="normal" text-decoration="normal" x="340" y="382" text-anchor="start" dominant-baseline="alphabetic" fill-opacity="1">–10</text><text fill="rgb(37,37,37)" stroke="none" font-family="geogebra-sans-serif, sans-serif" font-size="12px" font-style="normal" font-weight="normal" text-decoration="normal" x="347" y="323" text-anchor="start" dominant-baseline="alphabetic" fill-opacity="1">–5</text><text fill="none" stroke="rgb(255,255,255)" font-family="geogebra-sans-serif, sans-serif" font-size="12px" font-style="normal" font-weight="normal" text-decoration="normal" x="347" y="323" text-anchor="start" dominant-baseline="alphabetic" stroke-opacity="1" stroke-linejoin="bevel" stroke-miterlimit="10" stroke-width="3">–5</text><text fill="rgb(37,37,37)" stroke="none" font-family="geogebra-sans-serif, sans-serif" font-size="12px" font-style="normal" font-weight="normal" text-decoration="normal" x="347" y="323" text-anchor="start" dominant-baseline="alphabetic" fill-opacity="1">–5</text><text fill="rgb(37,37,37)" stroke="none" font-family="geogebra-sans-serif, sans-serif" font-size="12px" font-style="normal" font-weight="normal" text-decoration="normal" x="353" y="204" text-anchor="start" dominant-baseline="alphabetic" fill-opacity="1">5</text><text fill="none" stroke="rgb(255,255,255)" font-family="geogebra-sans-serif, sans-serif" font-size="12px" font-style="normal" font-weight="normal" text-decoration="normal" x="353" y="204" text-anchor="start" dominant-baseline="alphabetic" stroke-opacity="1" stroke-linejoin="bevel" stroke-miterlimit="10" stroke-width="3">5</text><text fill="rgb(37,37,37)" stroke="none" font-family="geogebra-sans-serif, sans-serif" font-size="12px" font-style="normal" font-weight="normal" text-decoration="normal" x="353" y="204" text-anchor="start" dominant-baseline="alphabetic" fill-opacity="1">5</text><text fill="rgb(37,37,37)" stroke="none" font-family="geogebra-sans-serif, sans-serif" font-size="12px" font-style="normal" font-weight="normal" text-decoration="normal" x="346" y="145" text-anchor="start" dominant-baseline="alphabetic" fill-opacity="1">10</text><text fill="none" stroke="rgb(255,255,255)" font-family="geogebra-sans-serif, sans-serif" font-size="12px" font-style="normal" font-weight="normal" text-decoration="normal" x="346" y="145" text-anchor="start" dominant-baseline="alphabetic" stroke-opacity="1" stroke-linejoin="bevel" stroke-miterlimit="10" stroke-width="3">10</text><text fill="rgb(37,37,37)" stroke="none" font-family="geogebra-sans-serif, sans-serif" font-size="12px" font-style="normal" font-weight="normal" text-decoration="normal" x="346" y="145" text-anchor="start" dominant-baseline="alphabetic" fill-opacity="1">10</text><text fill="rgb(37,37,37)" stroke="none" font-family="geogebra-sans-serif, sans-serif" font-size="12px" font-style="normal" font-weight="normal" text-decoration="normal" x="346" y="86" text-anchor="start" dominant-baseline="alphabetic" fill-opacity="1">15</text><text fill="none" stroke="rgb(255,255,255)" font-family="geogebra-sans-serif, sans-serif" font-size="12px" font-style="normal" font-weight="normal" text-decoration="normal" x="346" y="86" text-anchor="start" dominant-baseline="alphabetic" stroke-opacity="1" stroke-linejoin="bevel" stroke-miterlimit="10" stroke-width="3">15</text><text fill="rgb(37,37,37)" stroke="none" font-family="geogebra-sans-serif, sans-serif" font-size="12px" font-style="normal" font-weight="normal" text-decoration="normal" x="346" y="86" text-anchor="start" dominant-baseline="alphabetic" fill-opacity="1">15</text><text fill="rgb(37,37,37)" stroke="none" font-family="geogebra-sans-serif, sans-serif" font-size="12px" font-style="normal" font-weight="normal" text-decoration="normal" x="346" y="26" text-anchor="start" dominant-baseline="alphabetic" fill-opacity="1">20</text><text fill="none" stroke="rgb(255,255,255)" font-family="geogebra-sans-serif, sans-serif" font-size="12px" font-style="normal" font-weight="normal" text-decoration="normal" x="346" y="26" text-anchor="start" dominant-baseline="alphabetic" stroke-opacity="1" stroke-linejoin="bevel" stroke-miterlimit="10" stroke-width="3">20</text><text fill="rgb(37,37,37)" stroke="none" font-family="geogebra-sans-serif, sans-serif" font-size="12px" font-style="normal" font-weight="normal" text-decoration="normal" x="346" y="26" text-anchor="start" dominant-baseline="alphabetic" fill-opacity="1">20</text><text fill="rgb(37,37,37)" stroke="none" font-family="geogebra-sans-serif, sans-serif" font-size="12px" font-style="normal" font-weight="normal" text-decoration="normal" x="353" y="274" text-anchor="start" dominant-baseline="alphabetic" fill-opacity="1">0</text><text fill="none" stroke="rgb(255,255,255)" font-family="geogebra-sans-serif, sans-serif" font-size="12px" font-style="normal" font-weight="normal" text-decoration="normal" x="353" y="274" text-anchor="start" dominant-baseline="alphabetic" stroke-opacity="1" stroke-linejoin="bevel" stroke-miterlimit="10" stroke-width="3">0</text><text fill="rgb(37,37,37)" stroke="none" font-family="geogebra-sans-serif, sans-serif" font-size="12px" font-style="normal" font-weight="normal" text-decoration="normal" x="353" y="274" text-anchor="start" dominant-baseline="alphabetic" fill-opacity="1">0</text><path fill="none" stroke="rgb(204,0,0)" paint-order="fill stroke markers" d=" M 0 432.04494303807513 L 1.7421875 433.797169122987 L 2.61328125 434.39397677531247 L 3.484374999999943 434.8036655801267 L 4.35546875 435.0257984614343 L 5.2265625 435.0601384370453 L 6.09765625 434.90664887139894 L 6.96875 434.56549351464895 L 7.83984375 434.03703632796623 L 8.7109375 433.32184109524786 L 10.453124999999943 431.3344869195496 L 12.1953125 428.6119095510064 L 13.9375 425.1657242040857 L 17.421875 416.164363196771 L 19.1640625 410.6475896548268 L 20.90625 404.4838485381033 L 22.6484375 397.69943594963036 L 24.390625 390.32329593638315 L 26.1328125 382.3868970065424 L 27.875 373.924097876754 L 29.6171875 364.971003022145 L 31.359375 355.5658086453595 L 33.1015625 345.7486397217436 L 33.97265625 340.69858928836163 L 34.84375 335.5613788158946 L 35.71484375000006 330.3424889309915 L 36.5859375 325.0474873998806 L 37.45703125 319.6820231884055 L 38.328125 314.25182043543447 L 39.19921875 308.7626723460676 L 40.0703125 303.2204350111649 L 40.94140625 297.6310211597834 L 41.8125 292.00039385118663 L 42.68359375 286.33456011316554 L 43.5546875 280.63956453344554 L 44.42578125 274.92148281102794 L 45.296875 269.1864152743367 L 46.16796875 263.44048037308966 L 47.03906249999994 257.6898081508412 L 47.91015625 251.94053370514865 L 48.78125 246.19879064235428 L 49.65234375 240.47070453395395 L 50.5234375 234.76238638153757 L 51.39453125 229.07992609727629 L 52.265625 223.42938600690744 L 53.13671875 217.8167943821471 L 54.0078125 212.2481390094389 L 54.87890625 206.72936080189024 L 55.75 201.2663474612155 L 56.62109375 195.86492719645102 L 57.4921875 190.53086250613455 L 58.36328125 185.26984403059436 L 59.234375 180.08748448089364 L 60.10546875 174.9893126509172 L 60.97656249999994 169.98076751898623 L 62.71875 160.2538294713234 L 64.4609375 150.94816795440664 L 66.203125 142.10348331083262 L 67.94531250000006 133.7575092374342 L 69.6875 125.94585180363771 L 71.4296875 118.70183754682085 L 73.171875 112.05637129274501 L 74.9140625 106.03780430762833 L 76.65625 100.6718133443616 L 80.140625 91.98624854405867 L 83.62499999999994 86.14773820914417 L 84.06054687500006 85.62360701382175 L 85.3671875 84.32917901401962 L 86.23828125000006 83.69898487779511 L 87.109375 83.25581041305693 L 87.98046875 83.00012841993549 L 88.8515625 82.93221167244934 L 89.72265625 83.05213262749672 L 90.59375 83.35976334755478 L 91.46484375 83.85477563716975 L 92.3359375 84.53664139309188 L 94.078125 86.45782494498582 L 95.8203125 89.11511774066432 L 97.56249999999994 92.49718308641903 L 101.046875 101.37488588067944 L 102.7890625 106.8326487684385 L 104.53125000000006 112.93959666738726 L 106.2734375 119.66967576895215 L 108.015625 126.99417382677063 L 109.7578125 134.8818426505108 L 111.5 143.29903141867828 L 113.24218750000003 152.20983024166492 L 114.984375 161.57622336256355 L 116.7265625 171.35825134215304 L 117.59765625 176.39215139851254 L 118.46875 181.51418153613128 L 119.33984375 186.7188773234835 L 120.21093750000003 192.00068613729596 L 121.08203124999997 197.3539730863584 L 121.953125 202.77302702310106 L 122.82421875 208.2520666365238 L 123.6953125 213.7852466199817 L 124.56640625 219.36666390724284 L 125.4375 224.99036397016735 L 126.30859375 230.65034717128808 L 127.17968750000003 236.3405751645176 L 128.05078124999997 242.05497733714813 L 128.921875 247.78745728628004 L 129.79296875 253.531899322758 L 130.6640625 259.28217499569064 L 131.53515625000003 265.03214963057763 L 132.40625 270.77568887408097 L 133.27734375 276.50666523845194 L 134.1484375 282.21896463863374 L 135.01953125000003 287.9064929150665 L 135.890625 293.56318233523234 L 136.76171875 299.1829980670094 L 137.6328125 304.7599446169244 L 138.50390625000003 310.28807222643894 L 139.375 315.7614832194389 L 140.24609375 321.17433829416694 L 141.1171875 326.52086275287087 L 141.98828125 331.79535266253544 L 142.859375 336.9921809401143 L 143.73046875 342.10580335577754 L 144.6015625 347.13076444776635 L 146.34375 356.8933594740447 L 148.0859375 366.2383162806186 L 149.82812500000003 375.1257668810902 L 151.5703125 383.5177951280676 L 153.31250000000003 391.37859847319027 L 155.0546875 398.67464070999654 L 156.79687500000003 405.3747950479973 L 158.5390625 411.4504769075586 L 160.28125000000003 416.87576586906357 L 163.76562500000003 425.68545588076074 L 167.25 431.65368782482204 L 168.12109375 432.6887527948817 L 168.9921875 433.53851813352753 L 169.86328125 434.2020772696578 L 170.734375 434.67872228602766 L 171.60546875 434.9679446744898 L 172.4765625 435.0694358784964 L 173.34765625 434.98308762228186 L 174.21875 434.7089920263766 L 175.08984375000003 434.2474415093287 L 175.9609375 433.5989284757371 L 176.83203125 432.7641447909309 L 177.703125 431.7439810428533 L 181.1875 425.8342333636408 L 184.671875 417.0804914328358 L 186.4140625 411.6819252602462 L 188.15625 405.6319787714699 L 189.8984375 398.9564625924211 L 191.640625 391.68385619001805 L 193.3828125 383.8451863714598 L 195.125 375.47389491589774 L 196.86718750000003 366.60569590321325 L 198.609375 357.27842334857894 L 200.35156250000003 347.53186979283055 L 201.22265625 342.51429172454107 L 202.09375 337.4076165372655 L 202.96484375 332.21729228112054 L 203.83593750000003 326.94885624712856 L 204.70703125 321.6079290597665 L 205.578125 316.20020868060783 L 206.44921875 310.7314643294603 L 207.32031250000003 305.2075303294813 L 208.19140625 299.6342998828368 L 209.0625 294.01771878354543 L 209.93359375 288.3637790742169 L 210.80468750000003 282.67851265344717 L 211.67578125 276.9679848406961 L 212.546875 271.2382879055083 L 213.41796875 265.4955345679828 L 214.28906250000003 259.74585147742516 L 215.16015625 253.99537267614028 L 216.03125 248.25023305533512 L 216.90234375 242.5165618101189 L 217.77343750000003 236.80047590057822 L 218.64453125000003 231.1080735259069 L 219.515625 225.4454276185479 L 220.38671875 219.818579365294 L 221.25781250000003 214.2335317622552 L 222.12890625000003 208.69624321056924 L 223 203.21262115968906 L 223.87109375 197.78851580502726 L 224.7421875 192.4297138466827 L 225.61328125000003 187.14193231590616 L 226.484375 181.93081247589396 L 227.35546875 176.80191380341142 L 228.2265625 171.7607080576729 L 229.96875 161.96278887010328 L 231.7109375 152.5788553534632 L 233.453125 143.64894177880802 L 235.1953125 135.21114545148617 L 236.9375 127.30146417824639 L 238.6796875 119.95364269134814 L 240.421875 113.19902868486326 L 242.1640625 107.0664390773616 L 243.90625 101.58203707153231 L 247.390625 92.64852218021281 L 250.875 86.55077209042659 L 251.74609375 85.48269514603098 L 252.6171875 84.59973492402489 L 253.48828125 83.90283340943074 L 254.359375 83.39273409076873 L 255.23046875 83.069981166867 L 256.1015625 82.93491896628376 L 256.97265625 82.98769157996094 L 257.84375 83.22824270750084 L 258.71484375 83.65631571723003 L 259.5859375 84.27145391998684 L 260.45703125 85.07300105633931 L 261.328125 86.06010199671502 L 263.07031250000006 88.58655610549755 L 264.8125 91.84003774407611 L 268.296875 100.46952038698382 L 270.03906250000006 105.80870580149863 L 271.78125 111.80144463094433 L 273.5234375 118.42217031197762 L 275.265625 125.64263712802054 L 277.00781250000006 133.43204071274351 L 278.75 141.75714946940482 L 280.4921875 150.5824463453808 L 282.234375 159.87028035703506 L 283.9765625 169.58102721848783 L 284.84765625 174.58211224409516 L 285.71875 179.67325838899876 L 286.58984375 184.84903417022116 L 287.4609375 190.10391781776292 L 288.33203125000006 195.4323031654942 L 289.203125 200.82850563208686 L 290.07421875 206.28676828560447 L 290.9453125 211.8012679852754 L 291.81640625 217.36612159390614 L 292.6875 222.9753922542966 L 293.55859375 228.62309572296974 L 294.4296875 234.30320675445577 L 295.30078125000006 240.00966552931527 L 296.171875 245.73638411905134 L 297.04296875 251.47725298100983 L 297.9140625 257.2261474763346 L 298.78515625 262.97693440403384 L 299.65625 268.7234785441757 L 300.52734375 274.45964920324076 L 301.3984375 280.17932675464647 L 302.26953125000006 285.8764091674604 L 303.140625 291.544818516346 L 304.01171875 297.17850746579074 L 304.8828125 302.7714657216957 L 305.75390625 308.3177264434535 L 306.62500000000006 313.8113726096626 L 307.49609375 319.24654333069475 L 308.3671875 324.6174401013794 L 309.23828125 329.9183329871291 L 310.109375 335.14356673691594 L 310.98046875 340.2875668165668 L 311.8515625 345.3448453559493 L 313.59375000000006 355.1777546832467 L 315.3359375 364.60034500160464 L 317.078125 373.57241712012114 L 318.8203125 382.05569387426965 L 320.56250000000006 390.01398342611685 L 322.3046875 397.4133336679995 L 324.046875 404.2221770709393 L 325.7890625 410.41146535983046 L 327.53125000000006 415.95479344084345 L 331.015625 425.0118286586902 L 334.5 431.238889015367 L 335.37109375 432.3399415222113 L 336.24218750000006 433.25606652651743 L 337.11328125 433.986286661456 L 337.984375 434.52982289257795 L 338.85546875000006 434.88609534892623 L 339.7265625 435.054723941671 L 340.59765625 435.0355287696061 L 341.46875 434.8285303110773 L 342.33984375 434.4339494021344 L 343.21093750000006 433.85220700093276 L 344.08203125 433.0839237386347 L 344.953125 432.1299192572897 L 346.6953125 429.66901480210754 L 348.4375 426.47999248598285 L 351.921875 417.97506331928196 L 353.6640625 412.69544068139385 L 355.40625 406.76011381016673 L 357.14843750000006 400.1944043347811 L 358.890625 393.02632325854887 L 360.6328125 385.286451456776 L 362.375 377.00780921089324 L 364.11718750000006 368.2257153354524 L 365.859375 358.97763649899133 L 367.6015625 349.3030273815994 L 368.47265625000006 341.328961451906 L 369.34375 331.5714317330923 L 370.21484375 322.09038567932265 L 371.08593750000006 312.8760592725547 L 371.95703125 303.9195205372887 L 372.828125 295.21261635085375 L 373.69921875 286.74792194568425 L 374.5703125 278.51869295956516 L 375.44140625000006 270.5188198982521 L 376.3125 262.7427848827583 L 377.18359375 255.18562056108448 L 378.05468750000006 247.84287107120275 L 378.92578125 240.71055494872243 L 379.79687500000006 233.7851298789319 L 380.66796875 227.0634591987984 L 381.5390625 220.54278006004063 L 382.41015625000006 214.22067316964282 L 383.28125 208.09503402907546 L 384.15234375 202.16404559814148 L 385.02343750000006 196.42615231372977 L 385.89453125 190.8800353978562 L 386.76562500000006 185.5245893932506 L 387.63671875 180.35889986838572 L 388.5078125 175.38222223725376 L 390.25 165.99365385301098 L 391.9921875 157.35558502845328 L 393.73437500000006 149.46624823546063 L 395.4765625 142.32489834444135 L 397.21875 135.93135540654973 L 398.9609375 130.28559529292727 L 400.70312500000006 125.38738444888634 L 404.1875 117.82972026302056 L 405.9296875 115.16601893233911 L 407.67187500000006 113.24090067921622 L 408.54296875 112.55367576914227 L 409.4140625 112.04893589746644 L 410.28515625000006 111.72574514595425 L 411.15625 111.58305672766704 L 412.02734375000006 111.61970945192286 L 412.8984375 111.83442457260034 L 413.76953125 112.22580300847005 L 414.64062500000006 112.79232292466764 L 415.51171875 113.53233766481398 L 416.3828125 114.44407402364942 L 418.125 116.77497797321391 L 421.60937500000006 123.40511591544197 L 425.09375 132.523676548793 L 426.8359375 137.9573796828857 L 428.57812500000006 143.93868428395945 L 430.3203125 150.43866573177488 L 432.0625 157.42655857168268 L 433.8046875 164.8698471540958 L 435.54687500000006 172.73436817515184 L 437.2890625 180.98442419692964 L 439.03125 189.58290723161184 L 440.7734375 198.4914314781333 L 442.51562500000006 207.67047430276838 L 444.25781250000006 217.07952455729972 L 446 226.6772373304074 L 447.7421875 236.42159423011415 L 449.484375 246.27006829795315 L 451.22656250000006 256.1797926592922 L 452.96875 266.1077320192712 L 454.7109375 276.01085612035104 L 456.453125 285.8463142857272 L 458.19531250000006 295.5716101830599 L 459.9375 305.1447759552244 L 461.6796875 314.5245448792547 L 463.421875 323.67052173139626 L 465.16406250000006 332.5433500553156 L 466.90625 341.1048755520269 L 468.6484375 349.31830483405963 L 470.390625 357.14835881275155 L 472.13281250000006 364.56142001633714 L 473.875 371.52567316761906 L 475.6171875 378.0112383834407 L 477.359375 383.9902963937962 L 479.10156250000006 389.4372052161742 L 480.84375 394.3286077604719 L 484.328125 402.36346843909394 L 487.81250000000006 407.9571926362713 L 488.68359375 408.9620114493614 L 489.5546875 409.8069721071656 L 491.296875 411.01385619488934 L 492.16796875 411.37447880632106 L 493.03906250000006 411.5726429689564 L 493.91015625 411.6081315380271 L 494.78125000000006 411.4809012410751 L 495.65234375 411.19108270602777 L 496.5234375 410.73898030476397 L 497.39453125000006 410.125071812281 L 498.265625 409.35000788177143 L 500.00781250000006 407.3198762765227 L 501.75 404.65721679094526 L 505.234375 397.4822995612823 L 508.71875 387.94738673478275 L 510.4609375 382.3441798011554 L 512.203125 376.2148762492006 L 513.9453125 369.58561201409515 L 515.6875 362.48465743824346 L 517.4296875 354.94229650479735 L 519.171875 346.99069749770985 L 520.9140625 338.663775638242 L 522.65625 329.9970482822679 L 524.3984375 321.02748329465487 L 526.1406250000001 311.79334124625535 L 527.8828125 302.3340121055607 L 529.625 292.689847120666 L 531.3671875 282.901986607854 L 533.109375 273.0121843806394 L 534.8515625 263.0626295675784 L 536.59375 253.09576657833202 L 538.3359375 243.15411398546843 L 540.0781250000001 233.2800830941803 L 541.8203125 223.51579697346153 L 543.5625 213.90291072039156 L 545.3046875 204.48243372395837 L 547.046875 195.29455468634023 L 548.7890625 186.3784701478736 L 550.53125 177.77221724698347 L 552.2734375 169.51251142833786 L 554.0156250000001 161.63458979139975 L 555.7578125 154.17206074749566 L 557.5 147.15676062664133 L 559.2421875 140.61861784573438 L 560.984375 134.58552521746145 L 562.7265625000001 129.0832209445816 L 564.46875 124.1351788071776 L 567.953125 115.98386312603225 L 571.4375 110.27052945131189 L 572.3085937500001 109.23548376054325 L 573.1796875 108.3602146591816 L 574.921875 107.09256977927888 L 575.79296875 106.7015463345644 L 576.6640625000001 106.47300270400174 L 577.53515625 106.40718268678438 L 578.40625 106.50415648187231 L 579.27734375 106.76382061303002 L 580.1484375 107.18589803915344 L 581.0195312500001 107.76993844976835 L 581.890625 108.51531874538435 L 583.6328125 110.48674682039436 L 585.375 113.09177152983446 L 588.859375 120.15549996072318 L 592.34375 129.586089187953 L 594.0859375 135.1402240663374 L 595.828125 141.22277703950962 L 597.5703125 147.80779832239767 L 599.3125000000001 154.86719447666366 L 601.0546875 162.37084826391475 L 602.796875 170.28674713303434 L 604.5390625000001 178.58111979345887 L 606.28125 187.21858029174496 L 608.0234375 196.16227897675338 L 609.765625 205.3740597093787 L 611.5078125 214.81462264613793 L 613.2500000000001 224.44369190212103 L 614.9921875 234.22018737802185 L 616.734375 244.10240001817897 L 618.4765625 254.04816975192415 L 620.21875 264.0150653591081 L 621.9609375 273.96056549242815 L 623.703125 283.84224008428333 L 625.4453125 293.61793136422426 L 627.1875 303.24593371471985 L 628.9296875 312.6851715979394 L 630.671875 321.89537479446636 L 632.4140625 330.83725020631823 L 634.15625 339.47264949133296 L 635.8984375 347.7647318137312 L 637.640625 355.6781210165352 L 639.3828125 363.1790565452942 L 641.125 370.2355374792364 L 642.8671875 376.8174590553825 L 644.609375 382.8967411031642 L 646.3515625 388.447447841612 L 648.09375 393.44589852803676 L 651.578125 401.70318008251 L 655.0625000000001 407.5278253086733 L 655.93359375 408.591313058892 L 656.8046875 409.4952095034645 L 658.546875 410.8205424805891 L 659.41796875 411.2405650830908 L 660.2890625 411.49817002829434 L 661.16015625 411.5930824905955 L 662.03125 411.52520121266906 L 662.90234375 411.2945986134954 L 663.7734375 410.9015207110997 L 664.64453125 410.34638686008805 L 665.515625 409.6297893042586 L 667.2578125 407.7154325245218 L 669 405.16661750924794 L 672.484375 398.21176874002094 L 675.96875 388.88380109505636 L 677.7109375 383.3780783734701 L 679.453125 377.34172681943164 L 681.1953125 370.80049905917 L 682.9375 363.78230165053355 L 684.6796875 356.31707602643814 L 686.421875 348.43667075702444 L 688.1640625 340.17470567547286 L 689.90625 331.5664284471548 L 691.6484375000001 322.6485641940386 L 693.390625 313.4591588158831 L 695.1328125 304.0374166766513 L 696.875 294.4235333486257 L 698.6171875 284.6585241277655 L 700.359375 274.78404905192116 L 702.1015625 264.84223516840717 L 703.84375 254.8754968091941 L 705.5859375000001 244.9263546404761 L 707.328125 235.03725425858192 L 709.0703125 225.2503851061556 L 710.8125 215.60750048116 L 712.5546875 206.14973940657552 L 714.296875 196.91745112076364 L 716.0390625 187.95002293724968 L 717.78125 179.2857122083214 L 719.5234375000001 170.96148310934 L 721.265625 163.01284894007057 L 723.0078125 155.4737206158199 L 724.75 148.37626199476347 L 726.4921875 141.75075265866042 L 728.234375 135.62545873238213 L 729.9765625 130.02651229335984 L 731.71875 124.97779988542885 L 735.203125 116.61479424819731 L 738.6875 110.67900452782334 L 739.55859375 109.58710417009041 L 740.4296875 108.65460477575618 L 742.1718750000001 107.27161710253088 L 743.04296875 106.82260426233026 L 743.9140625 106.53594168883919 L 744.78515625 106.41193520766993 L 745.65625 106.4507171149834 L 746.52734375 106.65224603634948 L 747.3984375 107.01630697088686 L 748.26953125 107.54251152063702 L 749.140625 108.23029830492558 L 750.8828125 110.0875119181998 L 752.625 112.58002446032694 L 756.1093750000001 119.4257465535288 L 759.59375 128.6507667468609 L 761.3359375 134.1078863131579 L 763.078125 140.097827720449 L 764.8203125 146.59503633991167 L 766.5625 153.5717934104817 L 768.3046875 160.99833429421136 L 770.0468750000001 168.84297545985834 L 771.7890625 177.07224965296962 L 773.53125 185.65104867578918 L 775.2734375 194.54277316784516 L 777.015625 203.70948874822645 L 778.7578125000001 213.11208785339528 L 780.5 222.71045658009905 L 782.2421875 232.46364582159015 L 783.984375 242.33004596703012 L 785.7265625 252.2675644187835 L 787.46875 262.2338051702479 L 789.2109375 272.18624967811246 L 790.953125 282.08243825738754 L 792.6953125000001 291.8801512253241 L 794.4375 301.53758902142965 L 796.1796875 311.01355053513225 L 797.921875 320.26760888029787 L 799.6640625 329.2602838667177 L 801.40625 337.9532104327377 L 803.1484375 346.3093023204683 L 804.890625 354.2929102952903 L 806.6328125000001 361.8699742346432 L 808.375 369.00816843726153 L 810.1171875 375.67703953292045 L 811.859375 381.8481364043341 L 813.6015625 387.49513156693365 L 815.34375 392.59393348867786 L 818.828125 401.06237795042614 L 822.3125 407.1091096850399 L 824.0546875 409.19045592899806 L 824.9257812500001 409.99129595579683 L 825.796875 410.63105110497935 L 826.66796875 411.109038854555 L 827.5390625 411.4247492638834 L 828.41015625 411.5778455177043 L 829.2812500000001 411.56816428546824 L 830.15234375 411.395715895586 L 831.0234375 411.0606843244093 L 831.89453125 410.56342699995605 L 832.765625 409.90447442058877 L 834.5078125000001 408.1044672624795 L 836.25 405.66834214302867 L 839.734375 398.9319800652921 L 843.2187500000001 389.81022178381477 L 844.9609375 384.4018913990175 L 846.703125 378.45856433055434 L 848.4453125 372.00559633850344 L 850.1875 365.07051744204466 L 851.9296875 357.6829144693295 L 853.671875 349.8743048324685 L 855.4140625 341.67800206615425 L 857.1562500000001 333.12897370356694 L 858.8984375 324.2636920958935 L 860.640625 315.11997881190587 L 862.3828125 305.73684328143804 L 864.125 296.1543163711299 L 865.8671875 286.4132796024723 L 867.609375 276.55529074073195 L 869.3515625 266.6224064988473 L 871.0937500000001 256.6570031126897 L 872.8359375 246.70159555315564 L 874.578125 236.79865614637404 L 876.3203125 226.9904333758582 L 878.0625 217.31877163961678 L 879.8046875000001 207.82493273120625 L 881.546875 198.5494198063179 L 883.2890625 189.53180458590873 L 885.03125 180.81055853307913 L 886.7734375 172.42288872392376 L 888.515625 164.40457911258716 L 890.2578125 156.78983786772545 L 892 149.61115143166722" stroke-opacity="0.6980392156862745" stroke-linecap="round" stroke-linejoin="round" stroke-miterlimit="10" stroke-width="4"/><text fill="rgb(204,0,0)" stroke="none" font-family="geogebra-sans-serif, sans-serif" font-size="16px" font-style="normal" font-weight="normal" text-decoration="normal" x="8" y="433" text-anchor="start" dominant-baseline="alphabetic" fill-opacity="1">i</text><text fill="none" stroke="rgb(255,255,255)" font-family="geogebra-sans-serif, sans-serif" font-size="16px" font-style="normal" font-weight="normal" text-decoration="normal" x="8" y="433" text-anchor="start" dominant-baseline="alphabetic" stroke-opacity="1" stroke-linejoin="bevel" stroke-miterlimit="10" stroke-width="3">i</text><text fill="rgb(204,0,0)" stroke="none" font-family="geogebra-sans-serif, sans-serif" font-size="16px" font-style="normal" font-weight="normal" text-decoration="normal" x="8" y="433" text-anchor="start" dominant-baseline="alphabetic" fill-opacity="1">i</text></g></g></svg>