<svg version="1.1" xmlns="http://www.w3.org/2000/svg" xmlns:xlink="http://www.w3.org/1999/xlink" width="471" height="487"><defs><clipPath id="NNlgCIVpTEPu"><path fill="none" stroke="none" d=" M 0 0 L 471 0 L 471 487 L 0 487 L 0 0 Z"/></clipPath></defs><g transform="scale(1,1)" clip-path="url(#NNlgCIVpTEPu)"><g><rect fill="rgb(255,255,255)" stroke="none" x="0" y="0" width="471" height="487" fill-opacity="1"/><path fill="none" stroke="rgb(192,192,192)" paint-order="fill stroke markers" d=" M 18.5 0.5 L 18.5 487.5 M 18.5 0.5 L 18.5 487.5 M 60.5 0.5 L 60.5 487.5 M 102.5 0.5 L 102.5 487.5 M 144.5 0.5 L 144.5 487.5 M 186.5 0.5 L 186.5 487.5 M 270.5 0.5 L 270.5 487.5 M 312.5 0.5 L 312.5 487.5 M 355.5 0.5 L 355.5 487.5 M 397.5 0.5 L 397.5 487.5 M 439.5 0.5 L 439.5 487.5" stroke-opacity="1" stroke-linecap="round" stroke-linejoin="round" stroke-miterlimit="10"/><path fill="none" stroke="rgb(192,192,192)" paint-order="fill stroke markers" d=" M 1.5 0.5 L 1.5 487.5 M 10.5 0.5 L 10.5 487.5 M 26.5 0.5 L 26.5 487.5 M 35.5 0.5 L 35.5 487.5 M 43.5 0.5 L 43.5 487.5 M 52.5 0.5 L 52.5 487.5 M 68.5 0.5 L 68.5 487.5 M 77.5 0.5 L 77.5 487.5 M 85.5 0.5 L 85.5 487.5 M 94.5 0.5 L 94.5 487.5 M 111.5 0.5 L 111.5 487.5 M 119.5 0.5 L 119.5 487.5 M 127.5 0.5 L 127.5 487.5 M 136.5 0.5 L 136.5 487.5 M 153.5 0.5 L 153.5 487.5 M 161.5 0.5 L 161.5 487.5 M 169.5 0.5 L 169.5 487.5 M 178.5 0.5 L 178.5 487.5 M 195.5 0.5 L 195.5 487.5 M 203.5 0.5 L 203.5 487.5 M 212.5 0.5 L 212.5 487.5 M 220.5 0.5 L 220.5 487.5 M 237.5 0.5 L 237.5 487.5 M 245.5 0.5 L 245.5 487.5 M 254.5 0.5 L 254.5 487.5 M 262.5 0.5 L 262.5 487.5 M 279.5 0.5 L 279.5 487.5 M 287.5 0.5 L 287.5 487.5 M 296.5 0.5 L 296.5 487.5 M 304.5 0.5 L 304.5 487.5 M 321.5 0.5 L 321.5 487.5 M 329.5 0.5 L 329.5 487.5 M 338.5 0.5 L 338.5 487.5 M 346.5 0.5 L 346.5 487.5 M 363.5 0.5 L 363.5 487.5 M 371.5 0.5 L 371.5 487.5 M 380.5 0.5 L 380.5 487.5 M 388.5 0.5 L 388.5 487.5 M 405.5 0.5 L 405.5 487.5 M 413.5 0.5 L 413.5 487.5 M 422.5 0.5 L 422.5 487.5 M 430.5 0.5 L 430.5 487.5 M 447.5 0.5 L 447.5 487.5 M 455.5 0.5 L 455.5 487.5 M 464.5 0.5 L 464.5 487.5" stroke-opacity="0.23529411764705882" stroke-linecap="round" stroke-linejoin="round" stroke-miterlimit="10"/><path fill="none" stroke="rgb(192,192,192)" paint-order="fill stroke markers" d=" M 0.5 18.5 L 471.5 18.5 M 0.5 18.5 L 471.5 18.5 M 0.5 60.5 L 471.5 60.5 M 0.5 102.5 L 471.5 102.5 M 0.5 145.5 L 471.5 145.5 M 0.5 187.5 L 471.5 187.5 M 0.5 229.5 L 471.5 229.5 M 0.5 313.5 L 471.5 313.5 M 0.5 355.5 L 471.5 355.5 M 0.5 397.5 L 471.5 397.5 M 0.5 439.5 L 471.5 439.5 M 0.5 481.5 L 471.5 481.5" stroke-opacity="1" stroke-linecap="round" stroke-linejoin="round" stroke-miterlimit="10"/><path fill="none" stroke="rgb(192,192,192)" paint-order="fill stroke markers" d=" M 0.5 2.5 L 471.5 2.5 M 0.5 2.5 L 471.5 2.5 M 0.5 10.5 L 471.5 10.5 M 0.5 27.5 L 471.5 27.5 M 0.5 35.5 L 471.5 35.5 M 0.5 44.5 L 471.5 44.5 M 0.5 52.5 L 471.5 52.5 M 0.5 69.5 L 471.5 69.5 M 0.5 77.5 L 471.5 77.5 M 0.5 86.5 L 471.5 86.5 M 0.5 94.5 L 471.5 94.5 M 0.5 111.5 L 471.5 111.5 M 0.5 119.5 L 471.5 119.5 M 0.5 128.5 L 471.5 128.5 M 0.5 136.5 L 471.5 136.5 M 0.5 153.5 L 471.5 153.5 M 0.5 161.5 L 471.5 161.5 M 0.5 170.5 L 471.5 170.5 M 0.5 178.5 L 471.5 178.5 M 0.5 195.5 L 471.5 195.5 M 0.5 203.5 L 471.5 203.5 M 0.5 212.5 L 471.5 212.5 M 0.5 220.5 L 471.5 220.5 M 0.5 237.5 L 471.5 237.5 M 0.5 245.5 L 471.5 245.5 M 0.5 254.5 L 471.5 254.5 M 0.5 262.5 L 471.5 262.5 M 0.5 279.5 L 471.5 279.5 M 0.5 288.5 L 471.5 288.5 M 0.5 296.5 L 471.5 296.5 M 0.5 304.5 L 471.5 304.5 M 0.5 321.5 L 471.5 321.5 M 0.5 330.5 L 471.5 330.5 M 0.5 338.5 L 471.5 338.5 M 0.5 346.5 L 471.5 346.5 M 0.5 363.5 L 471.5 363.5 M 0.5 372.5 L 471.5 372.5 M 0.5 380.5 L 471.5 380.5 M 0.5 389.5 L 471.5 389.5 M 0.5 405.5 L 471.5 405.5 M 0.5 414.5 L 471.5 414.5 M 0.5 422.5 L 471.5 422.5 M 0.5 431.5 L 471.5 431.5 M 0.5 447.5 L 471.5 447.5 M 0.5 456.5 L 471.5 456.5 M 0.5 464.5 L 471.5 464.5 M 0.5 473.5 L 471.5 473.5" stroke-opacity="0.23529411764705882" stroke-linecap="round" stroke-linejoin="round" stroke-miterlimit="10"/><path fill="none" stroke="rgb(0,0,0)" paint-order="fill stroke markers" d=" M 228.5 2.5 L 228.5 487.5" stroke-opacity="1" stroke-miterlimit="10"/><path fill="none" stroke="rgb(0,0,0)" paint-order="fill stroke markers" d=" M 228.5 1.5 L 224.5 5.5" stroke-opacity="1" stroke-miterlimit="10"/><path fill="none" stroke="rgb(0,0,0)" paint-order="fill stroke markers" d=" M 228.5 1.5 L 232.5 5.5" stroke-opacity="1" stroke-miterlimit="10"/><text fill="rgb(0,0,0)" stroke="none" font-family="geogebra-sans-serif, sans-serif" font-size="16px" font-style="normal" font-weight="normal" text-decoration="normal" x="451" y="267" text-anchor="start" dominant-baseline="alphabetic" fill-opacity="1">T</text><path fill="none" stroke="rgb(0,0,0)" paint-order="fill stroke markers" d=" M 0.5 271.5 L 469.5 271.5" stroke-opacity="1" stroke-miterlimit="10"/><path fill="none" stroke="rgb(0,0,0)" paint-order="fill stroke markers" d=" M 470.5 271.5 L 466.5 267.5" stroke-opacity="1" stroke-miterlimit="10"/><path fill="none" stroke="rgb(0,0,0)" paint-order="fill stroke markers" d=" M 470.5 271.5 L 466.5 275.5" stroke-opacity="1" stroke-miterlimit="10"/><text fill="rgb(0,0,0)" stroke="none" font-family="geogebra-sans-serif, sans-serif" font-size="12px" font-style="normal" font-weight="normal" text-decoration="normal" x="13" y="287" text-anchor="start" dominant-baseline="alphabetic" fill-opacity="1">–1</text><text fill="none" stroke="rgb(255,255,255)" font-family="geogebra-sans-serif, sans-serif" font-size="12px" font-style="normal" font-weight="normal" text-decoration="normal" x="13" y="287" text-anchor="start" dominant-baseline="alphabetic" stroke-opacity="1" stroke-linejoin="bevel" stroke-miterlimit="10" stroke-width="3">–1</text><text fill="rgb(0,0,0)" stroke="none" font-family="geogebra-sans-serif, sans-serif" font-size="12px" font-style="normal" font-weight="normal" text-decoration="normal" x="13" y="287" text-anchor="start" dominant-baseline="alphabetic" fill-opacity="1">–1</text><text fill="rgb(0,0,0)" stroke="none" font-family="geogebra-sans-serif, sans-serif" font-size="12px" font-style="normal" font-weight="normal" text-decoration="normal" x="49" y="287" text-anchor="start" dominant-baseline="alphabetic" fill-opacity="1">–0.8</text><text fill="none" stroke="rgb(255,255,255)" font-family="geogebra-sans-serif, sans-serif" font-size="12px" font-style="normal" font-weight="normal" text-decoration="normal" x="49" y="287" text-anchor="start" dominant-baseline="alphabetic" stroke-opacity="1" stroke-linejoin="bevel" stroke-miterlimit="10" stroke-width="3">–0.8</text><text fill="rgb(0,0,0)" stroke="none" font-family="geogebra-sans-serif, sans-serif" font-size="12px" font-style="normal" font-weight="normal" text-decoration="normal" x="49" y="287" text-anchor="start" dominant-baseline="alphabetic" fill-opacity="1">–0.8</text><text fill="rgb(0,0,0)" stroke="none" font-family="geogebra-sans-serif, sans-serif" font-size="12px" font-style="normal" font-weight="normal" text-decoration="normal" x="91" y="287" text-anchor="start" dominant-baseline="alphabetic" fill-opacity="1">–0.6</text><text fill="none" stroke="rgb(255,255,255)" font-family="geogebra-sans-serif, sans-serif" font-size="12px" font-style="normal" font-weight="normal" text-decoration="normal" x="91" y="287" text-anchor="start" dominant-baseline="alphabetic" stroke-opacity="1" stroke-linejoin="bevel" stroke-miterlimit="10" stroke-width="3">–0.6</text><text fill="rgb(0,0,0)" stroke="none" font-family="geogebra-sans-serif, sans-serif" font-size="12px" font-style="normal" font-weight="normal" text-decoration="normal" x="91" y="287" text-anchor="start" dominant-baseline="alphabetic" fill-opacity="1">–0.6</text><text fill="rgb(0,0,0)" stroke="none" font-family="geogebra-sans-serif, sans-serif" font-size="12px" font-style="normal" font-weight="normal" text-decoration="normal" x="133" y="287" text-anchor="start" dominant-baseline="alphabetic" fill-opacity="1">–0.4</text><text fill="none" stroke="rgb(255,255,255)" font-family="geogebra-sans-serif, sans-serif" font-size="12px" font-style="normal" font-weight="normal" text-decoration="normal" x="133" y="287" text-anchor="start" dominant-baseline="alphabetic" stroke-opacity="1" stroke-linejoin="bevel" stroke-miterlimit="10" stroke-width="3">–0.4</text><text fill="rgb(0,0,0)" stroke="none" font-family="geogebra-sans-serif, sans-serif" font-size="12px" font-style="normal" font-weight="normal" text-decoration="normal" x="133" y="287" text-anchor="start" dominant-baseline="alphabetic" fill-opacity="1">–0.4</text><text fill="rgb(0,0,0)" stroke="none" font-family="geogebra-sans-serif, sans-serif" font-size="12px" font-style="normal" font-weight="normal" text-decoration="normal" x="175" y="287" text-anchor="start" dominant-baseline="alphabetic" fill-opacity="1">–0.2</text><text fill="none" stroke="rgb(255,255,255)" font-family="geogebra-sans-serif, sans-serif" font-size="12px" font-style="normal" font-weight="normal" text-decoration="normal" x="175" y="287" text-anchor="start" dominant-baseline="alphabetic" stroke-opacity="1" stroke-linejoin="bevel" stroke-miterlimit="10" stroke-width="3">–0.2</text><text fill="rgb(0,0,0)" stroke="none" font-family="geogebra-sans-serif, sans-serif" font-size="12px" font-style="normal" font-weight="normal" text-decoration="normal" x="175" y="287" text-anchor="start" dominant-baseline="alphabetic" fill-opacity="1">–0.2</text><text fill="rgb(0,0,0)" stroke="none" font-family="geogebra-sans-serif, sans-serif" font-size="12px" font-style="normal" font-weight="normal" text-decoration="normal" x="262" y="287" text-anchor="start" dominant-baseline="alphabetic" fill-opacity="1">0.2</text><text fill="none" stroke="rgb(255,255,255)" font-family="geogebra-sans-serif, sans-serif" font-size="12px" font-style="normal" font-weight="normal" text-decoration="normal" x="262" y="287" text-anchor="start" dominant-baseline="alphabetic" stroke-opacity="1" stroke-linejoin="bevel" stroke-miterlimit="10" stroke-width="3">0.2</text><text fill="rgb(0,0,0)" stroke="none" font-family="geogebra-sans-serif, sans-serif" font-size="12px" font-style="normal" font-weight="normal" text-decoration="normal" x="262" y="287" text-anchor="start" dominant-baseline="alphabetic" fill-opacity="1">0.2</text><text fill="rgb(0,0,0)" stroke="none" font-family="geogebra-sans-serif, sans-serif" font-size="12px" font-style="normal" font-weight="normal" text-decoration="normal" x="304" y="287" text-anchor="start" dominant-baseline="alphabetic" fill-opacity="1">0.4</text><text fill="none" stroke="rgb(255,255,255)" font-family="geogebra-sans-serif, sans-serif" font-size="12px" font-style="normal" font-weight="normal" text-decoration="normal" x="304" y="287" text-anchor="start" dominant-baseline="alphabetic" stroke-opacity="1" stroke-linejoin="bevel" stroke-miterlimit="10" stroke-width="3">0.4</text><text fill="rgb(0,0,0)" stroke="none" font-family="geogebra-sans-serif, sans-serif" font-size="12px" font-style="normal" font-weight="normal" text-decoration="normal" x="304" y="287" text-anchor="start" dominant-baseline="alphabetic" fill-opacity="1">0.4</text><text fill="rgb(0,0,0)" stroke="none" font-family="geogebra-sans-serif, sans-serif" font-size="12px" font-style="normal" font-weight="normal" text-decoration="normal" x="347" y="287" text-anchor="start" dominant-baseline="alphabetic" fill-opacity="1">0.6</text><text fill="none" stroke="rgb(255,255,255)" font-family="geogebra-sans-serif, sans-serif" font-size="12px" font-style="normal" font-weight="normal" text-decoration="normal" x="347" y="287" text-anchor="start" dominant-baseline="alphabetic" stroke-opacity="1" stroke-linejoin="bevel" stroke-miterlimit="10" stroke-width="3">0.6</text><text fill="rgb(0,0,0)" stroke="none" font-family="geogebra-sans-serif, sans-serif" font-size="12px" font-style="normal" font-weight="normal" text-decoration="normal" x="347" y="287" text-anchor="start" dominant-baseline="alphabetic" fill-opacity="1">0.6</text><text fill="rgb(0,0,0)" stroke="none" font-family="geogebra-sans-serif, sans-serif" font-size="12px" font-style="normal" font-weight="normal" text-decoration="normal" x="389" y="287" text-anchor="start" dominant-baseline="alphabetic" fill-opacity="1">0.8</text><text fill="none" stroke="rgb(255,255,255)" font-family="geogebra-sans-serif, sans-serif" font-size="12px" font-style="normal" font-weight="normal" text-decoration="normal" x="389" y="287" text-anchor="start" dominant-baseline="alphabetic" stroke-opacity="1" stroke-linejoin="bevel" stroke-miterlimit="10" stroke-width="3">0.8</text><text fill="rgb(0,0,0)" stroke="none" font-family="geogebra-sans-serif, sans-serif" font-size="12px" font-style="normal" font-weight="normal" text-decoration="normal" x="389" y="287" text-anchor="start" dominant-baseline="alphabetic" fill-opacity="1">0.8</text><text fill="rgb(0,0,0)" stroke="none" font-family="geogebra-sans-serif, sans-serif" font-size="12px" font-style="normal" font-weight="normal" text-decoration="normal" x="437" y="287" text-anchor="start" dominant-baseline="alphabetic" fill-opacity="1">1</text><text fill="none" stroke="rgb(255,255,255)" font-family="geogebra-sans-serif, sans-serif" font-size="12px" font-style="normal" font-weight="normal" text-decoration="normal" x="437" y="287" text-anchor="start" dominant-baseline="alphabetic" stroke-opacity="1" stroke-linejoin="bevel" stroke-miterlimit="10" stroke-width="3">1</text><text fill="rgb(0,0,0)" stroke="none" font-family="geogebra-sans-serif, sans-serif" font-size="12px" font-style="normal" font-weight="normal" text-decoration="normal" x="437" y="287" text-anchor="start" dominant-baseline="alphabetic" fill-opacity="1">1</text><text fill="rgb(0,0,0)" stroke="none" font-family="geogebra-sans-serif, sans-serif" font-size="16px" font-style="normal" font-weight="normal" text-decoration="normal" x="233" y="17" text-anchor="start" dominant-baseline="alphabetic" fill-opacity="1">P</text><text fill="rgb(0,0,0)" stroke="none" font-family="geogebra-sans-serif, sans-serif" font-size="12px" font-style="normal" font-weight="normal" text-decoration="normal" x="196" y="444" text-anchor="start" dominant-baseline="alphabetic" fill-opacity="1">–0.8</text><text fill="none" stroke="rgb(255,255,255)" font-family="geogebra-sans-serif, sans-serif" font-size="12px" font-style="normal" font-weight="normal" text-decoration="normal" x="196" y="444" text-anchor="start" dominant-baseline="alphabetic" stroke-opacity="1" stroke-linejoin="bevel" stroke-miterlimit="10" stroke-width="3">–0.8</text><text fill="rgb(0,0,0)" stroke="none" font-family="geogebra-sans-serif, sans-serif" font-size="12px" font-style="normal" font-weight="normal" text-decoration="normal" x="196" y="444" text-anchor="start" dominant-baseline="alphabetic" fill-opacity="1">–0.8</text><text fill="rgb(0,0,0)" stroke="none" font-family="geogebra-sans-serif, sans-serif" font-size="12px" font-style="normal" font-weight="normal" text-decoration="normal" x="196" y="402" text-anchor="start" dominant-baseline="alphabetic" fill-opacity="1">–0.6</text><text fill="none" stroke="rgb(255,255,255)" font-family="geogebra-sans-serif, sans-serif" font-size="12px" font-style="normal" font-weight="normal" text-decoration="normal" x="196" y="402" text-anchor="start" dominant-baseline="alphabetic" stroke-opacity="1" stroke-linejoin="bevel" stroke-miterlimit="10" stroke-width="3">–0.6</text><text fill="rgb(0,0,0)" stroke="none" font-family="geogebra-sans-serif, sans-serif" font-size="12px" font-style="normal" font-weight="normal" text-decoration="normal" x="196" y="402" text-anchor="start" dominant-baseline="alphabetic" fill-opacity="1">–0.6</text><text fill="rgb(0,0,0)" stroke="none" font-family="geogebra-sans-serif, sans-serif" font-size="12px" font-style="normal" font-weight="normal" text-decoration="normal" x="196" y="360" text-anchor="start" dominant-baseline="alphabetic" fill-opacity="1">–0.4</text><text fill="none" stroke="rgb(255,255,255)" font-family="geogebra-sans-serif, sans-serif" font-size="12px" font-style="normal" font-weight="normal" text-decoration="normal" x="196" y="360" text-anchor="start" dominant-baseline="alphabetic" stroke-opacity="1" stroke-linejoin="bevel" stroke-miterlimit="10" stroke-width="3">–0.4</text><text fill="rgb(0,0,0)" stroke="none" font-family="geogebra-sans-serif, sans-serif" font-size="12px" font-style="normal" font-weight="normal" text-decoration="normal" x="196" y="360" text-anchor="start" dominant-baseline="alphabetic" fill-opacity="1">–0.4</text><text fill="rgb(0,0,0)" stroke="none" font-family="geogebra-sans-serif, sans-serif" font-size="12px" font-style="normal" font-weight="normal" text-decoration="normal" x="196" y="318" text-anchor="start" dominant-baseline="alphabetic" fill-opacity="1">–0.2</text><text fill="none" stroke="rgb(255,255,255)" font-family="geogebra-sans-serif, sans-serif" font-size="12px" font-style="normal" font-weight="normal" text-decoration="normal" x="196" y="318" text-anchor="start" dominant-baseline="alphabetic" stroke-opacity="1" stroke-linejoin="bevel" stroke-miterlimit="10" stroke-width="3">–0.2</text><text fill="rgb(0,0,0)" stroke="none" font-family="geogebra-sans-serif, sans-serif" font-size="12px" font-style="normal" font-weight="normal" text-decoration="normal" x="196" y="318" text-anchor="start" dominant-baseline="alphabetic" fill-opacity="1">–0.2</text><text fill="rgb(0,0,0)" stroke="none" font-family="geogebra-sans-serif, sans-serif" font-size="12px" font-style="normal" font-weight="normal" text-decoration="normal" x="202" y="234" text-anchor="start" dominant-baseline="alphabetic" fill-opacity="1">0.2</text><text fill="none" stroke="rgb(255,255,255)" font-family="geogebra-sans-serif, sans-serif" font-size="12px" font-style="normal" font-weight="normal" text-decoration="normal" x="202" y="234" text-anchor="start" dominant-baseline="alphabetic" stroke-opacity="1" stroke-linejoin="bevel" stroke-miterlimit="10" stroke-width="3">0.2</text><text fill="rgb(0,0,0)" stroke="none" font-family="geogebra-sans-serif, sans-serif" font-size="12px" font-style="normal" font-weight="normal" text-decoration="normal" x="202" y="234" text-anchor="start" dominant-baseline="alphabetic" fill-opacity="1">0.2</text><text fill="rgb(0,0,0)" stroke="none" font-family="geogebra-sans-serif, sans-serif" font-size="12px" font-style="normal" font-weight="normal" text-decoration="normal" x="202" y="192" text-anchor="start" dominant-baseline="alphabetic" fill-opacity="1">0.4</text><text fill="none" stroke="rgb(255,255,255)" font-family="geogebra-sans-serif, sans-serif" font-size="12px" font-style="normal" font-weight="normal" text-decoration="normal" x="202" y="192" text-anchor="start" dominant-baseline="alphabetic" stroke-opacity="1" stroke-linejoin="bevel" stroke-miterlimit="10" stroke-width="3">0.4</text><text fill="rgb(0,0,0)" stroke="none" font-family="geogebra-sans-serif, sans-serif" font-size="12px" font-style="normal" font-weight="normal" text-decoration="normal" x="202" y="192" text-anchor="start" dominant-baseline="alphabetic" fill-opacity="1">0.4</text><text fill="rgb(0,0,0)" stroke="none" font-family="geogebra-sans-serif, sans-serif" font-size="12px" font-style="normal" font-weight="normal" text-decoration="normal" x="202" y="150" text-anchor="start" dominant-baseline="alphabetic" fill-opacity="1">0.6</text><text fill="none" stroke="rgb(255,255,255)" font-family="geogebra-sans-serif, sans-serif" font-size="12px" font-style="normal" font-weight="normal" text-decoration="normal" x="202" y="150" text-anchor="start" dominant-baseline="alphabetic" stroke-opacity="1" stroke-linejoin="bevel" stroke-miterlimit="10" stroke-width="3">0.6</text><text fill="rgb(0,0,0)" stroke="none" font-family="geogebra-sans-serif, sans-serif" font-size="12px" font-style="normal" font-weight="normal" text-decoration="normal" x="202" y="150" text-anchor="start" dominant-baseline="alphabetic" fill-opacity="1">0.6</text><text fill="rgb(0,0,0)" stroke="none" font-family="geogebra-sans-serif, sans-serif" font-size="12px" font-style="normal" font-weight="normal" text-decoration="normal" x="202" y="107" text-anchor="start" dominant-baseline="alphabetic" fill-opacity="1">0.8</text><text fill="none" stroke="rgb(255,255,255)" font-family="geogebra-sans-serif, sans-serif" font-size="12px" font-style="normal" font-weight="normal" text-decoration="normal" x="202" y="107" text-anchor="start" dominant-baseline="alphabetic" stroke-opacity="1" stroke-linejoin="bevel" stroke-miterlimit="10" stroke-width="3">0.8</text><text fill="rgb(0,0,0)" stroke="none" font-family="geogebra-sans-serif, sans-serif" font-size="12px" font-style="normal" font-weight="normal" text-decoration="normal" x="202" y="107" text-anchor="start" dominant-baseline="alphabetic" fill-opacity="1">0.8</text><text fill="rgb(0,0,0)" stroke="none" font-family="geogebra-sans-serif, sans-serif" font-size="12px" font-style="normal" font-weight="normal" text-decoration="normal" x="213" y="65" text-anchor="start" dominant-baseline="alphabetic" fill-opacity="1">1</text><text fill="none" stroke="rgb(255,255,255)" font-family="geogebra-sans-serif, sans-serif" font-size="12px" font-style="normal" font-weight="normal" text-decoration="normal" x="213" y="65" text-anchor="start" dominant-baseline="alphabetic" stroke-opacity="1" stroke-linejoin="bevel" stroke-miterlimit="10" stroke-width="3">1</text><text fill="rgb(0,0,0)" stroke="none" font-family="geogebra-sans-serif, sans-serif" font-size="12px" font-style="normal" font-weight="normal" text-decoration="normal" x="213" y="65" text-anchor="start" dominant-baseline="alphabetic" fill-opacity="1">1</text><text fill="rgb(0,0,0)" stroke="none" font-family="geogebra-sans-serif, sans-serif" font-size="12px" font-style="normal" font-weight="normal" text-decoration="normal" x="202" y="23" text-anchor="start" dominant-baseline="alphabetic" fill-opacity="1">1.2</text><text fill="none" stroke="rgb(255,255,255)" font-family="geogebra-sans-serif, sans-serif" font-size="12px" font-style="normal" font-weight="normal" text-decoration="normal" x="202" y="23" text-anchor="start" dominant-baseline="alphabetic" stroke-opacity="1" stroke-linejoin="bevel" stroke-miterlimit="10" stroke-width="3">1.2</text><text fill="rgb(0,0,0)" stroke="none" font-family="geogebra-sans-serif, sans-serif" font-size="12px" font-style="normal" font-weight="normal" text-decoration="normal" x="202" y="23" text-anchor="start" dominant-baseline="alphabetic" fill-opacity="1">1.2</text><text fill="rgb(0,0,0)" stroke="none" font-family="geogebra-sans-serif, sans-serif" font-size="12px" font-style="normal" font-weight="normal" text-decoration="normal" x="213" y="287" text-anchor="start" dominant-baseline="alphabetic" fill-opacity="1">0</text><text fill="none" stroke="rgb(255,255,255)" font-family="geogebra-sans-serif, sans-serif" font-size="12px" font-style="normal" font-weight="normal" text-decoration="normal" x="213" y="287" text-anchor="start" dominant-baseline="alphabetic" stroke-opacity="1" stroke-linejoin="bevel" stroke-miterlimit="10" stroke-width="3">0</text><text fill="rgb(0,0,0)" stroke="none" font-family="geogebra-sans-serif, sans-serif" font-size="12px" font-style="normal" font-weight="normal" text-decoration="normal" x="213" y="287" text-anchor="start" dominant-baseline="alphabetic" fill-opacity="1">0</text><path fill="rgb(153,51,0)" stroke="none" paint-order="stroke fill markers" fill-rule="evenodd" d=" M 18.489924284063477 481.57758478956623 L 439.16639649560926 481.57758478956623 L 439.1663964956093 60.901112578019564 L 18.489924284063534 60.90111257801951 Z" fill-opacity="0.09803921568627451"/><path fill="none" stroke="rgb(153,51,0)" paint-order="fill stroke markers" d=" M 18.489924284063477 481.57758478956623 L 439.16639649560926 481.57758478956623 L 439.1663964956093 60.901112578019564 L 18.489924284063534 60.90111257801951 Z" stroke-opacity="0.6980392156862745" stroke-linecap="round" stroke-linejoin="round" stroke-miterlimit="10" stroke-width="2.5"/><path fill="none" stroke="rgb(0,100,0)" paint-order="fill stroke markers" d=" M 18.489922180681134 60.90111073755992 L 22.078125 64.02745498428004 M 22.078125 64.02745498428004 L 25.7578125 67.20605060293246 L 29.4375 70.35719994344907 M 29.4375 70.35719994344907 L 33.1171875 73.48125696399043 L 36.796875 76.57856956238811 L 40.4765625 79.6494797052953 L 44.15625000000003 82.69432355404811 L 47.8359375 85.71343158733589 L 51.515625 88.7071287207738 L 55.1953125 91.67573442346907 L 58.875 94.61956283166839 M 58.875 94.61956283166839 L 62.5546875 97.53892285957141 L 66.234375 100.43411830739257 L 69.9140625 103.3054479667509 L 73.59375 106.15320572346343 L 77.2734375 108.97768065781841 L 80.953125 111.77915714239813 L 84.6328125 114.55791493752258 L 88.3125 117.3142292843799 L 91.9921875 120.04837099590978 L 95.671875 122.76060654550199 L 99.3515625 125.4511981535718 L 103.03125000000001 128.12040387207057 L 106.71093749999999 130.7684776669895 L 110.390625 133.39566949891164 L 114.0703125 136.00222540166516 L 117.75 138.58838755913115 M 117.75 138.58838755913115 L 121.4296875 141.15439438025533 L 125.109375 143.70048057231264 L 128.7890625 146.22687721247223 L 132.46875 148.7338118177086 L 136.1484375 151.22150841310327 L 139.828125 153.6901875985797 L 143.5078125 156.14006661411418 L 147.1875 158.57135940346177 L 150.8671875 160.9842766764382 L 154.546875 163.3790259697941 L 158.2265625 165.75581170671978 L 161.90625 168.11483525501603 L 165.5859375 170.45629498396525 L 169.26562499999997 172.7803863199372 L 172.9453125 175.08730180076208 L 176.625 177.37723112890222 L 180.30468749999997 179.65036122345361 L 183.98437499999997 181.9068762710075 L 187.6640625 184.14695777540018 L 191.34375 186.3707846063803 L 195.02343749999997 188.57853304722036 L 198.70312499999997 190.77037684129903 L 202.38281249999997 192.94648723768077 L 206.06249999999997 195.107033035717 L 209.74218749999997 197.25218062869408 L 213.42187499999997 199.38209404655083 L 217.10156249999997 201.49693499768978 L 220.78124999999997 203.5968629099034 L 224.46093749999997 205.68203497043785 L 228.14062499999997 207.7526061652151 L 231.82031249999997 209.80872931723394 L 235.49999999999997 211.8505551241699 M 235.49999999999997 211.8505551241699 L 239.17968749999997 213.87823219519356 L 242.85937499999997 215.8919070870263 L 246.53906249999997 217.8917243392512 L 250.21874999999997 219.8778265088979 L 253.89843749999997 221.8503542043182 L 257.57812499999994 223.80944611836918 L 261.25781249999994 225.75523906092093 L 264.93749999999994 227.6878679907043 L 268.61718749999994 229.60746604651433 L 272.29687499999994 231.5141645777849 L 275.97656249999994 233.40809317454887 L 279.65624999999994 235.28937969679828 L 283.33593749999994 237.1581503032587 L 287.01562499999994 239.01452947959103 L 290.69531249999994 240.8586400660342 L 294.37499999999994 242.6906032845016 L 298.05468749999994 244.51053876514402 L 301.73437499999994 246.31856457239064 L 305.41406249999994 248.11479723048095 L 309.09374999999994 249.89935174849836 L 312.77343749999994 251.6723416449173 L 316.45312499999994 253.43387897167452 L 320.13281249999994 255.18407433777543 L 323.81249999999994 256.92303693244605 L 327.49218749999994 258.6508745478406 L 331.17187499999994 260.36769360131433 L 334.85156249999994 262.0735991572723 L 338.53124999999994 263.76869494860193 L 342.21093749999994 265.4530833977002 L 345.89062499999994 267.1268656371031 L 349.57031249999994 268.79014152972684 L 353.24999999999994 270.4430096887292 M 353.24999999999994 270.4430096887292 L 356.92968749999994 272.0855674969988 L 360.60937499999994 273.71791112628136 L 364.28906249999994 275.3401355559496 L 367.9687499999999 276.95233459142577 L 371.64843749999994 278.55460088226323 L 375.32812499999994 280.1470259398952 L 379.00781249999994 281.729700155057 L 382.68749999999994 283.30271281488984 L 386.36718749999994 284.86615211973174 L 390.04687499999994 286.4201051996033 L 393.72656249999994 287.96465813039384 L 397.40624999999994 289.49989594975517 L 401.0859374999999 291.0259026727081 L 404.76562499999994 292.542761306969 L 408.44531249999994 294.0505538680006 L 412.12499999999994 295.54936139379464 M 412.12499999999994 295.54936139379464 L 415.80468749999994 297.0392639593906 L 419.48437499999994 298.5203406911365 L 423.1640624999999 299.9926697806966 L 426.8437499999999 301.4563284988124 M 426.8437499999999 301.4563284988124 L 430.5234374999999 302.9113932088209 L 434.2031249999999 304.3579393799349 M 434.2031249999999 304.3579393799349 L 437.8828124999999 305.7960416002919 M 437.8828124999999 305.7960416002919 L 439.1663985989916 306.2957221860704" stroke-opacity="0.6980392156862745" stroke-linecap="round" stroke-linejoin="round" stroke-miterlimit="10" stroke-width="2.5"/><text fill="rgb(0,100,0)" stroke="none" font-family="geogebra-sans-serif, sans-serif" font-size="16px" font-style="normal" font-weight="normal" text-decoration="normal" x="22" y="64" text-anchor="start" dominant-baseline="alphabetic" fill-opacity="1">MOD2</text><text fill="none" stroke="rgb(255,255,255)" font-family="geogebra-sans-serif, sans-serif" font-size="16px" font-style="normal" font-weight="normal" text-decoration="normal" x="22" y="64" text-anchor="start" dominant-baseline="alphabetic" stroke-opacity="1" stroke-linejoin="bevel" stroke-miterlimit="10" stroke-width="3">MOD2</text><text fill="rgb(0,100,0)" stroke="none" font-family="geogebra-sans-serif, sans-serif" font-size="16px" font-style="normal" font-weight="normal" text-decoration="normal" x="22" y="64" text-anchor="start" dominant-baseline="alphabetic" fill-opacity="1">MOD2</text><path fill="none" stroke="rgb(204,0,0)" paint-order="fill stroke markers" d=" M 18.489922180681134 102.96875874748287 L 22.078125 104.76286015714228 M 22.078125 104.76286015714228 L 25.7578125 106.60270390714231 L 29.4375 108.44254765714228 M 29.4375 108.44254765714228 L 33.1171875 110.28239140714231 L 36.796875 112.12223515714231 L 40.4765625 113.96207890714231 L 44.15625000000003 115.80192265714231 L 47.8359375 117.64176640714231 L 51.515625 119.48161015714234 L 55.1953125 121.32145390714234 L 58.875 123.16129765714234 M 58.875 123.16129765714234 L 62.5546875 125.00114140714231 L 66.234375 126.84098515714234 L 69.9140625 128.68082890714234 L 73.59375 130.52067265714234 L 77.2734375 132.36051640714237 L 80.953125 134.20036015714234 L 84.6328125 136.04020390714237 L 88.3125 137.88004765714237 L 91.9921875 139.71989140714237 L 95.671875 141.55973515714237 L 99.3515625 143.39957890714237 L 103.03125000000001 145.23942265714237 L 106.71093749999999 147.07926640714237 L 110.390625 148.91911015714237 L 114.0703125 150.75895390714237 L 117.75 152.5987976571424 M 117.75 152.5987976571424 L 121.4296875 154.43864140714243 L 125.109375 156.2784851571424 L 128.7890625 158.1183289071424 L 132.46875 159.9581726571424 L 136.1484375 161.79801640714243 L 139.828125 163.63786015714243 L 143.5078125 165.47770390714243 L 147.1875 167.31754765714243 L 150.8671875 169.15739140714243 L 154.546875 170.99723515714243 L 158.2265625 172.83707890714243 L 161.90625 174.67692265714243 L 165.5859375 176.51676640714243 L 169.26562499999997 178.35661015714243 L 172.9453125 180.19645390714243 L 176.625 182.03629765714246 L 180.30468749999997 183.87614140714246 L 183.98437499999997 185.71598515714248 L 187.6640625 187.55582890714248 L 191.34375 189.39567265714248 L 195.02343749999997 191.23551640714248 L 198.70312499999997 193.07536015714248 L 202.38281249999997 194.91520390714248 L 206.06249999999997 196.75504765714248 L 209.74218749999997 198.59489140714248 L 213.42187499999997 200.43473515714248 L 217.10156249999997 202.27457890714248 L 220.78124999999997 204.11442265714248 L 224.46093749999997 205.95426640714248 L 228.14062499999997 207.7941101571425 L 231.82031249999997 209.6339539071425 L 235.49999999999997 211.4737976571425 M 235.49999999999997 211.4737976571425 L 239.17968749999997 213.3136414071425 L 242.85937499999997 215.1534851571425 L 246.53906249999997 216.9933289071425 L 250.21874999999997 218.83317265714254 L 253.89843749999997 220.67301640714254 L 257.57812499999994 222.51286015714254 L 261.25781249999994 224.35270390714254 L 264.93749999999994 226.19254765714254 L 268.61718749999994 228.03239140714254 L 272.29687499999994 229.87223515714254 L 275.97656249999994 231.71207890714254 L 279.65624999999994 233.55192265714254 L 283.33593749999994 235.39176640714254 L 287.01562499999994 237.23161015714254 L 290.69531249999994 239.07145390714257 L 294.37499999999994 240.91129765714257 L 298.05468749999994 242.75114140714257 L 301.73437499999994 244.59098515714257 L 305.41406249999994 246.43082890714257 L 309.09374999999994 248.27067265714257 L 312.77343749999994 250.1105164071426 L 316.45312499999994 251.9503601571426 L 320.13281249999994 253.7902039071426 L 323.81249999999994 255.6300476571426 L 327.49218749999994 257.4698914071426 L 331.17187499999994 259.3097351571426 L 334.85156249999994 261.1495789071426 L 338.53124999999994 262.9894226571426 L 342.21093749999994 264.8292664071426 L 345.89062499999994 266.6691101571426 L 349.57031249999994 268.5089539071426 L 353.24999999999994 270.3487976571426 M 353.24999999999994 270.3487976571426 L 356.92968749999994 272.1886414071426 L 360.60937499999994 274.02848515714265 L 364.28906249999994 275.86832890714265 L 367.9687499999999 277.70817265714265 L 371.64843749999994 279.54801640714265 L 375.32812499999994 281.38786015714265 L 379.00781249999994 283.22770390714265 L 382.68749999999994 285.06754765714265 L 386.36718749999994 286.90739140714265 L 390.04687499999994 288.74723515714265 L 393.72656249999994 290.58707890714265 L 397.40624999999994 292.42692265714265 L 401.0859374999999 294.26676640714265 L 404.76562499999994 296.10661015714265 L 408.44531249999994 297.94645390714265 L 412.12499999999994 299.78629765714265 M 412.12499999999994 299.78629765714265 L 415.80468749999994 301.6261414071427 L 419.48437499999994 303.4659851571427 L 423.1640624999999 305.3058289071427 L 426.8437499999999 307.1456726571427 M 426.8437499999999 307.1456726571427 L 430.5234374999999 308.9855164071427 L 434.2031249999999 310.8253601571427 M 434.2031249999999 310.8253601571427 L 437.8828124999999 312.6652039071427 M 437.8828124999999 312.6652039071427 L 439.1663985989916 313.3069969566385" stroke-opacity="0.6980392156862745" stroke-linecap="round" stroke-linejoin="round" stroke-miterlimit="10" stroke-width="2.5"/><text fill="rgb(204,0,0)" stroke="none" font-family="geogebra-sans-serif, sans-serif" font-size="16px" font-style="normal" font-weight="normal" text-decoration="normal" x="22" y="104" text-anchor="start" dominant-baseline="alphabetic" fill-opacity="1">MOD1</text><text fill="none" stroke="rgb(255,255,255)" font-family="geogebra-sans-serif, sans-serif" font-size="16px" font-style="normal" font-weight="normal" text-decoration="normal" x="22" y="104" text-anchor="start" dominant-baseline="alphabetic" stroke-opacity="1" stroke-linejoin="bevel" stroke-miterlimit="10" stroke-width="3">MOD1</text><text fill="rgb(204,0,0)" stroke="none" font-family="geogebra-sans-serif, sans-serif" font-size="16px" font-style="normal" font-weight="normal" text-decoration="normal" x="22" y="104" text-anchor="start" dominant-baseline="alphabetic" fill-opacity="1">MOD1</text><path fill="none" stroke="rgb(0,0,0)" paint-order="fill stroke markers" d=" M 19.5 45.5 L 219.5 45.5" stroke-opacity="0.39215686274509803" stroke-linecap="round" stroke-linejoin="round" stroke-miterlimit="10" stroke-width="5"/><path fill="rgb(0,0,0)" stroke="none" paint-order="stroke fill markers" d=" M 140.5 45.50000000000003 C 140.5 50.19442037356177 136.69442037356174 54.00000000000003 132 54.00000000000003 C 127.30557962643826 54.00000000000003 123.5 50.19442037356177 123.5 45.50000000000003 C 123.5 40.80557962643829 127.30557962643826 37.00000000000003 132 37.00000000000003 C 136.69442037356174 37.00000000000003 140.5 40.80557962643829 140.5 45.50000000000003 Z" fill-opacity="0.39215686274509803"/><path fill="none" stroke="rgb(0,0,0)" paint-order="fill stroke markers" d=" M 140.5 45.50000000000003 C 140.5 50.19442037356177 136.69442037356174 54.00000000000003 132 54.00000000000003 C 127.30557962643826 54.00000000000003 123.5 50.19442037356177 123.5 45.50000000000003 C 123.5 40.80557962643829 127.30557962643826 37.00000000000003 132 37.00000000000003 C 136.69442037356174 37.00000000000003 140.5 40.80557962643829 140.5 45.50000000000003 Z" stroke-opacity="0.39215686274509803" stroke-linecap="round" stroke-linejoin="round" stroke-miterlimit="10"/><path fill="rgb(0,0,0)" stroke="none" paint-order="stroke fill markers" d=" M 137.5 45.50000000000003 C 137.5 48.53756612406939 135.03756612406937 51.00000000000003 132 51.00000000000003 C 128.96243387593063 51.00000000000003 126.5 48.53756612406939 126.5 45.50000000000003 C 126.5 42.462433875930664 128.96243387593063 40.00000000000003 132 40.00000000000003 C 135.03756612406937 40.00000000000003 137.5 42.462433875930664 137.5 45.50000000000003 Z" fill-opacity="1"/><path fill="none" stroke="rgb(0,0,0)" paint-order="fill stroke markers" d=" M 137.5 45.50000000000003 C 137.5 48.53756612406939 135.03756612406937 51.00000000000003 132 51.00000000000003 C 128.96243387593063 51.00000000000003 126.5 48.53756612406939 126.5 45.50000000000003 C 126.5 42.462433875930664 128.96243387593063 40.00000000000003 132 40.00000000000003 C 135.03756612406937 40.00000000000003 137.5 42.462433875930664 137.5 45.50000000000003 Z" stroke-opacity="1" stroke-linecap="round" stroke-linejoin="round" stroke-miterlimit="10"/><text fill="rgb(0,0,0)" stroke="none" font-family="geogebra-sans-serif, sans-serif" font-size="16px" font-style="normal" font-weight="normal" text-decoration="normal" x="201" y="27" text-anchor="start" dominant-baseline="alphabetic" fill-opacity="1">Y = 63</text><text fill="none" stroke="rgb(255,255,255)" font-family="geogebra-sans-serif, sans-serif" font-size="16px" font-style="normal" font-weight="normal" text-decoration="normal" x="201" y="27" text-anchor="start" dominant-baseline="alphabetic" stroke-opacity="1" stroke-linejoin="bevel" stroke-miterlimit="10" stroke-width="3">Y = 63</text><text fill="rgb(0,0,0)" stroke="none" font-family="geogebra-sans-serif, sans-serif" font-size="16px" font-style="normal" font-weight="normal" text-decoration="normal" x="201" y="27" text-anchor="start" dominant-baseline="alphabetic" fill-opacity="1">Y = 63</text></g></g></svg>