<svg version="1.1" xmlns="http://www.w3.org/2000/svg" xmlns:xlink="http://www.w3.org/1999/xlink" width="892" height="541"><defs><clipPath id="ygdNuxwJrfaw"><path fill="none" stroke="none" d=" M 0 0 L 892 0 L 892 541 L 0 541 L 0 0 Z"/></clipPath></defs><g transform="scale(1,1)" clip-path="url(#ygdNuxwJrfaw)"><g><rect fill="rgb(255,255,255)" stroke="none" x="0" y="0" width="892" height="541" fill-opacity="1"/><path fill="none" stroke="rgb(192,192,192)" paint-order="fill stroke markers" d=" M 17.5 0.5 L 17.5 541.5 M 17.5 0.5 L 17.5 541.5 M 53.5 0.5 L 53.5 541.5 M 72.5 0.5 L 72.5 541.5 M 90.5 0.5 L 90.5 541.5 M 108.5 0.5 L 108.5 541.5 M 127.5 0.5 L 127.5 541.5 M 145.5 0.5 L 145.5 541.5 M 163.5 0.5 L 163.5 541.5 M 182.5 0.5 L 182.5 541.5 M 200.5 0.5 L 200.5 541.5 M 218.5 0.5 L 218.5 541.5 M 236.5 0.5 L 236.5 541.5 M 255.5 0.5 L 255.5 541.5 M 273.5 0.5 L 273.5 541.5 M 291.5 0.5 L 291.5 541.5 M 310.5 0.5 L 310.5 541.5 M 328.5 0.5 L 328.5 541.5 M 346.5 0.5 L 346.5 541.5 M 365.5 0.5 L 365.5 541.5 M 383.5 0.5 L 383.5 541.5 M 401.5 0.5 L 401.5 541.5 M 420.5 0.5 L 420.5 541.5 M 438.5 0.5 L 438.5 541.5 M 456.5 0.5 L 456.5 541.5 M 475.5 0.5 L 475.5 541.5 M 493.5 0.5 L 493.5 541.5 M 511.5 0.5 L 511.5 541.5 M 530.5 0.5 L 530.5 541.5 M 548.5 0.5 L 548.5 541.5 M 566.5 0.5 L 566.5 541.5 M 585.5 0.5 L 585.5 541.5 M 603.5 0.5 L 603.5 541.5 M 621.5 0.5 L 621.5 541.5 M 640.5 0.5 L 640.5 541.5 M 658.5 0.5 L 658.5 541.5 M 676.5 0.5 L 676.5 541.5 M 695.5 0.5 L 695.5 541.5 M 713.5 0.5 L 713.5 541.5 M 731.5 0.5 L 731.5 541.5 M 750.5 0.5 L 750.5 541.5 M 768.5 0.5 L 768.5 541.5 M 786.5 0.5 L 786.5 541.5 M 805.5 0.5 L 805.5 541.5 M 823.5 0.5 L 823.5 541.5 M 841.5 0.5 L 841.5 541.5 M 860.5 0.5 L 860.5 541.5 M 878.5 0.5 L 878.5 541.5" stroke-opacity="1" stroke-linecap="round" stroke-linejoin="round" stroke-miterlimit="10"/><path fill="none" stroke="rgb(192,192,192)" paint-order="fill stroke markers" d="" stroke-opacity="0.23529411764705882" stroke-linecap="round" stroke-linejoin="round" stroke-miterlimit="10"/><path fill="none" stroke="rgb(192,192,192)" paint-order="fill stroke markers" d=" M 0.5 8.5 L 892.5 8.5 M 0.5 8.5 L 892.5 8.5 M 0.5 27.5 L 892.5 27.5 M 0.5 45.5 L 892.5 45.5 M 0.5 64.5 L 892.5 64.5 M 0.5 83.5 L 892.5 83.5 M 0.5 101.5 L 892.5 101.5 M 0.5 120.5 L 892.5 120.5 M 0.5 138.5 L 892.5 138.5 M 0.5 157.5 L 892.5 157.5 M 0.5 176.5 L 892.5 176.5 M 0.5 194.5 L 892.5 194.5 M 0.5 213.5 L 892.5 213.5 M 0.5 231.5 L 892.5 231.5 M 0.5 250.5 L 892.5 250.5 M 0.5 268.5 L 892.5 268.5 M 0.5 287.5 L 892.5 287.5 M 0.5 306.5 L 892.5 306.5 M 0.5 324.5 L 892.5 324.5 M 0.5 343.5 L 892.5 343.5 M 0.5 361.5 L 892.5 361.5 M 0.5 380.5 L 892.5 380.5 M 0.5 398.5 L 892.5 398.5 M 0.5 417.5 L 892.5 417.5 M 0.5 436.5 L 892.5 436.5 M 0.5 454.5 L 892.5 454.5 M 0.5 473.5 L 892.5 473.5 M 0.5 510.5 L 892.5 510.5 M 0.5 528.5 L 892.5 528.5" stroke-opacity="1" stroke-linecap="round" stroke-linejoin="round" stroke-miterlimit="10"/><path fill="none" stroke="rgb(192,192,192)" paint-order="fill stroke markers" d="" stroke-opacity="0.23529411764705882" stroke-linecap="round" stroke-linejoin="round" stroke-miterlimit="10"/><path fill="none" stroke="rgb(0,0,0)" paint-order="fill stroke markers" d=" M 35.5 2.5 L 35.5 541.5" stroke-opacity="1" stroke-miterlimit="10"/><path fill="none" stroke="rgb(0,0,0)" paint-order="fill stroke markers" d=" M 35.5 1.5 L 31.5 5.5" stroke-opacity="1" stroke-miterlimit="10"/><path fill="none" stroke="rgb(0,0,0)" paint-order="fill stroke markers" d=" M 35.5 1.5 L 39.5 5.5" stroke-opacity="1" stroke-miterlimit="10"/><text fill="rgb(0,0,0)" stroke="none" font-family="geogebra-sans-serif, sans-serif" font-size="16px" font-style="normal" font-weight="normal" text-decoration="normal" x="795" y="487" text-anchor="start" dominant-baseline="alphabetic" fill-opacity="1">temps t (s)</text><path fill="none" stroke="rgb(0,0,0)" paint-order="fill stroke markers" d=" M 0.5 491.5 L 890.5 491.5" stroke-opacity="1" stroke-miterlimit="10"/><path fill="none" stroke="rgb(0,0,0)" paint-order="fill stroke markers" d=" M 891.5 491.5 L 887.5 487.5" stroke-opacity="1" stroke-miterlimit="10"/><path fill="none" stroke="rgb(0,0,0)" paint-order="fill stroke markers" d=" M 891.5 491.5 L 887.5 495.5" stroke-opacity="1" stroke-miterlimit="10"/><path fill="none" stroke="rgb(0,0,0)" paint-order="fill stroke markers" d=" M 35.5 491.5 L 35.5 494.5" stroke-opacity="1" stroke-miterlimit="10"/><text fill="rgb(0,0,0)" stroke="none" font-family="geogebra-sans-serif, sans-serif" font-size="12px" font-style="normal" font-weight="normal" text-decoration="normal" x="125" y="507" text-anchor="start" dominant-baseline="alphabetic" fill-opacity="1">5</text><text fill="none" stroke="rgb(255,255,255)" font-family="geogebra-sans-serif, sans-serif" font-size="12px" font-style="normal" font-weight="normal" text-decoration="normal" x="125" y="507" text-anchor="start" dominant-baseline="alphabetic" stroke-opacity="1" stroke-linejoin="bevel" stroke-miterlimit="10" stroke-width="3">5</text><text fill="rgb(0,0,0)" stroke="none" font-family="geogebra-sans-serif, sans-serif" font-size="12px" font-style="normal" font-weight="normal" text-decoration="normal" x="125" y="507" text-anchor="start" dominant-baseline="alphabetic" fill-opacity="1">5</text><path fill="none" stroke="rgb(0,0,0)" paint-order="fill stroke markers" d=" M 127.5 491.5 L 127.5 494.5" stroke-opacity="1" stroke-miterlimit="10"/><text fill="rgb(0,0,0)" stroke="none" font-family="geogebra-sans-serif, sans-serif" font-size="12px" font-style="normal" font-weight="normal" text-decoration="normal" x="213" y="507" text-anchor="start" dominant-baseline="alphabetic" fill-opacity="1">10</text><text fill="none" stroke="rgb(255,255,255)" font-family="geogebra-sans-serif, sans-serif" font-size="12px" font-style="normal" font-weight="normal" text-decoration="normal" x="213" y="507" text-anchor="start" dominant-baseline="alphabetic" stroke-opacity="1" stroke-linejoin="bevel" stroke-miterlimit="10" stroke-width="3">10</text><text fill="rgb(0,0,0)" stroke="none" font-family="geogebra-sans-serif, sans-serif" font-size="12px" font-style="normal" font-weight="normal" text-decoration="normal" x="213" y="507" text-anchor="start" dominant-baseline="alphabetic" fill-opacity="1">10</text><path fill="none" stroke="rgb(0,0,0)" paint-order="fill stroke markers" d=" M 218.5 491.5 L 218.5 494.5" stroke-opacity="1" stroke-miterlimit="10"/><text fill="rgb(0,0,0)" stroke="none" font-family="geogebra-sans-serif, sans-serif" font-size="12px" font-style="normal" font-weight="normal" text-decoration="normal" x="305" y="507" text-anchor="start" dominant-baseline="alphabetic" fill-opacity="1">15</text><text fill="none" stroke="rgb(255,255,255)" font-family="geogebra-sans-serif, sans-serif" font-size="12px" font-style="normal" font-weight="normal" text-decoration="normal" x="305" y="507" text-anchor="start" dominant-baseline="alphabetic" stroke-opacity="1" stroke-linejoin="bevel" stroke-miterlimit="10" stroke-width="3">15</text><text fill="rgb(0,0,0)" stroke="none" font-family="geogebra-sans-serif, sans-serif" font-size="12px" font-style="normal" font-weight="normal" text-decoration="normal" x="305" y="507" text-anchor="start" dominant-baseline="alphabetic" fill-opacity="1">15</text><path fill="none" stroke="rgb(0,0,0)" paint-order="fill stroke markers" d=" M 310.5 491.5 L 310.5 494.5" stroke-opacity="1" stroke-miterlimit="10"/><text fill="rgb(0,0,0)" stroke="none" font-family="geogebra-sans-serif, sans-serif" font-size="12px" font-style="normal" font-weight="normal" text-decoration="normal" x="396" y="507" text-anchor="start" dominant-baseline="alphabetic" fill-opacity="1">20</text><text fill="none" stroke="rgb(255,255,255)" font-family="geogebra-sans-serif, sans-serif" font-size="12px" font-style="normal" font-weight="normal" text-decoration="normal" x="396" y="507" text-anchor="start" dominant-baseline="alphabetic" stroke-opacity="1" stroke-linejoin="bevel" stroke-miterlimit="10" stroke-width="3">20</text><text fill="rgb(0,0,0)" stroke="none" font-family="geogebra-sans-serif, sans-serif" font-size="12px" font-style="normal" font-weight="normal" text-decoration="normal" x="396" y="507" text-anchor="start" dominant-baseline="alphabetic" fill-opacity="1">20</text><path fill="none" stroke="rgb(0,0,0)" paint-order="fill stroke markers" d=" M 401.5 491.5 L 401.5 494.5" stroke-opacity="1" stroke-miterlimit="10"/><text fill="rgb(0,0,0)" stroke="none" font-family="geogebra-sans-serif, sans-serif" font-size="12px" font-style="normal" font-weight="normal" text-decoration="normal" x="488" y="507" text-anchor="start" dominant-baseline="alphabetic" fill-opacity="1">25</text><text fill="none" stroke="rgb(255,255,255)" font-family="geogebra-sans-serif, sans-serif" font-size="12px" font-style="normal" font-weight="normal" text-decoration="normal" x="488" y="507" text-anchor="start" dominant-baseline="alphabetic" stroke-opacity="1" stroke-linejoin="bevel" stroke-miterlimit="10" stroke-width="3">25</text><text fill="rgb(0,0,0)" stroke="none" font-family="geogebra-sans-serif, sans-serif" font-size="12px" font-style="normal" font-weight="normal" text-decoration="normal" x="488" y="507" text-anchor="start" dominant-baseline="alphabetic" fill-opacity="1">25</text><path fill="none" stroke="rgb(0,0,0)" paint-order="fill stroke markers" d=" M 493.5 491.5 L 493.5 494.5" stroke-opacity="1" stroke-miterlimit="10"/><text fill="rgb(0,0,0)" stroke="none" font-family="geogebra-sans-serif, sans-serif" font-size="12px" font-style="normal" font-weight="normal" text-decoration="normal" x="580" y="507" text-anchor="start" dominant-baseline="alphabetic" fill-opacity="1">30</text><text fill="none" stroke="rgb(255,255,255)" font-family="geogebra-sans-serif, sans-serif" font-size="12px" font-style="normal" font-weight="normal" text-decoration="normal" x="580" y="507" text-anchor="start" dominant-baseline="alphabetic" stroke-opacity="1" stroke-linejoin="bevel" stroke-miterlimit="10" stroke-width="3">30</text><text fill="rgb(0,0,0)" stroke="none" font-family="geogebra-sans-serif, sans-serif" font-size="12px" font-style="normal" font-weight="normal" text-decoration="normal" x="580" y="507" text-anchor="start" dominant-baseline="alphabetic" fill-opacity="1">30</text><path fill="none" stroke="rgb(0,0,0)" paint-order="fill stroke markers" d=" M 585.5 491.5 L 585.5 494.5" stroke-opacity="1" stroke-miterlimit="10"/><text fill="rgb(0,0,0)" stroke="none" font-family="geogebra-sans-serif, sans-serif" font-size="12px" font-style="normal" font-weight="normal" text-decoration="normal" x="671" y="507" text-anchor="start" dominant-baseline="alphabetic" fill-opacity="1">35</text><text fill="none" stroke="rgb(255,255,255)" font-family="geogebra-sans-serif, sans-serif" font-size="12px" font-style="normal" font-weight="normal" text-decoration="normal" x="671" y="507" text-anchor="start" dominant-baseline="alphabetic" stroke-opacity="1" stroke-linejoin="bevel" stroke-miterlimit="10" stroke-width="3">35</text><text fill="rgb(0,0,0)" stroke="none" font-family="geogebra-sans-serif, sans-serif" font-size="12px" font-style="normal" font-weight="normal" text-decoration="normal" x="671" y="507" text-anchor="start" dominant-baseline="alphabetic" fill-opacity="1">35</text><path fill="none" stroke="rgb(0,0,0)" paint-order="fill stroke markers" d=" M 676.5 491.5 L 676.5 494.5" stroke-opacity="1" stroke-miterlimit="10"/><text fill="rgb(0,0,0)" stroke="none" font-family="geogebra-sans-serif, sans-serif" font-size="12px" font-style="normal" font-weight="normal" text-decoration="normal" x="763" y="507" text-anchor="start" dominant-baseline="alphabetic" fill-opacity="1">40</text><text fill="none" stroke="rgb(255,255,255)" font-family="geogebra-sans-serif, sans-serif" font-size="12px" font-style="normal" font-weight="normal" text-decoration="normal" x="763" y="507" text-anchor="start" dominant-baseline="alphabetic" stroke-opacity="1" stroke-linejoin="bevel" stroke-miterlimit="10" stroke-width="3">40</text><text fill="rgb(0,0,0)" stroke="none" font-family="geogebra-sans-serif, sans-serif" font-size="12px" font-style="normal" font-weight="normal" text-decoration="normal" x="763" y="507" text-anchor="start" dominant-baseline="alphabetic" fill-opacity="1">40</text><path fill="none" stroke="rgb(0,0,0)" paint-order="fill stroke markers" d=" M 768.5 491.5 L 768.5 494.5" stroke-opacity="1" stroke-miterlimit="10"/><text fill="rgb(0,0,0)" stroke="none" font-family="geogebra-sans-serif, sans-serif" font-size="12px" font-style="normal" font-weight="normal" text-decoration="normal" x="855" y="507" text-anchor="start" dominant-baseline="alphabetic" fill-opacity="1">45</text><text fill="none" stroke="rgb(255,255,255)" font-family="geogebra-sans-serif, sans-serif" font-size="12px" font-style="normal" font-weight="normal" text-decoration="normal" x="855" y="507" text-anchor="start" dominant-baseline="alphabetic" stroke-opacity="1" stroke-linejoin="bevel" stroke-miterlimit="10" stroke-width="3">45</text><text fill="rgb(0,0,0)" stroke="none" font-family="geogebra-sans-serif, sans-serif" font-size="12px" font-style="normal" font-weight="normal" text-decoration="normal" x="855" y="507" text-anchor="start" dominant-baseline="alphabetic" fill-opacity="1">45</text><path fill="none" stroke="rgb(0,0,0)" paint-order="fill stroke markers" d=" M 860.5 491.5 L 860.5 494.5" stroke-opacity="1" stroke-miterlimit="10"/><text fill="rgb(0,0,0)" stroke="none" font-family="geogebra-sans-serif, sans-serif" font-size="16px" font-style="normal" font-weight="normal" text-decoration="normal" x="40" y="17" text-anchor="start" dominant-baseline="alphabetic" fill-opacity="1">Temp T (deg C)</text><path fill="none" stroke="rgb(0,0,0)" paint-order="fill stroke markers" d=" M 32.5 398.5 L 35.5 398.5" stroke-opacity="1" stroke-miterlimit="10"/><path fill="none" stroke="rgb(0,0,0)" paint-order="fill stroke markers" d=" M 32.5 306.5 L 35.5 306.5" stroke-opacity="1" stroke-miterlimit="10"/><path fill="none" stroke="rgb(0,0,0)" paint-order="fill stroke markers" d=" M 32.5 213.5 L 35.5 213.5" stroke-opacity="1" stroke-miterlimit="10"/><path fill="none" stroke="rgb(0,0,0)" paint-order="fill stroke markers" d=" M 32.5 120.5 L 35.5 120.5" stroke-opacity="1" stroke-miterlimit="10"/><path fill="none" stroke="rgb(0,0,0)" paint-order="fill stroke markers" d=" M 32.5 27.5 L 35.5 27.5" stroke-opacity="1" stroke-miterlimit="10"/><text fill="rgb(0,0,0)" stroke="none" font-family="geogebra-sans-serif, sans-serif" font-size="12px" font-style="normal" font-weight="normal" text-decoration="normal" x="13" y="403" text-anchor="start" dominant-baseline="alphabetic" fill-opacity="1">50</text><text fill="none" stroke="rgb(255,255,255)" font-family="geogebra-sans-serif, sans-serif" font-size="12px" font-style="normal" font-weight="normal" text-decoration="normal" x="13" y="403" text-anchor="start" dominant-baseline="alphabetic" stroke-opacity="1" stroke-linejoin="bevel" stroke-miterlimit="10" stroke-width="3">50</text><text fill="rgb(0,0,0)" stroke="none" font-family="geogebra-sans-serif, sans-serif" font-size="12px" font-style="normal" font-weight="normal" text-decoration="normal" x="13" y="403" text-anchor="start" dominant-baseline="alphabetic" fill-opacity="1">50</text><text fill="rgb(0,0,0)" stroke="none" font-family="geogebra-sans-serif, sans-serif" font-size="12px" font-style="normal" font-weight="normal" text-decoration="normal" x="5" y="311" text-anchor="start" dominant-baseline="alphabetic" fill-opacity="1">100</text><text fill="none" stroke="rgb(255,255,255)" font-family="geogebra-sans-serif, sans-serif" font-size="12px" font-style="normal" font-weight="normal" text-decoration="normal" x="5" y="311" text-anchor="start" dominant-baseline="alphabetic" stroke-opacity="1" stroke-linejoin="bevel" stroke-miterlimit="10" stroke-width="3">100</text><text fill="rgb(0,0,0)" stroke="none" font-family="geogebra-sans-serif, sans-serif" font-size="12px" font-style="normal" font-weight="normal" text-decoration="normal" x="5" y="311" text-anchor="start" dominant-baseline="alphabetic" fill-opacity="1">100</text><text fill="rgb(0,0,0)" stroke="none" font-family="geogebra-sans-serif, sans-serif" font-size="12px" font-style="normal" font-weight="normal" text-decoration="normal" x="5" y="218" text-anchor="start" dominant-baseline="alphabetic" fill-opacity="1">150</text><text fill="none" stroke="rgb(255,255,255)" font-family="geogebra-sans-serif, sans-serif" font-size="12px" font-style="normal" font-weight="normal" text-decoration="normal" x="5" y="218" text-anchor="start" dominant-baseline="alphabetic" stroke-opacity="1" stroke-linejoin="bevel" stroke-miterlimit="10" stroke-width="3">150</text><text fill="rgb(0,0,0)" stroke="none" font-family="geogebra-sans-serif, sans-serif" font-size="12px" font-style="normal" font-weight="normal" text-decoration="normal" x="5" y="218" text-anchor="start" dominant-baseline="alphabetic" fill-opacity="1">150</text><text fill="rgb(0,0,0)" stroke="none" font-family="geogebra-sans-serif, sans-serif" font-size="12px" font-style="normal" font-weight="normal" text-decoration="normal" x="5" y="125" text-anchor="start" dominant-baseline="alphabetic" fill-opacity="1">200</text><text fill="none" stroke="rgb(255,255,255)" font-family="geogebra-sans-serif, sans-serif" font-size="12px" font-style="normal" font-weight="normal" text-decoration="normal" x="5" y="125" text-anchor="start" dominant-baseline="alphabetic" stroke-opacity="1" stroke-linejoin="bevel" stroke-miterlimit="10" stroke-width="3">200</text><text fill="rgb(0,0,0)" stroke="none" font-family="geogebra-sans-serif, sans-serif" font-size="12px" font-style="normal" font-weight="normal" text-decoration="normal" x="5" y="125" text-anchor="start" dominant-baseline="alphabetic" fill-opacity="1">200</text><text fill="rgb(0,0,0)" stroke="none" font-family="geogebra-sans-serif, sans-serif" font-size="12px" font-style="normal" font-weight="normal" text-decoration="normal" x="5" y="32" text-anchor="start" dominant-baseline="alphabetic" fill-opacity="1">250</text><text fill="none" stroke="rgb(255,255,255)" font-family="geogebra-sans-serif, sans-serif" font-size="12px" font-style="normal" font-weight="normal" text-decoration="normal" x="5" y="32" text-anchor="start" dominant-baseline="alphabetic" stroke-opacity="1" stroke-linejoin="bevel" stroke-miterlimit="10" stroke-width="3">250</text><text fill="rgb(0,0,0)" stroke="none" font-family="geogebra-sans-serif, sans-serif" font-size="12px" font-style="normal" font-weight="normal" text-decoration="normal" x="5" y="32" text-anchor="start" dominant-baseline="alphabetic" fill-opacity="1">250</text><text fill="rgb(0,0,0)" stroke="none" font-family="geogebra-sans-serif, sans-serif" font-size="12px" font-style="normal" font-weight="normal" text-decoration="normal" x="20" y="507" text-anchor="start" dominant-baseline="alphabetic" fill-opacity="1">0</text><text fill="none" stroke="rgb(255,255,255)" font-family="geogebra-sans-serif, sans-serif" font-size="12px" font-style="normal" font-weight="normal" text-decoration="normal" x="20" y="507" text-anchor="start" dominant-baseline="alphabetic" stroke-opacity="1" stroke-linejoin="bevel" stroke-miterlimit="10" stroke-width="3">0</text><text fill="rgb(0,0,0)" stroke="none" font-family="geogebra-sans-serif, sans-serif" font-size="12px" font-style="normal" font-weight="normal" text-decoration="normal" x="20" y="507" text-anchor="start" dominant-baseline="alphabetic" fill-opacity="1">0</text><path fill="none" stroke="rgb(51,153,0)" paint-order="fill stroke markers" d=" M 35.3999998167327 45.999999721374536 L 38.32812499999999 50.41631408594429 M 38.32812499999999 50.41631408594429 L 41.81249999999999 55.580468205803584 M 41.81249999999999 55.580468205803584 L 45.29687499999999 60.647366151283336 L 48.78125 65.61883954150926 L 52.265625 70.49668550084505 L 55.74999999999999 75.28266730852948 M 55.74999999999999 75.28266730852948 L 59.23437499999999 79.97851503607944 L 62.71874999999999 84.58592617268908 L 66.203125 89.1065662388504 L 69.68749999999999 93.54206938841747 L 73.171875 97.89403899933274 L 76.65624999999999 102.16404825322718 L 80.140625 106.35364070410594 L 83.625 110.46433083632326 L 87.10937499999999 114.49760461204914 L 90.59374999999999 118.45492000842614 L 94.07812499999999 122.33770754460909 L 97.56249999999999 126.14737079888005 L 101.04687499999999 129.88528691602346 L 104.53124999999999 133.552807105147 L 108.01562499999999 137.15125712812608 L 111.49999999999999 140.68193777885023 M 111.49999999999999 140.68193777885023 L 114.98437499999997 144.14612535344298 L 118.46874999999999 147.5450721116274 L 121.95312499999999 150.8800067294015 L 125.43749999999999 154.1521347431892 L 128.92187499999997 157.3626389856263 L 132.40625 160.51268001313952 L 135.890625 163.60339652547293 L 139.37499999999997 166.63590577731316 L 142.859375 169.611303982163 L 146.34375 172.5306667086087 L 149.82812499999997 175.39504926912383 L 153.3125 178.2054871015519 L 156.796875 180.9629961434037 L 160.28124999999997 183.66857319910577 L 163.765625 186.32319630033254 L 167.24999999999997 188.92782505955228 L 170.73437499999997 191.48340101691502 L 174.21875 193.990847980607 L 177.70312499999997 196.4510723607957 L 181.18749999999997 198.86496349728583 L 184.671875 201.23339398100399 L 188.15625 203.55721996942935 L 191.64062499999997 205.83728149608373 L 195.125 208.0744027741929 L 198.60937499999997 210.26939249462924 L 202.09374999999997 212.42304411824324 L 205.578125 214.5361361626895 L 209.0625 216.60943248385075 L 212.54687499999997 218.64368255196234 L 216.03124999999997 220.63962172253605 L 219.51562499999997 222.59797150218162 L 222.99999999999997 224.5194398094224 M 222.99999999999997 224.5194398094224 L 226.484375 226.40472123059897 L 229.96874999999997 228.25449727095275 L 233.45312499999997 230.06943660098227 L 236.9375 231.85019529815827 L 240.42187499999997 233.5974170840878 L 243.90624999999997 235.31173355721148 L 247.390625 236.99376442111773 L 250.87499999999997 238.64411770855835 L 254.35937499999997 240.26339000124446 L 257.84375 241.8521666455028 L 261.328125 243.41102196387166 L 264.8125 244.9405194627105 L 268.296875 246.4412120359008 L 271.78125 247.9136421647099 L 275.265625 249.35834211389118 L 278.75 250.77583412409115 L 282.234375 252.1666306006323 L 285.71875 253.53123429874165 L 289.203125 254.87013850529013 L 292.6875 256.1838272171095 L 296.171875 257.4727753159511 L 299.65624999999994 258.7374487401494 L 303.140625 259.97830465305304 L 306.625 261.19579160828346 L 310.109375 262.3903497118811 L 313.59375 263.5624107813985 L 317.07812499999994 264.71239850199663 L 320.56249999999994 265.8407285796018 L 324.046875 266.9478088911777 L 327.53125 268.0340396321685 L 331.015625 269.09981346116365 L 334.5 270.1455156418391 L 337.98437499999994 271.17152418222565 L 341.46874999999994 272.1782099713537 L 344.953125 273.1659369133249 L 348.4375 274.1350620588589 L 351.921875 275.0859357343628 L 355.40624999999994 276.01890166856936 L 358.89062499999994 276.93429711679096 L 362.37499999999994 277.8324529828327 L 365.859375 278.7136939386103 L 369.34375 279.57833854151454 L 372.828125 280.42669934956587 L 376.3125 281.2590830344002 L 379.796875 282.0757904921266 L 383.28124999999994 282.8771169520977 L 386.765625 283.6633520836311 L 390.25 284.4347801007211 L 393.73437499999994 285.19167986477873 L 397.21874999999994 285.93432498543643 L 400.70312499999994 286.6629839194544 L 404.18749999999994 287.3779200677643 L 407.671875 288.0793918706855 L 411.15625 288.7676529013478 L 414.640625 289.442951957355 L 418.125 290.1055331507219 L 421.60937499999994 290.755635996118 L 425.09375 291.3934954974486 L 428.578125 292.019342232806 L 432.06249999999994 292.6334024378207 L 435.54687499999994 293.235898087442 L 439.03124999999994 293.8270469761801 L 442.51562499999994 294.40706279683513 L 446 294.97615521774514 M 446 294.97615521774514 L 449.484375 295.5345299585779 L 452.96875 296.0823888646963 L 456.453125 296.61992998012306 L 459.93749999999994 297.14734761913036 L 463.42187499999994 297.6648324364829 L 466.90625 298.17257149635674 L 470.390625 298.6707483399604 L 473.875 299.1595430518831 L 477.35937499999994 299.63913232519275 L 480.84374999999994 300.10968952530845 L 484.32812499999994 300.5713847526696 L 487.8125 301.0243849042255 L 491.296875 301.46885373376597 L 494.78125 301.90495191111665 L 498.26562499999994 302.3328370802188 L 501.74999999999994 302.75266391611575 L 505.23437499999994 303.164584180866 L 508.71875 303.5687467784031 L 512.203125 303.96529780836283 L 515.6875 304.35438061889585 L 519.171875 304.73613585848676 L 522.65625 305.11070152679645 L 526.140625 305.47821302454724 L 529.625 305.83880320246874 L 533.109375 306.1926024093212 L 536.59375 306.5397385390156 L 540.078125 306.8803370768451 L 543.5625 307.21452114484663 L 547.046875 307.542411546308 L 550.53125 307.8641268094367 L 554.015625 308.179783230206 L 557.4999999999999 308.489494914395 L 560.984375 308.79337381883624 L 564.46875 309.0915297918865 L 567.953125 309.3840706131356 L 571.4375 309.6711020323676 L 574.921875 309.9527278077878 L 578.40625 310.22904974353014 L 581.890625 310.5001677264577 L 585.375 310.7661797622711 L 588.859375 311.02718201093614 L 592.34375 311.2832688214442 L 595.8281249999999 311.53453276591813 L 599.3124999999999 311.78106467307646 L 602.796875 312.0229536610662 L 606.28125 312.2602871696782 L 609.765625 312.4931509919554 L 613.25 312.7216293052064 L 616.734375 312.94580470143364 L 620.21875 313.16575821719005 L 623.703125 313.38156936287237 L 627.1874999999999 313.5933161514634 L 630.671875 313.80107512673254 L 634.1562499999999 314.00492139090545 L 637.6406249999999 314.2049286318123 L 641.1249999999999 314.40116914952563 L 644.609375 314.5937138824951 L 648.09375 314.7826324331913 L 651.578125 314.9679930932662 L 655.0625 315.14986286823955 L 658.546875 315.3283075017204 L 662.03125 315.503391499173 L 665.5156249999999 315.67517815123426 L 669 315.84372955659273 L 672.4843749999999 316.00910664443643 L 675.9687499999999 316.17136919647805 L 679.4531249999999 316.33057586856523 L 682.9375 316.4867842118839 L 686.421875 316.6400506937621 L 689.90625 316.7904307180827 L 693.390625 316.93797864531075 L 696.875 317.08274781214413 L 700.359375 317.2247905507944 L 703.84375 317.364158207904 L 707.328125 317.5009011631073 L 710.8124999999999 317.63506884724245 L 714.296875 317.7667097602198 L 717.7812499999999 317.8958714885541 L 721.2656249999999 318.02260072256655 L 724.75 318.1469432732624 L 728.234375 318.2689440888914 L 731.71875 318.38864727119574 L 735.203125 318.50609609135256 L 738.6875 318.6213330056156 L 742.1718749999999 318.7343996706629 L 745.65625 318.845336958655 L 749.1406249999999 318.9541849720098 L 752.625 319.06098305789874 L 756.1093749999999 319.1657698224709 L 759.5937500000001 319.26858314480813 L 763.0781249999999 319.36946019061804 L 766.5625 319.46843742566887 L 770.046875 319.56555062897166 L 773.53125 319.66083490571333 L 777.015625 319.75432469994746 L 780.5 319.84605380704494 L 783.984375 319.93605538591055 L 787.4687499999999 320.0243619709698 L 790.953125 320.11100548392926 L 794.4374999999999 320.1960172453163 L 797.921875 320.2794279858009 L 801.4062499999999 320.36126785730403 L 804.8906249999999 320.441566443898 L 808.375 320.52035277249985 L 811.859375 320.59765532336473 L 815.34375 320.673502040381 L 818.828125 320.7479203411717 L 822.3125 320.82093712700555 L 825.7968749999999 320.89257879252136 L 829.28125 320.9628712352695 L 832.7656249999999 321.03183986507344 L 836.25 321.0995096132152 L 839.7343749999999 321.1659049414476 L 843.2187499999999 321.2310498508368 L 846.703125 321.29496789043856 L 850.1875 321.35768216581073 L 853.671875 321.4192153473658 L 857.15625 321.47958967856573 L 860.640625 321.5388269839631 L 864.1249999999999 321.5969486770897 L 867.609375 321.65397576819817 L 871.0937499999999 321.70992887185616 L 874.578125 321.76482821439845 L 878.0624999999999 321.81869364123895 L 881.546875 321.87154462404374 L 885.0312499999999 321.9234002677707 L 888.515625 321.97427931757505 L 892 322.0242001655858" stroke-opacity="0.6980392156862745" stroke-linecap="round" stroke-linejoin="round" stroke-miterlimit="10" stroke-width="2.5"/><text fill="rgb(51,153,0)" stroke="none" font-family="geogebra-sans-serif, sans-serif" font-size="16px" font-style="normal" font-weight="normal" text-decoration="normal" x="62" y="75" text-anchor="start" dominant-baseline="alphabetic" fill-opacity="1">T</text><text fill="none" stroke="rgb(255,255,255)" font-family="geogebra-sans-serif, sans-serif" font-size="16px" font-style="normal" font-weight="normal" text-decoration="normal" x="62" y="75" text-anchor="start" dominant-baseline="alphabetic" stroke-opacity="1" stroke-linejoin="bevel" stroke-miterlimit="10" stroke-width="3">T</text><text fill="rgb(51,153,0)" stroke="none" font-family="geogebra-sans-serif, sans-serif" font-size="16px" font-style="normal" font-weight="normal" text-decoration="normal" x="62" y="75" text-anchor="start" dominant-baseline="alphabetic" fill-opacity="1">T</text><text fill="rgb(51,153,0)" stroke="none" font-family="geogebra-sans-serif, sans-serif" font-size="14px" font-style="normal" font-weight="normal" text-decoration="normal" x="72" y="82" text-anchor="start" dominant-baseline="alphabetic" fill-opacity="1">1</text><text fill="none" stroke="rgb(255,255,255)" font-family="geogebra-sans-serif, sans-serif" font-size="14px" font-style="normal" font-weight="normal" text-decoration="normal" x="72" y="82" text-anchor="start" dominant-baseline="alphabetic" stroke-opacity="1" stroke-linejoin="bevel" stroke-miterlimit="10" stroke-width="3">1</text><text fill="rgb(51,153,0)" stroke="none" font-family="geogebra-sans-serif, sans-serif" font-size="14px" font-style="normal" font-weight="normal" text-decoration="normal" x="72" y="82" text-anchor="start" dominant-baseline="alphabetic" fill-opacity="1">1</text><path fill="none" stroke="rgb(255,85,0)" paint-order="fill stroke markers" d=" M 35.3999998167327 45.99999970279953 L 38.32812499999999 50.71073502500724 M 38.32812499999999 50.71073502500724 L 41.81249999999999 56.21916608619051 M 41.81249999999999 56.21916608619051 L 45.29687499999999 61.62385722803555 L 48.78125 66.92676217760993 L 52.265625 72.12979786756807 L 55.74999999999999 77.23484512909812 M 55.74999999999999 77.23484512909812 L 59.23437499999999 82.24374937181807 L 62.71874999999999 87.15832125086843 L 66.203125 91.98033732144046 L 69.68749999999999 96.71154068097871 L 73.171875 101.35364159928827 L 76.65624999999999 105.90831813677568 L 80.140625 110.37721675104643 L 83.625 114.76195289207823 L 87.10937499999999 119.06411158618579 L 90.59374999999999 123.28524800898794 L 94.07812499999999 127.42688804758313 L 97.56249999999999 131.4905288521387 L 101.04687499999999 135.47763937709175 L 104.53124999999999 139.38966091215684 L 108.01562499999999 143.22800760333456 L 111.49999999999999 146.99406696410693 M 111.49999999999999 146.99406696410693 L 114.98437499999997 150.68920037700587 L 118.46874999999999 154.31474358573593 L 121.95312499999999 157.87200717802835 L 125.43749999999999 161.36227705940183 L 128.92187499999997 164.78681491800143 L 132.40625 168.14685868068216 L 135.890625 171.4436229605045 L 139.37499999999997 174.67829949580073 L 142.859375 177.85205758097396 L 146.34375 180.96604448918265 L 149.82812499999997 184.0213858870655 L 153.3125 187.01918624165546 L 156.796875 189.9605292196307 L 160.28124999999997 192.84647807904622 L 163.765625 195.67807605368807 L 167.24999999999997 198.45634673018924 L 170.73437499999997 201.18229441804272 L 174.21875 203.85690451264747 L 177.70312499999997 206.48114385151547 L 181.18749999999997 209.05596106377158 L 184.671875 211.58228691307096 L 188.15625 214.061034634058 L 191.64062499999997 216.49310026248935 L 195.125 218.87936295913914 L 198.60937499999997 221.22068532760454 L 202.09374999999997 223.5179137261262 L 205.578125 225.77187857353545 L 209.0625 227.98339464944087 L 212.54687499999997 230.15326138875986 L 216.03124999999997 232.2822631707051 L 219.51562499999997 234.3711696023271 L 222.99999999999997 236.42073579671725 M 222.99999999999997 236.42073579671725 L 226.484375 238.43170264597225 L 229.96874999999997 240.40479708901634 L 233.45312499999997 242.34073237438113 L 236.9375 244.24020831803554 L 240.42187499999997 246.10391155636043 L 243.90624999999997 247.93251579435892 L 247.390625 249.72668204919225 L 250.87499999999997 251.48705888912895 L 254.35937499999997 253.21428266799407 L 257.84375 254.908977755203 L 261.328125 256.5717567614631 L 264.8125 258.20322076022455 L 268.296875 259.80395950496086 L 271.78125 261.37455164235723 L 275.265625 262.915564921484 L 278.75 264.42755639903055 L 282.234375 265.91107264067443 L 285.71875 267.3666499186578 L 289.203125 268.79481440564285 L 292.6875 270.19608236491683 L 296.171875 271.5709603370145 L 299.65624999999994 272.91994532282604 L 303.140625 274.2435249632566 L 306.625 275.54217771550236 L 310.109375 276.8163730260065 L 313.59375 278.0665715001584 L 317.07812499999994 279.29322506879646 L 320.56249999999994 280.4967771515752 L 324.046875 281.6776628172563 L 327.53125 282.8363089409798 L 331.015625 283.97313435857455 L 334.5 285.0885500179617 L 337.98437499999994 286.1829591277074 L 341.46874999999994 287.2567573027774 L 344.953125 288.31033270754665 L 348.4375 289.3440661961162 L 351.921875 290.358331449987 L 355.40624999999994 291.35349511314075 L 358.89062499999994 292.32991692457705 L 362.37499999999994 293.2879498483549 L 365.859375 294.2279402011843 L 369.34375 295.1502277776155 L 372.828125 296.05514597287026 L 376.3125 296.9430219033602 L 379.796875 297.8141765249351 L 383.28124999999994 298.66892474890426 L 386.765625 299.5075755558732 L 390.25 300.33043210743585 L 393.73437499999994 301.137791855764 L 397.21874999999994 301.92994665113224 L 400.70312499999994 302.70718284741804 L 404.18749999999994 303.4697814056153 L 407.671875 304.21801799539793 L 411.15625 304.952163094771 L 414.640625 305.6724820878453 L 418.125 306.37923536077005 L 421.60937499999994 307.0726783958592 L 425.09375 307.75306186394516 L 428.578125 308.42063171499314 L 432.06249999999994 309.0756292670087 L 435.54687499999994 309.71829129327153 L 439.03124999999994 310.3488501079255 L 442.51562499999994 310.96753364995755 L 446 311.57456556559487 M 446 311.57456556559487 L 449.484375 312.1701652891498 L 452.96875 312.75454812234284 L 456.453125 313.32792531213124 L 459.93749999999994 313.8905041270724 L 463.42187499999994 314.44248793224847 L 466.90625 314.98407626278055 L 470.390625 315.5154648959578 L 473.875 316.03684592200864 L 477.35937499999994 316.548407813539 L 480.84374999999994 317.0503354936624 L 484.32812499999994 317.54281040284764 L 487.8125 318.02601056450726 L 491.296875 318.5001106493504 L 494.78125 318.9652820385245 L 498.26562499999994 319.4216928855667 L 501.74999999999994 319.86950817719014 L 505.23437499999994 320.30888979292376 L 508.71875 320.73999656363003 L 512.203125 321.1629843289204 L 515.6875 321.57800599348894 L 519.171875 321.9852115823859 L 522.65625 322.38474829524955 L 526.140625 322.77676055951713 L 529.625 323.1613900826333 L 533.109375 323.53877590327596 L 536.59375 323.9090544416166 L 540.078125 324.27235954863477 L 543.5625 324.62882255450313 L 547.046875 324.9785723160619 L 550.53125 325.32173526339915 L 554.015625 325.6584354455531 L 557.4999999999999 325.98879457535475 L 560.984375 326.3129320734254 L 564.46875 326.63096511134563 L 567.953125 326.94300865401135 L 571.4375 327.24917550119216 L 574.921875 327.5495763283071 L 578.40625 327.8443197264321 L 581.890625 328.13351224155485 L 585.375 328.41725841308926 L 588.859375 328.69566081166533 L 592.34375 328.9688200762072 L 595.8281249999999 329.23683495031275 L 599.3124999999999 329.49980231794825 L 602.796875 329.75781723847064 L 606.28125 330.01097298099006 L 609.765625 330.25936105808586 L 613.25 330.50307125888685 L 616.734375 330.7421916815292 L 620.21875 330.9768087650027 L 623.703125 331.2070073203972 L 627.1874999999999 331.432870561561 L 630.671875 331.6544801351814 L 634.1562499999999 331.87191615029917 L 637.6406249999999 332.0852572072665 L 641.1249999999999 332.2945804261607 L 644.609375 332.4999614746614 L 648.09375 332.7014745954041 L 651.578125 332.8991926328173 L 655.0625 333.09318705945554 L 658.546875 333.2835280018351 L 662.03125 333.4702842657846 L 665.5156249999999 333.65352336131656 L 669 333.83331152703227 L 672.4843749999999 334.00971375406556 L 675.9687499999999 334.18279380957665 L 679.4531249999999 334.352614259803 L 682.9375 334.51923649267616 L 686.421875 334.68272074001294 L 689.90625 334.84312609928827 L 693.390625 335.00051055499813 L 696.875 335.15493099962043 L 700.359375 335.30644325418075 L 703.84375 335.455102088431 L 707.328125 335.60096124064785 L 710.8124999999999 335.74407343705866 L 714.296875 335.8844904109011 L 717.7812499999999 336.0222629211244 L 721.2656249999999 336.1574407707377 L 724.75 336.29007282481325 L 728.234375 336.4202070281508 L 731.71875 336.5478904226088 L 735.203125 336.67316916410937 L 738.6875 336.79608853932336 L 742.1718749999999 336.91669298204044 L 745.65625 337.0350260892321 L 749.1406249999999 337.1511306368105 L 752.625 337.265048595092 L 756.1093749999999 337.376821143969 L 759.5937500000001 337.4864886877954 L 763.0781249999999 337.5940908699926 L 766.5625 337.6996665873802 L 770.046875 337.8032540042364 L 773.53125 337.9048905660942 L 777.015625 338.0046130132773 L 780.5 338.10245739418133 L 783.984375 338.1984590783046 L 787.4687499999999 338.2926527690345 L 790.953125 338.38507251619126 L 794.4374999999999 338.4757517283374 L 797.921875 338.5647231848543 L 801.4062499999999 338.65201904779104 L 804.8906249999999 338.7376708734912 L 808.375 338.8217096239998 L 811.859375 338.9041656782557 L 815.34375 338.9850688430731 L 818.828125 339.06444836391654 L 822.3125 339.1423329354726 L 825.7968749999999 339.2187507120228 L 829.28125 339.2937293176208 L 832.7656249999999 339.3672958560784 L 836.25 339.4394769207629 L 839.7343749999999 339.5102986042108 L 843.2187499999999 339.57978650755933 L 846.703125 339.6479657498012 L 850.1875 339.7148609768648 L 853.671875 339.78049637052357 L 857.15625 339.8448956571368 L 860.640625 339.9080821162273 L 864.1249999999999 339.9700785888957 L 867.609375 340.0309074860781 L 871.0937499999999 340.09059079664655 L 874.578125 340.14915009535844 L 878.0624999999999 340.2066065506549 L 881.546875 340.2629809323134 L 885.0312499999999 340.31829361895547 L 888.515625 340.37256460541346 L 892 340.4258135099582" stroke-opacity="0.6980392156862745" stroke-linecap="round" stroke-linejoin="round" stroke-miterlimit="10" stroke-width="2.5"/><text fill="rgb(255,85,0)" stroke="none" font-family="geogebra-sans-serif, sans-serif" font-size="16px" font-style="normal" font-weight="normal" text-decoration="normal" x="72" y="122" text-anchor="start" dominant-baseline="alphabetic" fill-opacity="1">T</text><text fill="none" stroke="rgb(255,255,255)" font-family="geogebra-sans-serif, sans-serif" font-size="16px" font-style="normal" font-weight="normal" text-decoration="normal" x="72" y="122" text-anchor="start" dominant-baseline="alphabetic" stroke-opacity="1" stroke-linejoin="bevel" stroke-miterlimit="10" stroke-width="3">T</text><text fill="rgb(255,85,0)" stroke="none" font-family="geogebra-sans-serif, sans-serif" font-size="16px" font-style="normal" font-weight="normal" text-decoration="normal" x="72" y="122" text-anchor="start" dominant-baseline="alphabetic" fill-opacity="1">T</text><text fill="rgb(255,85,0)" stroke="none" font-family="geogebra-sans-serif, sans-serif" font-size="14px" font-style="normal" font-weight="normal" text-decoration="normal" x="82" y="129" text-anchor="start" dominant-baseline="alphabetic" fill-opacity="1">2</text><text fill="none" stroke="rgb(255,255,255)" font-family="geogebra-sans-serif, sans-serif" font-size="14px" font-style="normal" font-weight="normal" text-decoration="normal" x="82" y="129" text-anchor="start" dominant-baseline="alphabetic" stroke-opacity="1" stroke-linejoin="bevel" stroke-miterlimit="10" stroke-width="3">2</text><text fill="rgb(255,85,0)" stroke="none" font-family="geogebra-sans-serif, sans-serif" font-size="14px" font-style="normal" font-weight="normal" text-decoration="normal" x="82" y="129" text-anchor="start" dominant-baseline="alphabetic" fill-opacity="1">2</text><path fill="none" stroke="rgb(0,51,153)" paint-order="fill stroke markers" d=" M 35.3999998167327 45.999999609924544 L 38.32812499999999 52.18283972032219 M 38.32812499999999 52.18283972032219 L 41.81249999999999 59.412655488125154 M 41.81249999999999 59.412655488125154 L 45.29687499999999 66.50631261179677 L 48.78125 73.46637535811311 L 52.265625 80.29535970118326 L 55.74999999999999 86.99573423194141 M 55.74999999999999 86.99573423194141 L 59.23437499999999 93.56992105051137 L 62.71874999999999 100.0202966417649 L 66.203125 106.34919273439073 L 69.68749999999999 112.55889714378469 L 73.171875 118.65165459906603 L 76.65624999999999 124.62966755451822 L 80.140625 130.4950969857485 L 83.625 136.25006317085274 L 87.10937499999999 141.896646456869 L 90.59374999999999 147.43688801179678 L 94.07812499999999 152.87279056245296 L 97.56249999999999 158.20631911843225 L 101.04687499999999 163.43940168243302 L 104.53124999999999 168.573929947206 L 108.01562499999999 173.6117599793767 L 111.49999999999999 178.55471289039048 M 111.49999999999999 178.55471289039048 L 114.98437499999997 183.40457549482034 L 118.46874999999999 188.16310095627858 L 121.95312499999999 192.8320094211623 L 125.43749999999999 197.41298864046507 L 128.92187499999997 201.90769457987693 L 132.40625 206.31775201839554 L 135.890625 210.64475513566225 L 139.37499999999997 214.8902680882386 L 142.859375 219.05582557502845 L 146.34375 223.14293339205233 L 149.82812499999997 227.15306897677357 L 153.3125 231.08768194217288 L 156.796875 234.94819460076542 L 160.28124999999997 238.73600247874828 L 163.765625 242.45247482046577 L 167.24999999999997 246.09895508337345 L 170.73437499999997 249.67676142368123 L 174.21875 253.18718717284997 L 177.70312499999997 256.63150130511417 L 181.18749999999997 260.0109488962004 L 184.671875 263.3267515734058 L 188.15625 266.58010795720134 L 191.64062499999997 269.77219409451743 L 195.125 272.90416388387024 L 198.60937499999997 275.9771494924811 L 202.09374999999997 278.9922617655408 L 205.578125 281.95059062776545 L 209.0625 284.85320547739127 L 212.54687499999997 287.7011555727475 L 216.03124999999997 290.4954704115506 L 219.51562499999997 293.2371601030544 L 222.99999999999997 295.9272157331916 M 222.99999999999997 295.9272157331916 L 226.484375 298.56660972283873 L 229.96874999999997 301.1562961793341 L 233.45312499999997 303.6972112413754 L 236.9375 306.1902734174218 L 240.42187499999997 308.63638391772315 L 243.90624999999997 311.0364269800962 L 247.390625 313.391270189565 L 250.87499999999997 315.7017647919819 L 254.35937499999997 317.9687460017424 L 257.84375 320.19303330370406 L 261.328125 322.3754307494205 L 264.8125 324.51672724779485 L 268.296875 326.61769685026127 L 271.78125 328.679099030594 L 275.265625 330.7016789594479 L 278.75 332.6861677737278 L 282.234375 334.6332828408854 L 285.71875 336.5437280182385 L 289.203125 338.41819390740636 L 292.6875 340.2573581039535 L 296.171875 342.0618854423317 L 299.65624999999994 343.83242823620935 L 303.140625 345.56962651427443 L 306.625 347.274108251597 L 310.109375 348.9464895966337 L 313.59375 350.58737509395803 L 317.07812499999994 352.19735790279543 L 320.56249999999994 353.77702001144263 L 324.046875 355.326932447649 L 327.53125 356.84765548503617 L 331.015625 358.3397388456292 L 334.5 359.8037218985749 L 337.98437499999994 361.2401338551161 L 341.46874999999994 362.6494939598954 L 344.953125 364.03231167865505 L 348.4375 365.3890868824027 L 351.921875 366.72031002810814 L 355.40624999999994 368.0264623359973 L 358.89062499999994 369.3080159635075 L 362.37499999999994 370.56543417596595 L 365.859375 371.79917151405454 L 369.34375 373.00967395812046 L 372.828125 374.19737908939237 L 376.3125 375.3627162481604 L 379.796875 376.5061066889774 L 383.28124999999994 377.627963732937 L 386.765625 378.72869291708366 L 390.25 379.8086921410097 L 393.73437499999994 380.86835181069046 L 397.21874999999994 381.9080549796112 L 400.70312499999994 382.9281774872363 L 404.18749999999994 383.9290880948702 L 407.671875 384.9111486189599 L 411.15625 385.8747140618871 L 414.640625 386.82013274029714 L 418.125 387.7477464110109 L 421.60937499999994 388.65789039456536 L 425.09375 389.5508936964282 L 428.578125 390.4270791259287 L 432.06249999999994 391.2867634129491 L 435.54687499999994 392.130257322419 L 439.03124999999994 392.95786576665233 L 442.51562499999994 393.7698879155694 L 446 394.5666173048434 M 446 394.5666173048434 L 449.484375 395.34834194200926 L 452.96875 396.11534441057506 L 456.453125 396.8679019721724 L 459.93749999999994 397.60628666678264 L 463.42187499999994 398.3307654110763 L 466.90625 399.0416000948996 L 470.390625 399.73904767594473 L 473.875 400.4233602726365 L 477.35937499999994 401.09478525527004 L 480.84374999999994 401.753565335432 L 484.32812499999994 402.39993865373765 L 487.8125 403.0341388659159 L 491.296875 403.6563952272726 L 494.78125 404.2669326755635 L 498.26562499999994 404.86597191230646 L 501.74999999999994 405.4537294825622 L 505.23437499999994 406.0304178532126 L 508.71875 406.5962454897646 L 512.203125 407.1514169317081 L 515.6875 407.6961328664544 L 519.171875 408.2305902018817 L 522.65625 408.7549821375152 L 526.140625 409.2694982343663 L 529.625 409.7743244834563 L 533.109375 410.26964337304986 L 536.59375 410.755633954622 L 540.078125 411.23247190758326 L 543.5625 411.7003296027855 L 547.046875 412.15937616483143 L 550.53125 412.6097775332115 L 554.015625 413.0516965222885 L 557.4999999999999 413.4852928801532 L 560.984375 413.91072334637096 L 564.46875 414.3281417086413 L 567.953125 414.73769885839005 L 571.4375 415.13954284531485 L 574.921875 415.5338189309032 L 578.40625 415.9206696409423 L 581.890625 416.3002348170409 L 585.375 416.67265166717976 L 588.859375 417.03805481531083 L 592.34375 417.39657635002203 L 595.8281249999999 417.7483458722856 L 599.3124999999999 418.0934905423072 L 602.796875 418.43213512549283 L 606.28125 418.7644020375496 L 609.765625 419.09041138873783 L 613.25 419.41028102728916 L 616.734375 419.7241265820073 L 620.21875 420.0320615040662 L 623.703125 420.3341971080215 L 627.1874999999999 420.6306426120489 L 630.671875 420.92150517742573 L 634.1562499999999 421.20688994726777 L 637.6406249999999 421.48690008453747 L 641.1249999999999 421.7616368093361 L 644.609375 422.03119943549325 L 648.09375 422.295685406468 L 651.578125 422.5551903305729 L 655.0625 422.8098080155355 L 658.546875 423.05963050240877 L 662.03125 423.3047480988424 L 665.5156249999999 423.54524941172815 L 669 423.78122137923 L 672.4843749999999 424.0127493022112 L 675.9687499999999 424.23991687506947 L 679.4531249999999 424.4628062159916 L 682.9375 424.6814978966376 L 686.421875 424.89607097126714 L 689.90625 425.10660300531595 L 693.390625 425.3131701034352 L 696.875 425.515846937002 L 700.359375 425.7147067711124 L 703.84375 425.9098214910658 L 707.328125 426.1012616283504 L 710.8124999999999 426.2890963861396 L 714.296875 426.4733936643079 L 717.7812499999999 426.65422008397593 L 721.2656249999999 426.8316410115934 L 724.75 427.00572058256756 L 728.234375 427.1765217244481 L 731.71875 427.3441061796742 L 735.203125 427.50853452789374 L 738.6875 427.669866207862 L 742.1718749999999 427.8281595389283 L 745.65625 427.9834717421172 L 749.1406249999999 428.1358589608139 L 752.625 428.28537628105846 L 756.1093749999999 428.4320777514595 L 759.5937500000001 428.57601640273157 L 763.0781249999999 428.7172442668654 L 766.5625 428.85581239593665 L 770.046875 428.99177088056047 L 773.53125 429.1251688679988 L 777.015625 429.2560545799266 L 780.5 429.3844753298631 L 783.984375 429.51047754027496 L 787.4687499999999 429.63410675935785 L 790.953125 429.7554076775011 L 794.4374999999999 429.87442414344304 L 797.921875 429.9911991801214 L 801.4062499999999 430.1057750002259 L 804.8906249999999 430.2181930214574 L 808.375 430.3284938814999 L 811.859375 430.43671745271075 L 815.34375 430.5429028565336 L 818.828125 430.64708847764064 L 822.3125 430.74931197780796 L 825.7968749999999 430.8496103095301 L 829.28125 430.94801972937745 L 832.7656249999999 431.04457581110296 L 836.25 431.1393134585015 L 839.7343749999999 431.2322669180268 L 843.2187499999999 431.32346979117176 L 846.703125 431.4129550466142 L 850.1875 431.5007550321352 L 853.671875 431.5869014863123 L 857.15625 431.67142554999225 L 860.640625 431.7543577775484 L 864.1249999999999 431.8357281479258 L 867.609375 431.9155660754776 L 871.0937499999999 431.9939004205988 L 874.578125 432.0707595001581 L 878.0624999999999 432.1461710977347 L 881.546875 432.2201624736615 L 885.0312499999999 432.2927603748792 L 888.515625 432.36399104460526 L 892 432.4338802318203" stroke-opacity="0.6980392156862745" stroke-linecap="round" stroke-linejoin="round" stroke-miterlimit="10" stroke-width="2.5"/><text fill="rgb(0,51,153)" stroke="none" font-family="geogebra-sans-serif, sans-serif" font-size="16px" font-style="normal" font-weight="normal" text-decoration="normal" x="36" y="91" text-anchor="start" dominant-baseline="alphabetic" fill-opacity="1">T</text><text fill="none" stroke="rgb(255,255,255)" font-family="geogebra-sans-serif, sans-serif" font-size="16px" font-style="normal" font-weight="normal" text-decoration="normal" x="36" y="91" text-anchor="start" dominant-baseline="alphabetic" stroke-opacity="1" stroke-linejoin="bevel" stroke-miterlimit="10" stroke-width="3">T</text><text fill="rgb(0,51,153)" stroke="none" font-family="geogebra-sans-serif, sans-serif" font-size="16px" font-style="normal" font-weight="normal" text-decoration="normal" x="36" y="91" text-anchor="start" dominant-baseline="alphabetic" fill-opacity="1">T</text><text fill="rgb(0,51,153)" stroke="none" font-family="geogebra-sans-serif, sans-serif" font-size="14px" font-style="normal" font-weight="normal" text-decoration="normal" x="46" y="98" text-anchor="start" dominant-baseline="alphabetic" fill-opacity="1">3</text><text fill="none" stroke="rgb(255,255,255)" font-family="geogebra-sans-serif, sans-serif" font-size="14px" font-style="normal" font-weight="normal" text-decoration="normal" x="46" y="98" text-anchor="start" dominant-baseline="alphabetic" stroke-opacity="1" stroke-linejoin="bevel" stroke-miterlimit="10" stroke-width="3">3</text><text fill="rgb(0,51,153)" stroke="none" font-family="geogebra-sans-serif, sans-serif" font-size="14px" font-style="normal" font-weight="normal" text-decoration="normal" x="46" y="98" text-anchor="start" dominant-baseline="alphabetic" fill-opacity="1">3</text></g></g></svg>