<svg version="1.1" xmlns="http://www.w3.org/2000/svg" xmlns:xlink="http://www.w3.org/1999/xlink" width="892" height="568"><defs><clipPath id="wEBlZzgolAMp"><path fill="none" stroke="none" d=" M 0 0 L 892 0 L 892 568 L 0 568 L 0 0 Z"/></clipPath></defs><g transform="scale(1,1)" clip-path="url(#wEBlZzgolAMp)"><g><rect fill="rgb(255,255,255)" stroke="none" x="0" y="0" width="892" height="568" fill-opacity="1"/><path fill="none" stroke="rgb(192,192,192)" paint-order="fill stroke markers" d=" M 147.5 0.5 L 147.5 486.5 M 227.5 0.5 L 227.5 486.5 M 307.5 0.5 L 307.5 486.5 M 386.5 0.5 L 386.5 486.5 M 466.5 0.5 L 466.5 486.5 M 546.5 0.5 L 546.5 486.5 M 626.5 0.5 L 626.5 486.5 M 705.5 0.5 L 705.5 486.5 M 785.5 0.5 L 785.5 486.5 M 865.5 0.5 L 865.5 486.5" stroke-opacity="1" stroke-linecap="round" stroke-linejoin="round" stroke-miterlimit="10"/><path fill="none" stroke="rgb(192,192,192)" paint-order="fill stroke markers" d=" M 83.5 0.5 L 83.5 486.5 M 99.5 0.5 L 99.5 486.5 M 115.5 0.5 L 115.5 486.5 M 131.5 0.5 L 131.5 486.5 M 163.5 0.5 L 163.5 486.5 M 179.5 0.5 L 179.5 486.5 M 195.5 0.5 L 195.5 486.5 M 211.5 0.5 L 211.5 486.5 M 243.5 0.5 L 243.5 486.5 M 259.5 0.5 L 259.5 486.5 M 275.5 0.5 L 275.5 486.5 M 291.5 0.5 L 291.5 486.5 M 323.5 0.5 L 323.5 486.5 M 339.5 0.5 L 339.5 486.5 M 354.5 0.5 L 354.5 486.5 M 370.5 0.5 L 370.5 486.5 M 402.5 0.5 L 402.5 486.5 M 418.5 0.5 L 418.5 486.5 M 434.5 0.5 L 434.5 486.5 M 450.5 0.5 L 450.5 486.5 M 482.5 0.5 L 482.5 486.5 M 498.5 0.5 L 498.5 486.5 M 514.5 0.5 L 514.5 486.5 M 530.5 0.5 L 530.5 486.5 M 562.5 0.5 L 562.5 486.5 M 578.5 0.5 L 578.5 486.5 M 594.5 0.5 L 594.5 486.5 M 610.5 0.5 L 610.5 486.5 M 641.5 0.5 L 641.5 486.5 M 657.5 0.5 L 657.5 486.5 M 673.5 0.5 L 673.5 486.5 M 689.5 0.5 L 689.5 486.5 M 721.5 0.5 L 721.5 486.5 M 737.5 0.5 L 737.5 486.5 M 753.5 0.5 L 753.5 486.5 M 769.5 0.5 L 769.5 486.5 M 801.5 0.5 L 801.5 486.5 M 817.5 0.5 L 817.5 486.5 M 833.5 0.5 L 833.5 486.5 M 849.5 0.5 L 849.5 486.5 M 881.5 0.5 L 881.5 486.5" stroke-opacity="0.23529411764705882" stroke-linecap="round" stroke-linejoin="round" stroke-miterlimit="10"/><path fill="none" stroke="rgb(192,192,192)" paint-order="fill stroke markers" d=" M 68.5 58.5 L 892.5 58.5 M 68.5 58.5 L 892.5 58.5 M 68.5 119.5 L 892.5 119.5 M 68.5 181.5 L 892.5 181.5 M 68.5 242.5 L 892.5 242.5 M 68.5 303.5 L 892.5 303.5 M 68.5 364.5 L 892.5 364.5 M 68.5 425.5 L 892.5 425.5" stroke-opacity="1" stroke-linecap="round" stroke-linejoin="round" stroke-miterlimit="10"/><path fill="none" stroke="rgb(192,192,192)" paint-order="fill stroke markers" d=" M 68.5 10.5 L 892.5 10.5 M 68.5 22.5 L 892.5 22.5 M 68.5 34.5 L 892.5 34.5 M 68.5 46.5 L 892.5 46.5 M 68.5 71.5 L 892.5 71.5 M 68.5 83.5 L 892.5 83.5 M 68.5 95.5 L 892.5 95.5 M 68.5 107.5 L 892.5 107.5 M 68.5 132.5 L 892.5 132.5 M 68.5 144.5 L 892.5 144.5 M 68.5 156.5 L 892.5 156.5 M 68.5 168.5 L 892.5 168.5 M 68.5 193.5 L 892.5 193.5 M 68.5 205.5 L 892.5 205.5 M 68.5 217.5 L 892.5 217.5 M 68.5 229.5 L 892.5 229.5 M 68.5 254.5 L 892.5 254.5 M 68.5 266.5 L 892.5 266.5 M 68.5 278.5 L 892.5 278.5 M 68.5 290.5 L 892.5 290.5 M 68.5 315.5 L 892.5 315.5 M 68.5 327.5 L 892.5 327.5 M 68.5 339.5 L 892.5 339.5 M 68.5 351.5 L 892.5 351.5 M 68.5 376.5 L 892.5 376.5 M 68.5 388.5 L 892.5 388.5 M 68.5 400.5 L 892.5 400.5 M 68.5 412.5 L 892.5 412.5 M 68.5 437.5 L 892.5 437.5 M 68.5 449.5 L 892.5 449.5 M 68.5 461.5 L 892.5 461.5 M 68.5 473.5 L 892.5 473.5" stroke-opacity="0.23529411764705882" stroke-linecap="round" stroke-linejoin="round" stroke-miterlimit="10"/><path fill="none" stroke="rgb(37,37,37)" paint-order="fill stroke markers" d=" M 68 3 L 68 486" stroke-opacity="1" stroke-miterlimit="10" stroke-width="2"/><path fill="none" stroke="rgb(37,37,37)" paint-order="fill stroke markers" d=" M 68 2 L 60 10" stroke-opacity="1" stroke-miterlimit="10" stroke-width="2"/><path fill="none" stroke="rgb(37,37,37)" paint-order="fill stroke markers" d=" M 68 2 L 76 10" stroke-opacity="1" stroke-miterlimit="10" stroke-width="2"/><path fill="none" stroke="rgb(37,37,37)" paint-order="fill stroke markers" d=" M 68 486 L 889 486" stroke-opacity="1" stroke-miterlimit="10" stroke-width="2"/><path fill="none" stroke="rgb(37,37,37)" paint-order="fill stroke markers" d=" M 890 486 L 882 478" stroke-opacity="1" stroke-miterlimit="10" stroke-width="2"/><path fill="none" stroke="rgb(37,37,37)" paint-order="fill stroke markers" d=" M 890 486 L 882 494" stroke-opacity="1" stroke-miterlimit="10" stroke-width="2"/><text fill="rgb(37,37,37)" stroke="none" font-family="geogebra-sans-serif, sans-serif" font-size="21px" font-style="normal" font-weight="normal" text-decoration="normal" x="127" y="511" text-anchor="start" dominant-baseline="alphabetic" fill-opacity="1">0.02</text><text fill="none" stroke="rgb(255,255,255)" font-family="geogebra-sans-serif, sans-serif" font-size="21px" font-style="normal" font-weight="normal" text-decoration="normal" x="127" y="511" text-anchor="start" dominant-baseline="alphabetic" stroke-opacity="1" stroke-linejoin="bevel" stroke-miterlimit="10" stroke-width="3">0.02</text><text fill="rgb(37,37,37)" stroke="none" font-family="geogebra-sans-serif, sans-serif" font-size="21px" font-style="normal" font-weight="normal" text-decoration="normal" x="127" y="511" text-anchor="start" dominant-baseline="alphabetic" fill-opacity="1">0.02</text><text fill="rgb(37,37,37)" stroke="none" font-family="geogebra-sans-serif, sans-serif" font-size="21px" font-style="normal" font-weight="normal" text-decoration="normal" x="207" y="511" text-anchor="start" dominant-baseline="alphabetic" fill-opacity="1">0.04</text><text fill="none" stroke="rgb(255,255,255)" font-family="geogebra-sans-serif, sans-serif" font-size="21px" font-style="normal" font-weight="normal" text-decoration="normal" x="207" y="511" text-anchor="start" dominant-baseline="alphabetic" stroke-opacity="1" stroke-linejoin="bevel" stroke-miterlimit="10" stroke-width="3">0.04</text><text fill="rgb(37,37,37)" stroke="none" font-family="geogebra-sans-serif, sans-serif" font-size="21px" font-style="normal" font-weight="normal" text-decoration="normal" x="207" y="511" text-anchor="start" dominant-baseline="alphabetic" fill-opacity="1">0.04</text><text fill="rgb(37,37,37)" stroke="none" font-family="geogebra-sans-serif, sans-serif" font-size="21px" font-style="normal" font-weight="normal" text-decoration="normal" x="287" y="511" text-anchor="start" dominant-baseline="alphabetic" fill-opacity="1">0.06</text><text fill="none" stroke="rgb(255,255,255)" font-family="geogebra-sans-serif, sans-serif" font-size="21px" font-style="normal" font-weight="normal" text-decoration="normal" x="287" y="511" text-anchor="start" dominant-baseline="alphabetic" stroke-opacity="1" stroke-linejoin="bevel" stroke-miterlimit="10" stroke-width="3">0.06</text><text fill="rgb(37,37,37)" stroke="none" font-family="geogebra-sans-serif, sans-serif" font-size="21px" font-style="normal" font-weight="normal" text-decoration="normal" x="287" y="511" text-anchor="start" dominant-baseline="alphabetic" fill-opacity="1">0.06</text><text fill="rgb(37,37,37)" stroke="none" font-family="geogebra-sans-serif, sans-serif" font-size="21px" font-style="normal" font-weight="normal" text-decoration="normal" x="366" y="511" text-anchor="start" dominant-baseline="alphabetic" fill-opacity="1">0.08</text><text fill="none" stroke="rgb(255,255,255)" font-family="geogebra-sans-serif, sans-serif" font-size="21px" font-style="normal" font-weight="normal" text-decoration="normal" x="366" y="511" text-anchor="start" dominant-baseline="alphabetic" stroke-opacity="1" stroke-linejoin="bevel" stroke-miterlimit="10" stroke-width="3">0.08</text><text fill="rgb(37,37,37)" stroke="none" font-family="geogebra-sans-serif, sans-serif" font-size="21px" font-style="normal" font-weight="normal" text-decoration="normal" x="366" y="511" text-anchor="start" dominant-baseline="alphabetic" fill-opacity="1">0.08</text><text fill="rgb(37,37,37)" stroke="none" font-family="geogebra-sans-serif, sans-serif" font-size="21px" font-style="normal" font-weight="normal" text-decoration="normal" x="451" y="511" text-anchor="start" dominant-baseline="alphabetic" fill-opacity="1">0.1</text><text fill="none" stroke="rgb(255,255,255)" font-family="geogebra-sans-serif, sans-serif" font-size="21px" font-style="normal" font-weight="normal" text-decoration="normal" x="451" y="511" text-anchor="start" dominant-baseline="alphabetic" stroke-opacity="1" stroke-linejoin="bevel" stroke-miterlimit="10" stroke-width="3">0.1</text><text fill="rgb(37,37,37)" stroke="none" font-family="geogebra-sans-serif, sans-serif" font-size="21px" font-style="normal" font-weight="normal" text-decoration="normal" x="451" y="511" text-anchor="start" dominant-baseline="alphabetic" fill-opacity="1">0.1</text><text fill="rgb(37,37,37)" stroke="none" font-family="geogebra-sans-serif, sans-serif" font-size="21px" font-style="normal" font-weight="normal" text-decoration="normal" x="526" y="511" text-anchor="start" dominant-baseline="alphabetic" fill-opacity="1">0.12</text><text fill="none" stroke="rgb(255,255,255)" font-family="geogebra-sans-serif, sans-serif" font-size="21px" font-style="normal" font-weight="normal" text-decoration="normal" x="526" y="511" text-anchor="start" dominant-baseline="alphabetic" stroke-opacity="1" stroke-linejoin="bevel" stroke-miterlimit="10" stroke-width="3">0.12</text><text fill="rgb(37,37,37)" stroke="none" font-family="geogebra-sans-serif, sans-serif" font-size="21px" font-style="normal" font-weight="normal" text-decoration="normal" x="526" y="511" text-anchor="start" dominant-baseline="alphabetic" fill-opacity="1">0.12</text><text fill="rgb(37,37,37)" stroke="none" font-family="geogebra-sans-serif, sans-serif" font-size="21px" font-style="normal" font-weight="normal" text-decoration="normal" x="606" y="511" text-anchor="start" dominant-baseline="alphabetic" fill-opacity="1">0.14</text><text fill="none" stroke="rgb(255,255,255)" font-family="geogebra-sans-serif, sans-serif" font-size="21px" font-style="normal" font-weight="normal" text-decoration="normal" x="606" y="511" text-anchor="start" dominant-baseline="alphabetic" stroke-opacity="1" stroke-linejoin="bevel" stroke-miterlimit="10" stroke-width="3">0.14</text><text fill="rgb(37,37,37)" stroke="none" font-family="geogebra-sans-serif, sans-serif" font-size="21px" font-style="normal" font-weight="normal" text-decoration="normal" x="606" y="511" text-anchor="start" dominant-baseline="alphabetic" fill-opacity="1">0.14</text><text fill="rgb(37,37,37)" stroke="none" font-family="geogebra-sans-serif, sans-serif" font-size="21px" font-style="normal" font-weight="normal" text-decoration="normal" x="685" y="511" text-anchor="start" dominant-baseline="alphabetic" fill-opacity="1">0.16</text><text fill="none" stroke="rgb(255,255,255)" font-family="geogebra-sans-serif, sans-serif" font-size="21px" font-style="normal" font-weight="normal" text-decoration="normal" x="685" y="511" text-anchor="start" dominant-baseline="alphabetic" stroke-opacity="1" stroke-linejoin="bevel" stroke-miterlimit="10" stroke-width="3">0.16</text><text fill="rgb(37,37,37)" stroke="none" font-family="geogebra-sans-serif, sans-serif" font-size="21px" font-style="normal" font-weight="normal" text-decoration="normal" x="685" y="511" text-anchor="start" dominant-baseline="alphabetic" fill-opacity="1">0.16</text><text fill="rgb(37,37,37)" stroke="none" font-family="geogebra-sans-serif, sans-serif" font-size="21px" font-style="normal" font-weight="normal" text-decoration="normal" x="765" y="511" text-anchor="start" dominant-baseline="alphabetic" fill-opacity="1">0.18</text><text fill="none" stroke="rgb(255,255,255)" font-family="geogebra-sans-serif, sans-serif" font-size="21px" font-style="normal" font-weight="normal" text-decoration="normal" x="765" y="511" text-anchor="start" dominant-baseline="alphabetic" stroke-opacity="1" stroke-linejoin="bevel" stroke-miterlimit="10" stroke-width="3">0.18</text><text fill="rgb(37,37,37)" stroke="none" font-family="geogebra-sans-serif, sans-serif" font-size="21px" font-style="normal" font-weight="normal" text-decoration="normal" x="765" y="511" text-anchor="start" dominant-baseline="alphabetic" fill-opacity="1">0.18</text><text fill="rgb(37,37,37)" stroke="none" font-family="geogebra-sans-serif, sans-serif" font-size="21px" font-style="normal" font-weight="normal" text-decoration="normal" x="850" y="511" text-anchor="start" dominant-baseline="alphabetic" fill-opacity="1">0.2</text><text fill="none" stroke="rgb(255,255,255)" font-family="geogebra-sans-serif, sans-serif" font-size="21px" font-style="normal" font-weight="normal" text-decoration="normal" x="850" y="511" text-anchor="start" dominant-baseline="alphabetic" stroke-opacity="1" stroke-linejoin="bevel" stroke-miterlimit="10" stroke-width="3">0.2</text><text fill="rgb(37,37,37)" stroke="none" font-family="geogebra-sans-serif, sans-serif" font-size="21px" font-style="normal" font-weight="normal" text-decoration="normal" x="850" y="511" text-anchor="start" dominant-baseline="alphabetic" fill-opacity="1">0.2</text><text fill="rgb(37,37,37)" stroke="none" font-family="geogebra-sans-serif, sans-serif" font-size="21px" font-style="normal" font-weight="normal" text-decoration="normal" x="45" y="434" text-anchor="start" dominant-baseline="alphabetic" fill-opacity="1">2</text><text fill="none" stroke="rgb(255,255,255)" font-family="geogebra-sans-serif, sans-serif" font-size="21px" font-style="normal" font-weight="normal" text-decoration="normal" x="45" y="434" text-anchor="start" dominant-baseline="alphabetic" stroke-opacity="1" stroke-linejoin="bevel" stroke-miterlimit="10" stroke-width="3">2</text><text fill="rgb(37,37,37)" stroke="none" font-family="geogebra-sans-serif, sans-serif" font-size="21px" font-style="normal" font-weight="normal" text-decoration="normal" x="45" y="434" text-anchor="start" dominant-baseline="alphabetic" fill-opacity="1">2</text><text fill="rgb(37,37,37)" stroke="none" font-family="geogebra-sans-serif, sans-serif" font-size="21px" font-style="normal" font-weight="normal" text-decoration="normal" x="45" y="373" text-anchor="start" dominant-baseline="alphabetic" fill-opacity="1">4</text><text fill="none" stroke="rgb(255,255,255)" font-family="geogebra-sans-serif, sans-serif" font-size="21px" font-style="normal" font-weight="normal" text-decoration="normal" x="45" y="373" text-anchor="start" dominant-baseline="alphabetic" stroke-opacity="1" stroke-linejoin="bevel" stroke-miterlimit="10" stroke-width="3">4</text><text fill="rgb(37,37,37)" stroke="none" font-family="geogebra-sans-serif, sans-serif" font-size="21px" font-style="normal" font-weight="normal" text-decoration="normal" x="45" y="373" text-anchor="start" dominant-baseline="alphabetic" fill-opacity="1">4</text><text fill="rgb(37,37,37)" stroke="none" font-family="geogebra-sans-serif, sans-serif" font-size="21px" font-style="normal" font-weight="normal" text-decoration="normal" x="45" y="312" text-anchor="start" dominant-baseline="alphabetic" fill-opacity="1">6</text><text fill="none" stroke="rgb(255,255,255)" font-family="geogebra-sans-serif, sans-serif" font-size="21px" font-style="normal" font-weight="normal" text-decoration="normal" x="45" y="312" text-anchor="start" dominant-baseline="alphabetic" stroke-opacity="1" stroke-linejoin="bevel" stroke-miterlimit="10" stroke-width="3">6</text><text fill="rgb(37,37,37)" stroke="none" font-family="geogebra-sans-serif, sans-serif" font-size="21px" font-style="normal" font-weight="normal" text-decoration="normal" x="45" y="312" text-anchor="start" dominant-baseline="alphabetic" fill-opacity="1">6</text><text fill="rgb(37,37,37)" stroke="none" font-family="geogebra-sans-serif, sans-serif" font-size="21px" font-style="normal" font-weight="normal" text-decoration="normal" x="45" y="251" text-anchor="start" dominant-baseline="alphabetic" fill-opacity="1">8</text><text fill="none" stroke="rgb(255,255,255)" font-family="geogebra-sans-serif, sans-serif" font-size="21px" font-style="normal" font-weight="normal" text-decoration="normal" x="45" y="251" text-anchor="start" dominant-baseline="alphabetic" stroke-opacity="1" stroke-linejoin="bevel" stroke-miterlimit="10" stroke-width="3">8</text><text fill="rgb(37,37,37)" stroke="none" font-family="geogebra-sans-serif, sans-serif" font-size="21px" font-style="normal" font-weight="normal" text-decoration="normal" x="45" y="251" text-anchor="start" dominant-baseline="alphabetic" fill-opacity="1">8</text><text fill="rgb(37,37,37)" stroke="none" font-family="geogebra-sans-serif, sans-serif" font-size="21px" font-style="normal" font-weight="normal" text-decoration="normal" x="31" y="190" text-anchor="start" dominant-baseline="alphabetic" fill-opacity="1">10</text><text fill="none" stroke="rgb(255,255,255)" font-family="geogebra-sans-serif, sans-serif" font-size="21px" font-style="normal" font-weight="normal" text-decoration="normal" x="31" y="190" text-anchor="start" dominant-baseline="alphabetic" stroke-opacity="1" stroke-linejoin="bevel" stroke-miterlimit="10" stroke-width="3">10</text><text fill="rgb(37,37,37)" stroke="none" font-family="geogebra-sans-serif, sans-serif" font-size="21px" font-style="normal" font-weight="normal" text-decoration="normal" x="31" y="190" text-anchor="start" dominant-baseline="alphabetic" fill-opacity="1">10</text><text fill="rgb(37,37,37)" stroke="none" font-family="geogebra-sans-serif, sans-serif" font-size="21px" font-style="normal" font-weight="normal" text-decoration="normal" x="31" y="129" text-anchor="start" dominant-baseline="alphabetic" fill-opacity="1">12</text><text fill="none" stroke="rgb(255,255,255)" font-family="geogebra-sans-serif, sans-serif" font-size="21px" font-style="normal" font-weight="normal" text-decoration="normal" x="31" y="129" text-anchor="start" dominant-baseline="alphabetic" stroke-opacity="1" stroke-linejoin="bevel" stroke-miterlimit="10" stroke-width="3">12</text><text fill="rgb(37,37,37)" stroke="none" font-family="geogebra-sans-serif, sans-serif" font-size="21px" font-style="normal" font-weight="normal" text-decoration="normal" x="31" y="129" text-anchor="start" dominant-baseline="alphabetic" fill-opacity="1">12</text><text fill="rgb(37,37,37)" stroke="none" font-family="geogebra-sans-serif, sans-serif" font-size="21px" font-style="normal" font-weight="normal" text-decoration="normal" x="31" y="68" text-anchor="start" dominant-baseline="alphabetic" fill-opacity="1">14</text><text fill="none" stroke="rgb(255,255,255)" font-family="geogebra-sans-serif, sans-serif" font-size="21px" font-style="normal" font-weight="normal" text-decoration="normal" x="31" y="68" text-anchor="start" dominant-baseline="alphabetic" stroke-opacity="1" stroke-linejoin="bevel" stroke-miterlimit="10" stroke-width="3">14</text><text fill="rgb(37,37,37)" stroke="none" font-family="geogebra-sans-serif, sans-serif" font-size="21px" font-style="normal" font-weight="normal" text-decoration="normal" x="31" y="68" text-anchor="start" dominant-baseline="alphabetic" fill-opacity="1">14</text><text fill="rgb(37,37,37)" stroke="none" font-family="geogebra-sans-serif, sans-serif" font-size="21px" font-style="normal" font-weight="normal" text-decoration="normal" x="45" y="511" text-anchor="start" dominant-baseline="alphabetic" fill-opacity="1">0</text><text fill="none" stroke="rgb(255,255,255)" font-family="geogebra-sans-serif, sans-serif" font-size="21px" font-style="normal" font-weight="normal" text-decoration="normal" x="45" y="511" text-anchor="start" dominant-baseline="alphabetic" stroke-opacity="1" stroke-linejoin="bevel" stroke-miterlimit="10" stroke-width="3">0</text><text fill="rgb(37,37,37)" stroke="none" font-family="geogebra-sans-serif, sans-serif" font-size="21px" font-style="normal" font-weight="normal" text-decoration="normal" x="45" y="511" text-anchor="start" dominant-baseline="alphabetic" fill-opacity="1">0</text><path fill="none" stroke="rgb(204,0,0)" paint-order="fill stroke markers" d=" M 67.99996014285716 486.00018300004604 L 69.6875 478.33345038974556 M 69.6875 478.33345038974556 L 71.4296875 470.5868903750028 L 73.171875 463.0077978182847 L 74.9140625 455.592552357851 L 76.65625 448.33761189802726 L 78.3984375 441.23951091722586 L 80.140625 434.2948588125444 L 81.8828125 427.500338280151 L 83.625 420.8527037306832 M 83.625 420.8527037306832 L 85.3671875 414.3487797389026 L 87.109375 407.98545952686646 L 88.8515625 401.75970347988925 L 90.59375 395.6685376945876 L 92.3359375 389.7090525583135 L 94.078125 383.8784013592978 L 95.8203125 378.17379892684045 L 97.5625 372.5925203008968 L 99.3046875 367.1318994304261 L 101.046875 361.78932789987834 L 102.7890625 356.56225368321367 L 104.53125 351.44817992485633 L 108.015625 341.5493150827176 L 111.5 332.0738172560151 M 111.5 332.0738172560151 L 114.984375 323.00357935543934 L 118.46875 314.32126871829246 L 121.953125 306.01029398684364 L 125.4375 298.0547734032726 L 128.921875 290.43950446061393 L 132.40625 283.14993485170845 L 135.890625 276.17213466064567 L 139.375 269.49276974355735 L 142.859375 263.099076247895 L 146.34375 256.97883622149817 L 149.828125 251.12035426484465 L 153.3125 245.51243518186698 L 156.796875 240.14436258662616 L 160.28125 235.0058784249618 L 163.765625 230.08716337198646 L 167.25 225.37881806796406 L 170.734375 220.8718451567155 L 174.21875 216.55763209222886 L 177.703125 212.4279346806171 L 181.1875 208.4748613259746 L 184.671875 204.6908579500261 L 188.15625 201.06869355675127 L 191.640625 197.60144641439922 L 195.125 194.28249082848794 L 198.609375 191.1054844805126 L 202.09375 188.06435630816782 L 205.578125 185.15329490392406 L 209.0625 182.36673740978716 L 212.546875 179.69935888702207 L 216.03125 177.14606214052424 L 219.515625 174.70196797839623 L 223 172.36240588811341 M 223 172.36240588811341 L 226.484375 170.12290511146472 L 229.96875 167.97918610121013 L 233.453125 165.9271523431313 L 236.9375 163.96288252784672 L 240.421875 162.08262305743187 L 243.90625 160.2827808725271 L 247.390625 158.55991658622293 L 250.875 156.91073791160517 L 254.359375 155.33209337039858 L 257.84375 153.82096627068688 L 261.328125 152.37446894220164 L 264.8125 150.98983721816336 L 268.296875 149.6644251531298 L 271.78125 148.395699966758 L 275.265625 147.1812372038185 L 278.75 146.0187161012111 L 282.234375 144.9059151531307 L 285.71875 143.840707865907 L 289.203125 142.82105869440716 L 292.6875 141.84501915223495 L 296.171875 140.910724088294 L 299.65625 140.01638812259972 L 303.140625 139.16030223452867 L 306.625 138.34083049698592 L 310.109375 137.55640695024994 L 313.59375 136.8055326095204 L 317.078125 136.0867726004514 L 320.5625 135.398753417195 L 324.04687499999994 134.74016029771695 L 327.53124999999994 134.10973471136788 L 331.01562499999994 133.5062719539091 L 334.49999999999994 132.92861884539764 L 337.98437499999994 132.37567152653048 L 341.46875 131.84637334923826 L 344.953125 131.33971285749584 L 348.4375 130.8547218544927 L 351.921875 130.39047355246873 L 355.40625 129.9460808016807 L 358.890625 129.52069439511314 L 362.375 129.1135014456973 L 365.859375 128.72372383293367 L 369.34375 128.3506167159523 L 372.828125 127.99346711016773 L 376.3125 127.65159252480987 L 379.796875 127.32433965872644 L 383.28125 127.01108315196456 L 386.765625 126.71122439074713 L 390.25 126.4241903635587 L 393.734375 126.1494325661559 L 397.21875 125.88642595341008 L 400.703125 125.63466793597831 L 404.1875 125.39367741988661 L 407.671875 125.16299388718875 L 411.15625 124.94217651594539 L 414.640625 124.73080333784037 L 418.125 124.52847043182561 L 421.609375 124.33479115225288 L 425.09375 124.14939539001801 L 428.578125 123.97192886530513 L 432.0625 123.80205245058022 L 435.546875 123.63944152253907 L 439.03125 123.48378534177243 L 442.515625 123.33478645896236 L 446 123.19216014647469 M 446 123.19216014647469 L 449.484375 123.0556338542624 L 452.96875 122.92494668903947 L 456.453125 122.7998489157294 L 459.9375 122.68010148023774 L 463.421875 122.56547555263398 L 466.90625 122.45575208987191 L 470.390625 122.3507214172119 L 473.875 122.25018282754547 L 477.359375 122.1539441978565 L 480.84375 122.06182162208592 L 484.328125 121.97363905969871 L 487.81249999999994 121.88922799928133 L 491.29687499999994 121.80842713652692 L 494.78124999999994 121.73108206599255 L 498.26562499999994 121.65704498604032 L 501.74999999999994 121.58617441639706 L 505.23437499999994 121.51833492779508 L 508.71875 121.45339688317432 L 512.203125 121.39123618995478 L 515.6875 121.3317340629028 L 519.171875 121.27477679713968 L 522.65625 121.22025555085952 L 526.140625 121.16806613733831 L 529.625 121.11810882584018 L 533.109375 121.07028815103774 L 536.59375 121.0245127305842 L 540.078125 120.98069509048696 L 543.5625 120.93875149795048 L 547.046875 120.89860180136793 L 550.53125 120.86016927715656 L 554.015625 120.82338048314364 L 557.5 120.78816511822288 L 560.984375 120.7544558880137 L 564.46875 120.72218837626559 L 567.953125 120.69130092176266 L 571.4375 120.66173450049291 L 574.921875 120.63343261285706 L 578.40625 120.60634117570117 L 581.890625 120.5804084189673 L 585.375 120.55558478676386 L 588.859375 120.5318228426678 L 592.34375 120.50907717907586 L 595.828125 120.4873043304342 L 599.3125 120.46646269017799 L 602.7968749999999 120.44651243122377 L 606.2812499999999 120.42741542986278 L 609.7656249999999 120.4091351929086 L 613.2499999999999 120.39163678796075 L 616.7343749999999 120.37488677665158 L 620.2187499999999 120.35885315074711 L 623.7031249999999 120.34350527098161 L 627.1874999999999 120.32881380850779 L 630.671875 120.31475068885095 L 634.15625 120.30128903826062 L 637.640625 120.28840313235662 L 641.125 120.2760683469711 L 644.609375 120.26426111109333 L 648.09375 120.25295886182698 L 651.578125 120.24214000127398 L 655.0625 120.23178385526211 L 658.546875 120.22187063383785 L 662.03125 120.21238139344933 L 665.515625 120.20329800074597 L 669 120.19460309792703 L 672.484375 120.18628006957198 L 675.96875 120.17831301088916 L 679.453125 120.17068669732328 L 682.9375 120.16338655546122 L 686.421875 120.15639863518436 L 689.90625 120.14970958301001 L 693.390625 120.14330661657374 L 696.875 120.13717750020345 L 700.359375 120.1313105215375 L 703.84375 120.12569446914307 L 707.328125 120.12031861109199 L 710.8125 120.1151726744526 L 714.296875 120.1102468256588 L 717.78125 120.1055316517187 L 721.265625 120.10101814222696 L 724.75 120.09669767214666 L 728.234375 120.09256198532705 L 731.71875 120.08860317872694 L 735.203125 120.08481368731213 L 738.6875 120.0811862695993 L 742.171875 120.0777139938179 L 745.65625 120.07439022466406 L 749.140625 120.07120861062083 L 752.625 120.06816307182089 L 756.109375 120.06524778842828 L 759.59375 120.06245718951709 L 763.078125 120.0597859424256 L 766.5625 120.05722894256621 L 770.046875 120.0547813036705 L 773.53125 120.05243834845226 L 777.015625 120.05019559966922 L 780.5 120.04804877156727 L 783.984375 120.04599376169102 L 787.46875 120.04402664304399 L 790.953125 120.04214365658413 L 794.4375 120.04034120404111 L 797.921875 120.03861584103976 L 801.40625 120.03696427051835 L 804.8906250000001 120.03538333642774 L 808.3750000000001 120.0338700177009 L 811.8593750000001 120.03242142247956 L 815.3437500000001 120.031034782588 L 818.8281250000001 120.0297074482433 L 822.3125000000001 120.02843688299163 L 825.7968750000001 120.02722065886167 L 829.2812500000001 120.0260564517244 L 832.7656250000001 120.024942036852 L 836.2500000000001 120.02387528466687 L 839.7343750000001 120.02285415667149 L 843.2187500000001 120.02187670155371 L 846.7031250000001 120.02094105145721 L 850.1875 120.02004541841274 L 853.671875 120.01918809092103 L 857.15625 120.01836743068219 L 860.640625 120.01758186946552 L 864.125 120.01682990611215 L 867.609375 120.01611010366668 L 871.09375 120.01542108663125 L 874.578125 120.01476153833693 L 878.0625 120.01413019842795 L 881.546875 120.01352586045266 L 885.03125 120.01294736955873 L 888.515625 120.01239362028599 L 892 120.01186355445373" stroke-opacity="0.6980392156862745" stroke-linecap="round" stroke-linejoin="round" stroke-miterlimit="10" stroke-width="2.5"/><path fill="none" stroke="rgb(255,102,0)" paint-order="fill stroke markers" d=" M 79.95718271428574 119.99999999999994 L 80.140625 119.99999999999994 M 80.140625 119.99999999999994 L 83.625 119.99999999999994 M 83.625 119.99999999999994 L 87.109375 119.99999999999994 L 90.59375 119.99999999999994 L 94.078125 119.99999999999994 L 97.5625 119.99999999999994 L 101.046875 119.99999999999994 L 104.53125 119.99999999999994 L 108.015625 119.99999999999994 L 111.5 119.99999999999994 M 111.5 119.99999999999994 L 114.984375 119.99999999999994 L 118.46875 119.99999999999994 L 121.953125 119.99999999999994 L 125.4375 119.99999999999994 L 128.921875 119.99999999999994 L 132.40625 119.99999999999994 L 135.890625 119.99999999999994 L 139.375 119.99999999999994 L 142.859375 119.99999999999994 L 146.34375 119.99999999999994 L 149.828125 119.99999999999994 L 153.3125 119.99999999999994 L 156.796875 119.99999999999994 L 160.28125 119.99999999999994 L 163.765625 119.99999999999994 L 167.25 119.99999999999994 L 170.734375 119.99999999999994 L 174.21875 119.99999999999994 L 177.703125 119.99999999999994 L 181.1875 119.99999999999994 L 184.671875 119.99999999999994 L 188.15625 119.99999999999994 L 191.640625 119.99999999999994 L 195.125 119.99999999999994 L 198.609375 119.99999999999994 L 202.09375 119.99999999999994 L 205.578125 119.99999999999994 L 209.0625 119.99999999999994 L 212.546875 119.99999999999994 L 216.03125 119.99999999999994 L 219.515625 119.99999999999994 L 223 119.99999999999994 M 223 119.99999999999994 L 226.484375 119.99999999999994 L 229.96875 119.99999999999994 L 233.453125 119.99999999999994 L 236.9375 119.99999999999994 L 240.421875 119.99999999999994 L 243.90625 119.99999999999994 L 247.390625 119.99999999999994 L 250.875 119.99999999999994 L 254.359375 119.99999999999994 L 257.84375 119.99999999999994 L 261.328125 119.99999999999994 L 264.8125 119.99999999999994 L 268.296875 119.99999999999994 L 271.78125 119.99999999999994 L 275.265625 119.99999999999994 L 278.75 119.99999999999994 L 282.234375 119.99999999999994 L 285.71875 119.99999999999994 L 289.203125 119.99999999999994 L 292.6875 119.99999999999994 L 296.171875 119.99999999999994 L 299.65625 119.99999999999994 L 303.140625 119.99999999999994 L 306.625 119.99999999999994 L 310.109375 119.99999999999994 L 313.59375 119.99999999999994 L 317.078125 119.99999999999994 L 320.5625 119.99999999999994 L 324.04687499999994 119.99999999999994 L 327.53124999999994 119.99999999999994 L 331.01562499999994 119.99999999999994 L 334.49999999999994 119.99999999999994 L 337.98437499999994 119.99999999999994 L 341.46875 119.99999999999994 L 344.953125 119.99999999999994 L 348.4375 119.99999999999994 L 351.921875 119.99999999999994 L 355.40625 119.99999999999994 L 358.890625 119.99999999999994 L 362.375 119.99999999999994 L 365.859375 119.99999999999994 L 369.34375 119.99999999999994 L 372.828125 119.99999999999994 L 376.3125 119.99999999999994 L 379.796875 119.99999999999994 L 383.28125 119.99999999999994 L 386.765625 119.99999999999994 L 390.25 119.99999999999994 L 393.734375 119.99999999999994 L 397.21875 119.99999999999994 L 400.703125 119.99999999999994 L 404.1875 119.99999999999994 L 407.671875 119.99999999999994 L 411.15625 119.99999999999994 L 414.640625 119.99999999999994 L 418.125 119.99999999999994 L 421.609375 119.99999999999994 L 425.09375 119.99999999999994 L 428.578125 119.99999999999994 L 432.0625 119.99999999999994 L 435.546875 119.99999999999994 L 439.03125 119.99999999999994 L 442.515625 119.99999999999994 L 446 119.99999999999994 M 446 119.99999999999994 L 449.484375 119.99999999999994 L 452.96875 119.99999999999994 L 456.453125 119.99999999999994 L 459.9375 119.99999999999994 L 463.421875 119.99999999999994 L 466.90625 119.99999999999994 L 470.390625 119.99999999999994 L 473.875 119.99999999999994 L 477.359375 119.99999999999994 L 480.84375 119.99999999999994 L 484.328125 119.99999999999994 L 487.81249999999994 119.99999999999994 L 491.29687499999994 119.99999999999994 L 494.78124999999994 119.99999999999994 L 498.26562499999994 119.99999999999994 L 501.74999999999994 119.99999999999994 L 505.23437499999994 119.99999999999994 L 508.71875 119.99999999999994 L 512.203125 119.99999999999994 L 515.6875 119.99999999999994 L 519.171875 119.99999999999994 L 522.65625 119.99999999999994 L 526.140625 119.99999999999994 L 529.625 119.99999999999994 L 533.109375 119.99999999999994 L 536.59375 119.99999999999994 L 540.078125 119.99999999999994 L 543.5625 119.99999999999994 L 547.046875 119.99999999999994 L 550.53125 119.99999999999994 L 554.015625 119.99999999999994 L 557.5 119.99999999999994 L 560.984375 119.99999999999994 L 564.46875 119.99999999999994 L 567.953125 119.99999999999994 L 571.4375 119.99999999999994 L 574.921875 119.99999999999994 L 578.40625 119.99999999999994 L 581.890625 119.99999999999994 L 585.375 119.99999999999994 L 588.859375 119.99999999999994 L 592.34375 119.99999999999994 L 595.828125 119.99999999999994 L 599.3125 119.99999999999994 L 602.7968749999999 119.99999999999994 L 606.2812499999999 119.99999999999994 L 609.7656249999999 119.99999999999994 L 613.2499999999999 119.99999999999994 L 616.7343749999999 119.99999999999994 L 620.2187499999999 119.99999999999994 L 623.7031249999999 119.99999999999994 L 627.1874999999999 119.99999999999994 L 630.671875 119.99999999999994 L 634.15625 119.99999999999994 L 637.640625 119.99999999999994 L 641.125 119.99999999999994 L 644.609375 119.99999999999994 L 648.09375 119.99999999999994 L 651.578125 119.99999999999994 L 655.0625 119.99999999999994 L 658.546875 119.99999999999994 L 662.03125 119.99999999999994 L 665.515625 119.99999999999994 L 669 119.99999999999994 L 672.484375 119.99999999999994 L 675.96875 119.99999999999994 L 679.453125 119.99999999999994 L 682.9375 119.99999999999994 L 686.421875 119.99999999999994 L 689.90625 119.99999999999994 L 693.390625 119.99999999999994 L 696.875 119.99999999999994 L 700.359375 119.99999999999994 L 703.84375 119.99999999999994 L 707.328125 119.99999999999994 L 710.8125 119.99999999999994 L 714.296875 119.99999999999994 L 717.78125 119.99999999999994 L 721.265625 119.99999999999994 L 724.75 119.99999999999994 L 728.234375 119.99999999999994 L 731.71875 119.99999999999994 L 735.203125 119.99999999999994 L 738.6875 119.99999999999994 L 742.171875 119.99999999999994 L 745.65625 119.99999999999994 L 749.140625 119.99999999999994 L 752.625 119.99999999999994 L 756.109375 119.99999999999994 L 759.59375 119.99999999999994 L 763.078125 119.99999999999994 L 766.5625 119.99999999999994 L 770.046875 119.99999999999994 L 773.53125 119.99999999999994 L 777.015625 119.99999999999994 L 780.5 119.99999999999994 L 783.984375 119.99999999999994 L 787.46875 119.99999999999994 L 790.953125 119.99999999999994 L 794.4375 119.99999999999994 L 797.921875 119.99999999999994 L 801.40625 119.99999999999994 L 804.8906250000001 119.99999999999994 L 808.3750000000001 119.99999999999994 L 811.8593750000001 119.99999999999994 L 815.3437500000001 119.99999999999994 L 818.8281250000001 119.99999999999994 L 822.3125000000001 119.99999999999994 L 825.7968750000001 119.99999999999994 L 829.2812500000001 119.99999999999994 L 832.7656250000001 119.99999999999994 L 836.2500000000001 119.99999999999994 L 839.7343750000001 119.99999999999994 L 843.2187500000001 119.99999999999994 L 846.7031250000001 119.99999999999994 L 850.1875 119.99999999999994 L 853.671875 119.99999999999994 L 857.15625 119.99999999999994 L 860.640625 119.99999999999994 L 864.125 119.99999999999994 L 867.609375 119.99999999999994 L 871.09375 119.99999999999994 L 874.578125 119.99999999999994 L 878.0625 119.99999999999994 L 881.546875 119.99999999999994 L 885.03125 119.99999999999994 L 888.515625 119.99999999999994 L 892 119.99999999999994" stroke-opacity="0.6980392156862745" stroke-linejoin="round" stroke-miterlimit="10" stroke-width="2.5" stroke-dasharray="10.5,4,2.5,4"/></g></g></svg>