<svg version="1.1" xmlns="http://www.w3.org/2000/svg" xmlns:xlink="http://www.w3.org/1999/xlink" width="892" height="568"><defs><clipPath id="IXtBXRksmDGU"><path fill="none" stroke="none" d=" M 0 0 L 892 0 L 892 568 L 0 568 L 0 0 Z"/></clipPath></defs><g transform="scale(1,1)" clip-path="url(#IXtBXRksmDGU)"><g><rect fill="rgb(255,255,255)" stroke="none" x="0" y="0" width="892" height="568" fill-opacity="1"/><path fill="none" stroke="rgb(192,192,192)" paint-order="fill stroke markers" d=" M 147.5 0.5 L 147.5 486.5 M 227.5 0.5 L 227.5 486.5 M 307.5 0.5 L 307.5 486.5 M 386.5 0.5 L 386.5 486.5 M 466.5 0.5 L 466.5 486.5 M 546.5 0.5 L 546.5 486.5 M 626.5 0.5 L 626.5 486.5 M 705.5 0.5 L 705.5 486.5 M 785.5 0.5 L 785.5 486.5 M 865.5 0.5 L 865.5 486.5" stroke-opacity="1" stroke-linecap="round" stroke-linejoin="round" stroke-miterlimit="10"/><path fill="none" stroke="rgb(192,192,192)" paint-order="fill stroke markers" d=" M 83.5 0.5 L 83.5 486.5 M 99.5 0.5 L 99.5 486.5 M 115.5 0.5 L 115.5 486.5 M 131.5 0.5 L 131.5 486.5 M 163.5 0.5 L 163.5 486.5 M 179.5 0.5 L 179.5 486.5 M 195.5 0.5 L 195.5 486.5 M 211.5 0.5 L 211.5 486.5 M 243.5 0.5 L 243.5 486.5 M 259.5 0.5 L 259.5 486.5 M 275.5 0.5 L 275.5 486.5 M 291.5 0.5 L 291.5 486.5 M 323.5 0.5 L 323.5 486.5 M 339.5 0.5 L 339.5 486.5 M 354.5 0.5 L 354.5 486.5 M 370.5 0.5 L 370.5 486.5 M 402.5 0.5 L 402.5 486.5 M 418.5 0.5 L 418.5 486.5 M 434.5 0.5 L 434.5 486.5 M 450.5 0.5 L 450.5 486.5 M 482.5 0.5 L 482.5 486.5 M 498.5 0.5 L 498.5 486.5 M 514.5 0.5 L 514.5 486.5 M 530.5 0.5 L 530.5 486.5 M 562.5 0.5 L 562.5 486.5 M 578.5 0.5 L 578.5 486.5 M 594.5 0.5 L 594.5 486.5 M 610.5 0.5 L 610.5 486.5 M 641.5 0.5 L 641.5 486.5 M 657.5 0.5 L 657.5 486.5 M 673.5 0.5 L 673.5 486.5 M 689.5 0.5 L 689.5 486.5 M 721.5 0.5 L 721.5 486.5 M 737.5 0.5 L 737.5 486.5 M 753.5 0.5 L 753.5 486.5 M 769.5 0.5 L 769.5 486.5 M 801.5 0.5 L 801.5 486.5 M 817.5 0.5 L 817.5 486.5 M 833.5 0.5 L 833.5 486.5 M 849.5 0.5 L 849.5 486.5 M 881.5 0.5 L 881.5 486.5" stroke-opacity="0.23529411764705882" stroke-linecap="round" stroke-linejoin="round" stroke-miterlimit="10"/><path fill="none" stroke="rgb(192,192,192)" paint-order="fill stroke markers" d=" M 68.5 44.5 L 892.5 44.5 M 68.5 44.5 L 892.5 44.5 M 68.5 118.5 L 892.5 118.5 M 68.5 191.5 L 892.5 191.5 M 68.5 265.5 L 892.5 265.5 M 68.5 339.5 L 892.5 339.5 M 68.5 412.5 L 892.5 412.5" stroke-opacity="1" stroke-linecap="round" stroke-linejoin="round" stroke-miterlimit="10"/><path fill="none" stroke="rgb(192,192,192)" paint-order="fill stroke markers" d=" M 68.5 0.5 L 892.5 0.5 M 68.5 0.5 L 892.5 0.5 M 68.5 15.5 L 892.5 15.5 M 68.5 30.5 L 892.5 30.5 M 68.5 59.5 L 892.5 59.5 M 68.5 74.5 L 892.5 74.5 M 68.5 89.5 L 892.5 89.5 M 68.5 103.5 L 892.5 103.5 M 68.5 133.5 L 892.5 133.5 M 68.5 147.5 L 892.5 147.5 M 68.5 162.5 L 892.5 162.5 M 68.5 177.5 L 892.5 177.5 M 68.5 206.5 L 892.5 206.5 M 68.5 221.5 L 892.5 221.5 M 68.5 236.5 L 892.5 236.5 M 68.5 250.5 L 892.5 250.5 M 68.5 280.5 L 892.5 280.5 M 68.5 294.5 L 892.5 294.5 M 68.5 309.5 L 892.5 309.5 M 68.5 324.5 L 892.5 324.5 M 68.5 353.5 L 892.5 353.5 M 68.5 368.5 L 892.5 368.5 M 68.5 383.5 L 892.5 383.5 M 68.5 397.5 L 892.5 397.5 M 68.5 427.5 L 892.5 427.5 M 68.5 441.5 L 892.5 441.5 M 68.5 456.5 L 892.5 456.5 M 68.5 471.5 L 892.5 471.5" stroke-opacity="0.23529411764705882" stroke-linecap="round" stroke-linejoin="round" stroke-miterlimit="10"/><path fill="none" stroke="rgb(37,37,37)" paint-order="fill stroke markers" d=" M 68 3 L 68 486" stroke-opacity="1" stroke-miterlimit="10" stroke-width="2"/><path fill="none" stroke="rgb(37,37,37)" paint-order="fill stroke markers" d=" M 68 2 L 60 10" stroke-opacity="1" stroke-miterlimit="10" stroke-width="2"/><path fill="none" stroke="rgb(37,37,37)" paint-order="fill stroke markers" d=" M 68 2 L 76 10" stroke-opacity="1" stroke-miterlimit="10" stroke-width="2"/><path fill="none" stroke="rgb(37,37,37)" paint-order="fill stroke markers" d=" M 68 486 L 889 486" stroke-opacity="1" stroke-miterlimit="10" stroke-width="2"/><path fill="none" stroke="rgb(37,37,37)" paint-order="fill stroke markers" d=" M 890 486 L 882 478" stroke-opacity="1" stroke-miterlimit="10" stroke-width="2"/><path fill="none" stroke="rgb(37,37,37)" paint-order="fill stroke markers" d=" M 890 486 L 882 494" stroke-opacity="1" stroke-miterlimit="10" stroke-width="2"/><text fill="rgb(37,37,37)" stroke="none" font-family="geogebra-sans-serif, sans-serif" font-size="21px" font-style="normal" font-weight="normal" text-decoration="normal" x="127" y="511" text-anchor="start" dominant-baseline="alphabetic" fill-opacity="1">0.02</text><text fill="none" stroke="rgb(255,255,255)" font-family="geogebra-sans-serif, sans-serif" font-size="21px" font-style="normal" font-weight="normal" text-decoration="normal" x="127" y="511" text-anchor="start" dominant-baseline="alphabetic" stroke-opacity="1" stroke-linejoin="bevel" stroke-miterlimit="10" stroke-width="3">0.02</text><text fill="rgb(37,37,37)" stroke="none" font-family="geogebra-sans-serif, sans-serif" font-size="21px" font-style="normal" font-weight="normal" text-decoration="normal" x="127" y="511" text-anchor="start" dominant-baseline="alphabetic" fill-opacity="1">0.02</text><text fill="rgb(37,37,37)" stroke="none" font-family="geogebra-sans-serif, sans-serif" font-size="21px" font-style="normal" font-weight="normal" text-decoration="normal" x="207" y="511" text-anchor="start" dominant-baseline="alphabetic" fill-opacity="1">0.04</text><text fill="none" stroke="rgb(255,255,255)" font-family="geogebra-sans-serif, sans-serif" font-size="21px" font-style="normal" font-weight="normal" text-decoration="normal" x="207" y="511" text-anchor="start" dominant-baseline="alphabetic" stroke-opacity="1" stroke-linejoin="bevel" stroke-miterlimit="10" stroke-width="3">0.04</text><text fill="rgb(37,37,37)" stroke="none" font-family="geogebra-sans-serif, sans-serif" font-size="21px" font-style="normal" font-weight="normal" text-decoration="normal" x="207" y="511" text-anchor="start" dominant-baseline="alphabetic" fill-opacity="1">0.04</text><text fill="rgb(37,37,37)" stroke="none" font-family="geogebra-sans-serif, sans-serif" font-size="21px" font-style="normal" font-weight="normal" text-decoration="normal" x="287" y="511" text-anchor="start" dominant-baseline="alphabetic" fill-opacity="1">0.06</text><text fill="none" stroke="rgb(255,255,255)" font-family="geogebra-sans-serif, sans-serif" font-size="21px" font-style="normal" font-weight="normal" text-decoration="normal" x="287" y="511" text-anchor="start" dominant-baseline="alphabetic" stroke-opacity="1" stroke-linejoin="bevel" stroke-miterlimit="10" stroke-width="3">0.06</text><text fill="rgb(37,37,37)" stroke="none" font-family="geogebra-sans-serif, sans-serif" font-size="21px" font-style="normal" font-weight="normal" text-decoration="normal" x="287" y="511" text-anchor="start" dominant-baseline="alphabetic" fill-opacity="1">0.06</text><text fill="rgb(37,37,37)" stroke="none" font-family="geogebra-sans-serif, sans-serif" font-size="21px" font-style="normal" font-weight="normal" text-decoration="normal" x="366" y="511" text-anchor="start" dominant-baseline="alphabetic" fill-opacity="1">0.08</text><text fill="none" stroke="rgb(255,255,255)" font-family="geogebra-sans-serif, sans-serif" font-size="21px" font-style="normal" font-weight="normal" text-decoration="normal" x="366" y="511" text-anchor="start" dominant-baseline="alphabetic" stroke-opacity="1" stroke-linejoin="bevel" stroke-miterlimit="10" stroke-width="3">0.08</text><text fill="rgb(37,37,37)" stroke="none" font-family="geogebra-sans-serif, sans-serif" font-size="21px" font-style="normal" font-weight="normal" text-decoration="normal" x="366" y="511" text-anchor="start" dominant-baseline="alphabetic" fill-opacity="1">0.08</text><text fill="rgb(37,37,37)" stroke="none" font-family="geogebra-sans-serif, sans-serif" font-size="21px" font-style="normal" font-weight="normal" text-decoration="normal" x="451" y="511" text-anchor="start" dominant-baseline="alphabetic" fill-opacity="1">0.1</text><text fill="none" stroke="rgb(255,255,255)" font-family="geogebra-sans-serif, sans-serif" font-size="21px" font-style="normal" font-weight="normal" text-decoration="normal" x="451" y="511" text-anchor="start" dominant-baseline="alphabetic" stroke-opacity="1" stroke-linejoin="bevel" stroke-miterlimit="10" stroke-width="3">0.1</text><text fill="rgb(37,37,37)" stroke="none" font-family="geogebra-sans-serif, sans-serif" font-size="21px" font-style="normal" font-weight="normal" text-decoration="normal" x="451" y="511" text-anchor="start" dominant-baseline="alphabetic" fill-opacity="1">0.1</text><text fill="rgb(37,37,37)" stroke="none" font-family="geogebra-sans-serif, sans-serif" font-size="21px" font-style="normal" font-weight="normal" text-decoration="normal" x="526" y="511" text-anchor="start" dominant-baseline="alphabetic" fill-opacity="1">0.12</text><text fill="none" stroke="rgb(255,255,255)" font-family="geogebra-sans-serif, sans-serif" font-size="21px" font-style="normal" font-weight="normal" text-decoration="normal" x="526" y="511" text-anchor="start" dominant-baseline="alphabetic" stroke-opacity="1" stroke-linejoin="bevel" stroke-miterlimit="10" stroke-width="3">0.12</text><text fill="rgb(37,37,37)" stroke="none" font-family="geogebra-sans-serif, sans-serif" font-size="21px" font-style="normal" font-weight="normal" text-decoration="normal" x="526" y="511" text-anchor="start" dominant-baseline="alphabetic" fill-opacity="1">0.12</text><text fill="rgb(37,37,37)" stroke="none" font-family="geogebra-sans-serif, sans-serif" font-size="21px" font-style="normal" font-weight="normal" text-decoration="normal" x="606" y="511" text-anchor="start" dominant-baseline="alphabetic" fill-opacity="1">0.14</text><text fill="none" stroke="rgb(255,255,255)" font-family="geogebra-sans-serif, sans-serif" font-size="21px" font-style="normal" font-weight="normal" text-decoration="normal" x="606" y="511" text-anchor="start" dominant-baseline="alphabetic" stroke-opacity="1" stroke-linejoin="bevel" stroke-miterlimit="10" stroke-width="3">0.14</text><text fill="rgb(37,37,37)" stroke="none" font-family="geogebra-sans-serif, sans-serif" font-size="21px" font-style="normal" font-weight="normal" text-decoration="normal" x="606" y="511" text-anchor="start" dominant-baseline="alphabetic" fill-opacity="1">0.14</text><text fill="rgb(37,37,37)" stroke="none" font-family="geogebra-sans-serif, sans-serif" font-size="21px" font-style="normal" font-weight="normal" text-decoration="normal" x="685" y="511" text-anchor="start" dominant-baseline="alphabetic" fill-opacity="1">0.16</text><text fill="none" stroke="rgb(255,255,255)" font-family="geogebra-sans-serif, sans-serif" font-size="21px" font-style="normal" font-weight="normal" text-decoration="normal" x="685" y="511" text-anchor="start" dominant-baseline="alphabetic" stroke-opacity="1" stroke-linejoin="bevel" stroke-miterlimit="10" stroke-width="3">0.16</text><text fill="rgb(37,37,37)" stroke="none" font-family="geogebra-sans-serif, sans-serif" font-size="21px" font-style="normal" font-weight="normal" text-decoration="normal" x="685" y="511" text-anchor="start" dominant-baseline="alphabetic" fill-opacity="1">0.16</text><text fill="rgb(37,37,37)" stroke="none" font-family="geogebra-sans-serif, sans-serif" font-size="21px" font-style="normal" font-weight="normal" text-decoration="normal" x="765" y="511" text-anchor="start" dominant-baseline="alphabetic" fill-opacity="1">0.18</text><text fill="none" stroke="rgb(255,255,255)" font-family="geogebra-sans-serif, sans-serif" font-size="21px" font-style="normal" font-weight="normal" text-decoration="normal" x="765" y="511" text-anchor="start" dominant-baseline="alphabetic" stroke-opacity="1" stroke-linejoin="bevel" stroke-miterlimit="10" stroke-width="3">0.18</text><text fill="rgb(37,37,37)" stroke="none" font-family="geogebra-sans-serif, sans-serif" font-size="21px" font-style="normal" font-weight="normal" text-decoration="normal" x="765" y="511" text-anchor="start" dominant-baseline="alphabetic" fill-opacity="1">0.18</text><text fill="rgb(37,37,37)" stroke="none" font-family="geogebra-sans-serif, sans-serif" font-size="21px" font-style="normal" font-weight="normal" text-decoration="normal" x="850" y="511" text-anchor="start" dominant-baseline="alphabetic" fill-opacity="1">0.2</text><text fill="none" stroke="rgb(255,255,255)" font-family="geogebra-sans-serif, sans-serif" font-size="21px" font-style="normal" font-weight="normal" text-decoration="normal" x="850" y="511" text-anchor="start" dominant-baseline="alphabetic" stroke-opacity="1" stroke-linejoin="bevel" stroke-miterlimit="10" stroke-width="3">0.2</text><text fill="rgb(37,37,37)" stroke="none" font-family="geogebra-sans-serif, sans-serif" font-size="21px" font-style="normal" font-weight="normal" text-decoration="normal" x="850" y="511" text-anchor="start" dominant-baseline="alphabetic" fill-opacity="1">0.2</text><text fill="rgb(37,37,37)" stroke="none" font-family="geogebra-sans-serif, sans-serif" font-size="21px" font-style="normal" font-weight="normal" text-decoration="normal" x="31" y="422" text-anchor="start" dominant-baseline="alphabetic" fill-opacity="1">50</text><text fill="none" stroke="rgb(255,255,255)" font-family="geogebra-sans-serif, sans-serif" font-size="21px" font-style="normal" font-weight="normal" text-decoration="normal" x="31" y="422" text-anchor="start" dominant-baseline="alphabetic" stroke-opacity="1" stroke-linejoin="bevel" stroke-miterlimit="10" stroke-width="3">50</text><text fill="rgb(37,37,37)" stroke="none" font-family="geogebra-sans-serif, sans-serif" font-size="21px" font-style="normal" font-weight="normal" text-decoration="normal" x="31" y="422" text-anchor="start" dominant-baseline="alphabetic" fill-opacity="1">50</text><text fill="rgb(37,37,37)" stroke="none" font-family="geogebra-sans-serif, sans-serif" font-size="21px" font-style="normal" font-weight="normal" text-decoration="normal" x="18" y="348" text-anchor="start" dominant-baseline="alphabetic" fill-opacity="1">100</text><text fill="none" stroke="rgb(255,255,255)" font-family="geogebra-sans-serif, sans-serif" font-size="21px" font-style="normal" font-weight="normal" text-decoration="normal" x="18" y="348" text-anchor="start" dominant-baseline="alphabetic" stroke-opacity="1" stroke-linejoin="bevel" stroke-miterlimit="10" stroke-width="3">100</text><text fill="rgb(37,37,37)" stroke="none" font-family="geogebra-sans-serif, sans-serif" font-size="21px" font-style="normal" font-weight="normal" text-decoration="normal" x="18" y="348" text-anchor="start" dominant-baseline="alphabetic" fill-opacity="1">100</text><text fill="rgb(37,37,37)" stroke="none" font-family="geogebra-sans-serif, sans-serif" font-size="21px" font-style="normal" font-weight="normal" text-decoration="normal" x="18" y="274" text-anchor="start" dominant-baseline="alphabetic" fill-opacity="1">150</text><text fill="none" stroke="rgb(255,255,255)" font-family="geogebra-sans-serif, sans-serif" font-size="21px" font-style="normal" font-weight="normal" text-decoration="normal" x="18" y="274" text-anchor="start" dominant-baseline="alphabetic" stroke-opacity="1" stroke-linejoin="bevel" stroke-miterlimit="10" stroke-width="3">150</text><text fill="rgb(37,37,37)" stroke="none" font-family="geogebra-sans-serif, sans-serif" font-size="21px" font-style="normal" font-weight="normal" text-decoration="normal" x="18" y="274" text-anchor="start" dominant-baseline="alphabetic" fill-opacity="1">150</text><text fill="rgb(37,37,37)" stroke="none" font-family="geogebra-sans-serif, sans-serif" font-size="21px" font-style="normal" font-weight="normal" text-decoration="normal" x="18" y="201" text-anchor="start" dominant-baseline="alphabetic" fill-opacity="1">200</text><text fill="none" stroke="rgb(255,255,255)" font-family="geogebra-sans-serif, sans-serif" font-size="21px" font-style="normal" font-weight="normal" text-decoration="normal" x="18" y="201" text-anchor="start" dominant-baseline="alphabetic" stroke-opacity="1" stroke-linejoin="bevel" stroke-miterlimit="10" stroke-width="3">200</text><text fill="rgb(37,37,37)" stroke="none" font-family="geogebra-sans-serif, sans-serif" font-size="21px" font-style="normal" font-weight="normal" text-decoration="normal" x="18" y="201" text-anchor="start" dominant-baseline="alphabetic" fill-opacity="1">200</text><text fill="rgb(37,37,37)" stroke="none" font-family="geogebra-sans-serif, sans-serif" font-size="21px" font-style="normal" font-weight="normal" text-decoration="normal" x="18" y="127" text-anchor="start" dominant-baseline="alphabetic" fill-opacity="1">250</text><text fill="none" stroke="rgb(255,255,255)" font-family="geogebra-sans-serif, sans-serif" font-size="21px" font-style="normal" font-weight="normal" text-decoration="normal" x="18" y="127" text-anchor="start" dominant-baseline="alphabetic" stroke-opacity="1" stroke-linejoin="bevel" stroke-miterlimit="10" stroke-width="3">250</text><text fill="rgb(37,37,37)" stroke="none" font-family="geogebra-sans-serif, sans-serif" font-size="21px" font-style="normal" font-weight="normal" text-decoration="normal" x="18" y="127" text-anchor="start" dominant-baseline="alphabetic" fill-opacity="1">250</text><text fill="rgb(37,37,37)" stroke="none" font-family="geogebra-sans-serif, sans-serif" font-size="21px" font-style="normal" font-weight="normal" text-decoration="normal" x="18" y="54" text-anchor="start" dominant-baseline="alphabetic" fill-opacity="1">300</text><text fill="none" stroke="rgb(255,255,255)" font-family="geogebra-sans-serif, sans-serif" font-size="21px" font-style="normal" font-weight="normal" text-decoration="normal" x="18" y="54" text-anchor="start" dominant-baseline="alphabetic" stroke-opacity="1" stroke-linejoin="bevel" stroke-miterlimit="10" stroke-width="3">300</text><text fill="rgb(37,37,37)" stroke="none" font-family="geogebra-sans-serif, sans-serif" font-size="21px" font-style="normal" font-weight="normal" text-decoration="normal" x="18" y="54" text-anchor="start" dominant-baseline="alphabetic" fill-opacity="1">300</text><text fill="rgb(37,37,37)" stroke="none" font-family="geogebra-sans-serif, sans-serif" font-size="21px" font-style="normal" font-weight="normal" text-decoration="normal" x="45" y="511" text-anchor="start" dominant-baseline="alphabetic" fill-opacity="1">0</text><text fill="none" stroke="rgb(255,255,255)" font-family="geogebra-sans-serif, sans-serif" font-size="21px" font-style="normal" font-weight="normal" text-decoration="normal" x="45" y="511" text-anchor="start" dominant-baseline="alphabetic" stroke-opacity="1" stroke-linejoin="bevel" stroke-miterlimit="10" stroke-width="3">0</text><text fill="rgb(37,37,37)" stroke="none" font-family="geogebra-sans-serif, sans-serif" font-size="21px" font-style="normal" font-weight="normal" text-decoration="normal" x="45" y="511" text-anchor="start" dominant-baseline="alphabetic" fill-opacity="1">0</text><path fill="none" stroke="rgb(0,0,255)" paint-order="fill stroke markers" d=" M 67.99996014285716 485.999999999895 L 69.6875 485.8142419889244 M 69.6875 485.8142419889244 L 71.4296875 485.24919321898733 L 73.171875 484.32926030440854 L 74.9140625 483.0778158086506 L 76.65625 481.5170555184332 L 80.140625 477.5508093758338 L 83.625 472.58655154965476 M 83.625 472.58655154965476 L 87.109375 466.76470898770447 L 90.59375 460.2115207075863 L 94.078125 453.0403295111405 L 97.5625 445.3527611201237 L 101.046875 437.2398003473501 L 104.53125 428.782773104575 L 108.015625 420.05424230386313 L 111.5 411.11882502729856 M 111.5 411.11882502729856 L 114.984375 402.03393771541073 L 118.46875 392.8504755527866 L 121.953125 383.61343170560053 L 125.4375 374.36246158618025 L 128.921875 365.1323968805224 L 132.40625 355.95371367249834 L 135.890625 346.8529586302193 L 139.375 337.8531368828273 L 142.859375 328.9740649072263 L 146.34375 320.23269146157406 L 149.828125 311.64338934353543 L 153.3125 303.2182205143369 L 156.796875 294.96717691272977 L 160.28125 286.89839908437295 L 163.765625 279.0183745703524 L 167.25 271.332117832136 L 170.734375 263.8433333379435 L 174.21875 256.5545632960863 L 177.703125 249.4673213932257 L 181.1875 242.582213778716 L 184.671875 235.899048429321 L 188.15625 229.41693393078987 L 191.640625 223.1343686232899 L 195.125 217.04932097580172 L 198.609375 211.1593019796701 L 202.09375 205.4614302829607 L 205.578125 199.95249072457233 L 209.0625 194.62898686970004 L 212.546875 189.48718809578997 L 216.03125 184.52317173014012 L 219.515625 179.73286069643677 L 223 175.11205708738424 M 223 175.11205708738424 L 226.484375 170.65647204391325 L 229.96875 166.36175228790535 L 233.453125 162.22350362472298 L 236.9375 158.23731170380552 L 240.421875 154.39876029998288 L 243.90625 150.70344735475902 L 247.390625 147.14699899542762 L 250.875 143.72508173035152 L 254.359375 140.43341300089094 L 257.84375 137.2677702541672 L 261.328125 134.22399868596722 L 264.8125 131.29801778950582 L 268.296875 128.48582683335616 L 271.78125 125.783509380542 L 275.265625 123.18723695045179 L 278.75 120.69327191580805 L 282.234375 118.29796971833434 L 285.71875 115.99778047891465 L 289.203125 113.78925007089919 L 292.6875 111.6690207186906 L 296.171875 109.63383117781046 L 299.65625 107.68051654723797 L 303.140625 105.80600775988279 L 306.625 104.00733079257617 L 310.109375 102.28160563287776 L 313.59375 100.62604503628495 L 317.078125 99.03795310405206 L 320.5625 97.51472370875933 L 324.04687499999994 96.0538387919791 L 327.53124999999994 94.65286655585209 L 331.01562499999994 93.30945956808847 L 334.49999999999994 92.02135279781606 L 337.98437499999994 90.78636159780791 L 341.46875 89.60237964690214 L 344.953125 88.46737686487342 L 348.4375 87.37939731060749 L 351.921875 86.33655707315324 L 355.40625 85.33704216408273 L 358.890625 84.37910641853739 L 362.375 83.46106941141511 L 365.859375 82.58131439429144 L 369.34375 81.73828625791708 L 372.828125 80.93048952444087 L 376.3125 80.15648637289377 L 379.796875 79.4148947009167 L 383.28125 78.70438622521385 L 386.765625 78.02368462277701 L 390.25 77.37156371452198 L 393.734375 76.74684569262837 L 397.21875 76.14839939255995 L 400.703125 75.57513861045709 L 404.1875 75.02602046635371 L 407.671875 74.50004381344286 L 411.15625 73.99624769342978 L 414.640625 73.51370983783664 L 418.125 73.05154521497809 L 421.609375 72.6089046221964 L 425.09375 72.1849733228346 L 428.578125 71.77896972732725 L 432.0625 71.39014411771319 L 435.546875 71.01777741479435 L 439.03125 70.66117998711769 L 442.515625 70.31969050090345 L 446 69.99267481000362 M 446 69.99267481000362 L 449.484375 69.67952488494592 L 452.96875 69.37965778009533 L 456.453125 69.09251463794249 L 459.9375 68.81755972952675 L 463.421875 68.55427952998275 L 466.90625 68.30218182820659 L 470.390625 68.06079486963608 L 473.875 67.82966653114346 L 477.359375 67.6083635270474 L 480.84375 67.39647064526474 L 484.328125 67.19359001263041 L 487.81249999999994 66.99934038843145 L 491.29687499999994 66.81335648521764 L 494.78124999999994 66.6352883159683 L 498.26562499999994 66.46480056671243 L 501.74999999999994 66.30157199371956 L 505.23437499999994 66.14529484440334 L 508.71875 65.99567430109164 L 512.203125 65.8524279468487 L 515.6875 65.71528525254985 L 519.171875 65.58398708443161 L 522.65625 65.45828523136885 L 526.140625 65.33794195114024 L 529.625 65.22272953497912 L 533.109375 65.11242988971662 L 536.59375 65.00683413685476 L 540.078125 64.90574222792156 L 543.5625 64.80896257548596 L 547.046875 64.71631169922733 L 550.53125 64.6276138864788 L 554.015625 64.54270086667844 L 557.5 64.46141149918651 L 560.984375 64.38359147394317 L 564.46875 64.309093024459 L 567.953125 64.23777465265277 L 571.4375 64.16950086506324 L 574.921875 64.10414191998234 L 578.40625 64.04157358507388 L 581.890625 63.98167690505505 L 585.375 63.92433797903681 L 588.859375 63.86944774713396 L 592.34375 63.81690178596722 L 595.828125 63.76660011269962 L 599.3125 63.71844699725813 L 602.7968749999999 63.67235078240702 L 606.2812499999999 63.628223711352575 L 609.7656249999999 63.58598176257095 L 613.2499999999999 63.545544491560975 L 616.7343749999999 63.50683487924192 L 620.2187499999999 63.46977918671564 L 623.7031249999999 63.434306816137166 L 627.1874999999999 63.4003501774377 L 630.671875 63.367844560658284 L 634.15625 63.33672801366299 L 637.640625 63.30694122500665 L 641.125 63.278427411744815 L 644.609375 63.25113221197739 L 648.09375 63.22500358193304 L 651.578125 63.199991697400264 L 655.0625 63.17604885932798 L 658.546875 63.1531294034171 L 662.03125 63.13118961354007 L 665.515625 63.11018763882544 L 669 63.090083414254536 L 672.484375 63.07083858462357 L 675.96875 63.052416431728375 L 679.453125 63.034781804638726 L 682.9375 63.01790105292787 L 686.421875 63.00174196274014 L 689.90625 62.98627369556863 L 693.390625 62.97146672963487 L 696.875 62.95729280375912 L 700.359375 62.94372486361425 L 703.84375 62.93073701026532 L 707.328125 62.918304450897324 L 710.8125 62.90640345163621 L 714.296875 62.89501129238005 L 717.78125 62.88410622354928 L 721.265625 62.87366742467856 L 724.75 62.863674964771974 L 728.234375 62.85410976434423 L 731.71875 62.84495355908081 L 735.203125 62.83618886504314 L 738.6875 62.827798945358154 L 742.171875 62.81976777832591 L 745.65625 62.812080026886804 L 749.140625 62.804721009389766 L 752.625 62.79767667160678 L 756.109375 62.79093355994013 L 759.59375 62.784478795772145 L 763.078125 62.77830005090982 L 766.5625 62.77238552407431 L 770.046875 62.766723918395826 L 773.53125 62.761304419867145 L 777.015625 62.756116676717056 L 780.5 62.75115077966234 L 783.984375 62.74639724300556 L 787.46875 62.74184698653664 L 790.953125 62.737491318207105 L 794.4375 62.7333219175469 L 797.921875 62.72933081978499 L 801.40625 62.725510400650705 L 804.8906250000001 62.72185336182258 L 808.3750000000001 62.71835271699962 L 811.8593750000001 62.715001778566545 L 815.3437500000001 62.71179414482884 L 818.8281250000001 62.70872368779209 L 822.3125000000001 62.705784541464936 L 825.7968750000001 62.7029710906603 L 829.2812500000001 62.70027796027523 L 832.7656250000001 62.69770000502865 L 836.2500000000001 62.695232299638405 L 839.7343750000001 62.69287012941646 L 843.2187500000001 62.69060898126702 L 846.7031250000001 62.688444535068584 L 850.1875 62.68637265542509 L 853.671875 62.684389383768405 L 857.15625 62.682490930798735 L 860.640625 62.680673669249074 L 864.125 62.6789341269573 L 867.609375 62.677268980234885 L 871.09375 62.67567504751935 L 874.578125 62.67414928329799 L 878.0625 62.67268877229105 L 881.546875 62.67129072388275 L 885.03125 62.66995246679244 L 888.515625 62.66867144397145 L 892 62.66744520771874" stroke-opacity="0.6980392156862745" stroke-linecap="round" stroke-linejoin="round" stroke-miterlimit="10" stroke-width="2.5"/></g></g></svg>