<svg version="1.1" xmlns="http://www.w3.org/2000/svg" xmlns:xlink="http://www.w3.org/1999/xlink" width="701" height="384"><defs><clipPath id="uGAkOtVFxeaO"><path fill="none" stroke="none" d=" M 0 0 L 701 0 L 701 384 L 0 384 L 0 0 Z"/></clipPath></defs><g transform="scale(1,1)" clip-path="url(#uGAkOtVFxeaO)"><g><rect fill="rgb(255,255,255)" stroke="none" x="0" y="0" width="701" height="384" fill-opacity="1"/><path fill="none" stroke="rgb(37,37,37)" paint-order="fill stroke markers" d=" M 0.5 361.5 L 699.5 361.5" stroke-opacity="1" stroke-miterlimit="10"/><path fill="none" stroke="rgb(37,37,37)" paint-order="fill stroke markers" d=" M 700.5 361.5 L 696.5 357.5" stroke-opacity="1" stroke-miterlimit="10"/><path fill="none" stroke="rgb(37,37,37)" paint-order="fill stroke markers" d=" M 700.5 361.5 L 696.5 365.5" stroke-opacity="1" stroke-miterlimit="10"/><path fill="rgb(153,51,0)" stroke="none" paint-order="stroke fill markers" fill-rule="evenodd" d=" M -456.4208624999997 361.1173049999999 L -451.06601201171844 361.1173049999999 L -445.7111615234373 361.1173049999999 L -440.3563110351559 361.1173049999999 L -435.0014605468746 361.1173049999999 L -429.64661005859347 361.1173049999999 L -424.2917595703122 361.1173049999999 L -418.9369090820308 361.1173049999998 L -413.58205859374965 361.1173049999998 L -408.2272081054685 361.11730499999976 L -402.8723576171872 361.1173049999997 L -397.51750712890606 361.11730499999953 L -392.1626566406247 361.11730499999936 L -386.8078061523434 361.117304999999 L -381.45295566406224 361.1173049999985 L -376.098105175781 361.1173049999977 L -370.7432546874996 361.1173049999964 L -365.3884041992184 361.1173049999943 L -360.03355371093716 361.11730499999095 L -354.678703222656 361.1173049999857 L -349.3238527343747 361.1173049999775 L -343.96900224609345 361.1173049999646 L -338.6141517578122 361.1173049999444 L -333.259301269531 361.11730499991296 L -327.90445078124975 361.1173049998642 L -322.5496002929685 361.1173049997888 L -317.1947498046872 361.1173049996727 L -311.83989931640593 361.11730499949437 L -306.4850488281248 361.1173049992216 L -301.1301983398435 361.11730499880565 L -295.77534785156223 361.1173049981737 L -290.42049736328096 361.11730499721705 L -285.0656468749998 361.1173049957738 L -279.7107963867185 361.11730499360397 L -274.35594589843726 361.1173049903534 L -269.001095410156 361.11730498550077 L -263.6462449218747 361.11730497828194 L -258.29139443359355 361.11730496758065 L -252.93654394531228 361.1173049517728 L -247.581693457031 361.11730492850324 L -242.22684296874974 361.11730489437025 L -236.87199248046846 361.1173048444781 L -231.5171419921873 361.1173047718069 L -226.16229150390603 361.1173046663286 L -220.80744101562476 361.1173045137708 L -215.4525905273435 361.1173042938961 L -210.09774003906233 361.1173039781157 L -204.74288955078106 361.1173035261937 L -199.3880390624998 361.117302881714 L -194.0331885742185 361.11730196586905 L -188.67833808593724 361.11730066898616 L -183.32348759765608 361.11729883901216 L -177.9686371093748 361.1172962659302 L -172.61378662109354 361.11729266075764 L -167.25893613281227 361.1172876273585 L -161.9040856445311 361.11728062476857 L -156.54923515624984 361.11727091705086 L -151.19438466796856 361.1172575068351 L -145.8395341796873 361.11723904760294 L -140.48468369140608 361.11721372841663 L -135.12983320312486 361.1171791230789 L -129.77498271484365 361.11713199360133 L -124.42013222656232 361.11706803524976 L -119.06528173828104 361.1169815472442 L -113.71043124999983 361.11686500930585 L -108.35558076171861 361.1167085395472 L -103.00073027343734 361.1164992035612 L -97.64587978515601 361.11622013784165 L -92.2910292968748 361.11584944270703 L -86.93617880859364 361.11535879055566 L -81.58132832031231 361.11471168439164 L -76.2264778320311 361.11386128898886 L -70.87162734374982 361.11274774267497 L -65.5167768554686 361.1112948414197 L -60.16192636718739 361.1094059686442 L -54.80707587890612 361.10695912393754 L -49.4522253906249 361.1038008817472 L -44.097374902343574 361.0997390872919 L -38.74252441406236 361.094534071729 L -33.38767392578109 361.0878881424549 L -28.03282343749987 361.0794330779594 L -22.677972949218656 361.0687153307415 L -17.323122460937384 361.05517861748496 L -11.968271972656169 361.03814355432775 L -6.61342148437484 361.01678397822633 L -1.2585709960936242 360.99009958499994 L 4.096279492187648 360.95688451279636 L 9.451129980468863 360.91569150888085 L 14.805980468750079 360.864791340476 L 20.16083095703135 360.8021271497265 L 25.515681445312566 360.725263511704 L 30.87053193359384 360.631330035695 L 36.225382421875054 360.51695945673157 L 41.58023291015638 360.37822029908153 L 46.9350833984376 360.21054435845116 L 52.28993388671887 360.0086494465947 L 57.644784375000086 359.7664580716616 L 62.9996348632813 359.47701298968786 L 68.35448535156257 359.1323908555924 L 73.70933583984379 358.72361552278943 L 79.06418632812512 358.2405728842654 L 84.41903681640633 357.6719295079506 L 89.7738873046876 357.00505768666056 L 95.12873779296882 356.22596988688144 L 100.48358828125009 355.31926592820935 L 105.83843876953131 354.2680965413113 L 111.19328925781252 353.0541472200511 L 116.54813974609382 351.65764648469525 L 121.90299023437504 350.0574027886793 L 127.25784072265634 348.23087431173593 L 132.61269121093756 346.154275768104 L 137.96754169921883 343.8027261021217 L 143.32239218750004 341.15044052902357 L 148.67724267578126 338.170969793659 L 154.03209316406256 334.8374887558278 L 159.38694365234377 331.12313546494073 L 164.74179414062505 327.0014007619444 L 170.09664462890626 322.4465671531414 L 175.45149511718756 317.43419425662967 L 180.80634560546878 311.9416465536464 L 186.16119609375 305.94865751841513 L 191.5160465820313 299.43792249344006 L 196.87089707031248 292.39571097222023 L 202.22574755859378 284.81248730407594 L 207.580598046875 276.68352730713286 L 212.9354485351563 268.0095169295157 L 218.2902990234375 258.7971180004554 L 223.64514951171878 249.0594853256929 L 226.3225747558594 243.9997055269201 L 228.99999999999997 238.8167189644846 L 228.99999999999997 361.1173049999999 L -456.4208624999997 361.1173049999999" fill-opacity="0.09803921568627451"/><path fill="none" stroke="rgb(153,51,0)" paint-order="fill stroke markers" d=" M -456.4208624999997 361.1173049999999 L -451.06601201171844 361.1173049999999 L -445.7111615234373 361.1173049999999 L -440.3563110351559 361.1173049999999 L -435.0014605468746 361.1173049999999 L -429.64661005859347 361.1173049999999 L -424.2917595703122 361.1173049999999 L -418.9369090820308 361.1173049999998 L -413.58205859374965 361.1173049999998 L -408.2272081054685 361.11730499999976 L -402.8723576171872 361.1173049999997 L -397.51750712890606 361.11730499999953 L -392.1626566406247 361.11730499999936 L -386.8078061523434 361.117304999999 L -381.45295566406224 361.1173049999985 L -376.098105175781 361.1173049999977 L -370.7432546874996 361.1173049999964 L -365.3884041992184 361.1173049999943 L -360.03355371093716 361.11730499999095 L -354.678703222656 361.1173049999857 L -349.3238527343747 361.1173049999775 L -343.96900224609345 361.1173049999646 L -338.6141517578122 361.1173049999444 L -333.259301269531 361.11730499991296 L -327.90445078124975 361.1173049998642 L -322.5496002929685 361.1173049997888 L -317.1947498046872 361.1173049996727 L -311.83989931640593 361.11730499949437 L -306.4850488281248 361.1173049992216 L -301.1301983398435 361.11730499880565 L -295.77534785156223 361.1173049981737 L -290.42049736328096 361.11730499721705 L -285.0656468749998 361.1173049957738 L -279.7107963867185 361.11730499360397 L -274.35594589843726 361.1173049903534 L -269.001095410156 361.11730498550077 L -263.6462449218747 361.11730497828194 L -258.29139443359355 361.11730496758065 L -252.93654394531228 361.1173049517728 L -247.581693457031 361.11730492850324 L -242.22684296874974 361.11730489437025 L -236.87199248046846 361.1173048444781 L -231.5171419921873 361.1173047718069 L -226.16229150390603 361.1173046663286 L -220.80744101562476 361.1173045137708 L -215.4525905273435 361.1173042938961 L -210.09774003906233 361.1173039781157 L -204.74288955078106 361.1173035261937 L -199.3880390624998 361.117302881714 L -194.0331885742185 361.11730196586905 L -188.67833808593724 361.11730066898616 L -183.32348759765608 361.11729883901216 L -177.9686371093748 361.1172962659302 L -172.61378662109354 361.11729266075764 L -167.25893613281227 361.1172876273585 L -161.9040856445311 361.11728062476857 L -156.54923515624984 361.11727091705086 L -151.19438466796856 361.1172575068351 L -145.8395341796873 361.11723904760294 L -140.48468369140608 361.11721372841663 L -135.12983320312486 361.1171791230789 L -129.77498271484365 361.11713199360133 L -124.42013222656232 361.11706803524976 L -119.06528173828104 361.1169815472442 L -113.71043124999983 361.11686500930585 L -108.35558076171861 361.1167085395472 L -103.00073027343734 361.1164992035612 L -97.64587978515601 361.11622013784165 L -92.2910292968748 361.11584944270703 L -86.93617880859364 361.11535879055566 L -81.58132832031231 361.11471168439164 L -76.2264778320311 361.11386128898886 L -70.87162734374982 361.11274774267497 L -65.5167768554686 361.1112948414197 L -60.16192636718739 361.1094059686442 L -54.80707587890612 361.10695912393754 L -49.4522253906249 361.1038008817472 L -44.097374902343574 361.0997390872919 L -38.74252441406236 361.094534071729 L -33.38767392578109 361.0878881424549 L -28.03282343749987 361.0794330779594 L -22.677972949218656 361.0687153307415 L -17.323122460937384 361.05517861748496 L -11.968271972656169 361.03814355432775 L -6.61342148437484 361.01678397822633 L -1.2585709960936242 360.99009958499994 L 4.096279492187648 360.95688451279636 L 9.451129980468863 360.91569150888085 L 14.805980468750079 360.864791340476 L 20.16083095703135 360.8021271497265 L 25.515681445312566 360.725263511704 L 30.87053193359384 360.631330035695 L 36.225382421875054 360.51695945673157 L 41.58023291015638 360.37822029908153 L 46.9350833984376 360.21054435845116 L 52.28993388671887 360.0086494465947 L 57.644784375000086 359.7664580716616 L 62.9996348632813 359.47701298968786 L 68.35448535156257 359.1323908555924 L 73.70933583984379 358.72361552278943 L 79.06418632812512 358.2405728842654 L 84.41903681640633 357.6719295079506 L 89.7738873046876 357.00505768666056 L 95.12873779296882 356.22596988688144 L 100.48358828125009 355.31926592820935 L 105.83843876953131 354.2680965413113 L 111.19328925781252 353.0541472200511 L 116.54813974609382 351.65764648469525 L 121.90299023437504 350.0574027886793 L 127.25784072265634 348.23087431173593 L 132.61269121093756 346.154275768104 L 137.96754169921883 343.8027261021217 L 143.32239218750004 341.15044052902357 L 148.67724267578126 338.170969793659 L 154.03209316406256 334.8374887558278 L 159.38694365234377 331.12313546494073 L 164.74179414062505 327.0014007619444 L 170.09664462890626 322.4465671531414 L 175.45149511718756 317.43419425662967 L 180.80634560546878 311.9416465536464 L 186.16119609375 305.94865751841513 L 191.5160465820313 299.43792249344006 L 196.87089707031248 292.39571097222023 L 202.22574755859378 284.81248730407594 L 207.580598046875 276.68352730713286 L 212.9354485351563 268.0095169295157 L 218.2902990234375 258.7971180004554 L 223.64514951171878 249.0594853256929 L 226.3225747558594 243.9997055269201 L 228.99999999999997 238.8167189644846 L 228.99999999999997 361.1173049999999 L -456.4208624999997 361.1173049999999" stroke-opacity="1" stroke-linecap="round" stroke-linejoin="round" stroke-miterlimit="10"/><path fill="none" stroke="rgb(204,0,0)" paint-order="fill stroke markers" d=" M 0.5 360.97997708920445 L 0.5 360.9858220751775 L 0.5 360.97997708920445 L 1.5 360.97388948026384 L 1.5 360.97388948026384 L 2.5 360.9675499865371 L 2.5 360.9675499865371 L 3.5 360.960949028902 L 3.5 360.960949028902 L 4.5 360.9540767016058 L 4.5 360.9540767016058 L 5.5 360.94692276272707 L 5.5 360.94692276272707 L 6.5 360.93947662442423 L 6.5 360.93947662442423 L 7.5 360.9317273429674 L 7.5 360.9317273429674 L 8.5 360.9236636085531 L 8.5 360.9236636085531 L 9.5 360.915273734898 L 9.5 360.915273734898 L 10.5 360.90654564861126 L 10.5 360.90654564861126 L 11.5 360.8974668783426 L 11.5 360.8974668783426 L 12.499999999999943 360.8880245437053 L 12.499999999999943 360.8880245437053 L 13.499999999999943 360.8782053439713 L 13.499999999999943 360.8782053439713 L 14.499999999999943 360.8679955465383 L 14.499999999999943 360.8679955465383 L 15.499999999999943 360.8573809751667 L 15.499999999999943 360.8573809751667 L 16.499999999999943 360.84634699798494 L 16.499999999999943 360.84634699798494 L 17.5 360.8348785152635 L 17.5 360.8348785152635 L 18.5 360.82295994695454 L 18.5 360.82295994695454 L 19.5 360.81057521999895 L 19.5 360.81057521999895 L 20.5 360.7977077553978 L 20.5 360.7977077553978 L 21.5 360.78434045505 L 21.5 360.78434045505 L 22.5 360.7704556883541 L 22.5 360.7704556883541 L 23.5 360.7560352785753 L 23.5 360.7560352785753 L 24.5 360.741060488978 L 24.5 360.741060488978 L 25.5 360.72551200872323 L 25.5 360.72551200872323 L 26.5 360.7093699385327 L 26.5 360.7093699385327 L 27.5 360.6926137761195 L 27.5 360.6926137761195 L 28.5 360.6752224013874 L 28.5 360.6752224013874 L 29.5 360.65717406139873 L 29.5 360.65717406139873 L 30.5 360.6384463551141 L 30.5 360.6384463551141 L 31.499999999999943 360.61901621790435 L 31.499999999999943 360.61901621790435 L 32.49999999999994 360.5988599058372 L 32.49999999999994 360.5988599058372 L 33.49999999999994 360.57795297974195 L 33.49999999999994 360.57795297974195 L 34.49999999999994 360.5562702890535 L 34.49999999999994 360.5562702890535 L 35.5 360.5337859554394 L 35.5 360.5337859554394 L 36.5 360.51047335621297 L 36.5 360.51047335621297 L 37.5 360.4863051075366 L 37.5 360.4863051075366 L 38.5 360.46125304741827 L 38.5 360.46125304741827 L 39.5 360.43528821850595 L 39.5 360.43528821850595 L 40.5 360.408380850685 L 40.5 360.408380850685 L 41.5 360.38050034348237 L 41.5 360.38050034348237 L 42.5 360.35161524828396 L 42.5 360.35161524828396 L 43.5 360.3216932503702 L 43.5 360.3216932503702 L 44.5 360.29070115077593 L 44.5 360.29070115077593 L 45.5 360.25860484798153 L 45.5 360.25860484798153 L 46.5 360.22536931944126 L 46.5 360.22536931944126 L 47.5 360.19095860295675 L 47.5 360.19095860295675 L 48.5 360.1553357779033 L 48.5 360.1553357779033 L 49.49999999999994 360.11846294631636 L 49.49999999999994 360.11846294631636 L 50.49999999999994 360.08030121384735 L 50.49999999999994 360.0803012138474 L 51.49999999999994 360.0408106705978 L 51.49999999999994 360.0408106705978 L 52.49999999999994 359.99995037184055 L 52.49999999999994 359.99995037184055 L 53.49999999999994 359.9576783186385 L 53.49999999999994 359.9576783186385 L 54.5 359.91395143837104 L 54.5 359.91395143837104 L 55.5 359.86872556517875 L 55.5 359.86872556517875 L 56.5 359.82195542033764 L 56.5 359.82195542033764 L 57.5 359.7735945925752 L 57.5 359.77359459257525 L 58.5 359.7235955183398 L 58.5 359.7235955183398 L 59.5 359.6719094620361 L 59.5 359.6719094620361 L 60.5 359.61848649624113 L 60.5 359.61848649624113 L 61.5 359.5632754819124 L 61.5 359.56327548191246 L 62.5 359.50622404860474 L 62.5 359.50622404860474 L 63.5 359.4472785747088 L 63.5 359.4472785747088 L 64.5 359.38638416772756 L 64.5 359.38638416772756 L 65.5 359.32348464460665 L 65.5 359.32348464460665 L 66.5 359.25852251213416 L 66.5 359.25852251213416 L 67.49999999999994 359.1914389474274 L 67.49999999999994 359.1914389474274 L 68.49999999999994 359.1221737785243 L 68.49999999999994 359.1221737785243 L 69.49999999999994 359.0506654650967 L 69.49999999999994 359.0506654650967 L 70.49999999999994 358.9768510793049 L 70.49999999999994 358.9768510793049 L 71.49999999999994 358.90066628681166 L 71.49999999999994 358.9006662868117 L 72.5 358.8220453279767 L 72.5 358.8220453279767 L 73.5 358.74092099924974 L 73.5 358.74092099924974 L 74.5 358.65722463478517 L 74.5 358.6572246347852 L 75.5 358.57088608829827 L 75.5 358.5708860882983 L 76.5 358.4818337151847 L 76.5 358.4818337151847 L 77.5 358.38999435492633 L 77.5 358.38999435492633 L 78.5 358.2952933138065 L 78.5 358.2952933138065 L 79.5 358.19765434795687 L 79.5 358.19765434795687 L 80.5 358.09699964676145 L 80.5 358.09699964676145 L 81.5 357.99324981664114 L 81.5 357.99324981664114 L 82.5 357.8863238652446 L 82.5 357.8863238652446 L 83.5 357.77613918607074 L 83.5 357.77613918607074 L 84.5 357.6626115435487 L 84.5 357.6626115435487 L 85.49999999999994 357.5456550586022 L 85.49999999999994 357.5456550586022 L 86.49999999999994 357.42518219472555 L 86.49999999999994 357.42518219472555 L 87.49999999999994 357.3011037445981 L 87.49999999999994 357.3011037445981 L 88.49999999999994 357.173328817266 L 88.49999999999994 357.173328817266 L 89.49999999999994 357.04176482591953 L 89.49999999999994 357.04176482591953 L 90.49999999999994 356.9063174762947 L 90.49999999999994 356.9063174762947 L 91.5 356.7668907557287 L 91.5 356.7668907557287 L 92.5 356.62338692289904 L 92.5 356.62338692289904 L 93.5 356.47570649827674 L 93.5 356.47570649827674 L 94.5 356.3237482553238 L 94.5 356.32374825532384 L 95.5 356.1674092124665 L 95.5 356.1674092124665 L 96.5 356.0065846258751 L 96.5 356.0065846258751 L 97.5 355.8411679830827 L 97.5 355.8411679830827 L 98.5 355.67105099747414 L 98.5 355.67105099747414 L 99.5 355.49612360367826 L 99.5 355.4961236036783 L 100.5 355.31627395389535 L 100.5 355.3162739538954 L 101.5 355.13138841519316 L 101.5 355.13138841519316 L 102.5 354.94135156780396 L 102.5 354.941351567804 L 103.5 354.746046204457 L 103.5 354.74604620445706 L 104.49999999999994 354.5453533307785 L 104.49999999999994 354.5453533307785 L 105.49999999999994 354.33915216679344 L 105.49999999999994 354.33915216679344 L 106.49999999999997 354.12732014956356 L 106.49999999999997 354.1273201495636 L 107.49999999999997 353.909732936994 L 107.49999999999997 353.909732936994 L 108.49999999999997 353.6862644128434 L 108.49999999999997 353.6862644128434 L 109.49999999999997 353.45678669297155 L 109.49999999999997 353.45678669297155 L 110.49999999999997 353.22117013285776 L 110.49999999999997 353.2211701328578 L 111.49999999999997 352.9792833364246 L 111.49999999999997 352.9792833364246 L 112.49999999999997 352.7309931662003 L 112.49999999999997 352.73099316620034 L 113.49999999999997 352.4761647548541 L 113.49999999999997 352.47616475485415 L 114.49999999999997 352.21466151813775 L 114.49999999999997 352.21466151813775 L 115.49999999999997 351.94634516926664 L 115.49999999999997 351.94634516926664 L 116.5 351.67107573477404 L 116.5 351.67107573477404 L 117.5 351.3887115718713 L 117.5 351.38871157187134 L 118.5 351.09910938734663 L 118.5 351.09910938734663 L 119.5 350.8021242580348 L 119.5 350.80212425803484 L 120.5 350.4976096528902 L 120.5 350.4976096528902 L 121.5 350.1854174566941 L 121.5 350.18541745669415 L 122.49999999999997 349.86539799542794 L 122.49999999999997 349.865397995428 L 123.49999999999997 349.53740006334294 L 123.49999999999997 349.53740006334294 L 124.49999999999997 349.20127095175604 L 124.49999999999997 349.2012709517561 L 125.49999999999997 348.8568564796021 L 125.49999999999997 348.85685647960213 L 126.49999999999997 348.50400102577066 L 126.49999999999997 348.5040010257707 L 127.49999999999997 348.14254756325596 L 127.49999999999997 348.142547563256 L 128.49999999999997 347.77233769514726 L 128.49999999999997 347.7723376951473 L 129.49999999999997 347.39321169248655 L 129.49999999999997 347.3932116924866 L 130.49999999999997 347.00500853401905 L 130.49999999999997 347.0050085340191 L 131.49999999999997 346.60756594786204 L 131.49999999999997 346.6075659478621 L 132.49999999999997 346.2007204551154 L 132.49999999999997 346.20072045511546 L 133.49999999999997 345.78430741543787 L 133.49999999999997 345.7843074154379 L 134.49999999999997 345.3581610746099 L 134.49999999999997 345.35816107460994 L 135.5 344.92211461410517 L 135.5 344.9221146141052 L 136.5 344.4760002026904 L 136.5 344.47600020269044 L 137.5 344.0196490500713 L 137.5 344.01964905007134 L 138.5 343.55289146260355 L 138.5 343.5528914626036 L 139.5 343.0755569010839 L 139.5 343.075556901084 L 140.49999999999997 342.5874740406367 L 140.49999999999997 342.5874740406368 L 141.49999999999997 342.0884708327092 L 141.49999999999997 342.0884708327093 L 142.49999999999997 341.5783745691881 L 142.49999999999997 341.57837456918816 L 143.49999999999997 341.05701194864736 L 143.49999999999997 341.0570119486474 L 144.49999999999997 340.5242091447366 L 144.49999999999997 340.5242091447367 L 145.49999999999997 339.9797918767179 L 145.49999999999997 339.97979187671797 L 146.49999999999997 339.423585482156 L 146.49999999999997 339.42358548215606 L 147.49999999999997 338.8554149917672 L 147.49999999999997 338.85541499176725 L 148.49999999999997 338.2751052064284 L 148.49999999999997 338.27510520642846 L 149.49999999999997 337.6824807763476 L 149.49999999999997 337.68248077634763 L 150.49999999999997 337.07736628239445 L 150.49999999999997 337.0773662823945 L 151.49999999999997 336.45958631958797 L 151.49999999999997 336.459586319588 L 152.49999999999997 335.8289655827364 L 152.49999999999997 335.82896558273643 L 153.5 335.1853289542221 L 153.5 335.18532895422214 L 154.5 334.5285015939235 L 154.5 334.52850159392364 L 155.5 333.8583090312621 L 155.5 333.85830903126214 L 156.5 333.17457725936134 L 156.5 333.17457725936146 L 157.5 332.4771328313046 L 157.5 332.47713283130463 L 158.49999999999994 331.76580295847094 L 158.49999999999994 331.765802958471 L 159.49999999999997 331.0404156109333 L 159.49999999999997 331.0404156109334 L 160.49999999999997 330.3007996198941 L 160.49999999999997 330.30079961989424 L 161.49999999999997 329.5467847821367 L 161.49999999999997 329.5467847821368 L 162.49999999999997 328.77820196646394 L 162.49999999999997 328.77820196646405 L 163.49999999999997 327.9948832220977 L 163.49999999999997 327.99488322209777 L 164.49999999999997 327.19666188900635 L 164.49999999999997 327.19666188900646 L 165.49999999999997 326.3833727101276 L 165.49999999999997 326.3833727101277 L 166.49999999999997 325.5548519454508 L 166.49999999999997 325.55485194545093 L 167.49999999999997 324.7109374879203 L 167.49999999999997 324.71093748792043 L 168.49999999999997 323.85146898111884 L 168.49999999999997 323.85146898111896 L 169.49999999999997 322.97628793868824 L 169.49999999999997 322.97628793868836 L 170.49999999999997 322.08523786544106 L 170.49999999999997 322.0852378654412 L 171.49999999999997 321.1781643801155 L 171.49999999999997 321.17816438011556 L 172.49999999999994 320.254915339722 L 172.49999999999994 320.2549153397221 L 173.5 319.3153409654288 L 173.5 319.3153409654289 L 174.49999999999994 318.3592939699304 L 174.49999999999994 318.3592939699305 L 175.5 317.38662968623987 L 175.5 317.38662968624004 L 176.49999999999994 316.3972061978453 L 176.49999999999994 316.39720619784543 L 177.5 315.39088447016456 L 177.5 315.39088447016474 L 178.49999999999997 314.3675284832355 L 178.49999999999997 314.3675284832356 L 179.5 313.32700536556865 L 179.5 313.32700536556877 L 180.49999999999997 312.269185529096 L 180.49999999999997 312.2691855290961 L 181.49999999999997 311.19394280513745 L 181.49999999999997 311.19394280513757 L 182.49999999999997 310.10115458131224 L 182.49999999999997 310.10115458131236 L 183.49999999999997 308.99070193931453 L 183.49999999999997 308.99070193931465 L 184.49999999999997 307.8624697934725 L 184.49999999999997 307.8624697934726 L 185.49999999999997 306.7163470300075 L 185.49999999999997 306.7163470300077 L 186.49999999999997 305.5522266469072 L 186.49999999999997 305.55222664690734 L 187.49999999999997 304.3700058943229 L 187.49999999999997 304.370005894323 L 188.49999999999997 303.16958641540253 L 188.49999999999997 303.16958641540265 L 189.49999999999997 301.9508743874639 L 189.49999999999997 301.950874387464 L 190.49999999999997 300.713780663414 L 190.49999999999997 300.7137806634142 L 191.49999999999997 299.4582209133166 L 191.49999999999997 299.4582209133167 L 192.49999999999997 298.1841157660071 L 192.49999999999997 298.1841157660072 L 193.49999999999997 296.8913909506547 L 193.49999999999997 296.8913909506548 L 194.49999999999997 295.5799774381659 L 194.49999999999997 295.579977438166 L 195.49999999999997 294.2498115823239 L 195.49999999999997 294.24981158232407 L 196.49999999999997 292.9008352605564 L 196.49999999999997 292.9008352605565 L 197.49999999999997 291.53299601422043 L 197.49999999999997 291.53299601422054 L 198.49999999999997 290.1462471882942 L 198.49999999999997 290.14624718829435 L 199.49999999999997 288.7405480703609 L 199.49999999999997 288.740548070361 L 200.49999999999997 287.31586402876974 L 200.49999999999997 287.31586402876985 L 201.49999999999997 285.8721666498575 L 201.49999999999997 285.87216664985766 L 202.49999999999997 284.4094338741126 L 202.49999999999997 284.4094338741128 L 203.49999999999997 282.9276501311605 L 203.49999999999997 282.92765013116065 L 204.49999999999997 281.42680647345065 L 204.49999999999997 281.4268064734508 L 205.49999999999997 279.90690070852224 L 205.49999999999997 279.9069007085224 L 206.49999999999997 278.3679375297246 L 206.49999999999997 278.36793752972477 L 207.49999999999997 276.8099286452681 L 207.49999999999997 276.80992864526826 L 208.49999999999997 275.2328929054798 L 208.49999999999997 275.23289290547996 L 209.49999999999997 273.6368564281372 L 209.49999999999997 273.6368564281374 L 210.49999999999997 272.0218527217533 L 210.49999999999997 272.0218527217535 L 211.49999999999997 270.38792280668406 L 211.49999999999997 270.38792280668423 L 212.49999999999997 268.73511533393116 L 212.49999999999997 268.73511533393133 L 213.49999999999997 267.0634867015099 L 213.49999999999997 267.0634867015101 L 214.49999999999997 265.3731011682541 L 214.49999999999997 265.37310116825427 L 215.49999999999997 263.66403096492763 L 215.49999999999997 263.66403096492786 L 216.49999999999997 261.93635640251426 L 216.49999999999997 261.93635640251443 L 217.49999999999997 260.1901659775552 L 217.49999999999997 260.19016597755535 L 218.49999999999997 258.42555647440633 L 218.49999999999997 258.42555647440656 L 219.49999999999997 256.6426330642854 L 219.49999999999997 256.6426330642856 L 220.49999999999997 254.84150940098098 L 220.49999999999997 254.84150940098118 L 221.49999999999997 253.02230771309553 L 221.49999999999997 253.02230771309576 L 222.49999999999997 251.18515889269506 L 222.49999999999997 251.1851588926953 L 223.49999999999997 249.3302025802396 L 223.49999999999997 249.3302025802398 L 224.49999999999997 247.4575872456681 L 224.49999999999997 247.45758724566832 L 225.49999999999997 245.56747026551506 L 225.49999999999997 245.56747026551528 L 226.49999999999997 243.6600179959347 L 226.49999999999997 243.66001799593494 L 227.49999999999997 241.73540584151144 L 227.49999999999997 241.7354058415117 L 228.49999999999997 239.79381831973683 L 228.49999999999997 239.79381831973706 L 229.49999999999997 237.83544912103494 L 229.49999999999997 237.83544912103517 L 230.49999999999997 235.86050116421848 L 230.49999999999997 235.8605011642187 L 231.49999999999997 233.86918664726278 L 231.49999999999997 233.869186647263 L 232.49999999999997 231.86172709328366 L 232.49999999999997 231.86172709328392 L 233.49999999999997 229.83835339160999 L 233.49999999999997 229.83835339161018 L 234.5 227.79930583384262 L 234.5 227.79930583384285 L 235.5 225.74483414479516 L 235.5 225.74483414479536 L 236.49999999999994 223.67519750821265 L 236.49999999999994 223.67519750821288 L 237.49999999999997 221.59066458716998 L 237.49999999999997 221.5906645871702 L 238.49999999999997 219.4915135390523 L 238.49999999999997 219.4915135390525 L 239.49999999999997 217.37803202502374 L 239.49999999999997 217.37803202502397 L 240.49999999999997 215.25051721389445 L 240.49999999999997 215.25051721389468 L 241.49999999999997 213.1092757802986 L 241.49999999999997 213.10927578029882 L 242.49999999999997 210.95462389709954 L 242.49999999999997 210.95462389709976 L 243.5 208.7868872219428 L 243.5 208.78688722194303 L 244.5 206.60640087788028 L 244.5 206.6064008778805 L 245.49999999999994 204.41350942799343 L 245.49999999999994 204.41350942799366 L 246.49999999999997 202.20856684394724 L 246.49999999999997 202.2085668439475 L 247.49999999999997 199.99193646841144 L 247.49999999999997 199.9919364684117 L 248.49999999999997 197.76399097128817 L 248.49999999999997 197.76399097128842 L 249.49999999999997 195.52511229969156 L 249.49999999999997 195.5251122996918 L 250.49999999999997 193.275691621628 L 250.49999999999997 193.2756916216282 L 251.49999999999997 191.01612926333053 L 251.49999999999997 191.01612926333078 L 252.5 188.74683464020677 L 252.5 188.74683464020703 L 253.5 186.4682261813623 L 253.5 186.46822618136252 L 254.49999999999994 184.18073124766903 L 254.49999999999994 184.18073124766926 L 255.49999999999997 181.88478604335077 L 255.49999999999997 181.88478604335108 L 256.5 179.58083552106558 L 256.5 179.58083552106584 L 257.5 177.26933328046678 L 257.5 177.26933328046707 L 258.5 174.95074146023347 L 258.5 174.9507414602338 L 259.5 172.62553062356335 L 259.5 172.62553062356363 L 260.5 170.2941796371283 L 260.5 170.2941796371286 L 261.5 167.9571755434978 L 261.5 167.95717554349815 L 262.5 165.61501342704108 L 262.5 165.61501342704142 L 263.5 163.26819627332404 L 263.5 163.26819627332432 L 264.5 160.91723482202406 L 264.5 160.91723482202437 L 265.5 158.56264741338987 L 265.5 158.5626474133902 L 266.5 156.2049598282804 L 266.5 156.20495982828075 L 267.5 153.84470512182185 L 267.5 153.8447051218222 L 268.5 151.4824234507295 L 268.5 151.48242345072978 L 269.5 149.11866189434414 L 269.5 149.11866189434446 L 270.5 146.75397426944116 L 270.5 146.75397426944147 L 271.5 144.38892093887543 L 271.5 144.38892093887577 L 272.5 142.0240686141304 L 272.5 142.02406861413067 L 273.5 139.6599901518471 L 273.5 139.65999015184735 L 274.5 137.2972643444135 L 274.5 137.2972643444138 L 275.5 134.93647570470117 L 275.5 134.93647570470148 L 276.5 132.57821424504172 L 276.5 132.57821424504203 L 277.5 130.22307525054177 L 277.5 130.22307525054205 L 278.5 127.87165904684065 L 278.5 127.87165904684093 L 279.5 125.52457076242106 L 279.5 125.52457076242138 L 280.5 123.18242008558857 L 280.5 123.18242008558889 L 281.5 120.84582101624122 L 281.5 120.84582101624156 L 282.5 118.51539161255701 L 282.5 118.51539161255735 L 283.5 116.19175373273151 L 283.5 116.1917537327318 L 284.5 113.87553277190386 L 284.5 113.8755327719042 L 285.5 111.56735739441524 L 285.5 111.56735739441552 L 286.5 109.2678592615485 L 286.5 109.26785926154878 L 287.5 106.9776727549027 L 287.5 106.97767275490298 L 288.5 104.6974346955634 L 288.5 104.69743469556369 L 289.5 102.42778405923053 L 289.5 102.42778405923087 L 290.5 100.16936168747623 L 290.5 100.16936168747651 L 291.5 97.9228099953038 L 291.5 97.92280999530419 L 292.5 95.68877267518894 L 292.5 95.68877267518928 L 293.5 93.46789439778445 L 293.5 93.46789439778479 L 294.5 91.26082050947804 L 294.5 91.26082050947838 L 295.5 89.06819672699339 L 295.5 89.06819672699368 L 296.5 86.8906688292322 L 296.5 86.89066882923254 L 297.5 84.72888234655596 L 297.5 84.7288823465563 L 298.49999999999994 82.5834822477118 L 298.49999999999994 82.58348224771203 L 299.5 80.4551126246094 L 299.5 80.45511262460974 L 300.5 78.34441637516153 L 300.5 78.34441637516187 L 301.5 76.25203488439968 L 301.5 76.25203488439996 L 302.49999999999994 74.17860770408407 L 302.49999999999994 74.1786077040843 L 303.5 72.1247722310278 L 303.5 72.12477223102815 L 304.5 70.09116338435837 L 304.5 70.09116338435865 L 305.5 68.07841328194036 L 305.5 68.07841328194064 L 306.5 66.08715091618956 L 306.5 66.08715091618996 L 307.5 64.11800182950708 L 307.5 64.11800182950736 L 308.5 62.171587789564455 L 308.5 62.171587789564796 L 309.5 60.24852646467582 L 309.5 60.248526464676104 L 310.5 58.34943109948949 L 310.5 58.349431099489834 L 311.49999999999994 56.474910191237484 L 311.49999999999994 56.47491019123788 L 312.49999999999994 54.625567166778524 L 312.49999999999994 54.625567166778865 L 313.5 52.8020000606744 L 313.5 52.80200006067474 L 314.5 51.00480119453778 L 314.5 51.00480119453806 L 315.5 49.23455685789048 L 315.5 49.23455685789082 L 316.5 47.491846990772444 L 316.5 47.49184699077273 L 317.5 45.77724486834006 L 317.5 45.777244868340404 L 318.5 44.0913167876933 L 318.5 44.09131678769364 L 319.5 42.43462175717019 L 319.5 42.43462175717053 L 320.5 40.80771118834616 L 320.5 40.807711188346445 L 321.5 39.21112859097525 L 321.5 39.211128590975534 L 322.5 37.64540927110903 L 322.5 37.64540927110937 L 323.5 36.11108003262706 L 323.5 36.1110800326274 L 324.5 34.608658882410566 L 324.5 34.60865888241085 L 325.5 33.1386547393916 L 325.5 33.13865473939188 L 326.49999999999994 31.701567147704452 L 326.49999999999994 31.701567147704736 L 327.5 30.29788599416588 L 327.5 30.297885994166165 L 328.5 28.928091230307643 L 328.5 28.928091230307984 L 329.5 27.592652599181406 L 329.5 27.592652599181747 L 330.5 26.292029367153873 L 330.5 26.292029367154157 L 331.49999999999994 25.02667006090593 L 331.49999999999994 25.02667006090627 L 332.5 23.79701220984731 L 332.5 23.797012209847594 L 333.5 22.6034820941519 L 333.5 22.603482094152298 L 334.5 21.446494498619188 L 334.5 21.44649449861953 L 335.49999999999994 20.32645247255789 L 335.49999999999994 20.326452472558174 L 336.49999999999994 19.24374709588909 L 336.49999999999994 19.243747095889432 L 337.5 18.198757251656332 L 337.5 18.19875725165673 L 338.49999999999994 17.191849405129858 L 338.49999999999994 17.1918494051302 L 339.5 16.223377389683094 L 339.5 16.223377389683435 L 340.5 15.29368219961924 L 340.5 15.293682199619582 L 341.5 14.403091790114786 L 341.5 14.403091790115127 L 342.49999999999994 13.551920884446645 L 342.49999999999994 13.551920884446929 L 343.49999999999994 12.740470788659593 L 343.49999999999994 12.740470788659934 L 344.49999999999994 11.969029213828946 L 344.49999999999994 11.969029213829344 L 345.49999999999994 11.237870106062417 L 345.49999999999994 11.237870106062758 L 346.5 10.547253484384669 L 346.5 10.54725348438501 L 347.49999999999994 9.897425286636576 L 347.49999999999994 9.89742528663686 L 348.49999999999994 9.288617223518713 L 348.49999999999994 9.288617223518997 L 349.49999999999994 8.72104664089892 L 349.49999999999994 8.72104664089926 L 350.49999999999994 8.194916390499714 L 350.49999999999994 8.194916390500055 L 351.49999999999994 7.7104147090723245 L 351.49999999999994 7.710414709072666 L 352.49999999999994 7.267715106158505 L 352.49999999999994 7.267715106158846 L 353.49999999999994 6.8669762605339315 L 353.49999999999994 6.866976260534273 L 354.49999999999994 6.508341925419643 L 354.49999999999994 6.508341925419984 L 355.49999999999994 6.191940842540191 L 355.49999999999994 6.191940842540475 L 356.49999999999994 5.917886665101548 L 356.49999999999994 5.9178866651018325 L 357.49999999999994 5.6862778897523185 L 357.49999999999994 5.68627788975266 L 358.49999999999994 5.497197797585898 L 358.49999999999994 5.497197797586239 L 359.49999999999994 5.350714404232235 L 359.49999999999994 5.350714404232576 L 360.49999999999994 5.246880419082288 L 360.49999999999994 5.246880419082629 L 361.49999999999994 5.185733213678361 L 361.49999999999994 5.185733213678702 L 362.49999999999994 5.167195033516805 L 362.49999999999994 5.167294799297338 L 363.49999999999994 5.191571813745611 L 363.49999999999994 5.19157181374527 L 364.49999999999994 5.2585555173754415 L 364.49999999999994 5.2585555173751 L 365.49999999999994 5.36822179833041 L 365.49999999999994 5.368221798330126 L 366.49999999999994 5.5205311870093965 L 366.49999999999994 5.520531187009055 L 367.49999999999994 5.715428879741182 L 367.49999999999994 5.715428879740898 L 368.49999999999994 5.952844771649268 L 368.49999999999994 5.95284477164887 L 369.49999999999994 6.23269349867752 L 369.49999999999994 6.232693498677179 L 370.49999999999994 6.554874488744019 L 370.49999999999994 6.554874488743678 L 371.49999999999994 6.919272021977008 L 371.49999999999994 6.919272021976667 L 372.49999999999994 7.325755299985929 L 372.49999999999994 7.325755299985531 L 373.49999999999994 7.774178524106276 L 373.49999999999994 7.774178524105935 L 374.5 8.264380982555224 L 374.5 8.26438098255494 L 375.49999999999994 8.796187146423733 L 375.49999999999994 8.79618714642345 L 376.49999999999994 9.369406774424647 L 376.49999999999994 9.369406774424306 L 377.49999999999994 9.983835026310942 L 377.49999999999994 9.9838350263106 L 378.49999999999994 10.63925258486745 L 378.49999999999994 10.639252584867108 L 379.49999999999994 11.335425786375481 L 379.49999999999994 11.33542578637514 L 380.49999999999994 12.072106759442022 L 380.49999999999994 12.07210675944168 L 381.49999999999994 12.84903357207645 L 381.49999999999994 12.849033572076053 L 382.49999999999994 13.665930386894559 L 382.49999999999994 13.665930386894217 L 383.5 14.522507624320042 L 383.5 14.522507624319758 L 384.49999999999994 15.418462133648063 L 384.49999999999994 15.418462133647722 L 385.49999999999994 16.353477371830365 L 385.49999999999994 16.353477371830024 L 386.49999999999994 17.327223589833466 L 386.49999999999994 17.327223589833125 L 387.49999999999994 18.33935802641696 L 387.49999999999994 18.339358026416676 L 388.49999999999994 19.389525109172382 L 388.49999999999994 19.389525109171984 L 389.49999999999994 20.477356662656973 L 389.49999999999994 20.477356662656632 L 390.49999999999994 21.60247212345314 L 390.49999999999994 21.602472123452742 L 391.49999999999994 22.764478761976477 L 391.49999999999994 22.764478761976136 L 392.49999999999994 23.962971910852275 L 392.49999999999994 23.962971910851877 L 393.49999999999994 25.197535199674235 L 393.49999999999994 25.197535199673894 L 394.5 26.46774079595508 L 394.5 26.467740795954796 L 395.49999999999994 27.773149652073812 L 395.49999999999994 27.77314965207347 L 396.5 29.11331175802013 L 396.5 29.113311758019847 L 397.5 30.487766399733005 L 397.5 30.48776639973272 L 398.5 31.896042422824962 L 398.5 31.89604242282462 L 399.49999999999994 33.33765850148188 L 399.49999999999994 33.33765850148154 L 400.49999999999994 34.81212341232322 L 400.49999999999994 34.812123412322876 L 401.5 36.318936313005054 L 401.5 36.31893631300471 L 402.5 37.857587025344515 L 402.5 37.85758702534423 L 403.49999999999994 39.427556322742646 L 403.49999999999994 39.427556322742305 L 404.49999999999994 41.02831622167872 L 404.49999999999994 41.02831622167844 L 405.49999999999994 42.65933027704767 L 405.49999999999994 42.65933027704733 L 406.5 44.32005388111014 L 406.5 44.3200538811098 L 407.5 46.00993456582165 L 407.5 46.00993456582131 L 408.49999999999994 47.72841230830733 L 408.49999999999994 47.728412308306986 L 409.49999999999994 49.47491983924664 L 409.49999999999994 49.4749198392463 L 410.5 51.24888295392981 L 410.5 51.248882953929524 L 411.5 53.04972082574966 L 411.5 53.04972082574926 L 412.49999999999994 54.87684632188905 L 412.49999999999994 54.876846321888706 L 413.49999999999994 56.729666320965976 L 413.49999999999994 56.729666320965634 L 414.49999999999994 58.6075820323951 L 414.49999999999994 58.60758203239476 L 415.5 60.50998931722842 L 415.5 60.509989317228076 L 416.5 62.43627901023399 L 416.5 62.436279010233704 L 417.49999999999994 64.38583724297541 L 417.49999999999994 64.38583724297507 L 418.49999999999994 66.35804576765264 L 418.49999999999994 66.35804576765224 L 419.49999999999994 68.35228228146781 L 419.49999999999994 68.35228228146747 L 420.5 70.36792075127943 L 420.5 70.36792075127909 L 421.49999999999994 72.40433173830962 L 421.49999999999994 72.40433173830928 L 422.49999999999994 74.46088272267247 L 422.49999999999994 74.46088272267212 L 423.49999999999994 76.53693842749021 L 423.49999999999994 76.53693842748993 L 424.5 78.63186114236879 L 424.5 78.6318611423685 L 425.5 80.74501104600472 L 425.5 80.74501104600444 L 426.49999999999994 82.87574652769825 L 426.49999999999994 82.87574652769797 L 427.5 85.0234245075506 L 427.5 85.0234245075502 L 428.5 87.18740075512449 L 428.5 87.18740075512414 L 429.5 89.3670302063527 L 429.5 89.36703020635235 L 430.49999999999994 91.56166727847904 L 430.49999999999994 91.5616672784787 L 431.49999999999994 93.77066618282288 L 431.49999999999994 93.77066618282254 L 432.5 95.99338123515889 L 432.5 95.99338123515861 L 433.5 98.22916716351051 L 433.5 98.22916716351017 L 434.5 100.47737941315506 L 434.5 100.47737941315472 L 435.49999999999994 102.73737444864804 L 435.49999999999994 102.73737444864776 L 436.49999999999994 105.00851005267288 L 436.49999999999994 105.00851005267259 L 437.5 107.29014562152943 L 437.5 107.29014562152915 L 438.5 109.58164245708 L 438.5 109.58164245707965 L 439.5 111.88236405497287 L 439.5 111.88236405497258 L 440.49999999999994 114.19167638897153 L 440.49999999999994 114.19167638897122 L 441.5 116.50894819121933 L 441.5 116.50894819121899 L 442.5 118.83355122827751 L 442.5 118.83355122827717 L 443.5 121.16486057277712 L 443.5 121.16486057277677 L 444.5 123.50225487053086 L 444.5 123.50225487053058 L 445.5 125.8451166029582 L 445.5 125.84511660295789 L 446.5 128.19283234467855 L 446.5 128.19283234467827 L 447.49999999999994 130.54479301613753 L 447.49999999999994 130.54479301613722 L 448.49999999999994 132.90039413113206 L 448.49999999999994 132.90039413113178 L 449.49999999999994 135.2590360391095 L 449.49999999999994 135.25903603910925 L 450.49999999999994 137.62012416211897 L 450.49999999999994 137.62012416211866 L 451.5 139.98306922630042 L 451.5 139.98306922630013 L 452.5 142.34728748780202 L 452.5 142.3472874878017 L 453.5 144.7122009530217 L 453.5 144.71220095302144 L 454.5 147.07723759307618 L 454.5 147.07723759307586 L 455.5 149.44183155240432 L 455.5 149.441831552404 L 456.49999999999994 151.80542335142025 L 456.49999999999994 151.80542335141993 L 457.49999999999994 154.16746008313518 L 457.49999999999994 154.16746008313487 L 458.49999999999994 156.52739560367377 L 458.49999999999994 156.52739560367343 L 459.49999999999994 158.88469071661746 L 459.49999999999994 158.88469071661711 L 460.5 161.2388133511122 L 460.5 161.2388133511119 L 461.5 163.5892387336837 L 461.5 163.58923873368335 L 462.5 165.93544955371027 L 462.5 165.93544955371 L 463.5 168.27693612250872 L 463.5 168.2769361225084 L 464.5 170.6131965259938 L 464.5 170.61319652599352 L 465.49999999999994 172.9437367708792 L 465.49999999999994 172.9437367708789 L 466.49999999999994 175.26807092439242 L 466.49999999999994 175.26807092439208 L 467.49999999999994 177.58572124748196 L 467.49999999999994 177.58572124748164 L 468.49999999999994 179.8962183215017 L 468.49999999999994 179.89621832150144 L 469.5 182.19910116836195 L 469.5 182.1991011683617 L 470.5 184.49391736414265 L 470.5 184.4939173641424 L 471.5 186.78022314617007 L 471.5 186.78022314616982 L 472.5 189.05758351356323 L 472.5 189.057583513563 L 473.5 191.3255723212619 L 473.5 191.32557232126166 L 474.49999999999994 193.58377236755314 L 474.49999999999994 193.5837723675529 L 475.49999999999994 195.83177547511946 L 475.49999999999994 195.8317754751192 L 476.49999999999994 198.06918256563455 L 476.49999999999994 198.0691825656343 L 477.49999999999994 200.29560372794072 L 477.49999999999994 200.29560372794046 L 478.49999999999994 202.51065827984422 L 478.49999999999994 202.51065827984397 L 479.5 204.71397482357125 L 479.5 204.713974823571 L 480.5 206.9051912949311 L 480.5 206.90519129493083 L 481.5 209.0839550062384 L 481.5 209.08395500623814 L 482.5 211.24992268305039 L 482.5 211.24992268305016 L 483.49999999999994 213.40276049477913 L 483.49999999999994 213.40276049477887 L 484.49999999999994 215.5421440792441 L 484.49999999999994 215.54214407924394 L 485.49999999999994 217.66775856123314 L 485.49999999999994 217.66775856123294 L 486.49999999999994 219.7792985651449 L 486.49999999999994 219.7792985651447 L 487.49999999999994 221.87646822178993 L 487.49999999999994 221.87646822178974 L 488.5 223.95898116943005 L 488.5 223.95898116942982 L 489.5 226.0265605491401 L 489.5 226.0265605491399 L 490.5 228.07893899458088 L 490.5 228.07893899458068 L 491.5 230.1158586162722 L 491.5 230.115858616272 L 492.49999999999994 232.13707098046157 L 492.49999999999994 232.13707098046132 L 493.49999999999994 234.1423370826858 L 493.49999999999994 234.14233708268557 L 494.5 236.13142731612444 L 494.5 236.1314273161242 L 495.5 238.10412143484933 L 495.5 238.10412143484908 L 496.5 240.06020851207512 L 496.5 240.0602085120749 L 497.5 241.9994868935192 L 497.5 241.99948689351896 L 498.5 243.92176414598106 L 498.5 243.9217641459808 L 499.5 245.82685700125478 L 499.5 245.82685700125455 L 500.5 247.71459129548833 L 500.5 247.71459129548813 L 501.49999999999994 249.58480190410728 L 501.49999999999994 249.58480190410705 L 502.49999999999994 251.43733267242106 L 502.49999999999994 251.43733267242084 L 503.5 253.27203634203218 L 503.5 253.27203634203198 L 504.5 255.08877447317028 L 504.5 255.08877447317005 L 505.5 256.8874173630736 L 505.5 256.8874173630734 L 506.5 258.66784396054345 L 506.5 258.6678439605432 L 507.5 260.42994177679503 L 507.5 260.4299417767948 L 508.5 262.17360679273406 L 508.5 262.17360679273384 L 509.5 263.8987433627831 L 509.5 263.89874336278285 L 510.49999999999994 265.6052641153883 L 510.49999999999994 265.60526411538814 L 511.49999999999994 267.29308985033407 L 511.49999999999994 267.2930898503339 L 512.5 268.9621494329933 L 512.5 268.9621494329931 L 513.5 270.61237968564495 L 513.5 270.6123796856448 L 514.5 272.24372527598644 L 514.5 272.24372527598626 L 515.5 273.856138602971 L 515.5 273.8561386029708 L 516.5 275.4495796800989 L 516.5 275.44957968009874 L 517.5 277.02401601629265 L 517.5 277.0240160162925 L 518.5 278.57942249448377 L 518.5 278.5794224944836 L 519.5 280.11578124804043 L 519.5 280.11578124804026 L 520.5 281.6330815351635 L 520.5 281.63308153516334 L 521.5 283.1313196113782 L 521.5 283.13131961137805 L 522.5 284.61049860024724 L 522.5 284.61049860024707 L 523.5 286.070628362432 L 523.5 286.0706283624318 L 524.5 287.5117253632254 L 524.5 287.51172536322525 L 525.5 288.9338125386803 L 525.5 288.9338125386802 L 526.5 290.3369191604554 L 526.5 290.3369191604553 L 527.5 291.72108069950025 L 527.5 291.7210806995001 L 528.5 293.08633868869777 L 528.5 293.0863386886976 L 529.5 294.43274058458417 L 529.5 294.43274058458405 L 530.5 295.76033962826165 L 530.5 295.7603396282615 L 531.5 297.0691947056186 L 531.5 297.0691947056185 L 532.5 298.3593702069724 L 532.5 298.3593702069723 L 533.5 299.63093588624434 L 533.5 299.63093588624423 L 534.5 300.88396671977773 L 534.5 300.8839667197776 L 535.5 302.1185427649063 L 535.5 302.1185427649061 L 536.5 303.3347490183793 L 536.5 303.33474901837917 L 537.5 304.53267527474657 L 537.5 304.53267527474645 L 538.5 305.7124159848057 L 538.5 305.7124159848056 L 539.5 306.87407011421044 L 539.5 306.8740701142103 L 540.5 308.0177410023385 L 540.5 308.01774100233837 L 541.5 309.14353622151265 L 541.5 309.14353622151253 L 542.5 310.25156743666975 L 542.5 310.25156743666963 L 543.5 311.3419502655662 L 543.5 311.3419502655661 L 544.5 312.41480413960977 L 544.5 312.4148041396097 L 545.5 313.4702521654025 L 545.5 313.47025216540237 L 546.5 314.5084209870783 L 546.5 314.5084209870782 L 547.5 315.52944064951674 L 547.5 315.52944064951663 L 548.5 316.5334444625104 L 548.5 316.53344446251026 L 549.5 317.52056886596245 L 549.5 317.52056886596233 L 550.5 318.4909532961881 L 550.5 318.49095329618797 L 551.5 319.44474005338964 L 551.5 319.4447400533895 L 552.5 320.38207417037506 L 552.5 320.38207417037495 L 553.5 321.3031032825846 L 553.5 321.30310328258446 L 554.5 322.2079774994891 L 554.5 322.207977499489 L 555.5 323.0968492774215 L 555.5 323.09684927742137 L 556.5 323.9698732938979 L 556.5 323.96987329389776 L 557.5 324.82720632348537 L 557.5 324.82720632348526 L 558.5 325.6690071152692 L 558.5 325.6690071152691 L 559.5 326.4954362719692 L 559.5 326.4954362719691 L 560.5 327.30665613075394 L 560.5 327.3066561307539 L 561.5 328.10283064579824 L 561.5 328.1028306457982 L 562.5 328.88412527262625 L 562.5 328.88412527262614 L 563.5 329.6507068542812 L 563.5 329.6507068542811 L 564.5 330.40274350935965 L 564.5 330.40274350935954 L 565.5 331.14040452194524 L 565.5 331.14040452194513 L 566.5 331.86386023347615 L 566.5 331.8638602334761 L 567.5 332.57328193657577 L 567.5 332.5732819365757 L 568.5 333.2688417708758 L 568.5 333.2688417708757 L 569.5 333.95071262085736 L 569.5 333.95071262085725 L 570.5 334.61906801573406 L 570.5 334.61906801573394 L 571.5 335.27408203139834 L 571.5 335.2740820313983 L 572.5 335.9159291944503 L 572.5 335.91592919445026 L 573.5 336.5447843883262 L 573.5 336.54478438832615 L 574.5 337.160822761541 L 574.5 337.16082276154094 L 575.5 337.7642196380584 L 575.5 337.76421963805836 L 576.5 338.35515042979847 L 576.5 338.3551504297984 L 577.5 338.93379055129145 L 577.5 338.9337905512914 L 578.5 339.50031533648496 L 578.5 339.50031533648485 L 579.5 340.0548999577082 L 579.5 340.05489995770813 L 580.5 340.5977193467973 L 580.5 340.59771934679725 L 581.5 341.1289481183813 L 581.5 341.12894811838123 L 582.5 341.6487604953287 L 582.5 341.64876049532864 L 583.5 342.15733023635164 L 583.5 342.1573302363516 L 584.5 342.65483056576346 L 584.5 342.6548305657634 L 585.5 343.14143410538327 L 585.5 343.1414341053832 L 586.5 343.61731280857975 L 586.5 343.6173128085797 L 587.5 344.08263789644576 L 587.5 344.0826378964457 L 588.5 344.53757979609156 L 588.5 344.5375797960915 L 589.5 344.9823080810457 L 589.5 344.98230808104563 L 590.5 345.4169914137492 L 590.5 345.41699141374914 L 591.5 345.8417974901278 L 591.5 345.84179749012776 L 592.5 346.25689298622666 L 592.5 346.25689298622666 L 593.5 346.66244350688913 L 593.5 346.6624435068891 L 594.5 347.05861353646077 L 594.5 347.0586135364607 L 595.5 347.44556639149937 L 595.5 347.4455663914993 L 596.5 347.82346417546887 L 596.5 347.82346417546887 L 597.5 348.19246773539544 L 597.5 348.1924677353954 L 598.5 348.5527366204624 L 598.5 348.5527366204623 L 599.5 348.90442904251984 L 599.5 348.9044290425198 L 600.5 349.24770183848375 L 600.5 349.24770183848375 L 601.5 349.58271043459905 L 601.5 349.582710434599 L 602.5 349.90960881253864 L 602.5 349.9096088125386 L 603.5 350.22854947731264 L 603.5 350.2285494773126 L 604.5 350.5396834269577 L 604.5 350.53968342695765 L 605.5 350.84316012397903 L 605.5 350.84316012397903 L 606.5 351.1391274685143 L 606.5 351.1391274685143 L 607.5 351.42773177318986 L 607.5 351.42773177318986 L 608.5 351.70911773963877 L 608.5 351.70911773963877 L 609.5 351.98342843664886 L 609.5 351.98342843664886 L 610.5 352.2508052799095 L 610.5 352.25080527990946 L 611.5 352.5113880133251 L 611.5 352.5113880133251 L 612.5 352.7653146918627 L 612.5 352.76531469186267 L 613.5 353.0127216659012 L 613.5 353.0127216659012 L 614.5 353.25374356704873 L 614.5 353.25374356704873 L 615.5 353.48851329539536 L 615.5 353.4885132953953 L 616.5 353.7171620081676 L 616.5 353.7171620081676 L 617.5 353.93981910975083 L 617.5 353.93981910975083 L 618.5 354.156612243046 L 618.5 354.156612243046 L 619.5 354.36766728212706 L 619.5 354.367667282127 L 620.5 354.5731083261642 L 620.5 354.5731083261642 L 621.5 354.7730576945807 L 621.5 354.77305769458064 L 622.5 354.96763592340744 L 622.5 354.9676359234074 L 623.5 355.15696176280284 L 623.5 355.1569617628028 L 624.5 355.34115217570326 L 624.5 355.34115217570326 L 625.5 355.520322337571 L 625.5 355.5203223375709 L 626.5 355.69458563720525 L 626.5 355.6945856372052 L 627.5 355.8640536785841 L 627.5 355.86405367858407 L 628.5 356.0288362837027 L 628.5 356.0288362837026 L 629.5 356.1890414963753 L 629.5 356.18904149637524 L 630.5 356.3447755869689 L 630.5 356.34477558696886 L 631.5 356.4961430580349 L 631.5 356.4961430580349 L 632.5 356.6432466508068 L 632.5 356.64324665080676 L 633.5 356.7861873525327 L 633.5 356.78618735253264 L 634.5 356.9250644046097 L 634.5 356.9250644046097 L 635.5 357.05997531149035 L 635.5 357.0599753114903 L 636.5 357.19101585032837 L 636.5 357.1910158503283 L 637.5 357.3182800813353 L 637.5 357.3182800813352 L 638.5 357.4418603588156 L 638.5 357.4418603588156 L 639.5 357.5618473428525 L 639.5 357.5618473428525 L 640.5 357.67833001161375 L 640.5 357.67833001161375 L 641.5 357.79139567424886 L 641.5 357.79139567424886 L 642.5 357.90112998435006 L 642.5 357.90112998435006 L 643.5 358.00761695394783 L 643.5 358.00761695394783 L 644.5 358.11093896801435 L 644.5 358.1109389680143 L 645.5 358.2111767994474 L 645.5 358.2111767994474 L 646.5 358.30840962450884 L 646.5 358.30840962450884 L 647.5 358.4027150386904 L 647.5 358.40271503869036 L 648.5 358.4941690729827 L 648.5 358.49416907298263 L 649.5 358.58284621052155 L 649.5 358.58284621052155 L 650.5 358.66881940358786 L 650.5 358.6688194035878 L 651.5 358.7521600909358 L 651.5 358.7521600909358 L 652.5 358.8329382154278 L 652.5 358.8329382154278 L 653.5 358.9112222419523 L 653.5 358.9112222419523 L 654.5 358.9870791756013 L 654.5 358.9870791756013 L 655.5 359.0605745800882 L 655.5 359.0605745800882 L 656.5 359.131772596382 L 656.5 359.131772596382 L 657.5 359.2007359615396 L 657.5 359.2007359615396 L 658.5 359.26752602771415 L 658.5 359.26752602771415 L 659.5 359.3322027813212 L 659.5 359.33220278132114 L 660.5 359.39482486234294 L 660.5 359.39482486234294 L 661.5 359.45544958375257 L 661.5 359.45544958375257 L 662.5 359.5141329510399 L 662.5 359.5141329510399 L 663.5 359.57092968182235 L 663.5 359.57092968182235 L 664.5 359.6258932255229 L 664.5 359.6258932255229 L 665.5 359.6790757830996 L 665.5 359.6790757830996 L 666.5 359.73052832681117 L 666.5 359.73052832681117 L 667.5 359.78030062000187 L 667.5 359.78030062000187 L 668.5 359.8284412368933 L 668.5 359.8284412368933 L 669.5 359.87499758236663 L 669.5 359.87499758236663 L 670.5 359.920015911723 L 670.5 359.920015911723 L 671.5 359.96354135040866 L 671.5 359.96354135040866 L 672.5 360.00561791369176 L 672.5 360.00561791369176 L 673.5 360.04628852627906 L 673.5 360.04628852627906 L 674.5 360.0855950418605 L 674.5 360.0855950418605 L 675.5 360.12357826257124 L 675.5 360.12357826257124 L 676.5 360.16027795835913 L 676.5 360.16027795835913 L 677.5 360.19573288624883 L 677.5 360.19573288624883 L 678.5 360.22998080949145 L 678.5 360.22998080949145 L 679.5 360.2630585165915 L 679.5 360.2630585165915 L 680.5 360.2950018402017 L 680.5 360.2950018402017 L 681.5 360.32584567587713 L 681.5 360.32584567587713 L 682.5 360.3556240006809 L 682.5 360.3556240006809 L 683.5 360.3843698916341 L 683.5 360.3843698916341 L 684.5 360.4121155440019 L 684.5 360.4121155440019 L 685.5 360.43889228941 L 685.5 360.43889228941 L 686.5 360.46473061378464 L 686.5 360.46473061378464 L 687.5 360.48966017511003 L 687.5 360.48966017511003 L 688.5 360.513709820998 L 688.5 360.513709820998 L 689.5 360.53690760606383 L 689.5 360.53690760606383 L 690.5 360.55928080910496 L 690.5 360.55928080910496 L 691.5 360.58085595007566 L 691.5 360.58085595007566 L 692.5 360.60165880685605 L 692.5 360.60165880685605 L 693.5 360.6217144318095 L 693.5 360.6217144318095 L 694.5 360.64104716812625 L 694.5 360.64104716812625 L 695.5 360.65968066594917 L 695.5 360.65968066594917 L 696.5 360.6776378982794 L 696.5 360.6776378982794 L 697.5 360.6949411766585 L 697.5 360.69494117665846 L 698.5 360.7116121666256 L 698.5 360.7116121666256 L 699.5 360.727671902947 L 699.5 360.727671902947 L 700.5 360.74314080461613 L 700.5 360.74314080461613 L 701.5 360.758038689623" stroke-opacity="0.6980392156862745" stroke-linecap="round" stroke-linejoin="round" stroke-miterlimit="10" stroke-width="2.5"/><path fill="none" stroke="rgb(0,0,0)" paint-order="fill stroke markers" d=" M 228.99999999999997 361.1173049999999 L 228.99999999999997 0" stroke-opacity="0.6980392156862745" stroke-linejoin="round" stroke-miterlimit="10" stroke-width="2.5" stroke-dasharray="2.5,3"/><path fill="none" stroke="rgb(0,0,0)" paint-order="fill stroke markers" d=" M 362.43165500000003 361.1173049999999 L 362.43165500000003 5.167195033516975" stroke-opacity="0.6980392156862745" stroke-linejoin="round" stroke-miterlimit="10" stroke-width="2.5" stroke-dasharray="2.5,3"/><text fill="rgb(0,0,0)" stroke="none" font-family="geogebra-sans-serif, sans-serif" font-size="16px" font-style="normal" font-weight="normal" text-decoration="normal" x="313" y="96" text-anchor="start" dominant-baseline="alphabetic" fill-opacity="1">H</text><text fill="rgb(0,0,0)" stroke="none" font-family="geogebra-sans-serif, sans-serif" font-size="14px" font-style="normal" font-weight="normal" text-decoration="normal" x="325" y="103" text-anchor="start" dominant-baseline="alphabetic" fill-opacity="1">0</text><text fill="rgb(0,0,0)" stroke="none" font-family="geogebra-sans-serif, sans-serif" font-size="16px" font-style="normal" font-weight="normal" text-decoration="normal" x="334" y="96" text-anchor="start" dominant-baseline="alphabetic" fill-opacity="1"> accepte</text><text fill="rgb(255,102,0)" stroke="none" font-family="geogebra-sans-serif, sans-serif" font-size="16px" font-style="normal" font-weight="bold" text-decoration="normal" x="19" y="251" text-anchor="start" dominant-baseline="alphabetic" fill-opacity="1"></text><text fill="rgb(255,102,0)" stroke="none" font-family="geogebra-sans-serif, sans-serif" font-size="16px" font-style="normal" font-weight="bold" text-decoration="normal" x="19" y="275" text-anchor="start" dominant-baseline="alphabetic" fill-opacity="1">&#160; Zone </text><text fill="rgb(255,102,0)" stroke="none" font-family="geogebra-sans-serif, sans-serif" font-size="16px" font-style="normal" font-weight="bold" text-decoration="normal" x="19" y="299" text-anchor="start" dominant-baseline="alphabetic" fill-opacity="1">critique</text><g transform="scale(19,19)"><g transform="translate(18.736842105263158,20.009789473684208)"><path fill="rgb(0,0,0)" stroke="none" paint-order="stroke fill markers" d=" M 0.377 -0.6940000000000001 L 0.638 0 L 0.546 0 L 0.47000000000000003 -0.20400000000000001 L 0.179 -0.20400000000000001 L 0.10200000000000001 0 L 0.028 0 L 0.289 -0.6940000000000001 L 0.377 -0.6940000000000001 M 0.448 -0.26 L 0.357 -0.517 Q 0.328 -0.6 0.325 -0.622 L 0.324 -0.622 Q 0.318 -0.589 0.265 -0.441 L 0.2 -0.26 L 0.448 -0.26 Z"/></g></g></g></g></svg>